<svg width="829" height="771" viewBox="0 0 829 771" fill="none" xmlns="http://www.w3.org/2000/svg">
<path fill-rule="evenodd" clip-rule="evenodd" d="M402.574 23.8252C401.335 37.1442 399.037 60.4162 397.468 75.5412C395.9 90.6662 394.907 103.335 395.262 103.695C396.186 104.63 416.782 106.48 417.537 105.696C417.884 105.336 418.864 97.6872 419.714 88.6982C420.564 79.7102 421.405 72.2342 421.583 72.0852C421.761 71.9362 425.507 72.2352 429.907 72.7492C442.71 74.2452 455.902 73.2622 462.407 70.3282C469.333 67.2042 475.551 61.0072 479.084 53.7062C481.434 48.8492 481.831 46.7572 481.866 39.0412C481.914 28.5532 479.752 22.5742 473.608 16.2052C465.773 8.0822 457.432 5.5692 428.283 2.5472C417.626 1.4422 407.989 0.329196 406.868 0.0731964C404.904 -0.373804 404.744 0.513195 402.574 23.8252ZM343.907 3.0902C335.107 4.3802 321.157 6.3702 312.907 7.5142C289.917 10.7012 292.059 9.7542 292.813 16.3962C293.879 25.7992 307.208 111.675 307.673 112.14C308.301 112.769 377.76 103.421 378.689 102.582C379.119 102.194 378.879 97.1892 378.156 91.4592C377.134 83.3692 376.512 81.0882 375.373 81.2512C346.356 85.4042 328.962 87.4752 328.407 86.8432C327.529 85.8432 325.012 68.6032 325.651 67.9642C325.907 67.7072 334.232 66.3952 344.15 65.0492C370.507 61.4702 370.407 61.4912 370.407 59.7312C370.407 58.8762 369.903 54.2462 369.287 49.4412L368.166 40.7062L365.037 41.1452C363.315 41.3872 353.152 42.9082 342.452 44.5252C331.752 46.1422 322.899 47.3672 322.779 47.2462C322.306 46.7732 319.465 29.1502 319.806 28.8092C320.193 28.4212 324.213 27.8152 347.907 24.5672C368.197 21.7862 368.577 21.6942 368.024 19.7032C367.77 18.7892 367.031 14.1042 366.381 9.2912C364.987 -1.0408 367.451 -0.360798 343.907 3.0902ZM439.433 24.5552C450.442 25.8732 455.535 27.7952 457.692 31.4462C459.899 35.1832 459.883 42.0922 457.655 46.5072C454.239 53.2802 448.561 54.6632 430.945 53.0122L423.141 52.2812L423.795 44.1612C424.155 39.6952 424.727 33.2292 425.066 29.7912C425.78 22.5572 425.029 22.8312 439.433 24.5552ZM226.407 28.1082C212.02 31.2232 198.67 41.4502 195.025 52.1492C191.045 63.8302 194.086 77.3702 202.361 84.8102C210.351 91.9932 220.94 93.8772 238.026 91.1542C250.711 89.1322 254.735 89.1282 258.959 91.1322C265.855 94.4052 265.432 103.89 258.19 108.366C249.545 113.709 237.748 114.562 227.317 110.599C223.756 109.246 222.236 109.06 221.583 109.899C219.414 112.684 213.407 124.385 213.407 125.824C213.407 128.217 224.858 133.39 232.407 134.408C248.485 136.576 266.442 130.439 278.084 118.797C291.985 104.896 288.776 79.2512 272.117 71.1002C264.608 67.4262 256.387 66.9062 239.648 69.0452C231.994 70.0242 224.145 70.5272 222.206 70.1632C217.389 69.2592 214.952 66.3042 214.952 61.3632C214.952 58.0212 215.563 56.7862 218.585 54.0162C224.764 48.3542 236.662 46.1362 245.36 49.0252C248.528 50.0772 250.948 50.4002 251.503 49.8452C253.032 48.3162 261.407 34.4192 261.407 33.4112C261.407 31.9202 252.885 28.6622 246.106 27.5622C238.152 26.2712 234.408 26.3752 226.407 28.1082ZM505.774 34.3132C502.826 36.7012 501.407 39.7972 501.407 43.8402C501.407 48.9242 504.489 52.1392 511.179 54.0342C547.89 64.4332 582.56 80.3182 613.407 100.873C712.703 167.04 772.527 270.042 781.355 390.041C782.43 404.656 781.942 437.24 780.433 451.541C776.43 489.473 765.139 531.666 750.727 562.541C745.726 573.255 745.592 576.968 750.079 580.498C753.744 583.381 760.384 583.276 763.122 580.291C769.681 573.142 784.051 536.024 791.33 507.432C799.333 475.996 802.409 450.285 802.383 415.041C802.342 359.386 793.38 313.123 772.627 261.437C730.729 157.084 639.608 73.4472 528.69 37.5342C511.931 32.1072 509.005 31.6962 505.774 34.3132ZM142.907 71.6222C138.507 74.9002 134.78 78.1512 134.625 78.8472C134.279 80.3992 186.271 161.438 188.515 162.844C189.762 163.625 192.067 162.585 198.765 158.219C203.518 155.121 207.407 152.309 207.407 151.971C207.407 150.384 153.013 65.5492 152.029 65.6022C151.412 65.6352 147.307 68.3442 142.907 71.6222ZM454.412 107.285C451.564 108.29 447.898 110.917 444.407 114.456C438.108 120.841 435.601 126.668 434.384 137.747C433.638 144.549 434.552 191.927 435.99 220.948L436.68 234.854L432.793 231.777C425.027 225.627 420.688 224.06 411.407 224.053C403.986 224.048 402.172 224.419 397.117 226.976C388.08 231.547 379.498 242.345 379.429 249.232C379.398 252.285 377.986 252.839 375.955 250.594C372.612 246.9 363.292 243.29 355.783 242.779C344.822 242.033 336.807 245.054 328.826 252.94C319.12 262.53 316.222 273.68 319.825 287.572C320.605 290.578 321.11 293.172 320.947 293.335C320.784 293.497 318.252 290.573 315.319 286.836C278.616 240.056 245.73 199.705 237.096 190.855C227.655 181.179 221.028 178.106 211.01 178.761C202.41 179.323 197.004 181.857 192.044 187.652C187.232 193.273 186.077 197.284 186.611 206.512C187.013 213.446 187.566 215.166 192.112 223.631C194.891 228.806 204.506 244.966 213.477 259.541C222.448 274.116 238.493 300.441 249.131 318.041L268.475 350.041L267.691 376.041C266.212 425.097 267.721 437.989 277.169 457.041C286.598 476.052 299.979 488.773 326.194 503.646C341.294 512.214 350.448 518.739 356.614 525.331C363.221 532.394 363.955 534.104 361.728 537.24C356.595 544.47 356.197 547.422 359.862 551.086C364.672 555.897 367.857 554.65 381.707 542.541C416.48 512.137 462.549 494.52 507.907 494.282C516.707 494.236 524.83 494.502 525.958 494.874C527.115 495.255 528.592 497.18 529.349 499.295C530.087 501.355 535.126 513.709 540.548 526.748C545.971 539.787 550.407 550.636 550.407 550.858C550.407 551.079 547.144 551.334 543.157 551.423C518.473 551.979 489.068 559.437 463.543 571.614C439.309 583.175 427.407 591.521 427.407 596.952C427.407 600.779 428.972 603.265 432.544 605.112C436.63 607.225 439.05 606.501 449.481 600.049C473.317 585.305 495.258 577.106 521.907 572.984C530.487 571.658 537.047 571.391 551.72 571.772C572.946 572.323 573.988 572.037 575.054 565.377C575.552 562.268 574.195 558.329 566.097 539.377C560.848 527.092 553.351 509.166 549.437 499.541C542.278 481.937 540.092 478.541 535.919 478.541C532.673 478.541 531.701 476.894 530.341 469.085C528.73 459.834 529.665 448.223 533.048 435.462C535.546 426.04 535.812 423.411 535.818 408.041C535.826 389.313 534.4 379.316 527.902 352.541C514.544 297.502 515.905 306.576 501.456 176.208C496.644 132.787 496.385 131.154 493.267 124.388C487.497 111.87 477.623 105.434 464.475 105.62C461.413 105.663 456.884 106.413 454.412 107.285ZM122.907 127.39C119.502 129.481 102.473 147.597 91.278 161.041C46.401 214.931 17.731 275.547 6.017 341.31C1.219 368.242 -0.000999386 382.892 6.1409e-07 413.541C0.00300061 464.297 5.993 499.158 22.569 544.882C44.707 605.948 84.64 663.911 132.907 705.04C148.584 718.399 151.825 720.541 156.358 720.541C162.181 720.541 167.313 714.288 165.949 708.854C165.622 707.549 159.56 701.758 151.644 695.188C93.096 646.593 48.876 575.421 30.419 500.077C23.155 470.422 20.407 446.529 20.407 413.02C20.407 313.791 56.796 224.846 127.657 150.875C137.317 140.791 138.407 139.283 138.407 135.997C138.407 133.172 137.634 131.568 135.007 128.941C131.087 125.021 127.513 124.563 122.907 127.39ZM472.12 127.953C477.032 132.086 478.17 137.341 482.962 178.041C484.323 189.591 486.572 208.491 487.96 220.041C489.349 231.591 492.239 255.666 494.384 273.541C498.245 305.735 500.209 316.06 509.407 352.541C515.702 377.507 517.734 390.909 517.822 408.041C517.897 422.644 517.646 425.045 514.954 435.541C512.411 445.458 511.998 448.933 511.956 460.791C511.923 470.13 511.553 474.54 510.802 474.541C510.195 474.541 503.895 474.996 496.802 475.552C474.214 477.323 450.767 482.647 432.518 490.149C415.723 497.054 390.342 511.587 380.08 520.175C378.526 521.476 376.951 522.529 376.58 522.515C376.21 522.501 374.332 520.169 372.407 517.332C367.737 510.45 356.317 500.858 344.529 493.917C318.748 478.735 315.774 476.726 308.442 469.541C298.622 459.918 293.828 452.478 289.438 440.041L285.907 430.041V387.04V344.039L266.962 312.54C256.543 295.216 243.76 274.066 238.556 265.541C202.623 206.676 203.035 207.448 204.394 201.528C205.2 198.015 210.585 195.445 214.679 196.619C220.116 198.178 225.461 204.151 266.512 254.541C276.145 266.366 294.132 288.416 306.481 303.541C330.426 332.867 334.407 337.894 334.407 338.809C334.407 339.127 331.27 341.473 327.435 344.022C316.065 351.581 309.518 360.54 304.767 375.041C302.499 381.963 302.08 385.266 301.655 399.547C301.057 419.651 302.122 426.282 306.547 430.006C310.187 433.068 314.261 433.258 317.218 430.502C318.422 429.381 319.44 428.143 319.48 427.752C319.52 427.361 319.676 418.491 319.826 408.041C320.122 387.402 321.184 381.396 326.152 372.268C327.626 369.56 330.919 365.476 333.469 363.193C338.879 358.35 407.396 316.971 412.703 315.342C419.224 313.341 423.407 317.983 423.407 327.221C423.407 339.178 411.262 350.478 377.407 370.021C362.77 378.47 359.407 381.299 359.407 385.163C359.407 388.021 361.108 391.69 362.935 392.775C363.615 393.178 366.959 395.866 370.365 398.746C379.044 406.086 385.37 415.969 389.377 428.449C391.177 434.055 393.302 439.294 394.1 440.091C394.897 440.889 397.285 441.541 399.406 441.541C402.417 441.541 403.739 440.939 405.441 438.791C407.301 436.444 407.55 435.141 407.138 429.902C406.859 426.362 405.572 421.396 404.096 418.173L401.537 412.583L405.705 411.461C415.419 408.845 426.411 400.235 430.751 391.843L432.345 388.761L436.626 390.901C443.244 394.209 456.934 393.966 464.527 390.406C478.733 383.745 485.733 372.24 485.561 355.834C485.464 346.604 483.658 341.289 468.64 306.041C462.078 290.641 456.228 276.466 455.641 274.541C454.991 272.412 454.09 245.766 453.343 206.541C452.213 147.312 452.248 141.578 453.763 136.378C456.712 126.254 465.376 122.278 472.12 127.953ZM516.455 137.339C512.981 140.813 512.301 146.517 514.916 150.25C515.745 151.435 523.47 156.136 532.081 160.697C567.273 179.337 597.123 202.399 618.987 227.84C655.575 270.414 676.647 316.864 685.536 374.541C688.53 393.973 688.818 433.628 686.099 452.041C675.581 523.245 638.478 587.522 584.29 628.414C580.65 631.16 577.388 634.149 577.04 635.056C574.897 640.64 578.211 647.038 583.789 648.085C588.46 648.961 592.427 646.947 603.407 638.123C652.708 598.501 689.247 537.711 702.783 472.789C707.255 451.341 707.91 443.626 707.854 413.041C707.796 381.811 706.826 372.531 700.81 345.696C690.187 298.314 668.048 254.027 636.797 217.647C611.997 188.776 577.971 161.837 542.088 142.661C525.226 133.65 521.018 132.776 516.455 137.339ZM540.098 220.791C534.212 232.479 529.398 242.739 529.401 243.591C529.412 246.543 531.738 247.541 538.607 247.541C544.084 247.541 545.407 247.843 545.407 249.092C545.407 249.945 543.808 256.992 541.854 264.753C538.641 277.51 538.449 279.012 539.854 280.416C542.009 282.571 543.115 281.296 549.719 269.041C552.684 263.541 558.101 253.719 561.758 247.214C565.415 240.709 568.407 234.795 568.407 234.071C568.407 232.079 566.022 231.541 557.194 231.541H549.145L549.711 228.291C550.023 226.503 551.408 219.673 552.791 213.112C554.173 206.551 555.076 200.814 554.796 200.362C554.517 199.911 553.504 199.541 552.545 199.541C551.277 199.541 547.881 205.338 540.098 220.791ZM160.831 214.508C158.284 215.539 152.971 221.902 143.689 235.041C97.058 301.045 78.223 381.632 90.517 462.541C98.414 514.512 121.321 564.479 156.762 607.041C164.326 616.125 182.553 634.494 185.607 636.111C189.813 638.338 193.233 637.868 196.484 634.618C198.624 632.478 199.407 630.738 199.407 628.121C199.407 624.921 198.172 623.256 187.623 612.226C172.678 596.601 164.522 586.478 153.229 569.541C143.096 554.344 129.66 527.775 123.393 510.541C103.459 455.727 101.124 392.398 116.982 336.733C126.873 302.012 147.593 261.269 168.688 235.063C175.292 226.859 176.034 224.665 173.801 219.959C171.295 214.678 165.956 212.434 160.831 214.508ZM420.368 245.021C425.945 247.905 427.709 251.36 438 279.541C441.112 288.066 448.371 305.841 454.129 319.041C459.887 332.241 465.226 345.066 465.992 347.541C470.48 362.036 464.643 373.276 452.086 374.318C442.994 375.072 437.282 370.932 431.261 359.223L429.297 355.405L432.964 351.346C434.981 349.114 438.005 344.352 439.684 340.763C445.361 328.63 443.571 313.553 435.342 304.204C428.774 296.743 420.539 294.099 409.086 295.775C407.66 295.983 406.513 294.2 403.791 287.541C393.991 263.565 393.952 249.251 403.677 245.024C407.942 243.169 416.785 243.168 420.368 245.021ZM360.978 263.434C363.217 264.451 366.51 267.028 368.297 269.162C372.061 273.656 388.585 306.704 387.581 307.73C386.456 308.88 353.189 328.66 352.92 328.34C352.019 327.268 339.443 290.036 338.532 285.742C336.893 278.02 337.116 275.517 339.952 269.826C341.888 265.942 343.384 264.351 346.202 263.181C351.176 261.118 356.062 261.201 360.978 263.434ZM176.417 295.029C175.012 296.722 177.151 300.502 186.845 313.459L192.395 320.877L184.651 325.085C180.392 327.399 176.77 329.978 176.603 330.816C176.313 332.272 181.601 337.096 205.737 357.393C215.495 365.598 219.46 367.282 220.175 363.525C220.334 362.691 216.626 356.732 211.935 350.283C207.245 343.834 203.407 338.216 203.408 337.799C203.408 337.382 206.417 335.241 210.094 333.041C213.77 330.841 216.941 328.527 217.14 327.9C217.558 326.579 180.798 293.541 178.91 293.541C178.218 293.541 177.096 294.21 176.417 295.029ZM415.209 374.807C415.862 384.768 407.927 393.291 396.387 395.021C392.148 395.657 391.683 395.484 388.151 391.951C386.092 389.892 384.407 387.944 384.407 387.623C384.407 387.301 386.405 385.977 388.848 384.682C391.29 383.386 397.703 379.461 403.098 375.959C408.493 372.458 413.357 369.729 413.907 369.895C414.457 370.061 415.043 372.272 415.209 374.807ZM316.572 586.718C262.481 593.498 211.198 634.593 201.028 679.309C196.668 698.48 202.107 712.072 215.725 716.031C221.662 717.757 224.323 717.236 228.157 713.598C231.516 710.411 230.991 707.935 226.331 704.993C216.396 698.721 215.869 683.917 224.9 664.769C231.903 649.919 243.63 635.848 257.741 625.365C284.447 605.524 321.406 595 347.378 599.84L353.849 601.046L348.866 604.704C341.865 609.843 326.037 626.457 318.534 636.541C312.598 644.521 299.881 665.369 281.935 696.541C259.194 736.045 239.689 754.638 220.86 754.763C213.416 754.812 211.443 754.231 204.122 749.831C197.855 746.064 196.02 746.103 194.226 750.039C191.809 755.343 197.737 762.326 207.907 766.157C214.911 768.796 228.688 768.57 237.116 765.678C249.451 761.445 259.351 754.566 271.407 741.85C286.989 725.415 293.829 714.921 323.755 661.541C332.733 645.525 338.017 637.259 346.574 625.844C354.232 615.627 363.748 606.541 366.79 606.541C369.546 606.541 377.496 615.071 380.299 621.034C383.776 628.431 384.248 639.187 381.461 647.541C377.572 659.203 367.424 671.257 359.495 673.633C356.473 674.538 354.795 674.356 349.389 672.532C341.32 669.81 328.303 669.509 323.611 671.935C317.059 675.323 315.651 680.939 320.209 685.497C323.659 688.947 329.941 689.969 339.907 688.701C343.757 688.212 347.841 688.159 348.982 688.585C352.142 689.763 354.326 693.844 356.619 702.853C358.475 710.147 358.574 711.805 357.523 718.041C356.246 725.616 352.109 735.443 347.84 741.04C341.61 749.208 328.796 755.541 318.499 755.541C309.842 755.541 303.768 752.984 297.547 746.72C294.445 743.596 290.293 739.026 288.321 736.562L284.735 732.084L282.141 734.884C279.643 737.579 279.596 737.85 280.884 742.131C286.271 760.031 304.463 771.746 324.49 770.211C350.67 768.204 372.338 748.513 376.409 723.03C378.228 711.644 373.553 694.478 366.681 687.305C365.235 685.796 364.245 684.423 364.48 684.253C364.715 684.084 368.311 682.296 372.47 680.28C392.422 670.615 404.679 648.026 400.514 628.603C398.225 617.932 391.428 607.641 383.105 602.248L378.262 599.11L382.584 597.066C387.643 594.675 388.611 591.745 385.403 588.537C382.934 586.068 379.771 586.356 372.199 589.739L367.492 591.843L359.699 589.691C344.663 585.538 332.614 584.708 316.572 586.718ZM758.594 608.354C757.597 609.351 754.384 614.638 751.453 620.104C748.522 625.569 740.85 639.266 734.404 650.541C727.957 661.816 721.248 673.886 719.494 677.363L716.305 683.686L714.098 680.363C707.809 670.896 692.302 670.047 675.907 678.272C663.718 684.387 648.348 698.521 635.92 715.041C627.509 726.223 620.066 734.04 610.535 741.704C595.633 753.685 586.407 755.829 586.407 747.309C586.407 743.086 588.271 739.318 597.342 725.203C612.691 701.319 616.282 690.097 611.546 680.814C605.295 668.561 585.93 670.099 567.157 684.34C563.445 687.157 560.407 689.239 560.407 688.968C560.407 688.696 561.532 686.254 562.907 683.541C567.011 675.443 566.358 674.541 556.397 674.541C552.702 674.541 550.031 675.059 549.141 675.949C547.439 677.652 544.468 682.428 532.91 702.041C522.429 719.827 517.745 726.159 509.242 734.037C492.829 749.244 478.083 756.817 473.607 752.341C470.085 748.819 473.151 740.189 484.331 722.153C496.718 702.168 510.407 678.112 510.407 676.327C510.407 674.037 506.581 673.123 500.168 673.883C494.452 674.56 491.297 676.925 488.289 682.791C485.945 687.362 484.853 687.52 484.03 683.407C483.206 679.285 477.29 673.797 472.753 672.946C470.774 672.575 465.799 672.525 461.697 672.835C449.337 673.77 436.184 681.024 421.596 694.951C414.328 701.889 403.839 715.656 400.016 723.274C394.334 734.598 392.828 747.525 396.379 754.486C400.264 762.101 406.701 765.042 417.911 764.322C424.013 763.931 426.362 763.2 432.976 759.632C437.286 757.307 443.592 753.221 446.99 750.551L453.167 745.696L453.628 750.491C454.525 759.823 460.555 764.541 471.586 764.541C476.822 764.541 479.276 763.912 485.301 761.025C489.336 759.091 495.286 755.495 498.522 753.033C501.759 750.572 504.407 748.73 504.407 748.94C504.407 749.151 503.517 751.284 502.429 753.682C501.341 756.079 500.441 758.811 500.429 759.752C500.399 762.078 507.23 763.84 512.952 762.982L517.389 762.317L527.148 746.185C539.377 725.97 546.229 716.703 557.75 704.794C573.089 688.938 587.773 680.93 594.012 685.018C596.086 686.377 596.459 687.219 595.939 689.372C594.927 693.563 590.944 700.736 580.716 716.79C568.575 735.845 566.01 741.391 565.952 748.715C565.903 754.855 567.567 758.081 572.796 761.979C575.071 763.676 577.009 764.036 583.734 764.01C590.929 763.984 592.641 763.6 598.046 760.802C603.79 757.829 616.087 748.733 622.907 742.413L625.907 739.633V746.915C625.907 753.399 626.223 754.611 628.789 757.975C630.374 760.053 633.172 762.38 635.007 763.147C640.044 765.252 651.36 764.924 657.522 762.496C662.903 760.375 675.86 751.908 678.95 748.494C681.52 745.654 682.09 746.033 682.644 750.95C683.258 756.397 686.64 761.323 691.024 763.154C692.849 763.917 697.23 764.541 700.759 764.541C706.23 764.541 708.335 763.96 715.046 760.601C731.638 752.297 756.653 727.386 770.347 705.531C774.572 698.787 774.319 699.12 774.83 699.631C775.063 699.863 775.761 704.669 776.382 710.31C778.439 729.005 774.325 743.861 765.374 750.064C758.264 754.991 748.902 754.294 744.004 748.474C741.122 745.049 740.3 744.896 738.062 747.37C735.972 749.679 735.925 755.408 737.973 758.332C742.768 765.177 759.327 767.598 773.973 763.595C791.19 758.888 808.835 746.167 823.482 727.899C828.553 721.575 829.621 717.793 826.959 715.584C825.132 714.068 823.618 714.958 819.378 720.041C810.058 731.215 794.227 745.694 792.842 744.31C792.584 744.051 793.055 740.593 793.889 736.625C795.789 727.595 795.763 721.231 793.784 711.041C789.764 690.34 789.564 688.376 790.991 683.57C791.837 680.72 793.86 677.528 796.377 675.071C800.882 670.671 801.473 667.607 798.407 664.541C796.147 662.281 791.1 661.943 787.741 663.826C784.645 665.562 782.52 668.533 774.442 682.41C754.935 715.926 732.025 741.808 713.762 750.962C707.08 754.311 703.722 754.326 702.212 751.012C700.218 746.636 703.468 739.58 721.544 709.041C752.343 657.006 779.083 608.55 777.74 607.207C777.374 606.841 773.324 606.541 768.74 606.541C762.027 606.541 760.055 606.893 758.594 608.354ZM475.657 685.621C479.792 690.681 476.716 699.59 464.636 717.541C457.921 727.519 447.034 739.427 439.407 745.137C434.32 748.945 424.342 753.539 421.157 753.54C414.113 753.542 412.135 744.957 416.665 734.041C422.753 719.372 443.007 694.923 454.751 688.068C464.921 682.132 472.117 681.29 475.657 685.621ZM705.952 684.996C709.302 688.345 709.067 691.719 704.88 700.458C697.452 715.956 686.09 731.025 674.101 741.278C666.997 747.352 655.477 753.541 651.273 753.541C644.876 753.541 642.563 746.336 646.063 737.311C651.307 723.786 668.561 701.05 680.62 691.774C692.502 682.634 701.25 680.293 705.952 684.996Z" fill="black"/>
</svg>
