<svg width="400" height="94" viewBox="0 0 400 94" fill="none" xmlns="http://www.w3.org/2000/svg">
<path d="M211.2 37.5996H139.2V93.5996H211.2V37.5996Z" fill="#AF7D19"/>
<path d="M211.2 34.4002C212.8 32.0002 213.6 28.8002 212 26.4002L208.8 20.8002C207.2 18.4002 204 16.8002 201.6 17.6002C202.4 15.2002 201.6 12.0002 198.4 10.4002L192.8 7.2002C190.4 5.6002 187.2 6.4002 185.6 8.0002C185.6 8.0002 185.6 8.0002 184.8 8.0002C184 5.6002 181.6 3.2002 178.4 3.2002H172C168.8 3.2002 166.4 5.6002 165.6 8.0002C165.6 8.0002 165.6 8.0002 164.8 8.0002C163.2 5.6002 160 5.6002 156.8 7.2002L152 10.4002C149.6 12.0002 148 14.4002 148.8 17.6002C146.4 16.8002 143.2 17.6002 141.6 20.8002L138.4 26.4002C136.8 28.8002 137.6 32.0002 139.2 33.6002C139.2 33.6002 139.2 33.6002 139.2 34.4002C136.8 35.2002 134.4 37.6002 134.4 40.8002V47.2002C134.4 50.4002 136.8 52.8002 139.2 53.6002C139.2 53.6002 139.2 53.6002 139.2 54.4002C137.6 56.0002 136.8 59.2002 138.4 61.6002L141.6 67.2002C143.2 69.6002 146.4 71.2002 148.8 70.4002C148 72.8002 148.8 76.0002 152 77.6002L157.6 80.8002C160 82.4002 163.2 81.6002 165.6 80.0002C165.6 80.0002 165.6 80.0002 166.4 80.0002C167.2 82.4002 169.6 84.8002 172.8 84.8002H179.2C182.4 84.8002 184.8 82.4002 185.6 80.0002C185.6 80.0002 185.6 80.0002 186.4 80.0002C188 82.4002 191.2 82.4002 193.6 80.8002L199.2 77.6002C201.6 76.0002 203.2 72.8002 202.4 70.4002C204.8 71.2002 208 70.4002 209.6 67.2002L212.8 61.6002C214.4 59.2002 213.6 56.0002 212 54.4002C212 54.4002 212 54.4002 212 53.6002C214.4 52.8002 216.8 50.4002 216.8 47.2002V40.8002C216 37.6002 214.4 35.2002 211.2 34.4002Z" fill="#1F2937"/>
<path d="M211.2 31.9998C212.8 29.5998 213.6 26.3998 212 23.9998L208.8 18.3998C207.2 15.9998 204 14.3998 201.6 15.1998C202.4 12.7998 201.6 9.5998 198.4 7.9998L192.8 4.7998C190.4 3.1998 187.2 3.9998 185.6 5.5998C185.6 5.5998 185.6 5.5998 184.8 5.5998C184 3.1998 181.6 0.799805 178.4 0.799805H172C168.8 0.799805 166.4 3.1998 165.6 5.5998C165.6 5.5998 165.6 5.5998 164.8 5.5998C163.2 3.1998 160 3.1998 156.8 4.7998L152 7.9998C149.6 9.5998 148 12.7998 148.8 15.1998C146.4 14.3998 143.2 15.1998 141.6 18.3998L138.4 23.9998C136.8 26.3998 137.6 29.5998 139.2 31.1998C139.2 31.1998 139.2 31.1998 139.2 31.9998C136.8 32.7998 134.4 35.1998 134.4 38.3998V44.7998C134.4 47.9998 136.8 50.3998 139.2 51.1998C139.2 51.1998 139.2 51.1998 139.2 51.9998C137.6 53.5998 136.8 56.7998 138.4 59.1998L141.6 64.7998C143.2 67.1998 146.4 68.7998 148.8 67.9998C148 70.3998 148.8 73.5998 152 75.1998L157.6 78.3998C160 79.9998 163.2 79.1998 165.6 77.5998C165.6 77.5998 165.6 77.5998 166.4 77.5998C167.2 79.9998 169.6 82.3998 172.8 82.3998H179.2C182.4 82.3998 184.8 80.7998 185.6 77.5998C185.6 77.5998 185.6 77.5998 186.4 77.5998C188 79.1998 191.2 79.9998 193.6 78.3998L199.2 75.1998C201.6 73.5998 203.2 70.3998 202.4 67.9998C204.8 68.7998 208 67.9998 209.6 64.7998L212.8 59.1998C214.4 56.7998 213.6 53.5998 212 51.9998C212 51.9998 212 51.9998 212 51.1998C214.4 50.3998 216.8 47.9998 216.8 44.7998V38.3998C216 35.1998 214.4 32.7998 211.2 31.9998Z" fill="#5D6466"/>
<path d="M211.2 31.9998C212.8 29.5998 213.6 26.3998 212 23.9998L208.8 18.3998C207.2 15.9998 204 14.3998 201.6 15.1998C202.4 12.7998 201.6 9.5998 198.4 7.9998L192.8 4.7998C190.4 3.1998 187.2 3.9998 185.6 5.5998C185.6 5.5998 185.6 5.5998 184.8 5.5998C184 3.1998 181.6 0.799805 178.4 0.799805H172C168.8 0.799805 166.4 3.1998 165.6 5.5998C165.6 5.5998 165.6 5.5998 164.8 5.5998C163.2 3.1998 160 3.1998 156.8 4.7998L152 7.9998C149.6 9.5998 148 12.7998 148.8 15.1998L201.6 67.9998C204 68.7998 207.2 67.9998 208.8 64.7998L212 59.1998C213.6 56.7998 212.8 53.5998 211.2 51.9998C211.2 51.9998 211.2 51.9998 211.2 51.1998C213.6 50.3998 216 47.9998 216 44.7998V38.3998C216 35.1998 214.4 32.7998 211.2 31.9998Z" fill="#353945"/>
<path d="M175.2 19.2C188 19.2 197.6 28.8 198.4 41.6C198.4 40.8 198.4 40.8 198.4 40C198.4 27.2 188 16 174.4 16C161.6 16 150.4 26.4 150.4 40C150.4 40.8 150.4 40.8 150.4 41.6C152.8 28.8 163.2 19.2 175.2 19.2Z" fill="#566366"/>
<path d="M175.2 17.5996C162.4 17.5996 151.2 27.9996 151.2 41.5996C151.2 49.5996 155.2 66.3996 160.8 79.1996C162.4 79.1996 164 78.3996 165.6 77.5996C165.6 77.5996 165.6 77.5996 166.4 77.5996C167.2 79.9996 169.6 82.3996 172.8 82.3996H179.2C182.4 82.3996 184.8 80.7996 185.6 77.5996C185.6 77.5996 185.6 77.5996 186.4 77.5996C187.2 78.3996 188.8 79.1996 191.2 79.1996C196.8 66.3996 200.8 49.5996 200.8 41.5996C199.2 27.9996 188.8 17.5996 175.2 17.5996Z" fill="#353945"/>
<path d="M175.2 65.5996C188.455 65.5996 199.2 54.8545 199.2 41.5996C199.2 28.3448 188.455 17.5996 175.2 17.5996C161.945 17.5996 151.2 28.3448 151.2 41.5996C151.2 54.8545 161.945 65.5996 175.2 65.5996Z" fill="#1F2937"/>
<path d="M158.4 57.5998C148.8 47.9998 148.8 33.5998 158.4 23.9998C168 14.3998 182.4 14.3998 192 23.9998" fill="#283538"/>
<path d="M176.8 30.4C176.8 31.2 176 32 175.2 32C174.4 32 173.6 31.2 173.6 30.4V25.6C173.6 24.8 174.4 24 175.2 24C176 24 176.8 24.8 176.8 25.6V30.4Z" fill="#1F2937"/>
<path d="M176.8 27.9996C176.8 28.7996 176 29.5996 175.2 29.5996C174.4 29.5996 173.6 28.7996 173.6 27.9996V23.1996C173.6 22.3996 174.4 21.5996 175.2 21.5996C176 21.5996 176.8 22.3996 176.8 23.1996V27.9996Z" fill="#F4B723"/>
<path d="M308.8 37.5996H236.8V93.5996H308.8V37.5996Z" fill="#AF7D19"/>
<path d="M308.8 34.4002C310.4 32.0002 311.2 28.8002 309.6 26.4002L306.4 20.8002C304.8 18.4002 301.6 16.8002 299.2 17.6002C300 15.2002 299.2 12.0002 296 10.4002L290.4 7.2002C288 5.6002 284.8 6.4002 283.2 8.0002C283.2 8.0002 283.2 8.0002 282.4 8.0002C281.6 5.6002 279.2 3.2002 276 3.2002H269.6C266.4 3.2002 264 5.6002 263.2 8.0002C263.2 8.0002 263.2 8.0002 262.4 8.0002C260.8 5.6002 257.6 5.6002 254.4 7.2002L248.8 10.4002C246.4 12.0002 244.8 14.4002 245.6 17.6002C243.2 16.8002 240 17.6002 238.4 20.8002L235.2 26.4002C233.6 28.8002 234.4 32.0002 236 33.6002C236 33.6002 236 33.6002 236 34.4002C233.6 35.2002 231.2 37.6002 231.2 40.8002V47.2002C231.2 50.4002 233.6 52.8002 236 53.6002C236 53.6002 236 53.6002 236 54.4002C234.4 56.0002 233.6 59.2002 235.2 61.6002L238.4 67.2002C240 69.6002 243.2 71.2002 245.6 70.4002C244.8 72.8002 245.6 76.0002 248.8 77.6002L254.4 80.8002C256.8 82.4002 260 81.6002 262.4 80.0002C262.4 80.0002 262.4 80.0002 263.2 80.0002C264 82.4002 266.4 84.8002 269.6 84.8002H276C279.2 84.8002 281.6 82.4002 282.4 80.0002C282.4 80.0002 282.4 80.0002 283.2 80.0002C284.8 82.4002 288 82.4002 290.4 80.8002L296 77.6002C298.4 76.0002 300 72.8002 299.2 70.4002C301.6 71.2002 304.8 70.4002 306.4 67.2002L309.6 61.6002C311.2 59.2002 310.4 56.0002 308.8 54.4002C308.8 54.4002 308.8 54.4002 308.8 53.6002C311.2 52.8002 313.6 50.4002 313.6 47.2002V40.8002C313.6 37.6002 311.2 35.2002 308.8 34.4002Z" fill="#1F2937"/>
<path d="M308.8 31.9998C310.4 29.5998 311.2 26.3998 309.6 23.9998L306.4 18.3998C304.8 15.9998 301.6 14.3998 299.2 15.1998C300 12.7998 299.2 9.5998 296 7.9998L290.4 4.7998C288 3.1998 284.8 3.9998 283.2 5.5998C283.2 5.5998 283.2 5.5998 282.4 5.5998C281.6 3.1998 279.2 0.799805 276 0.799805H269.6C266.4 0.799805 264 3.1998 263.2 5.5998C263.2 5.5998 263.2 5.5998 262.4 5.5998C260.8 3.1998 257.6 3.1998 254.4 4.7998L249.6 7.9998C247.2 9.5998 245.6 12.7998 246.4 15.1998C244 14.3998 240.8 15.1998 239.2 18.3998L236 23.9998C234.4 26.3998 235.2 29.5998 236.8 31.1998C236.8 31.1998 236.8 31.1998 236.8 31.9998C234.4 32.7998 232 35.1998 232 38.3998V44.7998C232 47.9998 234.4 50.3998 236.8 51.1998C236.8 51.1998 236.8 51.1998 236.8 51.9998C235.2 53.5998 234.4 56.7998 236 59.1998L239.2 64.7998C240.8 67.1998 244 68.7998 246.4 67.9998C245.6 70.3998 246.4 73.5998 249.6 75.1998L255.2 78.3998C257.6 79.9998 260.8 79.1998 263.2 77.5998C263.2 77.5998 263.2 77.5998 264 77.5998C264.8 79.9998 267.2 82.3998 270.4 82.3998H276.8C280 82.3998 282.4 80.7998 283.2 77.5998C283.2 77.5998 283.2 77.5998 284 77.5998C285.6 79.1998 288.8 79.9998 291.2 78.3998L296.8 75.1998C299.2 73.5998 300.8 70.3998 300 67.9998C302.4 68.7998 305.6 67.9998 307.2 64.7998L310.4 59.1998C312 56.7998 311.2 53.5998 309.6 51.9998C309.6 51.9998 309.6 51.9998 309.6 51.1998C312 50.3998 314.4 47.9998 314.4 44.7998V38.3998C313.6 35.1998 311.2 32.7998 308.8 31.9998Z" fill="#5D6466"/>
<path d="M308.8 31.9998C310.4 29.5998 311.2 26.3998 309.6 23.9998L306.4 18.3998C304.8 15.9998 301.6 14.3998 299.2 15.1998C300 12.7998 299.2 9.5998 296 7.9998L290.4 4.7998C288 3.1998 284.8 3.9998 283.2 5.5998C283.2 5.5998 283.2 5.5998 282.4 5.5998C281.6 3.1998 279.2 0.799805 276 0.799805H269.6C266.4 0.799805 264 3.1998 263.2 5.5998C263.2 5.5998 263.2 5.5998 262.4 5.5998C260.8 3.1998 257.6 3.1998 254.4 4.7998L249.6 7.9998C247.2 9.5998 245.6 12.7998 246.4 15.1998L299.2 67.9998C301.6 68.7998 304.8 67.9998 306.4 64.7998L309.6 59.1998C311.2 56.7998 310.4 53.5998 308.8 51.9998C308.8 51.9998 308.8 51.9998 308.8 51.1998C311.2 50.3998 313.6 47.9998 313.6 44.7998V38.3998C313.6 35.1998 311.2 32.7998 308.8 31.9998Z" fill="#353945"/>
<path d="M272.8 19.2C285.6 19.2 295.2 28.8 296 41.6C296 40.8 296 40.8 296 40C296 27.2 285.6 16 272 16C259.2 16 248 26.4 248 40C248 40.8 248 40.8 248 41.6C249.6 28.8 260 19.2 272.8 19.2Z" fill="#566366"/>
<path d="M272.8 17.5996C260 17.5996 248.8 27.9996 248.8 41.5996C248.8 49.5996 252.8 66.3996 258.4 79.1996C260 79.1996 261.6 78.3996 263.2 77.5996C263.2 77.5996 263.2 77.5996 264 77.5996C264.8 79.9996 267.2 82.3996 270.4 82.3996H276.8C280 82.3996 282.4 80.7996 283.2 77.5996C283.2 77.5996 283.2 77.5996 284 77.5996C284.8 78.3996 286.4 79.1996 288.8 79.1996C294.4 66.3996 298.4 49.5996 298.4 41.5996C296 27.9996 285.6 17.5996 272.8 17.5996Z" fill="#353945"/>
<path d="M272.8 65.5996C286.055 65.5996 296.8 54.8545 296.8 41.5996C296.8 28.3448 286.055 17.5996 272.8 17.5996C259.545 17.5996 248.8 28.3448 248.8 41.5996C248.8 54.8545 259.545 65.5996 272.8 65.5996Z" fill="#1F2937"/>
<path d="M256 57.5998C246.4 47.9998 246.4 33.5998 256 23.9998C265.6 14.3998 280 14.3998 289.6 23.9998" fill="#283538"/>
<path d="M274.4 30.4C274.4 31.2 273.6 32 272.8 32C272 32 271.2 31.2 271.2 30.4V25.6C271.2 24.8 272 24 272.8 24C273.6 24 274.4 24.8 274.4 25.6V30.4Z" fill="#1F2937"/>
<path d="M274.4 27.9996C274.4 28.7996 273.6 29.5996 272.8 29.5996C272 29.5996 271.2 28.7996 271.2 27.9996V23.1996C271.2 22.3996 272 21.5996 272.8 21.5996C273.6 21.5996 274.4 22.3996 274.4 23.1996V27.9996Z" fill="#F4B723"/>
<path d="M38.3998 76C38.3998 79.2 35.9998 82.4 31.9998 82.4H7.19981C3.99981 82.4 0.799805 80 0.799805 76V34.4C0.799805 31.2 3.19981 28 7.19981 28H32.7998C35.9998 28 39.1998 30.4 39.1998 34.4V76H38.3998Z" fill="#DEC133"/>
<path d="M38.3998 72.7998C38.3998 75.9998 35.9998 79.1998 31.9998 79.1998H7.19981C3.99981 79.1998 0.799805 76.7998 0.799805 72.7998V31.1998C0.799805 27.9998 3.19981 24.7998 7.19981 24.7998H32.7998C35.9998 24.7998 39.1998 27.1998 39.1998 31.1998V72.7998H38.3998Z" fill="#AF7D19"/>
<path d="M38.3998 64.7998C38.3998 67.9998 35.9998 71.1998 31.9998 71.1998H7.19981C3.99981 71.1998 0.799805 68.7998 0.799805 64.7998V23.1998C0.799805 19.9998 3.19981 16.7998 7.19981 16.7998H32.7998C35.9998 16.7998 39.1998 19.1998 39.1998 23.1998V64.7998H38.3998Z" fill="#E21E36"/>
<path d="M32.7998 16.7998C35.9998 16.7998 39.1998 19.1998 39.1998 23.1998V64.7998C39.1998 67.9998 36.7998 71.1998 32.7998 71.1998H7.19981C3.99981 71.1998 0.799805 68.7998 0.799805 64.7998" fill="#BA0D1A"/>
<path d="M79.1999 58.3998C88.4783 58.3998 95.9999 50.8782 95.9999 41.5998C95.9999 32.3214 88.4783 24.7998 79.1999 24.7998C69.9215 24.7998 62.3999 32.3214 62.3999 41.5998C62.3999 50.8782 69.9215 58.3998 79.1999 58.3998Z" fill="#4F3715"/>
<path d="M79.2002 35.2002C72.0002 35.2002 65.6002 40.0002 63.2002 47.2002C65.6002 53.6002 71.2002 59.2002 79.2002 59.2002C86.4002 59.2002 92.8002 54.4002 95.2002 47.2002C92.8002 40.0002 86.4002 35.2002 79.2002 35.2002Z" fill="#6D4F1B"/>
<path d="M348 25C350.209 25 352 23.2091 352 21C352 18.7909 350.209 17 348 17C345.791 17 344 18.7909 344 21C344 23.2091 345.791 25 348 25Z" fill="#AF7D19"/>
<path d="M364 25C366.209 25 368 23.2091 368 21C368 18.7909 366.209 17 364 17C361.791 17 360 18.7909 360 21C360 23.2091 361.791 25 364 25Z" fill="#AF7D19"/>
<path d="M379.2 25C381.409 25 383.2 23.2091 383.2 21C383.2 18.7909 381.409 17 379.2 17C376.991 17 375.2 18.7909 375.2 21C375.2 23.2091 376.991 25 379.2 25Z" fill="#AF7D19"/>
<path d="M395.2 25C397.409 25 399.2 23.2091 399.2 21C399.2 18.7909 397.409 17 395.2 17C392.991 17 391.2 18.7909 391.2 21C391.2 23.2091 392.991 25 395.2 25Z" fill="#AF7D19"/>
<path d="M348 40.2002C350.209 40.2002 352 38.4093 352 36.2002C352 33.9911 350.209 32.2002 348 32.2002C345.791 32.2002 344 33.9911 344 36.2002C344 38.4093 345.791 40.2002 348 40.2002Z" fill="#AF7D19"/>
<path d="M364 40.2002C366.209 40.2002 368 38.4093 368 36.2002C368 33.9911 366.209 32.2002 364 32.2002C361.791 32.2002 360 33.9911 360 36.2002C360 38.4093 361.791 40.2002 364 40.2002Z" fill="#AF7D19"/>
<path d="M379.2 40.2002C381.409 40.2002 383.2 38.4093 383.2 36.2002C383.2 33.9911 381.409 32.2002 379.2 32.2002C376.991 32.2002 375.2 33.9911 375.2 36.2002C375.2 38.4093 376.991 40.2002 379.2 40.2002Z" fill="#AF7D19"/>
<path d="M395.2 40.2002C397.409 40.2002 399.2 38.4093 399.2 36.2002C399.2 33.9911 397.409 32.2002 395.2 32.2002C392.991 32.2002 391.2 33.9911 391.2 36.2002C391.2 38.4093 392.991 40.2002 395.2 40.2002Z" fill="#AF7D19"/>
<path d="M348 55.4004C350.209 55.4004 352 53.6095 352 51.4004C352 49.1913 350.209 47.4004 348 47.4004C345.791 47.4004 344 49.1913 344 51.4004C344 53.6095 345.791 55.4004 348 55.4004Z" fill="#AF7D19"/>
<path d="M364 55.4004C366.209 55.4004 368 53.6095 368 51.4004C368 49.1913 366.209 47.4004 364 47.4004C361.791 47.4004 360 49.1913 360 51.4004C360 53.6095 361.791 55.4004 364 55.4004Z" fill="#AF7D19"/>
<path d="M379.2 55.4004C381.409 55.4004 383.2 53.6095 383.2 51.4004C383.2 49.1913 381.409 47.4004 379.2 47.4004C376.991 47.4004 375.2 49.1913 375.2 51.4004C375.2 53.6095 376.991 55.4004 379.2 55.4004Z" fill="#AF7D19"/>
<path d="M395.2 55.4004C397.409 55.4004 399.2 53.6095 399.2 51.4004C399.2 49.1913 397.409 47.4004 395.2 47.4004C392.991 47.4004 391.2 49.1913 391.2 51.4004C391.2 53.6095 392.991 55.4004 395.2 55.4004Z" fill="#AF7D19"/>
<path d="M348 70.6006C350.209 70.6006 352 68.8097 352 66.6006C352 64.3914 350.209 62.6006 348 62.6006C345.791 62.6006 344 64.3914 344 66.6006C344 68.8097 345.791 70.6006 348 70.6006Z" fill="#AF7D19"/>
<path d="M364 70.6006C366.209 70.6006 368 68.8097 368 66.6006C368 64.3914 366.209 62.6006 364 62.6006C361.791 62.6006 360 64.3914 360 66.6006C360 68.8097 361.791 70.6006 364 70.6006Z" fill="#AF7D19"/>
<path d="M379.2 70.6006C381.409 70.6006 383.2 68.8097 383.2 66.6006C383.2 64.3914 381.409 62.6006 379.2 62.6006C376.991 62.6006 375.2 64.3914 375.2 66.6006C375.2 68.8097 376.991 70.6006 379.2 70.6006Z" fill="#AF7D19"/>
<path d="M395.2 70.6006C397.409 70.6006 399.2 68.8097 399.2 66.6006C399.2 64.3914 397.409 62.6006 395.2 62.6006C392.991 62.6006 391.2 64.3914 391.2 66.6006C391.2 68.8097 392.991 70.6006 395.2 70.6006Z" fill="#AF7D19"/>
</svg>
