<svg width="71" height="158" viewBox="0 0 71 158" fill="none" xmlns="http://www.w3.org/2000/svg">
<g filter="url(#filter0_d_576_794)">
<rect x="23.0604" y="10.5071" width="26.5915" height="116.264" rx="4.5" transform="rotate(0.7658 23.0604 10.5071)" fill="#E6B478" stroke="#BD8849"/>
<path d="M22.9544 32.7706C22.9544 32.7706 32.1698 14.2678 36.3082 14.3231C40.4465 14.3784 49.1548 33.8106 49.1548 33.8106" stroke="#BD8849" stroke-width="0.25" stroke-linecap="round"/>
<path d="M22.9359 34.1509C22.9359 34.1509 32.1513 15.6482 36.2896 15.7035C40.428 15.7588 49.1363 35.191 49.1363 35.191" stroke="#BD8849" stroke-width="0.25" stroke-linecap="round"/>
<path d="M22.92 35.5289C22.92 35.5289 32.1354 17.0261 36.2737 17.0814C40.4121 17.1367 49.1204 36.5689 49.1204 36.5689" stroke="#BD8849" stroke-width="0.25" stroke-linecap="round"/>
<path d="M22.9015 36.9092C22.9015 36.9092 32.1168 18.4065 36.2552 18.4618C40.3935 18.5171 49.1018 37.9493 49.1018 37.9493" stroke="#BD8849" stroke-width="0.25" stroke-linecap="round"/>
<path d="M22.8827 38.2876C22.8827 38.2876 32.098 19.7849 36.2364 19.8402C40.3747 19.8955 49.083 39.3277 49.083 39.3277" stroke="#BD8849" stroke-width="0.25" stroke-linecap="round"/>
<path d="M22.8641 39.668C22.8641 39.668 32.0795 21.1653 36.2178 21.2206C40.3562 21.2759 49.0645 40.7081 49.0645 40.7081" stroke="#BD8849" stroke-width="0.25" stroke-linecap="round"/>
<path d="M22.8456 41.0464C22.8456 41.0464 32.0609 22.5437 36.1993 22.599C40.3376 22.6543 49.0459 42.0865 49.0459 42.0865" stroke="#BD8849" stroke-width="0.25" stroke-linecap="round"/>
<path d="M22.6852 104.512C22.6852 104.512 30.9308 123.248 34.8513 123.301C38.7719 123.353 47.5246 104.154 47.5246 104.154" stroke="#BD8849" stroke-width="0.25" stroke-linecap="round"/>
<path d="M22.7038 103.132C22.7038 103.132 30.9494 121.868 34.8699 121.921C38.7905 121.973 47.5431 102.774 47.5431 102.774" stroke="#BD8849" stroke-width="0.25" stroke-linecap="round"/>
<path d="M22.7226 101.753C22.7226 101.753 30.9682 120.49 34.8887 120.542C38.8093 120.594 47.5619 101.396 47.5619 101.396" stroke="#BD8849" stroke-width="0.25" stroke-linecap="round"/>
<path d="M22.7411 100.373C22.7411 100.373 30.9867 119.11 34.9073 119.162C38.8278 119.214 47.5805 100.016 47.5805 100.016" stroke="#BD8849" stroke-width="0.25" stroke-linecap="round"/>
<path d="M22.7597 98.9946C22.7597 98.9946 31.0053 117.731 34.9258 117.783C38.8464 117.836 47.599 98.6367 47.599 98.6367" stroke="#BD8849" stroke-width="0.25" stroke-linecap="round"/>
<path d="M22.7782 97.6147C22.7782 97.6147 31.0238 116.351 34.9444 116.403C38.8649 116.456 47.6176 97.2569 47.6176 97.2569" stroke="#BD8849" stroke-width="0.25" stroke-linecap="round"/>
<path d="M22.797 96.2358C22.797 96.2358 31.0426 114.972 34.9632 115.024C38.8837 115.077 47.6364 95.878 47.6364 95.878" stroke="#BD8849" stroke-width="0.25" stroke-linecap="round"/>
<path d="M23.0522 76.991C23.0522 76.991 31.3725 90.1404 35.293 90.1928C39.2135 90.2452 47.8888 76.8401 47.8888 76.8401" stroke="#BD8849" stroke-width="0.25" stroke-linecap="round"/>
<path d="M23.0651 76.0257C23.0651 76.0257 31.3854 89.1751 35.3059 89.2275C39.2265 89.2799 47.9017 75.8748 47.9017 75.8748" stroke="#BD8849" stroke-width="0.25" stroke-linecap="round"/>
<path d="M23.0778 75.0599C23.0778 75.0599 31.3981 88.2092 35.3186 88.2616C39.2392 88.3141 47.9144 74.909 47.9144 74.909" stroke="#BD8849" stroke-width="0.25" stroke-linecap="round"/>
<path d="M23.0907 74.0945C23.0907 74.0945 31.411 87.2439 35.3316 87.2963C39.2521 87.3487 47.9273 73.9436 47.9273 73.9436" stroke="#BD8849" stroke-width="0.25" stroke-linecap="round"/>
<path d="M23.1059 73.1282C23.1059 73.1282 31.4262 86.2776 35.3467 86.33C39.2673 86.3824 47.9425 72.9773 47.9425 72.9773" stroke="#BD8849" stroke-width="0.25" stroke-linecap="round"/>
<path d="M23.1188 72.1629C23.1188 72.1629 31.4391 85.3123 35.3596 85.3647C39.2802 85.4171 47.9554 72.012 47.9554 72.012" stroke="#BD8849" stroke-width="0.25" stroke-linecap="round"/>
<path d="M23.1315 71.1971C23.1315 71.1971 31.4518 84.3465 35.3723 84.3989C39.2929 84.4513 47.9681 71.0462 47.9681 71.0462" stroke="#BD8849" stroke-width="0.25" stroke-linecap="round"/>
<path d="M23.2379 63.0588C23.2379 63.0588 31.9066 50.1365 35.8272 50.1889C39.7477 50.2413 48.0616 63.8735 48.0616 63.8735" stroke="#BD8849" stroke-width="0.25" stroke-linecap="round"/>
<path d="M23.2249 64.0236C23.2249 64.0236 31.8937 51.1013 35.8142 51.1537C39.7348 51.2061 48.0486 64.8383 48.0486 64.8383" stroke="#BD8849" stroke-width="0.25" stroke-linecap="round"/>
<path d="M23.2122 64.9899C23.2122 64.9899 31.881 52.0676 35.8015 52.12C39.7221 52.1725 48.0359 65.8046 48.0359 65.8046" stroke="#BD8849" stroke-width="0.25" stroke-linecap="round"/>
<path d="M23.1995 65.9548C23.1995 65.9548 31.8683 53.0325 35.7888 53.0849C39.7094 53.1373 48.0232 66.7695 48.0232 66.7695" stroke="#BD8849" stroke-width="0.25" stroke-linecap="round"/>
<path d="M23.1868 66.9211C23.1868 66.9211 31.8556 53.9988 35.7762 54.0512C39.6967 54.1036 48.0105 67.7358 48.0105 67.7358" stroke="#BD8849" stroke-width="0.25" stroke-linecap="round"/>
<path d="M23.1739 67.8864C23.1739 67.8864 31.8427 54.9641 35.7632 55.0165C39.6838 55.0689 47.9976 68.7011 47.9976 68.7011" stroke="#BD8849" stroke-width="0.25" stroke-linecap="round"/>
<path d="M23.1612 68.8522C23.1612 68.8522 31.83 55.9299 35.7505 55.9824C39.6711 56.0348 47.9849 69.6669 47.9849 69.6669" stroke="#BD8849" stroke-width="0.25" stroke-linecap="round"/>
<path d="M21.9419 56.9019L21.7624 70.3323C21.7255 73.0934 23.9339 75.3617 26.6951 75.3986L44.285 75.6338C47.0462 75.6707 49.3145 73.4622 49.3514 70.701L49.5232 57.8466" stroke="url(#paint0_linear_576_794)" stroke-width="2" stroke-linecap="round"/>
</g>
<defs>
<filter id="filter0_d_576_794" x="0.761963" y="0.0668945" width="69.7612" height="157.489" filterUnits="userSpaceOnUse" color-interpolation-filters="sRGB">
<feFlood flood-opacity="0" result="BackgroundImageFix"/>
<feColorMatrix in="SourceAlpha" type="matrix" values="0 0 0 0 0 0 0 0 0 0 0 0 0 0 0 0 0 0 127 0" result="hardAlpha"/>
<feOffset dy="10"/>
<feGaussianBlur stdDeviation="10"/>
<feComposite in2="hardAlpha" operator="out"/>
<feColorMatrix type="matrix" values="0 0 0 0 0 0 0 0 0 0 0 0 0 0 0 0 0 0 0.35 0"/>
<feBlend mode="normal" in2="BackgroundImageFix" result="effect1_dropShadow_576_794"/>
<feBlend mode="normal" in="SourceGraphic" in2="effect1_dropShadow_576_794" result="shape"/>
</filter>
<linearGradient id="paint0_linear_576_794" x1="35.7364" y1="57.0862" x2="35.4901" y2="75.5162" gradientUnits="userSpaceOnUse">
<stop stop-color="#ABA8A4"/>
<stop offset="1" stop-color="#5C5B59"/>
</linearGradient>
</defs>
</svg>
