<svg width="703" height="334" viewBox="0 0 703 334" fill="none" xmlns="http://www.w3.org/2000/svg">
<path d="M668.043 0.474396C666.823 1.69434 667.704 6.43848 670.076 11.0471C673.126 17.1467 677.124 27.2449 676.65 27.7193C676.447 27.9226 675.904 27.7871 675.43 27.4482C669.873 23.3141 666.077 21.6875 665.196 22.9752C664.586 23.9918 671.093 32.9379 678.277 40.8674C679.903 42.6295 681.801 45.4082 682.479 47.0348C684.308 51.1012 686.07 66.1469 685.528 72.5176C685.257 75.2963 684.918 81.1248 684.783 85.3945C683.97 111.826 683.36 120.162 681.801 126.126L681.055 128.837L677.599 125.72C672.855 121.45 670.957 120.569 665.264 120.162C655.911 119.417 645.813 123.958 641.543 130.803C636.935 138.054 636.528 145.035 639.781 159.268C640.933 164.283 642.628 170.857 643.577 173.771C644.458 176.685 645.135 179.193 645 179.329C644.864 179.464 642.492 177.431 639.714 174.855C635.512 170.992 634.156 169.162 631.92 164.554C629.344 159.132 629.276 158.658 629.276 151.812C629.276 141.985 630.429 139.613 644.39 120.637C646.491 117.858 651.845 111.758 656.386 107.082C662.96 100.237 665.129 97.526 667.433 93.0529C670.279 87.4277 670.889 85.3945 669.602 85.3945C669.263 85.3945 668.924 85.6656 668.924 85.9367C668.924 86.2756 667.433 88.1732 665.535 90.1387C662.146 93.8662 660.249 94.4762 662.689 91.0197C663.366 90.0031 664.247 88.3766 664.519 87.4277C664.79 86.4789 665.738 83.9713 666.62 81.8703C668.382 77.6006 668.585 76.584 667.568 76.584C666.823 76.584 665.535 77.8039 662.553 81.3959L660.655 83.7002L661.13 81.667C662.214 76.8551 662.35 74.3474 661.401 74.6863C660.249 75.0252 658.961 77.465 658.419 80.2437C657.877 82.9547 656.725 81.2603 656.725 77.7361C656.725 75.974 656.454 75.2285 655.911 75.364C655.369 75.5674 655.098 76.7195 655.166 78.3461C655.166 80.0404 655.098 80.3115 654.895 79.0916C654.759 78.075 654.285 77.3972 653.946 77.6006C653.607 77.8717 653.336 77.5328 653.336 76.9906C653.336 75.2285 651.303 75.7707 650.625 77.6684C650.218 78.6172 649.947 80.6504 649.88 82.2092C649.812 83.768 649.541 85.8012 649.27 86.75C648.727 88.3766 648.727 88.3766 648.66 86.8855C648.592 86.0723 648.253 85.3945 647.846 85.3945C647.304 85.3945 647.236 86.2078 647.643 87.9021C647.982 89.3254 648.253 92.2396 648.253 94.3406C648.253 98.7459 647.711 99.5592 636.054 113.995C629.615 121.924 627.853 123.958 621.686 130.735L618.975 133.717L617.552 131.684C615.993 129.447 613.011 120.976 612.469 117.248C612.265 115.96 611.588 111.216 610.978 106.743C609.08 92.5785 606.572 81.8025 601.693 66.8246C600.676 63.5037 599.388 57.9463 598.982 54.4898C598.236 48.5935 598.236 47.9158 599.659 43.9172C600.473 41.5451 601.15 38.1564 601.15 36.3266C601.15 33.2768 600.879 32.7346 598.101 30.0236C595.322 27.3805 594.712 27.1094 591.594 27.1094C587.392 27.1094 585.02 28.2615 581.903 31.989C579.734 34.4967 579.463 35.1744 579.463 38.7664C579.463 41.3418 579.937 43.6461 580.751 45.2726C583.529 50.6945 584.275 55.5064 584.885 71.501C585.562 89.1898 587.121 100.711 590.646 114.537C598.168 143.544 599.727 152.151 598.575 159.2C597.83 163.605 595.593 168.756 594.373 168.756C594.102 168.756 593.356 167.943 592.679 166.994C591.798 165.571 591.662 164.351 592.001 160.42C592.272 157.167 592.069 153.71 591.323 150.118C590.781 147.136 590.171 143.341 590.036 141.646C589.697 137.716 587.392 128.498 586.037 125.313C585.224 123.551 584.071 122.399 582.038 121.382C580.412 120.569 578.379 118.875 577.43 117.587C576.21 115.825 575.396 115.283 574.38 115.554C570.11 116.706 569.297 116.706 569.297 115.689C569.297 114.198 565.23 113.724 563.536 115.147C562.181 116.231 562.181 116.231 563.468 114.673C565.502 112.301 564.417 112.301 561.503 114.74C560.012 115.893 559.063 116.503 559.334 116.096C560.215 114.74 556.894 114.334 554.183 115.418C552.896 116.028 549.439 118.061 546.593 119.959C541.239 123.551 537.104 128.634 537.647 130.938C537.85 131.616 537.647 131.955 537.104 131.752C535.952 131.277 534.529 135.547 534.394 139.749C534.326 141.511 533.919 143.409 533.445 143.951C532.903 144.629 532.428 147.611 532.293 151.609C532.157 155.269 531.818 159.132 531.547 160.284C531.276 161.369 531.14 162.521 531.208 162.792C531.412 163.537 528.565 170.925 528.226 170.586C528.023 170.382 528.294 167.875 528.836 164.893C529.582 160.284 529.582 159.132 528.836 156.828C525.99 149.034 530.192 125.652 537.85 106.608C541.984 96.1027 545.237 89.6642 547.406 87.6988C548.355 86.8178 550.998 85.0557 553.302 83.768C557.03 81.5992 561.164 78.4139 561.164 77.5328C561.164 77.3972 560.351 76.9229 559.334 76.5162C557.911 75.974 557.301 76.1096 556.149 77.1262C554.116 79.0238 552.625 79.3627 552.557 78.0072C552.489 77.3972 553.506 76.1773 554.726 75.2285C557.369 73.2631 559.402 70.1455 558.792 69.1289C558.521 68.6545 557.64 69.0611 556.623 70.1455C553.777 72.992 553.235 72.3142 554.929 67.8412C555.2 67.1635 554.997 66.9601 554.251 67.299C553.302 67.6379 553.235 67.3668 553.845 65.2658C554.726 62.0805 554.183 61.8094 551.676 64.317C550.524 65.4691 549.304 66.418 548.965 66.418C548.694 66.418 548.219 66.8924 548.016 67.5023C547.745 68.1123 547.406 68.519 547.271 68.3156C547.067 68.1123 547.338 66.9601 547.88 65.6725C548.829 63.3004 548.355 60.3184 546.999 60.3184C546.118 60.3184 543.882 63.5715 543.204 65.7402C542.052 69.6033 532.089 92.1041 525.515 105.794C521.652 113.859 517.721 122.602 516.705 125.11C514.333 131.345 510.605 145.645 509.385 153.236C508.843 156.624 508.165 159.606 507.894 159.878C507.149 160.555 508.097 137.716 509.182 129.786C509.792 125.652 510.605 117.926 511.012 112.504C512.028 99.5592 515.553 75.8385 517.111 71.1621C518.331 67.5023 521.11 58.3529 522.94 51.8467C523.55 49.7457 523.753 47.3058 523.482 45.476L523.008 42.4939L521.584 44.3916C520.771 45.476 519.89 46.967 519.483 47.7125C518.67 49.2713 516.705 50.6267 516.027 50.0168C515.824 49.7457 516.163 48.5258 516.772 47.3058C518.331 44.3238 519.009 35.9199 517.721 35.9199C516.501 35.9877 515.01 38.0887 513.113 42.6973C512.232 44.7305 511.418 46.5603 511.351 46.6281C511.215 46.7637 511.147 45.476 511.147 43.7816C511.147 39.3764 510.334 35.1744 509.589 35.6488C509.25 35.8521 508.979 35.6488 508.979 35.31C508.979 34.9033 508.707 34.5645 508.369 34.5645C508.03 34.5645 507.488 36.9365 507.216 39.783C506.674 44.7305 506.606 44.866 506.268 42.0195C506.064 40.3252 506.132 38.8342 506.335 38.6309C506.539 38.4275 505.996 37.5465 505.183 36.5977L503.557 34.9033V44.9338C503.557 51.1012 503.286 54.8965 502.879 54.8965C502.54 54.8965 502.201 54.2865 502.201 53.541C502.201 52.7955 501.795 51.9822 501.252 51.7789C500.71 51.5756 500.1 50.7623 499.897 49.949C499.694 49.1357 498.745 47.5769 497.796 46.5603C496.373 44.9338 495.898 44.7305 495.085 45.4082C494.543 45.8826 494.068 46.7637 494.068 47.3736C494.068 47.9836 495.898 53.9477 498.203 60.6572C503.014 75.2285 503.082 72.382 497.66 101.999C495.627 113.182 493.526 125.042 492.984 128.431C492.442 131.752 491.561 136.225 491.019 138.258C489.392 144.493 489.053 148.898 490.002 152.084C490.747 154.727 490.68 155.404 489.46 158.115C488.308 160.691 487.833 161.165 486.613 160.826C485.529 160.555 484.445 161.165 482.208 163.334C479.294 166.18 478.142 168.553 478.413 171.128C478.48 172.145 478.413 172.28 477.938 171.535C477.396 170.789 477.261 170.789 476.989 171.535C476.515 173.026 473.059 170.382 473.059 168.553C473.059 167.671 475.363 163.673 478.209 159.606C486.817 147.136 489.053 141.714 489.256 132.904C489.528 123.483 486.274 118.807 476.108 113.859C473.262 112.436 471.703 112.165 466.62 112.165C459.843 112.165 458.284 112.707 452.455 117.384C446.153 122.331 444.594 125.991 444.594 135.886C444.594 142.799 446.153 149.915 449.067 156.421C450.219 158.861 450.354 166.248 449.406 170.111C449.067 171.399 448.796 172.009 448.728 171.467C448.66 170.857 447.847 169.908 446.763 169.298C443.171 167.129 438.697 161.979 438.291 159.471C437.749 156.082 435.173 149.847 433.208 147.136C430.294 143.137 428.057 136.36 428.057 131.48C428.125 127.007 430.361 115.96 433.343 105.591C437.071 92.8496 438.291 90.8842 445.61 86.0723C450.083 83.0902 452.523 80.8537 454.489 77.8039C456.183 75.1607 456.522 73.873 455.505 73.873C454.963 73.873 446.356 79.2949 444.797 80.6504C443.103 82.0736 443.442 81.1926 446.288 76.9229C450.964 69.9422 453.947 63.2326 454.421 58.4207C454.963 53.6765 454.421 53.2021 451.913 56.1164C449.745 58.6918 447.305 59.3695 447.305 57.4041C447.237 55.5742 445.61 53.3377 444.594 53.6765C443.916 53.8799 442.425 57.3363 440.46 63.3682C440.121 64.4525 439.307 66.1469 438.63 67.0279C437.41 68.5867 437.342 68.519 437.41 62.4193C437.478 56.9975 437.274 56.1164 436.054 54.8287C435.241 54.0154 434.292 53.541 433.886 53.7443C433.547 54.0154 433.072 55.9809 432.869 58.2174C432.462 62.0805 430.904 67.0279 428.26 72.992C425.482 79.2271 422.229 89.1898 415.722 111.148C410.233 129.718 409.623 135.479 412.198 143.883C413.147 147.068 413.35 148.763 412.876 148.966C412.401 149.102 412.672 150.254 413.554 152.219C414.299 153.913 414.773 155.472 414.57 155.608C414.299 155.879 410.029 147.001 410.029 146.12C410.029 145.781 408.538 142.595 406.641 138.868C402.913 131.48 401.422 124.974 402.168 118.807C402.371 116.841 402.439 115.215 402.168 115.215C400.88 115.215 398.914 117.045 397.966 119.146L396.813 121.653L396.61 116.231C396.407 108.438 394.509 105.252 393.086 110.267C392.205 113.656 390.849 115.621 391.256 113.114C391.392 112.097 391.121 110.538 390.646 109.725L389.833 108.099L389.087 110.064C388.545 111.42 388.003 111.826 387.257 111.555C386.376 111.216 386.241 111.487 386.512 112.639C386.647 113.521 387.054 114.808 387.393 115.554C387.867 116.706 387.8 116.774 386.851 116.028C386.241 115.554 385.563 113.927 385.292 112.504L384.818 109.861L382.852 111.284C381.768 112.097 380.887 113.249 380.887 113.927C380.887 116.299 383.869 124.635 387.325 131.955C391.595 140.901 392.205 143.137 390.782 144.29C389.968 144.967 389.833 144.832 390.172 143.544C390.375 142.663 390.239 142.256 389.901 142.663C389.629 143.002 388.003 143.409 386.376 143.476C383.665 143.544 382.988 143.951 380.412 146.662C378.854 148.356 377.295 149.779 377.024 149.779C376.685 149.779 375.6 151.203 374.516 152.897C372.483 156.15 372.415 156.828 373.771 167.062C374.109 169.705 374.109 169.705 373.364 167.739C372.889 166.587 372.551 161.707 372.551 156.557C372.551 143.476 377.701 109.793 381.971 94.8828C383.394 89.8676 385.089 86.8178 388.41 82.9547C392.408 78.2783 394.645 74.5508 394.577 72.4498C394.441 66.9601 388.274 62.216 385.631 65.4014C384.953 66.2146 384.614 66.2824 384.275 65.6725C383.869 65.1303 383.394 65.1303 382.378 65.6725C379.463 67.2312 378.582 69.1967 369.433 94.2051C366.79 101.457 363.876 109.861 362.995 112.843C359.877 123.212 356.488 139.681 356.488 144.493C356.488 146.12 356.285 147.746 356.082 147.949C355.811 148.221 354.184 147.339 352.422 146.052C344.425 140.155 337.579 139.139 330.328 142.866C321.178 147.475 317.247 155.337 318.061 167.129C318.264 170.179 318.942 173.839 319.552 175.262C320.094 176.618 320.433 177.905 320.297 178.041C319.891 178.447 314.265 170.382 312.503 166.926C311.758 165.367 311.08 163.537 311.08 162.927C311.08 161.843 313.384 155.404 318.806 140.969C328.837 114.74 331.412 105.388 339.613 65.7402C341.714 55.5064 342.12 54.3543 346.322 47.5092C351.676 38.5631 353.845 31.8535 351.405 31.8535C350.863 31.8535 350.389 32.2602 350.389 32.8023C350.389 33.3445 350.05 34.0222 349.575 34.2934C349.101 34.5645 349.033 34.4967 349.304 34.0222C350.253 32.3957 348.898 33.2768 347.203 35.2422C345.509 37.2754 344.221 37.6143 345.373 35.7844C345.712 35.31 346.051 34.3611 346.119 33.6156C346.322 32.5312 346.187 32.4635 345.238 33.2768C344.696 33.7512 343.679 35.1744 343.069 36.5299C342.459 37.8176 341.51 39.0375 340.968 39.173C340.426 39.3764 340.223 39.173 340.494 38.7664C341.036 37.8853 339.68 31.3113 338.799 30.7691C338.122 30.3625 337.918 30.9047 337.173 34.1578C336.834 35.6488 336.563 35.9199 336.156 35.2422C335.75 34.5645 335.411 34.9711 334.936 36.6654C334.259 39.173 334.191 39.173 332.361 32.5312C331.751 30.0914 330.938 27.8549 330.667 27.516C330.396 27.1772 330.328 26.4994 330.531 26.025C331.209 24.1273 329.65 25.144 328.023 27.6516C326.397 30.0914 326.397 30.4303 326.532 42.3584C326.6 49.068 326.736 56.0486 326.804 57.9463C327.007 61.1316 326.194 65.0625 322.127 81.3281C321.246 84.8523 319.484 89.732 318.196 92.1719C313.046 101.66 308.911 111.013 306.539 118.536C305.184 122.873 303.422 128.024 302.608 130.057C301.185 133.446 301.05 133.649 300.304 132.294C298.881 129.651 297.458 121.043 296.848 111.487C296.17 100.237 296.373 99.627 303.083 92.7818C311.555 84.3102 315.011 75.974 307.691 81.8703C304.574 84.3779 301.592 86.2078 301.592 85.6656C301.592 85.4623 302.608 83.4969 303.896 81.3959C308.911 73.0598 310.402 68.4512 308.098 68.4512C307.149 68.4512 300.236 75.7029 300.236 76.7195C300.236 76.9906 299.897 77.2617 299.491 77.2617C299.084 77.2617 299.423 76.3806 300.236 75.2285C301.592 73.3308 303.151 66.8246 302.405 66.0791C302.202 65.8758 301.592 65.7402 300.982 65.7402C299.694 65.808 296.509 70.4844 297.729 70.4844C298.271 70.4844 298.271 70.6877 297.661 71.0943C297.119 71.3654 296.78 71.8398 296.848 72.1109C296.915 72.382 296.848 72.7887 296.644 73.0598C296.509 73.3308 296.509 73.1953 296.577 72.7209C296.712 72.2465 296.509 71.7043 296.17 71.501C295.763 71.2299 295.492 70.0777 295.492 68.8578C295.492 66.3502 294.069 64.7236 292.442 65.3336C291.765 65.6047 291.426 66.6891 291.358 68.9256C291.29 71.3654 291.155 71.7721 290.816 70.4844C290.477 69.2644 289.867 68.79 288.579 68.79C286.411 68.7223 285.462 70.4166 284.513 76.2451C283.496 81.9381 283.09 140.562 283.903 147.543C284.445 152.016 284.377 153.575 283.632 155.337C281.395 160.488 275.567 167.536 271.704 169.908C269.467 171.196 269.196 171.196 267.841 170.179C267.095 169.569 266.214 168.281 266.011 167.197C265.74 166.18 265.197 165.367 264.859 165.367C263.368 165.367 265.062 160.894 267.298 158.861C268.789 157.505 269.738 155.879 270.009 154.117C270.28 152.694 270.823 151.135 271.162 150.728C272.11 149.576 273.33 136.292 272.924 131.413C272.449 125.584 271.229 122.805 267.366 118.671C262.758 113.792 258.759 112.165 250.762 112.165C244.662 112.165 244.12 112.301 240.257 114.537C235.174 117.451 230.159 122.534 229.006 125.855C228.532 127.279 228.125 131.345 228.058 134.869C228.058 140.562 228.329 142.053 230.43 147.746C232.734 154.117 236.665 162.182 239.715 166.723C240.528 168.01 241.002 169.298 240.731 169.569C240.392 169.908 238.359 170.45 236.123 170.789C231.853 171.467 227.041 173.297 227.041 174.313C227.041 174.584 226.77 174.855 226.431 174.855C226.092 174.855 225.618 173.568 225.347 171.941C224.127 163.876 223.517 161.911 220.806 158.251C218.84 155.608 217.553 154.523 216.468 154.523C210.708 154.523 208.539 148.424 211.182 139.546C213.351 132.362 226.228 108.234 230.701 103.083C231.514 102.202 235.242 100.034 238.969 98.2715C243.849 95.9672 246.356 94.3406 247.644 92.7141C250.762 88.5799 249.474 87.6988 244.052 90.1387C239.579 92.1719 238.834 91.9008 241.206 88.9187C243.646 85.8689 246.966 79.3627 246.424 78.7527C246.153 78.5494 245.001 79.2949 243.781 80.3793C238.901 84.9879 234.496 87.7666 234.496 86.4111C234.496 86.2078 234.971 85.3268 235.513 84.5135C237.343 81.667 240.663 72.9242 240.257 71.9076C239.918 70.9588 239.782 70.9588 239.24 71.8398C238.766 72.5854 238.562 72.1787 238.562 70.281C238.562 68.9256 238.291 67.7734 238.02 67.7734C237.749 67.7734 236.326 70.4844 234.903 73.873C233.479 77.1939 232.056 79.7693 231.717 79.6338C231.446 79.4305 231.379 77.1262 231.582 74.5508C231.988 69.8744 231.582 68.9256 229.888 70.6199C229.278 71.2299 229.074 71.1621 229.074 70.3488C229.074 69.7389 228.735 68.9933 228.329 68.7223C227.109 67.9767 226.296 69.9422 226.634 72.8564C226.838 74.3474 226.702 76.1773 226.363 76.9229C225.889 78.0072 225.753 77.7361 225.753 75.7029C225.686 72.5854 224.127 72.5176 223.788 75.6352C223.652 76.7195 223.178 78.9561 222.636 80.6504C222.161 82.3447 221.077 86.0045 220.264 88.7832C217.959 96.7127 212.131 107.963 205.625 117.248C197.56 128.702 189.495 143.205 188.478 148.288C187.936 150.525 187.732 155.337 187.868 159.606C188.004 165.706 188.342 167.604 189.562 169.976C191.257 173.161 191.46 174.517 190.376 175.262C189.833 175.533 189.766 175.262 190.104 174.245C190.308 173.5 190.376 172.822 190.172 172.822C189.562 172.822 187.732 177.566 187.732 178.99C187.732 179.735 187.529 180.21 187.258 180.142C186.919 180.074 184.954 181.768 182.853 184.005L178.99 188.071L179.938 183.056C180.481 180.345 181.091 174.855 181.294 170.925C182.311 153.371 184.412 140.359 190.104 117.722C191.799 110.945 193.493 104.032 193.832 102.338C194.239 100.644 195.12 96.5094 195.865 93.1885C196.543 89.7998 197.966 82.2769 198.915 76.3806C200.813 64.4525 201.355 62.826 205.218 57.133C209.488 50.8301 215.52 38.8342 215.52 36.5977C215.52 35.4455 215.384 34.5645 215.248 34.5645C215.045 34.5645 213.08 35.7844 210.775 37.3432C208.471 38.8342 206.438 39.9185 206.235 39.783C206.031 39.5797 206.573 37.4787 207.387 35.1066C209.217 29.6848 209.623 27.1094 208.471 27.1094C207.387 27.1094 203.32 34.5645 203.32 36.4621C203.32 37.2754 203.049 38.0209 202.71 38.292C201.558 38.9697 201.287 36.191 201.965 31.1758C202.371 28.4648 202.507 26.0928 202.371 25.9572C201.626 25.2117 200.609 26.7027 199.593 30.0236C197.763 35.5811 196.407 38.5631 195.391 38.9019C194.306 39.3086 194.51 36.3943 195.865 31.0402C197.017 26.4994 196.543 25.6861 194.103 28.126C192.138 30.0914 191.596 31.3791 188.41 42.0195C185.903 50.4912 186.174 50.2879 184.005 46.0859C181.429 40.8674 179.057 37.9531 177.566 37.9531C176.346 37.9531 176.279 38.292 176.685 41.1385C176.889 42.9684 177.838 46.4926 178.719 49.1357C179.6 51.7111 180.548 54.7609 180.887 55.9131C181.158 56.9975 182.243 59.8439 183.259 62.1482C184.208 64.4525 185.021 67.299 185.021 68.4512C185.021 71.9754 182.378 82.6158 179.193 91.833C172.89 110.064 169.434 121.382 166.18 134.53C162.792 148.153 159.064 157.98 155.269 163.47C149.305 172.009 143.476 177.634 141.714 176.618C141.375 176.414 140.969 175.398 140.765 174.381C140.494 172.958 141.037 171.331 143.07 167.943C146.526 162.114 148.83 152.287 149.44 141.308C149.847 133.92 149.779 132.836 148.356 129.108C146.323 123.619 141.308 118.4 136.699 116.841C131.616 115.147 125.11 115.079 120.976 116.706C115.621 118.807 110.674 122.399 109.183 125.245C104.913 133.649 103.626 148.017 106.337 156.218C107.082 158.454 107.76 161.233 107.76 162.453C107.76 163.808 108.37 165.299 109.454 166.452C111.42 168.62 111.962 174.178 110.132 174.178C109.59 174.178 108.844 174.788 108.438 175.533C107.15 177.905 105.93 177.024 103.964 172.28C102.948 169.772 101.525 167.129 100.847 166.316C100.169 165.571 99.627 164.689 99.627 164.351C99.627 164.012 99.2203 163.266 98.6781 162.724C98.2037 162.114 97.0516 160.284 96.1705 158.59C95.2895 156.896 93.5951 154.456 92.443 153.1C89.4609 149.644 88.5121 146.323 88.4443 139.274C88.4443 132.158 89.5287 129.447 96.5094 118.942C111.284 96.6449 119.078 87.1566 127.279 81.1248C129.515 79.4982 131.345 77.465 132.429 75.364C133.988 72.2465 133.988 72.1109 132.904 69.2644C131.684 66.2146 130.328 64.8592 129.244 65.5369C128.566 65.9435 128.905 63.8426 129.854 61.4027C130.464 59.7762 129.041 60.115 127.55 61.9449C126.804 62.8937 125.652 63.5715 124.771 63.5037C123.077 63.3682 123.009 63.2326 124.364 61.9449C124.906 61.335 125.381 60.4539 125.381 59.9117C125.381 58.4885 123.483 58.7596 122.534 60.3184C122.06 61.0639 121.382 61.6738 121.043 61.6738C120.704 61.6738 119.891 62.0805 119.349 62.6227C118.739 63.1648 117.316 63.7748 116.231 63.9781C113.521 64.4525 110.742 67.6379 110.267 70.9588C109.793 73.9408 107.828 76.9229 101.931 83.3613C99.7625 85.8012 95.6283 90.6808 92.8496 94.2051C87.36 101.254 78.685 111.42 73.1953 117.248C66.7568 124.093 64.6559 130.532 65.2658 141.443C65.4691 145.238 65.4691 149.44 65.2658 150.728L64.927 153.1L61.6738 152.694C59.0984 152.422 57.8785 152.626 56.1164 153.71C54.8965 154.456 52.5244 155.472 50.8301 155.947C49.1357 156.421 47.1703 157.302 46.4926 157.844C45.6115 158.59 45.9504 157.438 47.7125 154.185C52.9988 144.357 57.2686 130.735 62.2838 108.302C65.808 92.3074 68.1123 83.7002 71.7043 73.1953C77.8717 54.8965 79.0238 52.7277 83.6324 50.1523C87.6988 47.8481 89.0543 46.4926 89.7998 44.1205C90.2742 42.5617 90.2064 42.5617 88.7832 43.5783C87.4955 44.4594 84.7168 44.4594 84.7168 43.5783C84.7168 43.375 86.4111 41.4096 88.4443 39.173C91.9008 35.4455 93.0529 33.209 91.4941 33.209C90.7486 33.209 84.1746 37.0043 82.6836 38.292C82.1414 38.7664 80.9893 39.3764 80.176 39.5797C78.8205 39.9863 78.7527 39.8508 79.0916 37.1398C79.2949 35.5133 79.6338 33.1412 79.9049 31.8535C81.2604 25.3473 77.465 26.8383 73.6697 34.2256C72.6531 36.0555 71.9076 37.0721 71.8398 36.3943C71.8398 35.7844 71.5687 35.2422 71.2299 35.2422C70.891 35.2422 70.4844 34.5645 70.2811 33.6834C70.01 32.8701 69.4 31.5824 68.8578 30.8369C67.2313 28.7359 66.6213 30.4303 66.0791 38.5631C65.5369 47.0348 64.6559 51.0334 60.2506 65.0625C58.4885 70.8232 54.8287 82.4125 52.1855 90.7486C49.6102 99.0848 46.6959 109.319 45.6793 113.453C44.7305 117.587 43.2395 124.025 42.4262 127.753C41.5451 131.48 40.1219 136.36 39.2408 138.597L37.6143 142.663L37.1398 136.902C35.9199 123.483 34.4967 109.115 33.8867 104.032C33.4801 101.05 32.9379 90.952 32.5312 81.667C31.9213 64.9947 30.2947 48.8647 29.2104 48.1191C28.8715 47.9158 28.4648 47.1025 28.1938 46.2215C27.4482 43.9172 25.3473 44.3238 24.8051 46.8315C24.3307 49.4068 22.8396 49.1357 22.3652 46.4248C21.823 43.5105 20.332 43.4428 20.332 46.357C20.332 49.3391 19.7221 49.4068 17.96 46.6281C16.0623 43.5783 14.9102 43.4428 14.9102 46.2215C14.9102 47.5092 15.3168 48.9324 15.7912 49.4068C16.4689 50.0846 16.4012 50.1523 15.4523 49.8135C14.8424 49.5424 14.1646 48.7291 13.9613 47.9158C13.758 47.1025 12.7414 45.5437 11.7926 44.4594C10.5049 43.0361 9.89492 42.6973 9.28496 43.3072C8.47168 44.1205 9.9627 49.6779 13.2836 58.2174C16.2656 65.808 16.8078 72.9242 17.1467 109.115C17.35 127.55 17.2145 143.409 16.9434 144.357C16.6045 145.577 16.4689 145.171 16.4689 142.663C16.4689 137.106 12.6059 131.006 6.84512 127.279C5.15078 126.262 2.91426 125.381 1.89766 125.381H0V229.413V333.445H520.5H1041V225.279V117.18L1039.37 118.468C1035.31 121.653 1031.38 128.295 1029.21 135.479C1027.85 140.155 1027.78 148.898 1029.14 155.269C1029.75 157.98 1030.02 160.623 1029.89 161.03C1029.68 161.504 1029.89 162.046 1030.36 162.25C1030.9 162.453 1030.9 162.588 1030.43 162.588C1030.02 162.656 1029.34 162.25 1028.94 161.775C1027.65 160.216 1021.96 139.003 1019.31 125.923C1015.52 107.014 1014.5 97.8648 1014.43 83.2935C1014.43 70.3488 1014.57 68.7223 1016.4 60.5217C1017.62 55.0998 1017.14 52.9311 1014.23 50.1523C1011.52 47.5769 1007.66 47.1703 1003.18 48.9324C999.658 50.3557 999.252 50.7623 998.371 53.541C997.422 56.3875 997.49 56.8619 999.387 62.216C1001.62 68.6545 1001.56 68.0445 1000.67 97.2549C1000.13 115.621 1000.74 127.143 1003.05 138.8C1006.3 155.676 1006.5 157.167 1006.03 161.436C1005.76 163.944 1005.96 167.333 1006.37 169.569C1007.05 172.687 1006.98 174.381 1006.1 178.99C1005.55 182.039 1004.94 184.683 1004.81 184.818C1004.13 185.496 1002.37 178.244 1002.37 174.788C1002.37 170.925 1001.01 167.062 997.761 161.64C996.405 159.335 993.152 150.999 992.61 148.356C992.406 147.407 991.797 143.612 991.254 139.884C989.696 129.786 987.595 124.432 977.564 104.846C968.754 87.6988 967.059 83.4291 966.11 75.9062C965.5 71.0943 960.146 65.4014 957.706 66.8924C956.961 67.3668 956.012 67.299 954.589 66.6891C951.81 65.4691 950.319 65.5369 947.134 67.0957C945.643 67.8412 943.813 68.3834 943 68.4512C942.254 68.4512 940.899 69.1289 940.085 69.8744C938.865 71.0266 938.73 71.4332 939.475 71.9076C939.95 72.2465 940.899 72.3142 941.509 72.1109C942.186 71.9076 942.796 72.2465 943.067 73.1275C943.474 74.5508 946.727 78.5494 949.37 80.8537C951.675 83.0225 951.132 83.6324 948.625 81.7348C945.507 79.2949 944.762 79.4982 944.762 82.6158C944.762 86.14 947.066 88.851 951.742 90.7486C955.605 92.3074 957.164 93.934 959.807 99.2881C962.451 104.574 971.193 132.7 971.193 135.954C971.193 136.089 969.296 134.327 966.991 131.955C964.009 129.041 961.841 127.414 959.943 126.872C951.404 124.364 944.423 127.888 939.543 137.038C938.188 139.478 937.984 140.969 937.984 146.594C937.984 155.201 939.137 165.503 940.356 167.875C940.899 168.959 941.373 170.315 941.373 170.992C941.373 171.67 942.051 172.89 942.932 173.703C943.813 174.517 944.897 176.55 945.372 178.244C945.846 179.938 946.524 181.972 946.863 182.853C947.676 184.954 947.676 185.021 946.253 185.021C943.542 185.021 938.391 182.649 932.562 178.854C929.174 176.618 925.65 174.517 924.701 174.178L923.006 173.5L923.21 147.611C923.413 124.432 923.549 121.45 924.633 119.485C926.192 116.503 926.056 113.182 924.226 110.403C922.871 108.37 922.329 108.099 919.211 107.895C910.943 107.421 907.283 113.724 911.349 121.586C912.569 123.89 912.23 128.16 909.452 146.391C908.774 151.067 908.164 156.353 908.096 158.251C908.029 160.081 907.825 161.03 907.69 160.284C907.08 157.98 897.591 142.799 890.272 132.497C889.797 131.887 890.34 129.989 891.695 126.669C894.813 119.281 896.236 114.673 899.692 100.847C903.759 84.5135 905.589 79.0238 909.926 70.4166C911.892 66.4857 914.331 60.8605 915.28 57.8785C918.127 49.1357 916.432 47.1703 910.604 52.5244C908.774 54.2188 907.147 55.5064 907.08 55.3709C906.944 55.2354 907.283 53.541 907.825 51.5078C908.367 49.4746 908.842 46.6959 908.842 45.4082L908.774 43.0361L905.86 46.357L902.946 49.6101L902.607 46.1537C902.403 44.256 902.064 42.4939 901.861 42.2228C900.98 41.4096 899.354 43.5783 899.286 45.6793L899.218 47.7803L898.134 45.2726C897.456 43.8494 896.778 42.6973 896.575 42.6973C895.829 42.6973 895.219 47.0348 895.694 49.2035C895.965 50.559 895.762 51.5078 895.084 52.05C894.271 52.7277 894.067 52.5244 893.728 50.8979C893.322 48.9324 890.882 46.8992 890.001 47.7803C889.73 48.0514 889.391 51.7111 889.255 55.9809C889.12 60.2506 888.849 63.707 888.578 63.707C887.832 63.707 885.46 60.9961 883.495 57.743C881.8 55.032 880.241 54.151 879.36 55.5742C879.157 55.9131 879.767 57.743 880.716 59.5728C881.665 61.4705 882.41 63.3682 882.41 63.8426C882.41 64.317 883.291 66.0791 884.443 67.7057C885.528 69.4 887.087 72.5176 887.9 74.7541C889.323 78.5494 889.391 79.0916 888.578 85.3268C887.764 91.4941 885.596 101.389 883.427 108.37C882.952 110.064 881.868 113.724 881.055 116.367C880.241 119.078 879.496 121.314 879.36 121.314C878.683 121.314 872.719 112.911 870.55 108.912C869.194 106.404 867.161 103.761 866.077 102.948C863.569 101.186 852.793 97.6615 851.167 98.0682C849.337 98.5426 849.54 99.2203 852.658 102.473C854.284 104.168 855.843 106.675 856.385 108.438C856.86 110.132 858.147 112.436 859.164 113.521C863.027 117.722 867.703 124.161 870.482 129.244L873.329 134.395L871.024 138.732C869.737 141.172 867.365 144.357 865.738 145.848C862.553 148.83 856.25 159.2 853.403 166.248C849.608 175.737 842.492 180.413 842.424 173.432C842.424 172.483 843.034 171.128 843.847 170.382C849.133 165.638 852.658 157.438 854.284 146.391C855.979 134.53 854.759 129.515 848.998 124.296C843.508 119.417 840.933 118.332 834.63 118.265C830.021 118.265 828.53 118.604 824.938 120.23C822.634 121.314 819.788 123.212 818.703 124.5C816.06 127.482 812.875 133.853 811.519 138.732C810.367 143.205 810.231 153.642 811.248 157.234C812.739 162.317 812.197 164.215 808.469 167.739C806.572 169.569 805.487 170.789 806.097 170.586C806.707 170.315 807.182 170.45 807.182 170.789C807.182 171.128 806.572 171.602 805.826 171.806C805.081 172.009 804.471 172.619 804.403 173.026C804.403 173.5 803.522 171.06 802.505 167.739C801.489 164.351 799.727 160.081 798.642 158.251C797.49 156.353 795.525 152.897 794.169 150.457C791.255 145.103 790.984 146.187 800.065 127.956C810.638 106.946 813.214 103.829 821.143 102.202C824.667 101.525 828.191 99.0848 828.191 97.3226C828.191 96.5771 827.785 96.5771 825.684 97.3226C824.261 97.7971 821.685 98.2037 819.855 98.2715H816.67L817.077 95.3572C817.28 93.7984 817.687 91.1553 818.025 89.4609C818.364 87.7666 818.771 85.1912 819.042 83.7002C819.245 82.2092 819.584 80.176 819.788 79.0916C820.126 77.6006 819.923 77.2617 818.771 77.2617C817.822 77.2617 816.941 78.1428 815.992 79.9727C815.247 81.4637 814.501 82.6836 814.298 82.6836C814.162 82.6836 814.162 81.1248 814.366 79.2271C814.501 77.3972 814.501 75.4996 814.23 75.1607C813.552 74.0086 811.926 75.974 811.926 78.0072C811.926 79.0916 811.655 79.9727 811.316 79.9727C810.977 79.9727 810.841 79.4305 811.045 78.7527C811.18 78.075 810.706 76.7873 809.96 75.8385L808.605 74.2119L808.469 77.6006C808.334 80.7859 808.334 80.8537 807.927 78.5494C807.588 76.3129 807.385 76.1096 805.962 76.6518C805.013 76.9906 804.267 78.0072 803.996 79.3627C803.657 81.057 803.454 81.2603 802.98 80.3793C802.641 79.7693 802.573 78.9561 802.776 78.6172C802.98 78.2105 802.709 77.9395 802.099 77.9395C800.337 77.9395 800.269 79.6338 801.76 85.1234C803.59 91.4941 803.386 94.0695 800.472 101.321C797.287 109.183 781.699 136.902 780.411 136.902C779.733 136.902 777.904 132.565 775.26 124.635C772.143 115.35 768.144 105.659 763.536 96.5094C759.672 88.6476 754.996 75.2285 754.996 71.7043C754.996 68.79 756.419 65.6725 760.96 58.624C763.942 54.0154 765.501 48.7969 763.874 48.7969C763.468 48.7969 761.773 50.0168 760.147 51.5078C756.487 54.8965 756.284 54.6254 755.809 44.3916C755.606 39.9863 755.199 36.7332 754.725 36.4621C754.318 36.191 753.979 35.5811 753.979 35.1744C753.979 34.7 753.641 34.2256 753.234 34.09C752.556 33.8867 751.811 35.1744 750.659 38.7664C750.049 40.8674 749.032 40.1219 748.083 36.8687C747.609 35.1744 746.931 33.8867 746.524 34.0222C746.186 34.1578 745.914 34.4289 745.982 34.7C746.118 35.0388 745.847 35.2422 745.44 35.2422C744.966 35.2422 744.83 36.5977 745.101 39.1053L745.508 43.0361L744.627 39.7152C743.678 35.9199 742.322 34.9033 741.916 37.7498C741.713 39.3086 741.645 39.173 741.509 37.0721C741.441 35.31 741.17 34.5645 740.628 34.7678C740.018 34.9711 739.815 36.3266 739.883 39.0375C740.018 41.2062 739.883 42.6295 739.612 42.0873C739.002 40.5963 735.206 37.2754 734.529 37.682C732.97 38.6309 734.529 45.5437 737.646 51.8467C738.527 53.6765 739.205 55.3031 739.069 55.4387C738.595 55.9809 736.02 53.7443 734.529 51.5078C732.834 49.0002 730.937 47.5769 730.191 48.2547C729.378 49.1357 731.411 55.7775 745.914 99.2881C760.825 144.29 764.146 153.507 766.856 158.454C767.805 160.081 768.686 162.521 768.957 163.876C769.229 165.232 770.516 168.688 771.804 171.467C774.718 177.702 774.989 179.735 774.04 187.461C772.549 199.999 768.89 205.354 767.534 197.221C767.195 195.323 767.602 193.764 769.161 190.308C771.601 185.021 771.804 181.768 769.906 176.414C767.534 169.637 759.876 158.59 757.571 158.59C757.165 158.59 755.471 157.573 753.708 156.286C752.014 155.066 749.371 153.642 747.88 153.168C741.17 150.999 739.002 148.966 736.02 141.985C731.343 131.074 730.191 123.89 731.75 115.554C732.156 113.317 732.36 111.352 732.224 111.216C732.089 111.013 730.665 112.097 729.174 113.588L726.328 116.231L726.735 112.843C727.006 110.945 727.345 108.709 727.548 107.76C727.955 106.133 727.955 106.133 726.938 107.353C726.328 108.099 725.854 109.386 725.854 110.335C725.854 111.216 725.582 111.691 725.176 111.487C724.837 111.284 724.498 111.42 724.498 111.826C724.498 112.301 724.091 112.504 723.685 112.301C723.21 112.165 722.872 111.623 723.007 111.148C723.075 110.742 722.262 109.319 721.177 108.099L719.144 105.794L718.67 107.963L718.195 110.132L717.314 108.099L716.501 106.065L715.755 107.963C715.349 109.047 715.01 110.2 715.01 110.606C715.01 111.013 714.4 110.674 713.654 109.793C712.638 108.573 712.096 108.37 711.486 108.98C710.062 110.403 712.638 119.62 716.975 128.092C720.974 136.021 726.735 148.898 727.548 151.609C727.819 152.558 727.683 153.168 727.277 153.168C726.192 153.168 719.889 157.641 716.975 160.42C715.416 161.843 714.129 163.944 713.654 165.774C713.18 167.4 712.502 168.756 712.096 168.756C710.943 168.756 709.656 171.06 709.588 173.161L709.52 175.194L708.571 173.5C707.148 171.06 706.199 167.265 705.115 159.945C704.573 156.421 703.624 150.321 703.014 146.391C701.862 138.868 701.658 130.057 701.93 85.7334C701.997 73.0598 701.997 60.2506 701.997 57.2686C701.93 54.2865 701.997 46.6281 702.201 40.3252C702.404 30.8369 702.201 27.9904 701.252 24.0596C700.574 21.4164 699.829 16.0623 699.625 11.9959C699.286 5.89627 699.015 4.74414 698.134 4.74414C697.185 4.74414 696.44 5.89627 694.881 9.82715C694.678 10.166 694.881 10.0305 695.288 9.48828C695.898 8.60721 696.033 8.60721 696.033 9.62381C696.033 10.2338 695.627 11.1826 695.152 11.657C694.678 12.1314 694.068 13.0803 693.797 13.758C693.526 14.4357 692.983 14.7746 692.645 14.5713C692.17 14.3002 691.967 11.7248 692.102 7.79395C692.17 4.26971 692.102 1.21991 691.831 1.0166C690.95 0.0677795 690.137 1.35547 689.324 5.01523C688.307 9.62381 687.087 10.8438 685.596 8.67499C684.986 7.86172 684.512 6.70956 684.512 6.16739C684.512 4.26971 682.885 0 682.207 0C681.326 0 678.683 8.47168 678.887 10.5049C679.022 11.657 678.887 11.657 677.87 10.166C677.26 9.21719 675.769 7.52286 674.617 6.43848C673.465 5.28632 671.838 3.38867 671.025 2.16873C669.534 0 668.856 -0.406647 668.043 0.474396ZM206.031 44.7305C206.031 45.0693 205.76 45.4082 205.354 45.4082C205.015 45.4082 204.676 45.0693 204.676 44.7305C204.676 44.3238 205.015 44.0527 205.354 44.0527C205.76 44.0527 206.031 44.3238 206.031 44.7305ZM653.81 82.1414C653.607 82.6158 653.471 82.2769 653.471 81.3281C653.471 80.3793 653.607 80.0404 653.81 80.4471C653.946 80.9215 653.946 81.7348 653.81 82.1414ZM238.562 91.7652C238.562 91.9008 238.088 92.2396 237.478 92.443C236.936 92.6463 236.665 92.5785 236.868 92.1719C237.275 91.4941 238.562 91.223 238.562 91.7652ZM719.822 111.352C719.144 111.962 719.076 111.894 719.483 110.945C719.686 110.267 720.093 109.929 720.296 110.132C720.499 110.335 720.296 110.877 719.822 111.352ZM886.138 156.963C887.832 159.81 890.882 164.351 892.915 167.129C896.981 172.619 897.049 172.348 891.153 175.127C888.713 176.279 886.748 177.77 885.731 179.261C884.85 180.548 883.901 181.633 883.698 181.633C883.427 181.633 883.088 182.514 882.885 183.53C882.478 185.564 879.699 187.529 878.344 186.716C877.056 185.903 877.937 175.398 879.699 170.45C881.394 165.571 882.952 157.438 882.749 154.185C882.681 152.897 882.681 151.812 882.817 151.812C882.885 151.812 884.376 154.117 886.138 156.963ZM973.43 171.399C973.023 175.94 972.142 176.075 971.193 171.873C970.583 168.959 972.481 163.605 973.294 165.909C973.565 166.655 973.633 169.095 973.43 171.399ZM675.43 177.16C674.82 178.786 673.804 180.548 673.261 181.023C672.651 181.497 672.99 180.413 674.007 178.447C674.956 176.55 675.701 174.584 675.701 174.11C675.701 173.636 675.904 173.5 676.108 173.703C676.379 173.974 676.04 175.533 675.43 177.16ZM417.959 182.107C421.551 189.088 423.72 195.188 423.448 197.627C423.245 199.389 422.974 199.051 420.466 194.171C417.281 188.004 414.773 181.091 414.773 178.583C414.773 177.634 414.909 176.889 415.045 176.889C415.112 176.889 416.468 179.261 417.959 182.107Z" fill="black"/>
</svg>
