<svg width="1585" height="114" viewBox="0 0 1585 114" fill="none" xmlns="http://www.w3.org/2000/svg">
<path d="M603.11 59.6586C612.964 61.2693 622.193 62.8426 633.841 64.8008C633.847 64.8018 633.854 64.8028 633.86 64.8038C635.519 65.0826 637.235 65.3704 639.014 65.6677C653.292 68.0179 671.839 71.2213 699.928 74.997C730.974 79.1616 755.763 80.9432 770.915 81.3043C772.892 81.3564 774.962 81.4041 778.5 81.4144C780.057 81.4175 781.884 81.4175 784.067 81.4093C788.955 81.3857 795.427 81.3489 804.913 81.0886C809.952 80.9452 815.805 80.7356 822.634 80.3488C845.158 79.1894 881.028 75.3271 910.845 61.4856C911.932 61.0138 913.01 60.5376 914.09 60.0536C930.791 52.2707 946.252 43.8053 958.402 37.9625C977.289 28.7291 995.814 20.4092 1016.7 13.2716C1035.82 6.88733 1057.03 1.00219 1082.24 0.14621C1085.68 0.0515985 1089.13 0.0769824 1092.54 0.233001C1108.39 0.993404 1123.27 6.38806 1137.25 13.2923C1139.43 14.3722 1141.56 15.4789 1143.72 16.6473C1158.46 24.6382 1172.66 34.3404 1187.67 45.1291C1214.43 64.3964 1235.12 80.776 1260.47 95.1184C1270.37 100.614 1281.11 105.847 1293.36 109.308C1295.5 109.905 1297.77 110.465 1300.11 110.937C1319.41 114.651 1345.36 107.461 1369.65 98.5591C1371.96 97.7028 1374.3 96.8126 1376.65 95.8951C1376.66 95.8904 1376.67 95.8858 1376.68 95.8812C1401.58 86.1269 1425.19 74.361 1442.29 65.4462C1469.42 51.1416 1479.22 45.1749 1487.63 40.3536C1490.65 38.5908 1493.71 36.792 1497.07 34.8064C1509.37 27.5346 1528.07 16.2133 1546.52 4.26407C1546.59 4.22068 1546.65 4.17758 1546.72 4.1349C1549.85 2.11093 1552.36 0.547013 1552.24 0.746181C1552.41 0.760052 1550.01 2.45458 1546.88 4.48209C1536.94 10.9148 1527.51 16.811 1518.77 22.1741C1518.41 22.4964 1515.9 24.1132 1513.23 25.7354C1506.16 29.9495 1484.77 43.314 1450.02 62.0409C1452.4 60.792 1454.43 59.7175 1456.18 58.7902C1458.24 57.6983 1459.8 56.8626 1461.14 56.1444C1463.97 54.6239 1465.86 53.6027 1469.15 51.7898C1476.83 47.5337 1488.73 40.7698 1501.19 33.3685C1504.37 31.4779 1506.87 30.0771 1506.91 30.1734C1506.95 30.2718 1504.51 31.8318 1501.32 33.7239C1501.26 33.7609 1501.2 33.798 1501.14 33.8349C1488.79 41.1656 1476.51 48.1542 1468.49 52.5863C1466.46 53.7072 1464.7 54.6739 1463.37 55.3992C1462.31 55.9812 1460.98 56.6985 1460.26 57.0875C1460.16 57.1395 1459.98 57.2385 1459.76 57.3561C1459.75 57.3581 1459.75 57.36 1459.74 57.362C1459.62 57.4277 1458.99 57.7636 1458.31 58.115C1458.17 58.186 1457.88 58.3401 1457.53 58.5164C1457.44 58.5636 1457.35 58.6108 1457.26 58.658C1456.02 59.3164 1454.75 59.988 1453.37 60.7152C1447.99 63.514 1439.55 68.0927 1421.58 76.8619C1404.97 84.6101 1377.05 99.0158 1339.45 108.784C1341.94 108.188 1344.49 107.527 1347.07 106.806C1353.37 105.049 1359.72 102.996 1366 100.768C1368.46 99.8949 1370.72 99.0694 1373.13 98.1593C1377.02 96.6903 1380.81 95.1948 1384.65 93.6266C1387.25 92.5606 1389.81 91.4858 1392.37 90.3925C1392.37 90.39 1392.38 90.3875 1392.39 90.385C1395.94 88.8637 1399.53 87.2843 1403.07 85.6853C1404.32 85.1229 1405.55 84.5618 1406.77 83.9999C1411.65 81.7612 1416.38 79.5298 1421.83 76.8898C1422.49 76.5704 1423.21 76.2229 1423.75 75.9632C1424.32 75.6841 1424.88 75.415 1425.4 75.1603C1425.86 74.9356 1426.31 74.7211 1426.73 74.5151C1426.79 74.4875 1426.84 74.4598 1426.9 74.4322C1427.37 74.2014 1427.82 73.9803 1428.26 73.7673C1428.69 73.5548 1429.11 73.3496 1429.52 73.1469C1429.52 73.145 1429.53 73.1431 1429.53 73.1412C1429.96 72.9293 1430.28 72.7683 1430.74 72.5424C1431.31 72.2585 1431.8 72.0139 1432.39 71.7165C1432.97 71.4288 1433.56 71.1278 1434.17 70.8229C1434.77 70.5182 1435.38 70.2069 1436.01 69.8902C1436.63 69.5734 1437.26 69.2506 1437.9 68.9246C1438.53 68.5988 1439.18 68.2679 1439.82 67.9347C1440.47 67.6012 1441.12 67.2646 1441.78 66.9215C1443.3 66.134 1444.76 65.3924 1445.84 64.8648C1446.92 64.3374 1447.53 64.0667 1447.54 64.1131C1447.56 64.1596 1446.98 64.5203 1445.92 65.1154C1444.86 65.7108 1443.42 66.4919 1441.9 67.2837C1441.48 67.4995 1441.07 67.7156 1440.66 67.9308C1440.41 68.0588 1440.16 68.1879 1439.91 68.3163C1439.25 68.6618 1438.57 69.0105 1437.89 69.3603C1437.22 69.7099 1436.53 70.0619 1435.84 70.4169C1435.14 70.773 1434.43 71.133 1433.72 71.4969C1433 71.8599 1432.27 72.2299 1431.53 72.6042C1430.8 72.9698 1429.97 73.3841 1429.23 73.7532C1428.69 74.0231 1428.02 74.3542 1427.46 74.6294C1426.88 74.9167 1426.31 75.1985 1425.75 75.4692C1425.2 75.7406 1424.66 76.0021 1424.15 76.2513C1424.09 76.278 1424.04 76.3047 1423.98 76.3313C1423.53 76.5515 1423.09 76.7636 1422.68 76.9638C1422.22 77.1876 1421.78 77.3992 1421.36 77.6C1420.91 77.8212 1420.63 77.9556 1420.29 78.1205C1415.75 80.3212 1410.19 82.9631 1404.78 85.4364C1404.1 85.7458 1403.43 86.0519 1402.76 86.3531C1399.25 87.9438 1395.66 89.5334 1392.11 91.0579C1389.54 92.1622 1386.94 93.2601 1384.31 94.3393C1380.46 95.9181 1376.61 97.4452 1372.69 98.928C1370.26 99.8462 1367.96 100.691 1365.46 101.578C1359.1 103.833 1352.65 105.919 1346.12 107.722C1339.57 109.528 1333.01 111.051 1326.16 112.102C1319.58 113.109 1312.22 113.689 1305.48 113.074C1303.53 112.898 1301.64 112.626 1299.84 112.254C1296.79 111.627 1293.7 110.81 1290.89 109.946C1288.44 109.192 1286.06 108.369 1283.76 107.498C1283.76 107.495 1283.75 107.492 1283.74 107.489C1281.7 106.716 1279.73 105.911 1277.79 105.072C1273.58 103.25 1269.58 101.3 1265.65 99.2322C1261.69 97.1478 1257.85 94.9725 1254.01 92.6768C1250.22 90.4083 1246.41 88.0161 1242.66 85.5699C1238.93 83.1371 1235.26 80.6646 1231.47 78.0466C1226.46 74.5911 1221.56 71.1027 1216.54 67.476C1211.56 63.8869 1206.56 60.2293 1201.54 56.5727C1199.79 55.2946 1198.04 54.0151 1196.28 52.7369C1196.27 52.732 1196.26 52.727 1196.26 52.7221C1192.99 50.3535 1189.73 47.9967 1186.44 45.6486C1181.38 42.0357 1176.25 38.4427 1171.06 34.9484C1165.85 31.4415 1160.56 28.0212 1155.15 24.7408C1149.75 21.4734 1144.06 18.2543 1138.24 15.3288C1133.02 12.7015 1127.68 10.3078 1122.31 8.29419C1120.89 7.76122 1119.47 7.25629 1118.05 6.7809C1111.23 4.49552 1104.44 2.88686 1097.64 2.13512C1095.91 1.94485 1094.19 1.81061 1092.47 1.73511C1087.36 1.51008 1082.19 1.58218 1077.03 1.90727C1070.13 2.34142 1063.17 3.22968 1056.23 4.48098C1049.25 5.73951 1042.42 7.33041 1035.53 9.21979C1028.7 11.0977 1021.9 13.2524 1015.1 15.6428C1011.31 16.9733 1007.31 18.4567 1003.56 19.9145C999.759 21.3889 996.017 22.9056 992.331 24.4539C990.844 25.0784 989.354 25.7129 987.881 26.3491C985.737 27.2748 983.624 28.2048 981.537 29.1394C978.046 30.7022 974.622 32.2799 971.321 33.836C968.031 35.3864 964.817 36.9371 961.782 38.4279C958.573 40.0042 955.99 41.2964 952.875 42.8737C945.303 46.7051 940.608 49.1361 935.399 51.8061C934.358 52.3399 933.382 52.8409 932.239 53.4255C926.496 56.3543 920.702 59.3167 914.929 61.9256C914.409 62.159 913.891 62.3903 913.374 62.6195C906.967 65.4579 900.546 68.0279 893.908 70.271C887.343 72.4934 880.613 74.3696 873.811 75.8963C867.065 77.4141 860.178 78.6097 853.337 79.5464C846.477 80.4879 839.426 81.1978 832.658 81.7191C828.755 82.0209 824.612 82.282 820.719 82.4837C817.971 82.6265 815.177 82.7499 812.505 82.8509C811.408 82.8925 810.267 82.9328 809.217 82.9672C805.493 83.0895 801.891 83.1783 798.331 83.2455C794.887 83.3104 791.42 83.355 788.135 83.3833C784.816 83.4117 781.76 83.4252 778.5 83.429C778.423 83.4291 778.346 83.4291 778.268 83.4291C774.933 83.429 772.051 83.3941 768.505 83.311C766.173 83.2552 763.856 83.1797 761.595 83.0898C758.174 82.9534 754.796 82.7816 751.376 82.5755C747.949 82.3687 744.617 82.1365 741.223 81.8732C740.144 81.7895 739 81.6977 737.912 81.6076C734.532 81.3278 731.236 81.0301 727.905 80.7082C724.59 80.3876 721.324 80.0509 718.053 79.6963C714.793 79.3428 711.548 78.9731 708.283 78.5864C702.704 77.9254 697.378 77.2334 692.716 76.6014C687.998 75.9617 683.593 75.3356 679.308 74.7104C678.506 74.5932 677.703 74.4754 676.901 74.357C673.445 73.8473 670.049 73.3351 666.704 72.8229C662.59 72.193 658.534 71.5602 654.484 70.9203C650.455 70.2836 646.404 69.6353 642.404 68.9908C638.386 68.3432 634.514 67.7147 630.361 67.0393C626.249 66.3706 622.063 65.6902 617.51 64.9515C612.959 64.2134 608.209 63.4438 603.402 62.672C598.581 61.8979 593.683 61.1185 588.852 60.3663C583.966 59.6056 579.075 58.8612 574.294 58.1641C569.408 57.4519 564.641 56.7875 559.82 56.168C555.104 55.5613 550.062 54.9709 545.472 54.5201C545.266 54.4999 545.061 54.4798 544.856 54.46C537.641 53.7676 530.379 53.8186 523.117 54.2463C515.682 54.6902 508.227 55.5459 500.805 56.6207C493.422 57.6918 486.05 58.9867 478.69 60.3964C471.328 61.8076 464.012 63.3288 456.685 64.893C455.067 65.2383 453.449 65.586 451.829 65.9353C446.13 67.164 440.431 68.4093 434.752 69.6337C434.713 69.6421 434.674 69.6505 434.635 69.6589C427.337 71.2321 420.125 72.761 412.853 74.2026C410.161 74.7358 407.632 75.2237 404.985 75.7174C402.356 76.2074 399.806 76.6659 397.182 77.1159C394.581 77.5617 391.982 77.9852 389.416 78.3768C386.853 78.7678 384.282 79.1332 381.741 79.4622C379.446 79.7593 377.03 80.0461 374.514 80.3039C374.283 80.3276 374.053 80.3509 373.822 80.3738C370.981 80.657 367.883 80.9093 364.848 81.0742C356.981 81.4917 349.237 81.4565 341.41 80.357C338.835 79.9915 336.156 79.4763 333.648 78.8228C328.574 77.5045 323.614 75.8036 318.752 73.8098C315.9 72.6403 313.08 71.3699 310.295 70.0223C305.965 67.9269 301.723 65.6478 297.528 63.2532C290.635 59.3178 283.911 55.0977 277.163 50.8573C270.439 46.6311 263.696 42.387 256.843 38.4156C250 34.4473 242.951 30.7038 235.782 27.5223C227.801 23.9749 219.571 21.0792 211.097 19.0944C202.643 17.1061 193.965 16.0446 185.3 15.9424C184.868 15.9371 184.434 15.9341 184 15.9334C175.734 15.9287 167.471 16.6928 159.266 17.8047C150.62 18.986 142.022 20.5814 133.461 22.4198C128.33 23.523 123.233 24.7125 118.149 25.9728C115.463 26.6528 112.881 27.3279 110.415 27.9877C92.1736 32.9196 79.0958 37.0076 61.9917 42.6791C60.3622 43.2251 58.9947 43.6897 57.3863 44.2403C57.0785 44.3457 56.7527 44.4574 56.4214 44.5712C54.3715 45.2757 51.8259 46.1541 48.5252 47.3067C41.792 49.6604 31.4631 53.3037 18.2384 58.2278C15.0231 59.425 12.7044 60.2167 13.4259 59.8292C13.8753 59.5798 15.7341 58.8078 17.8081 58.0011C13.8414 59.4959 9.86217 61.0208 5.91409 62.5684C5.15638 62.8652 4.26074 63.2137 3.64926 63.4461C3.37793 63.5484 2.92567 63.7224 2.61483 63.8392C2.28914 63.962 2.01846 64.0619 1.79413 64.1425C1.7069 64.1727 1.51965 64.2431 1.388 64.2911C1.25129 64.3411 1.13647 64.3821 1.03894 64.4161C0.836999 64.4868 0.741029 64.5141 0.607902 64.5562C0.15319 64.7174 0.311691 64.6271 0.26959 64.6181C0.149449 64.6149 1.07924 64.1853 2.13807 63.7241C2.41692 63.6031 2.74835 63.4621 3.13888 63.2991C3.47497 63.1578 3.76378 63.0368 4.13058 62.8861C4.48948 62.7386 4.88471 62.5782 5.31393 62.4059C5.72694 62.24 6.04622 62.1128 6.44293 61.9565C10.6208 60.311 14.936 58.6509 19.0929 57.0794C23.2615 55.5035 27.53 53.919 31.7391 52.3844C35.9947 50.8328 40.2661 49.304 44.4592 47.831C48.7634 46.3191 52.9987 44.8603 57.2387 43.4294C61.5787 41.9652 65.7759 40.5789 70.0881 39.1878C72.6501 38.3613 75.3149 37.5144 77.8573 36.719C78.8132 36.4199 79.7496 36.1285 80.6895 35.8378C81.4565 35.6007 82.2367 35.3606 83.0273 35.1186C91.36 32.5675 99.8199 30.1163 108.252 27.8553C116.723 25.5846 125.215 23.4872 133.784 21.6322C142.353 19.7805 150.963 18.173 159.627 16.9841C167.711 15.8841 175.831 15.1261 184 15.1114C184.584 15.111 185.165 15.1148 185.744 15.1226C194.451 15.2358 203.171 16.3145 211.65 18.3145C218.22 19.8595 224.602 21.9296 230.828 24.4149C233.279 25.3849 235.685 26.4113 238.036 27.4753C244.878 30.5714 251.529 34.1094 257.957 37.8084C246.536 31.1863 236.959 26.5766 227.5 23.0723C226.234 22.6045 224.973 22.1582 223.702 21.7291C211.799 17.7739 199.71 15.1586 184 15.0887C182.681 15.0887 181.312 15.1094 179.889 15.1526C129.403 18.8225 101.487 30.1086 83.9224 34.7037C66.4225 40.0518 58.9951 42.6252 52.0296 44.9095C42.1898 48.1323 23.3399 54.9255 13.9753 58.5654C13.1078 58.8985 12.3164 59.1981 11.6212 59.4568C10.8517 59.7443 10.1478 60.0031 9.59546 60.1999C8.4898 60.5941 7.84989 60.795 7.805 60.7568C7.77595 60.657 10.5888 59.4623 13.9005 58.1919C23.8106 54.3388 44.1858 47.0015 55.9325 43.2044C61.1882 41.5119 67.1238 39.4382 84.3656 34.177C101.685 29.679 129.318 18.4391 180.005 14.7734C181.387 14.7326 182.717 14.7131 184 14.7132C199.185 14.7847 210.885 17.1848 222.721 21.0053C223.988 21.4213 225.254 21.8573 226.521 22.3139C226.529 22.3167 226.537 22.3196 226.545 22.3224C238.26 26.5467 250.452 32.6399 266.04 42.1877C286.843 54.9396 311.491 71.8958 334.037 77.3252C350.12 81.1648 363.567 79.4491 369.117 79.1784C371.744 78.9662 374.293 78.7114 376.956 78.4045C387.231 77.1753 399.563 75.3908 427.062 69.4991C433.071 68.2155 440.112 66.6709 447.791 64.9984C459.308 62.4386 470.497 60.0158 480.288 58.1376C488.721 56.5166 496.564 55.1517 504.179 54.0742C506.365 53.7653 508.572 53.4749 510.795 53.2099C516.082 52.578 521.511 52.0904 526.707 51.8551C530.915 51.6653 535.3 51.6036 539.904 51.8028C541.624 51.8782 543.35 51.9902 545.079 52.1464C560.752 53.5722 579.218 56.246 602.531 60.0539C629.926 64.5578 653.394 68.5642 673.667 71.6212C658.785 69.3483 647.305 67.4325 637.751 65.8388C635.945 65.5366 634.222 65.2472 632.568 64.9691C620.819 62.9918 612.299 61.5411 603.129 60.0422C575.327 55.4854 558.517 53.1645 545.103 51.8993C537.31 51.1953 530.711 51.3206 523.836 51.7175C518.839 52.0201 513.462 52.5438 507.574 53.3077C495.944 54.81 482.671 57.2618 468.572 60.2012C455.403 62.9319 440.78 66.3035 425.223 69.6727C425.217 69.674 425.211 69.6753 425.205 69.6766C422.174 70.3313 419.085 70.9884 415.986 71.6311C397.06 75.4966 376.992 79.3414 357.17 79.6245C355.11 79.6441 352.48 79.6229 349.641 79.4756C345.181 79.2321 339.929 78.744 334.057 77.2502C317.444 73.306 297.151 61.9094 274.879 47.5337C268.173 43.3213 261.207 38.9285 253.007 34.3358C250.505 32.9379 247.89 31.5286 245.125 30.1197C233.207 24.172 218.003 17.2337 196.327 14.8696C192.426 14.466 188.32 14.2356 184 14.2318C168.793 14.2441 151.74 16.8569 134.445 20.5282C123.541 22.8533 112.525 25.6339 101.741 28.6237C69.1999 37.7233 39.8469 47.9548 11.0684 58.9952C11.0621 58.9976 11.0559 59 11.0496 59.0025C7.58779 60.3392 4.91202 61.3089 5.04691 61.1435C5.06086 61.0268 7.8495 59.8333 11.3479 58.4844C40.1592 47.4458 69.4277 37.258 101.883 28.1945C112.51 25.2524 123.446 22.4908 134.317 20.1714C151.56 16.5098 168.68 13.8694 184 13.8561C188.527 13.8602 192.816 14.1115 196.898 14.552C218.987 17.0621 234.468 24.3013 246.524 30.414C249.438 31.9228 252.137 33.4028 254.681 34.844C262.769 39.4432 269.3 43.5857 275.659 47.5811C297.812 61.8842 317.813 72.9996 334.152 76.8852C339.303 78.2024 344.089 78.7335 348.148 79.0091C351.122 79.2056 353.746 79.2539 355.969 79.2535C375.296 79.1524 395.143 75.467 414.027 71.6479C417.071 71.0233 420.158 70.3726 423.165 69.7276C423.171 69.7262 423.177 69.7249 423.183 69.7235C438.731 66.3802 453.622 62.9374 467.032 60.1365C480.639 57.2865 492.554 55.03 503.824 53.4297C509.83 52.5783 515.739 51.9063 521.504 51.4903C529.118 50.9639 536.512 50.7461 545.139 51.5242C558.956 52.8299 575.965 55.2123 603.11 59.6586ZM24.0175 55.6822C32.3192 52.6358 38.9665 50.2715 44.0073 48.4936C39.7767 49.9707 35.4796 51.5 31.25 53.0332C28.8562 53.9008 26.4187 54.7935 24.0175 55.6822ZM448.923 65.1364C447.534 65.4444 446.134 65.7554 444.73 66.0676C448.609 65.2197 452.494 64.372 456.369 63.5386C461.132 62.514 465.895 61.5074 470.664 60.5381C463.068 62.0764 455.753 63.6523 448.923 65.1364ZM602.534 60.4348C578.99 56.5946 561.146 54.005 545.042 52.5287C544.44 52.4743 543.836 52.4251 543.231 52.3809C538.39 52.0298 533.74 52.001 529.146 52.1433C527.196 52.2048 525.34 52.2966 523.407 52.4201C531.15 51.9712 538.495 52.0257 545.029 52.6634C547.858 52.9373 550.72 53.2509 553.243 53.5462C578.217 56.6185 592.325 59.217 604.708 61.2111C608.296 61.8078 611.74 62.3851 615.264 62.9764C618.205 63.4513 621.182 63.9333 624.268 64.4345C628.527 65.126 633.174 65.8815 637.57 66.592C641.996 67.3075 646.495 68.0304 650.896 68.7294C655.352 69.4372 659.752 70.1276 664.151 70.8052C668.277 71.4408 672.404 72.0648 676.39 72.653C676.618 72.6868 676.847 72.7204 677.075 72.7541C681.293 73.3749 685.393 73.9612 689.168 74.4827C693.01 75.0134 696.202 75.4357 699.042 75.797C702.58 76.247 706.229 76.6953 709.819 77.117C713.425 77.5406 717.007 77.9425 720.593 78.3227C724.188 78.7039 727.732 79.0575 731.305 79.3884C732.459 79.4952 733.655 79.603 734.8 79.7035C735.33 79.75 735.86 79.7957 736.387 79.8408C729.416 79.2221 722.163 78.4673 714.704 77.5942C703.914 76.3312 692.414 74.7862 679.757 72.9137C658.159 69.7409 633.209 65.4876 602.534 60.4348ZM842.407 79.2C839.376 79.516 834.948 79.942 829.215 80.3538C827.867 80.4507 826.391 80.5505 824.926 80.6426C824.961 80.6405 824.997 80.6382 825.032 80.6362C828.742 80.4133 832.195 80.1684 835.867 79.8588C842.451 79.301 848.845 78.6027 855.275 77.6775C861.736 76.7461 868.087 75.6031 874.449 74.147C880.79 72.6973 887.087 70.9321 893.21 68.8733C899.409 66.7918 905.398 64.432 911.366 61.832C912.343 61.4064 913.323 60.9732 914.305 60.5329C915.178 60.1414 916.086 59.7239 917.029 59.2823C916.093 59.7178 915.184 60.1334 914.302 60.5265C910.913 62.0365 907.393 63.5375 903.68 65.0041C899.903 66.4955 895.925 67.9507 891.691 69.3284C890.065 69.8571 888.1 70.4728 885.792 71.1426C876.649 73.8263 862.018 77.1999 842.407 79.2ZM963.487 35.9611C964.84 35.306 966.235 34.6364 967.557 34.0069C971.372 32.1913 975.118 30.4527 978.818 28.7839C981.392 27.6227 983.992 26.474 986.518 25.3824C987.591 24.919 988.667 24.458 989.739 24.0039C991.513 23.2519 993.287 22.5124 995.061 21.7861C982.647 26.8525 970.774 32.318 958.51 38.3272C958.349 38.4064 958.187 38.4859 958.025 38.5656C959.88 37.6728 961.723 36.7937 963.487 35.9611ZM591.825 43.0327C601.462 46.208 610.414 49.422 621.671 53.5863C621.677 53.5885 621.683 53.5907 621.689 53.5929C623.292 54.1866 624.971 54.8111 626.678 55.4481C640.436 60.5356 658.23 67.5341 685.307 77.1692C715.23 87.8248 739.596 94.4954 754.739 96.8726C757.553 97.3029 760.496 97.8789 767.898 98.4093C771.855 98.6295 777.055 98.8983 783.849 97.9501C785.289 97.7386 786.881 97.4824 788.655 97.1704C793.558 96.3098 799.519 95.0684 806.203 93.5143C828.705 88.3325 863.348 78.3946 895.396 69.3681C914.823 63.8913 933.31 58.7979 947.382 55.0983C967.978 49.6894 987.95 44.7081 1009.81 40.2627C1029.31 36.527 1050.48 32.1678 1075.04 32.7732C1075.74 32.8046 1076.46 32.842 1077.18 32.8855C1096.75 34.1927 1115.29 38.7631 1133.85 43.8698C1136.2 44.5247 1138.55 45.1956 1140.93 45.8889C1157.23 50.6376 1173.74 56.0375 1191.55 61.9167C1223.31 72.399 1248.57 80.9075 1277.17 88.4142C1288.34 91.306 1300.03 94.0419 1312.81 96.0885C1319.27 97.1092 1326.57 98.0455 1334.53 98.4222C1351.72 99.1364 1371.84 94.8065 1391.28 89.3395C1393.76 88.6383 1396.14 87.9364 1398.55 87.2071C1398.57 87.2034 1398.58 87.1997 1398.59 87.196C1424.6 79.2982 1449.4 69.3951 1467.44 61.8417C1496.05 49.7215 1506.62 44.5045 1515.4 40.4328C1518.8 38.8327 1521.8 37.4041 1525.46 35.6523C1538.68 29.3201 1558.36 19.6682 1578.18 9.24848C1578.26 9.20871 1578.33 9.16932 1578.41 9.13023C1581.69 7.40369 1584.32 6.08231 1584.28 6.2225C1584.35 6.30508 1581.82 7.76158 1578.53 9.49191C1568.08 14.987 1557.63 20.2853 1548.44 24.8542C1548.02 25.164 1545.64 26.4195 1542.58 27.9236C1535.03 31.5678 1512.3 43.1018 1475.55 59.0527C1478.06 57.9936 1480.2 57.0841 1482.05 56.2975C1484.22 55.3706 1485.86 54.6653 1487.29 54.0496C1490.29 52.7554 1492.28 51.8928 1495.75 50.3486C1503.88 46.717 1516.53 40.9058 1529.76 34.5467C1533.03 32.9736 1535.82 31.7103 1535.85 31.8133C1535.88 31.9125 1533.14 33.3378 1529.86 34.9126C1529.8 34.9439 1529.73 34.9751 1529.67 35.0064C1516.56 41.306 1503.5 47.3085 1495.01 51.0903C1492.87 52.0451 1491.01 52.8674 1489.61 53.4838C1488.49 53.9754 1487.07 54.5961 1486.31 54.9238C1486.21 54.968 1486.01 55.052 1485.78 55.1518C1485.78 55.1534 1485.77 55.1551 1485.77 55.1567C1485.64 55.2125 1484.97 55.4974 1484.26 55.794C1484.11 55.8539 1483.8 55.9839 1483.43 56.132C1483.34 56.1721 1483.24 56.2121 1483.15 56.2521C1481.84 56.8104 1480.5 57.3795 1479.04 57.9954C1473.37 60.3634 1464.44 64.2619 1445.55 71.6181C1428.09 78.0643 1398.74 90.3223 1359.92 97.3159C1362.49 96.9081 1365.27 96.4049 1367.8 95.9031C1374.34 94.6081 1380.92 93.0226 1387.41 91.2754C1389.88 90.6114 1392.36 89.9154 1394.87 89.1872C1398.8 88.0471 1402.92 86.7874 1406.85 85.5316C1409.52 84.6779 1412.23 83.7883 1414.93 82.8803C1414.94 82.8783 1414.94 82.8762 1414.95 82.8742C1418.63 81.6355 1422.38 80.3325 1426.12 78.9982C1427.42 78.5338 1428.71 78.0698 1429.99 77.6043C1435.1 75.7429 1440.06 73.8812 1445.8 71.6653C1446.5 71.3978 1447.25 71.1069 1447.81 70.8895C1448.42 70.6557 1449 70.4303 1449.55 70.2169C1450.04 70.0286 1450.5 69.8489 1450.95 69.6761C1451.01 69.653 1451.07 69.6298 1451.13 69.6066C1451.62 69.4132 1452.1 69.2277 1452.56 69.0489C1453.01 68.8705 1453.45 68.6983 1453.88 68.5279C1453.89 68.5264 1453.89 68.5248 1453.89 68.5232C1454.35 68.3451 1454.69 68.2097 1455.17 68.0198C1455.77 67.7813 1456.28 67.5757 1456.91 67.3251C1457.51 67.0827 1458.14 66.829 1458.78 66.5718C1459.41 66.3147 1460.06 66.052 1460.71 65.7846C1461.37 65.517 1462.04 65.2443 1462.71 64.9686C1463.38 64.6932 1464.05 64.4133 1464.74 64.1313C1465.42 63.8491 1466.11 63.5637 1466.8 63.2755C1468.4 62.6088 1469.94 61.9836 1471.07 61.542C1472.21 61.1005 1472.85 60.8786 1472.86 60.9262C1472.87 60.9739 1472.25 61.2881 1471.13 61.7989C1470.01 62.3099 1468.49 62.9756 1466.88 63.6466C1466.45 63.8283 1466.02 64.0105 1465.58 64.1932C1465.32 64.3016 1465.06 64.411 1464.79 64.5198C1464.09 64.8125 1463.38 65.1077 1462.66 65.4038C1461.95 65.6996 1461.23 65.9973 1460.49 66.2974C1459.76 66.5984 1459.02 66.9026 1458.26 67.2097C1457.51 67.5162 1456.74 67.8285 1455.95 68.1437C1455.19 68.4513 1454.32 68.8005 1453.54 69.111C1452.97 69.3381 1452.26 69.6165 1451.68 69.8477C1451.06 70.0891 1450.46 70.3256 1449.88 70.5528C1449.3 70.7805 1448.73 70.9997 1448.19 71.2086C1448.14 71.2309 1448.08 71.2533 1448.02 71.2756C1447.54 71.4601 1447.08 71.6378 1446.65 71.8054C1446.17 71.9927 1445.7 72.1705 1445.27 72.3394C1444.78 72.5253 1444.49 72.6384 1444.13 72.777C1439.38 74.6149 1433.49 76.842 1427.86 78.8828C1427.15 79.1389 1426.45 79.3921 1425.76 79.6411C1422.03 80.9773 1418.31 82.2779 1414.62 83.5256C1411.88 84.4501 1409.16 85.348 1406.45 86.216C1402.47 87.4955 1398.35 88.7593 1394.36 89.9211C1391.8 90.6661 1389.31 91.3647 1386.81 92.0388C1380.2 93.8206 1373.47 95.4376 1366.81 96.739C1359.96 98.0732 1353.23 99.099 1346.25 99.608C1342.45 99.8848 1338.28 99.9912 1334.46 99.8024C1331.48 99.6602 1328.29 99.4082 1325.37 99.1062C1320.3 98.5861 1315.14 97.834 1310.41 97.0176C1307.89 96.5834 1305.32 96.1009 1302.93 95.6239C1302.92 95.6222 1302.91 95.6206 1302.9 95.6189C1300.77 95.195 1298.62 94.7435 1296.53 94.2857C1292.08 93.3117 1287.65 92.259 1283.27 91.1598C1278.88 90.0556 1274.55 88.9053 1270.2 87.7067C1265.88 86.5143 1261.5 85.2602 1257.15 83.9818C1252.8 82.7006 1248.52 81.4069 1244.06 80.0332C1238.17 78.2189 1232.35 76.3779 1226.37 74.462C1220.44 72.5588 1214.47 70.6167 1208.49 68.6602C1206.4 67.9765 1204.3 67.2907 1202.2 66.6036C1202.2 66.601 1202.19 66.5983 1202.18 66.5957C1198.29 65.3227 1194.42 64.0529 1190.52 62.7781C1184.51 60.8169 1178.49 58.8615 1172.41 56.9213C1166.37 54.9918 1160.27 53.0776 1154.09 51.1987C1147.96 49.3354 1141.59 47.4598 1135.22 45.6854C1129.51 44.0957 1123.72 42.5698 1118.1 41.2113C1116.6 40.8482 1115.07 40.489 1113.58 40.1459C1106.48 38.5179 1099.52 37.1322 1092.62 36.0872C1086.87 35.2159 1080.81 34.5447 1074.97 34.2944C1073.96 34.2507 1072.92 34.221 1071.86 34.2052C1064.82 34.1075 1057.75 34.5845 1050.62 35.3331C1043.34 36.1081 1036.47 37.1154 1029.26 38.3342C1022.2 39.5317 1015.09 40.9047 1007.88 42.4135C1003.96 43.2339 999.615 44.1822 995.691 45.0674C991.666 45.9743 987.641 46.9099 983.716 47.845C982.115 48.2265 980.515 48.6114 978.92 48.9985C976.633 49.554 974.358 50.1136 972.108 50.6737C968.289 51.6246 964.638 52.5521 961.041 53.4804C957.435 54.4112 953.994 55.3145 950.633 56.2094C947.152 57.1366 944.308 57.9051 940.892 58.8393C932.567 61.109 927.432 62.5297 921.703 64.1195C920.576 64.4325 919.425 64.753 918.228 65.0872C911.369 66.9996 904.532 68.9234 897.766 70.8338C890.954 72.7572 884.255 74.6557 877.428 76.5844C870.718 78.4803 863.93 80.3926 857.14 82.2838C850.413 84.1571 843.616 86.0291 836.868 87.8415C830.052 89.6719 823.135 91.4816 816.477 93.1335C812.594 94.0974 808.479 95.0832 804.682 95.9441C802.029 96.5466 799.081 97.188 796.542 97.7072C795.456 97.9298 794.288 98.163 793.213 98.3705C790.214 98.9511 786.935 99.5243 784.142 99.9298C783.561 100.015 782.976 100.091 782.388 100.158C778.761 100.571 775.357 100.66 771.881 100.584C768.566 100.509 765.142 100.255 761.887 99.9004C758.352 99.508 755.705 99.1315 751.99 98.5094C749.689 98.1198 747.412 97.6927 745.095 97.2218C741.733 96.5393 738.304 95.765 734.965 94.953C731.635 94.1436 728.249 93.261 724.977 92.3643C723.913 92.0726 722.783 91.7579 721.705 91.4531C718.399 90.5182 715.192 89.5714 711.917 88.5727C708.731 87.6009 705.497 86.5825 702.341 85.5646C699.189 84.5482 696.011 83.4984 692.866 82.4408C687.468 80.6257 682.332 78.8257 677.823 77.2186C673.285 75.6009 669.031 74.0546 664.914 72.5449C664.142 72.2618 663.37 71.9782 662.598 71.6942C659.278 70.4722 656.003 69.2586 652.793 68.0659C648.829 66.5929 644.941 65.1433 641.039 63.6905C637.154 62.2441 633.278 60.8032 629.409 59.3745C625.552 57.9506 621.782 56.5672 617.807 55.128C613.803 53.6787 609.861 52.2704 605.359 50.6991C601.001 49.1792 596.33 47.5863 591.671 46.0633C586.958 44.5226 582.158 43.0195 577.443 41.6526C572.603 40.2505 567.831 38.9779 563.039 37.8988C558.264 36.8288 553.439 35.9322 548.626 35.4713C546.813 35.2971 544.754 35.1819 543 35.1853C540.171 35.1841 537.135 35.3654 534.296 35.6286C526.724 36.3412 519.243 37.633 511.76 39.1129C504.319 40.5943 496.848 42.3058 489.488 44.088C482.105 45.878 474.721 47.7708 467.379 49.6935C460.004 51.6256 452.684 53.5854 445.333 55.553C443.712 55.9869 442.089 56.4214 440.465 56.8558C434.748 58.3849 429.026 59.9107 423.331 61.4059C423.292 61.4161 423.253 61.4263 423.214 61.4366C415.859 63.3671 408.678 65.2153 401.341 67.0212C398.675 67.6771 396.074 68.3063 393.447 68.928C390.839 69.5455 388.23 70.1497 385.62 70.7377C383.033 71.3205 380.392 71.8983 377.83 72.4392C375.273 72.9789 372.679 73.5064 370.131 74.0001C367.831 74.4456 365.414 74.8948 362.877 75.3344C362.645 75.3746 362.414 75.4145 362.182 75.454C359.422 75.9274 356.146 76.4413 353.202 76.8385C345.312 77.8857 337.532 78.6337 329.466 78.2703C326.69 78.1333 323.856 77.8302 321.213 77.2767C316.121 76.2011 311.177 74.82 306.119 73.3138C303.185 72.4364 300.181 71.4953 297.207 70.5367C292.587 69.0468 288.019 67.5132 283.344 65.9132C275.782 63.3239 268.211 60.6526 260.569 57.9454C252.951 55.2458 245.373 52.5465 237.738 49.854C230.138 47.1734 222.477 44.4973 214.879 41.9021C206.435 39.0178 197.996 36.2079 189.507 33.5032C181.027 30.8018 172.49 28.2039 163.973 25.7997C155.439 23.3917 146.81 21.1425 138.171 19.1938C129.519 17.2467 120.828 15.58 112.063 14.445C106.733 13.7608 101.561 13.2885 96.2308 13.128C95.1197 13.1009 94.0433 13.0896 93 13.0931C91.3493 13.0983 89.7664 13.153 88.2445 13.248C69.3878 14.7109 56.227 20.8196 42.2898 32.194C40.9802 33.2985 39.908 34.2528 38.6622 35.4141C38.4241 35.6365 38.173 35.8731 37.9187 36.1154C36.2894 37.6734 34.4705 39.4808 32.0684 42.1386C27.2899 47.4392 20.4029 56.054 13.5992 68.5685C11.8784 71.743 10.8229 73.756 11.0654 73.0156C11.2573 72.4652 12.026 70.7825 13.1285 68.6757C11.0932 72.4751 9.22669 76.3359 7.5371 80.3082C6.88562 81.8381 6.24997 83.3905 5.83054 84.4137C5.43577 85.3624 5.15263 86.0655 5.17241 85.8554C5.16205 85.7358 5.33257 85.0833 5.77964 83.8124C6.21178 82.581 6.81313 81.0368 7.49582 79.4469C9.30198 75.2429 11.2983 71.1668 13.4838 67.1606C15.6697 63.158 18.0249 59.2729 20.5784 55.4935C23.135 51.7123 25.8454 48.0991 28.7921 44.6044C31.7322 41.1201 34.8442 37.8314 38.1966 34.7339C41.5779 31.6136 45.0629 28.8063 48.8422 26.2186C51.0926 24.6787 53.4535 23.2232 55.8384 21.9157C56.735 21.424 57.5986 20.9714 58.4817 20.5288C59.2026 20.1677 59.9352 19.8143 60.6982 19.4616C68.6746 15.7597 77.3549 13.4579 86.1364 12.7148C88.433 12.5182 90.6597 12.423 93 12.4209C99.5216 12.4218 106.067 12.9674 112.636 13.8113C121.451 14.953 130.134 16.6124 138.799 18.5519C147.45 20.4931 156.076 22.7281 164.623 25.1248C173.137 27.5136 181.666 30.0929 190.129 32.7713C196.666 34.8407 203.14 36.9613 209.608 39.1282C212.16 39.9753 214.664 40.8146 217.159 41.6576C224.374 44.0941 231.636 46.5912 238.727 49.0525C226.091 44.6209 215.894 41.1362 206.164 37.92C204.86 37.4891 203.564 37.0629 202.271 36.6399C189.064 32.3456 176.26 28.2668 158.868 23.5129C131.493 16.0968 109.873 12.3541 93 12.328C79.2741 12.3449 69.0498 15.6153 61.5454 18.9277C44.8331 26.8996 39.462 33.3647 34.0906 38.3457C26.3943 45.518 14.8805 62.4565 10.6272 71.6883C8.97633 74.9801 7.68836 77.7234 7.59712 77.6681C7.51396 77.6048 8.65839 74.7725 10.321 71.4611C14.8268 61.6736 27.3381 43.3127 36.9038 35.0777C41.1458 31.5694 45.3694 26.1503 61.9263 18.3494C69.3376 15.1458 79.4214 11.9709 93 11.9525C109.852 11.9771 131.512 15.7055 159.089 23.1836C175.863 27.7717 188.201 31.6794 201.272 35.9171C202.553 36.335 203.843 36.7578 205.144 37.1862C205.152 37.1889 205.16 37.1916 205.168 37.1943C217.15 41.1422 230.192 45.6243 247.642 51.7926C271.052 59.9026 298.925 70.6332 321.53 75.7624C338.115 78.4569 351.757 75.2157 357.344 74.6125C360.041 74.1893 362.519 73.7623 365.23 73.2649C375.543 71.3293 387.966 68.8001 415.537 61.6378C421.572 60.0682 428.637 58.1928 436.333 56.1292C447.876 52.9838 459.074 49.9085 468.846 47.3251C477.297 45.0895 485.04 43.0787 492.625 41.222C494.781 40.6943 497.043 40.1517 499.206 39.6454C504.504 38.4056 509.873 37.2283 515.016 36.2323C519.238 35.4168 523.581 34.6496 528.208 34.01C532.827 33.381 537.8 32.8442 543 32.8063C557.094 32.9545 572.828 37.4139 591.177 43.3288C618.007 52.2449 640.415 61.1442 659.944 68.3374C645.628 62.9968 634.59 58.7925 625.39 55.3704C623.637 54.7174 621.967 54.0975 620.368 53.5065C609.028 49.3205 600.729 46.3639 591.788 43.4155C570.556 36.4899 555.437 32.7029 543 32.5917C530.548 32.8238 521.547 34.7006 512.132 36.5078C507.158 37.5125 501.767 38.7165 496.001 40.094C484.376 42.8682 471.255 46.3516 457.122 50.1705C443.962 53.72 429.282 57.8001 413.691 61.8962C413.685 61.8978 413.679 61.8994 413.673 61.901C410.603 62.7061 407.535 63.5016 404.414 64.2962C385.403 69.0736 365.359 73.9605 345.304 76.0568C343.156 76.2669 340.624 76.4819 337.659 76.6119C333.121 76.7774 327.672 76.8965 321.546 75.6867C304.77 72.0614 282.799 64.1198 257.572 55.1856C250.016 52.4943 242.115 49.6573 233.162 46.4913C230.405 45.5168 227.601 44.5296 224.614 43.4864C211.783 39.0308 196.205 33.6055 175.157 27.2751C157.771 22.1348 136.39 16.1409 113.631 12.9935C106.803 12.0809 99.9049 11.4681 93 11.4595C88.413 11.4582 83.9438 11.8265 79.4936 12.5864C44.764 18.6628 22.1395 46.3786 8.75207 74.061C8.7492 74.067 8.74633 74.073 8.74346 74.0791C7.15729 77.3987 5.93641 80.1488 5.90258 79.9546C5.85002 79.8139 6.99017 76.8473 8.60629 73.4948C22.111 45.7635 44.8749 18.1356 79.686 12.173C84.0576 11.4413 88.4683 11.0825 93 11.0839C99.887 11.0922 106.787 11.7014 113.631 12.6145C136.539 15.7743 158.228 21.8651 175.778 27.0683C197.195 33.5269 213.045 39.0635 226.062 43.5926C229.198 44.6902 232.118 45.7201 234.923 46.7137C243.797 49.8576 251.168 52.5063 258.355 55.0656C283.406 63.939 305.13 71.7616 321.623 75.3177C327.03 76.3929 331.863 76.3929 336.153 76.2893C339.074 76.2026 341.856 75.9964 344.04 75.7977C363.618 73.9007 383.431 69.1478 402.414 64.4119C405.525 63.6257 408.546 62.8477 411.6 62.0509C411.606 62.0493 411.612 62.0476 411.619 62.046C427.227 57.9685 442.159 53.8215 455.559 50.2016C469.166 46.5208 481.043 43.3487 492.208 40.616C498.237 39.142 504.011 37.8049 509.775 36.6027C520.014 34.578 529.624 32.4862 543 32.2157C555.799 32.347 570.963 36.2419 591.825 43.0327ZM16.4076 62.875C20.9356 55.3154 25.3144 49.5143 28.7383 45.4077C25.8075 48.9039 23.0877 52.5521 20.5583 56.3153C19.0987 58.4872 17.7128 60.6834 16.4076 62.875ZM437.485 56.209C436.093 56.5885 434.69 56.9705 433.282 57.353C437.171 56.3111 441.069 55.2612 444.948 54.2167C449.725 52.9302 454.477 51.6508 459.26 50.3745C451.659 52.3967 444.334 54.3726 437.485 56.209ZM591.121 43.7057C572.53 37.7173 557.123 33.357 543 33.1889C539.173 33.2121 535.292 33.5346 531.618 33.9625C526.772 34.5303 522.025 35.3121 517.521 36.1462C515.589 36.5043 513.693 36.8765 511.801 37.2635C522.895 35.071 533.363 33.5165 541.902 33.3919C542.275 33.3866 542.641 33.384 543 33.3843C567.88 35.0045 581.178 41.2896 593.226 44.8373C596.639 45.9804 600.127 47.1839 603.465 48.3584C606.271 49.3258 609.272 50.379 612.189 51.4173C616.352 52.8987 620.784 54.5053 625.068 56.0751C629.303 57.6266 633.683 59.2476 637.901 60.8139C642.196 62.4089 646.423 63.9844 650.66 65.5591C654.634 67.0362 658.598 68.5058 662.437 69.9181C662.657 69.999 662.877 70.0798 663.096 70.1606C667.152 71.6514 671.107 73.092 674.741 74.3974C678.43 75.7222 681.535 76.8183 684.267 77.7665C687.662 78.9449 691.228 80.1649 694.685 81.3222C698.185 82.4943 701.659 83.6335 705.134 84.7417C708.663 85.8672 712.036 86.9125 715.573 87.969C716.702 88.3062 717.879 88.6529 718.989 88.9756C719.501 89.1244 720.011 89.2718 720.519 89.4176C713.75 87.4511 706.637 85.2077 699.444 82.8115C688.988 79.3297 677.903 75.3729 665.724 70.8793C644.92 63.2929 621.071 53.7011 591.121 43.7057ZM825.868 89.0542C822.771 89.8615 818.536 90.9649 812.789 92.3782C811.452 92.7064 810.122 93.0293 808.567 93.4001C808.602 93.3917 808.639 93.383 808.675 93.3746C812.36 92.5072 815.751 91.6759 819.4 90.7579C825.879 89.1262 832.266 87.4428 838.572 85.7462C845.017 84.0111 851.379 82.2601 857.695 80.505C864.122 78.7185 870.485 76.9317 876.8 75.1539C883.215 73.3475 889.494 71.5752 895.869 69.7807C897.889 69.2121 899.923 68.6401 901.963 68.0673C897.406 69.3349 892.714 70.6477 887.719 72.0478C883.775 73.153 879.571 74.3327 875.238 75.5458C873.593 76.0063 871.545 76.5784 869.181 77.2378C859.875 79.816 845.121 83.9948 825.868 89.0542ZM952.837 54.1065C954.321 53.7173 955.794 53.3332 957.248 52.9565C961.429 51.8736 965.46 50.8485 969.448 49.8539C972.259 49.1528 975.024 48.4731 977.734 47.817C978.869 47.5422 980.048 47.2584 981.189 46.9859C983.108 46.5275 985.003 46.0798 986.876 45.6429C973.651 48.7111 960.774 51.9592 947.416 55.4776C947.239 55.5242 947.061 55.5712 946.883 55.6182C948.917 55.0984 950.901 54.5946 952.837 54.1065Z" fill="#EED2FF"/>
</svg>
