<svg width="1585" height="170" viewBox="0 0 1585 170" fill="none" xmlns="http://www.w3.org/2000/svg">
<path d="M617.404 106.713C627.291 108.698 636.56 110.622 648.257 112.926C648.264 112.928 648.27 112.929 648.276 112.93C649.946 113.258 651.671 113.595 653.458 113.94C667.806 116.628 686.457 120.393 714.881 123.49C730.216 125.101 744.076 125.808 756 125.843C768.541 125.885 778.901 125.316 786.717 124.723C789.54 124.497 792.496 124.286 799.915 123.436C804.781 122.862 811.324 122.033 820.743 120.449C825.73 119.608 831.567 118.536 838.339 117.148C860.822 112.821 895.426 102.747 928.189 97.1276C930.767 96.691 933.306 96.2872 935.853 95.91C952.655 93.1581 967.393 86.2344 978.837 81.0345C997.976 72.0497 1015.88 62.1711 1035.45 51.6032C1053.37 41.9506 1072.57 31.4122 1095.6 20.8378C1113.29 12.8375 1131.01 5.8386 1149.97 2.21788C1152.32 1.7807 1154.85 1.38147 1157.26 1.0855C1162.27 0.468346 1167.43 0.184289 1172.53 0.431868C1184.77 0.980948 1197.04 4.75647 1208.49 11.3225C1237.32 28.7337 1253.35 50.9641 1274.32 71.4198C1282.47 79.5134 1291.22 87.69 1301.83 95.0539C1310.63 101.146 1322.44 107.683 1336.61 110.536C1349.15 113.028 1363.46 111.782 1377.1 109.492C1379.54 109.079 1382.15 108.589 1384.53 108.105C1384.54 108.103 1384.56 108.1 1384.57 108.098C1411.05 102.655 1436.21 93.7188 1454.42 86.8727C1483.35 75.757 1493.85 70.7355 1502.78 66.8385C1506.06 65.3741 1509.24 63.9357 1512.86 62.2802C1526.07 56.245 1545.82 46.9135 1565.68 36.6448C1565.76 36.6048 1565.84 36.5652 1565.91 36.526C1569.17 34.8383 1571.79 33.5426 1571.78 33.6632C1571.81 33.7674 1569.3 35.1971 1566.03 36.889C1555.57 42.2969 1545.2 47.4191 1535.95 51.864C1535.53 52.1642 1533.04 53.4374 1530.02 54.8716C1522.51 58.3318 1499.6 69.6625 1462.59 84.3705C1465.14 83.3911 1467.27 82.5633 1469.13 81.8361C1471.32 80.9777 1473.01 80.3099 1474.44 79.7381C1477.44 78.5433 1479.42 77.7492 1482.96 76.2797C1491.11 72.8919 1503.82 67.3954 1517.14 61.2674C1520.53 59.7076 1523.19 58.5598 1523.22 58.6601C1523.25 58.7617 1520.64 60.0744 1517.24 61.6354C1517.17 61.6659 1517.1 61.6964 1517.04 61.727C1503.85 67.7968 1490.71 73.4778 1482.2 77.0047C1480.02 77.9128 1478.15 78.6779 1476.75 79.2478C1475.63 79.7044 1474.22 80.2722 1473.44 80.5838C1473.34 80.6252 1473.14 80.704 1472.9 80.7974C1472.9 80.799 1472.89 80.8005 1472.89 80.802C1472.76 80.8543 1472.08 81.1211 1471.35 81.3976C1471.2 81.4535 1470.88 81.5748 1470.51 81.7124C1470.42 81.7498 1470.32 81.7872 1470.23 81.8246C1468.9 82.3438 1467.56 82.8653 1466.1 83.4313C1460.36 85.6037 1451.37 89.2531 1432.23 95.7191C1414.58 100.924 1384.61 113.345 1345.07 112.428C1347.67 112.625 1350.46 112.698 1353.03 112.673C1359.84 112.599 1366.37 111.956 1373.08 110.976C1375.66 110.596 1378.07 110.195 1380.65 109.722C1384.81 108.959 1388.79 108.122 1392.91 107.17C1395.62 106.543 1398.36 105.87 1401.13 105.155C1401.14 105.153 1401.14 105.151 1401.15 105.15C1404.89 104.184 1408.72 103.13 1412.51 102.032C1413.83 101.649 1415.13 101.264 1416.44 100.873C1421.66 99.3053 1426.66 97.7174 1432.48 95.7787C1433.18 95.5452 1433.95 95.2902 1434.52 95.0992C1435.13 94.894 1435.72 94.6955 1436.28 94.5073C1436.77 94.3412 1437.24 94.1824 1437.69 94.0294C1437.75 94.0089 1437.81 93.9884 1437.87 93.9678C1438.38 93.7965 1438.86 93.6318 1439.32 93.4728C1439.79 93.3144 1440.23 93.1601 1440.67 93.0093C1440.67 93.0079 1440.68 93.0065 1440.68 93.0051C1441.14 92.8471 1441.48 92.7268 1441.97 92.5578C1442.57 92.3454 1443.09 92.1619 1443.72 91.9381C1444.33 91.7215 1444.97 91.4943 1445.61 91.2635C1446.25 91.0328 1446.91 90.7965 1447.57 90.5553C1448.24 90.3141 1448.91 90.0677 1449.59 89.8181C1450.27 89.5686 1450.95 89.3149 1451.65 89.0587C1452.34 88.8024 1453.03 88.5422 1453.73 88.2797C1455.35 87.6755 1456.9 87.1074 1458.04 86.707C1459.18 86.3068 1459.83 86.1072 1459.84 86.1552C1459.85 86.2032 1459.22 86.4957 1458.09 86.9658C1456.96 87.436 1455.42 88.0449 1453.81 88.6535C1453.37 88.8192 1452.93 88.9854 1452.48 89.1518C1452.22 89.2505 1451.95 89.35 1451.69 89.449C1450.98 89.7151 1450.26 89.9829 1449.53 90.2512C1448.81 90.5192 1448.08 90.7883 1447.33 91.0589C1446.59 91.3303 1445.84 91.6039 1445.08 91.8794C1444.31 92.1544 1443.54 92.4336 1442.74 92.7151C1441.97 92.99 1441.09 93.3002 1440.3 93.5768C1439.72 93.7795 1439.01 94.0274 1438.41 94.2328C1437.79 94.4472 1437.18 94.6567 1436.59 94.8574C1436 95.0586 1435.43 95.2519 1434.88 95.4355C1434.82 95.4552 1434.76 95.4748 1434.7 95.4944C1434.22 95.6566 1433.76 95.8124 1433.32 95.9592C1432.83 96.1233 1432.36 96.2782 1431.92 96.4248C1431.43 96.5863 1431.14 96.6843 1430.77 96.8044C1425.93 98.4186 1419.99 100.321 1414.24 102.023C1413.52 102.236 1412.81 102.445 1412.11 102.65C1408.32 103.753 1404.54 104.799 1400.77 105.777C1397.97 106.501 1395.21 107.183 1392.47 107.818C1388.27 108.789 1384.32 109.621 1380.06 110.401C1377.44 110.879 1375.06 111.274 1372.37 111.666C1365.62 112.643 1358.84 113.293 1351.9 113.308C1346.71 113.315 1341.37 112.938 1336.33 111.91C1334.66 111.57 1333.02 111.181 1331.4 110.743C1324.72 108.956 1318.06 106.202 1311.99 102.902C1307.52 100.487 1303.13 97.6474 1299.25 94.8348C1297.15 93.3151 1295.16 91.7828 1293.21 90.219C1293.2 90.2136 1293.2 90.2082 1293.19 90.2028C1291.47 88.8233 1289.84 87.4538 1288.21 86.047C1284.74 83.0434 1281.44 79.9799 1278.2 76.8464C1274.97 73.7226 1271.83 70.5426 1268.69 67.306C1265.58 64.0977 1262.45 60.7985 1259.36 57.5345C1256.26 54.2525 1253.21 51.0256 1249.98 47.675C1245.73 43.26 1241.46 38.9358 1236.94 34.646C1232.43 30.3813 1227.78 26.2559 1222.85 22.4016C1221.14 21.062 1219.37 19.7398 1217.6 18.4828C1217.59 18.4779 1217.59 18.473 1217.58 18.4682C1214.27 16.1232 1210.85 13.9376 1207.32 11.9707C1201.84 8.92626 1196.07 6.4114 1190.03 4.64222C1184.35 2.97494 1178.49 1.98461 1172.47 1.72179C1172.11 1.70574 1171.74 1.69241 1171.37 1.68176C1164.98 1.50016 1158.52 2.11593 1151.98 3.25886C1146.25 4.25972 1140.41 5.70227 1134.9 7.32709C1133.44 7.75787 1131.96 8.21131 1130.48 8.6831C1123.63 10.8702 1116.93 13.3859 1110.54 15.9999C1104.08 18.6491 1097.77 21.4648 1091.38 24.4725C1085.08 27.4403 1078.7 30.6035 1072.34 33.8588C1065.94 37.1358 1059.68 40.4455 1053.31 43.8664C1046.98 47.2615 1040.64 50.7212 1034.24 54.2149C1030.66 56.1733 1026.91 58.2225 1023.3 60.1859C1019.69 62.1489 1016.06 64.1088 1012.51 66.0113C1011.08 66.7782 1009.63 67.5548 1008.19 68.3185C1006.08 69.4358 1004.05 70.5067 1001.99 71.5866C998.499 73.4095 995.179 75.1187 991.843 76.8006C988.58 78.4462 985.307 80.0604 982.218 81.543C979.006 83.0833 976.282 84.3558 973.091 85.7928C965.227 89.2982 960.195 91.253 954.604 93.1904C953.55 93.5522 952.323 93.9589 951.142 94.3317C946.341 95.8496 941.133 97.194 936.153 97.9344C934.215 98.2236 932.298 98.5261 930.387 98.8422C923.442 99.9915 916.636 101.311 909.764 102.771C902.959 104.216 896.127 105.794 889.331 107.412C882.544 109.027 875.776 110.685 868.98 112.317C862.189 113.948 855.246 115.58 848.556 117.052C844.688 117.904 840.579 118.772 836.739 119.541C833.986 120.092 831.231 120.621 828.569 121.111C827.476 121.311 826.386 121.508 825.302 121.7C821.593 122.356 817.964 122.952 814.454 123.487C810.953 124.021 807.533 124.499 804.216 124.923C800.854 125.354 797.612 125.729 794.323 126.071C790.938 126.42 788.103 126.682 784.489 126.97C782.1 127.158 779.846 127.315 777.519 127.456C774.081 127.663 770.614 127.824 767.196 127.936C763.735 128.049 760.356 128.113 756.906 128.132C756.608 128.134 756.305 128.135 756 128.136C755.177 128.139 754.337 128.138 753.529 128.135C750.115 128.121 746.741 128.057 743.372 127.949C740.009 127.84 736.678 127.689 733.365 127.498C730.037 127.307 726.767 127.08 723.436 126.813C717.775 126.359 712.366 125.802 707.64 125.255C702.854 124.7 698.391 124.117 694.057 123.509C693.246 123.395 692.432 123.279 691.62 123.162C688.124 122.657 684.688 122.133 681.311 121.595C677.146 120.932 673.067 120.249 668.973 119.537C664.922 118.833 660.835 118.096 656.804 117.351C652.748 116.6 648.862 115.864 644.685 115.059C640.553 114.263 636.357 113.445 631.765 112.54C627.209 111.644 622.444 110.697 617.6 109.738C612.789 108.785 607.865 107.813 602.994 106.871C598.111 105.926 593.204 104.997 588.378 104.121C583.502 103.237 578.699 102.404 573.85 101.626C569.05 100.855 564.054 100.121 559.404 99.5267C556.044 99.0962 552.68 98.7117 549.357 98.3898C545.095 97.9769 540.897 97.5212 536.668 97.0109C529.117 96.1001 521.563 95.0222 514.055 93.7813C506.565 92.544 499.084 91.1378 491.65 89.5856C484.212 88.0335 476.82 86.3358 469.454 84.5294C467.825 84.1298 466.203 83.7266 464.575 83.3169C458.853 81.8771 453.149 80.3798 447.479 78.8589C447.44 78.8485 447.401 78.838 447.362 78.8275C440.066 76.8698 432.911 74.8978 425.696 72.9204C423.044 72.1935 420.505 71.4989 417.908 70.7923C415.326 70.0899 412.776 69.4 410.209 68.7119C407.638 68.0224 405.07 67.3406 402.562 66.6825C401.587 66.4266 400.618 66.1735 399.649 65.9218C398.115 65.5231 396.576 65.1234 395.012 64.7182C392.739 64.1292 390.411 63.5278 387.941 62.8923C387.713 62.8337 387.485 62.7751 387.257 62.7165C384.501 62.0081 381.412 61.2174 378.526 60.4827C370.874 58.5347 363.405 56.6775 355.786 54.8585C348.163 53.0388 340.542 51.2944 332.837 49.6331C329.828 48.9844 326.795 48.3461 323.774 47.7274C319.052 46.7603 314.324 45.8332 309.562 44.9471C301.73 43.4899 293.86 42.1532 285.917 40.9631C278.004 39.7777 270.019 38.7395 262.051 37.8953C254.089 37.0513 246.04 36.3918 238.085 35.97C231.544 35.6229 225.024 35.432 218.5 35.4221C216.32 35.4176 213.925 35.4942 211.624 35.6296C202.833 36.1556 194.064 37.4489 185.428 39.0209C176.759 40.6086 168.041 42.5507 159.506 44.6455C150.94 46.7494 142.344 49.0644 133.86 51.4856C128.75 52.9446 123.684 54.4406 118.608 55.9818C115.927 56.8103 113.369 57.613 110.897 58.3971C92.6805 64.2058 79.6013 68.6972 62.4215 74.8008C60.8107 75.3773 59.4434 75.8715 57.8064 76.466C57.4944 76.5793 57.1642 76.6993 56.8285 76.8214C54.7063 77.5939 52.3038 78.4704 48.875 79.7266C42.1304 82.2002 31.7435 86.0198 18.4054 91.0666C15.0815 92.3247 12.841 93.0937 13.5464 92.7096C14.0789 92.4261 15.7969 91.7008 17.9662 90.8451C14.1371 92.3093 9.83754 93.973 5.91565 95.5137C4.39095 96.1122 2.7787 96.7307 1.77359 97.0947C0.638963 97.5105 0.13684 97.6642 0.2671 97.559C0.265231 97.5467 0.257708 97.5369 0.338382 97.4917C0.379594 97.4688 0.44487 97.4362 0.554551 97.3858C0.703321 97.3196 0.729208 97.3033 0.795047 97.2709C0.919496 97.2091 1.09137 97.1287 1.33796 97.0191C1.558 96.9202 2.0024 96.7321 2.18924 96.6484C2.67652 96.4353 3.44521 96.1144 4.22502 95.795C4.87752 95.5262 5.65568 95.2127 6.5319 94.8667C10.7486 93.202 14.9779 91.5574 19.283 89.9024C23.4538 88.2994 27.7105 86.6817 32.0357 85.0571C36.2301 83.4816 40.48 81.9026 44.8473 80.2994C49.0137 78.7699 53.3852 77.1837 57.646 75.6571C62.0177 74.0909 66.2248 72.6025 70.538 71.0971C73.0945 70.2048 75.7909 69.2717 78.3297 68.4009C79.2826 68.074 80.2166 67.7546 81.1546 67.4349C81.9213 67.1735 82.6944 66.9108 83.4927 66.6403C91.8256 63.8158 100.314 61.0245 108.706 58.3698C117.161 55.6955 125.624 53.1232 134.138 50.6761C142.627 48.237 151.207 45.9104 159.782 43.7904C168.299 41.686 177.036 39.7269 185.713 38.1293C194.373 36.5452 203.104 35.2509 211.927 34.7248C214.168 34.5942 216.41 34.5224 218.5 34.5212C223.098 34.5178 227.691 34.6044 232.28 34.7711C234.949 34.8606 237.592 34.977 240.197 35.116C247.783 35.5206 255.37 36.1258 262.828 36.8872C249.556 35.4989 238.854 34.8682 228.654 34.6001C227.286 34.5654 225.929 34.5384 224.577 34.5188C222.544 34.4893 220.523 34.4766 218.5 34.4812C206.919 34.5689 194.772 36.281 179.865 39.2304C129.865 50.0301 101.961 60.6106 84.396 66.1917C66.8688 72.1125 59.3788 74.8213 52.4458 77.2354C42.5318 80.6844 23.5063 87.758 14.1341 91.4272C10.6367 92.785 7.83666 93.799 7.83266 93.689C7.79469 93.5927 10.5506 92.4153 14.0608 91.0527C23.9632 87.1748 44.5865 79.5108 56.3143 75.464C61.6457 73.6261 67.5325 71.4882 84.8356 65.6475C102.133 60.1681 129.777 49.6591 179.915 38.8373C194.749 35.9136 206.722 34.2033 218.5 34.1044C220.129 34.1007 221.763 34.1082 223.411 34.1268C224.757 34.1421 226.104 34.1645 227.469 34.1948C227.477 34.195 227.486 34.1953 227.494 34.1955C240.068 34.4954 253.757 35.3218 272.091 37.5707C314.45 42.4473 370.05 56.6653 383.202 60.0166C385.767 60.6661 388.299 61.3102 390.915 61.9784C393.726 62.6963 396.692 63.4569 400.065 64.324C408.968 66.5995 420.802 69.8092 440.627 75.2029C446.624 76.823 453.648 78.7089 461.338 80.6704C472.89 83.5729 484.156 86.1354 494.019 88.1145C502.51 89.8237 510.401 91.1911 518.065 92.3475C520.247 92.6764 522.511 93.0025 524.705 93.3037C530.073 94.0414 535.424 94.6896 540.665 95.2541C543.543 95.5642 546.471 95.855 549.574 96.136C550.971 96.2624 552.402 96.402 553.868 96.5555C570.786 98.3098 590.842 101.838 616.803 107.086C644.315 112.664 667.876 117.351 688.346 120.425C673.316 118.119 661.79 115.928 652.18 114.076C650.365 113.725 648.631 113.385 646.966 113.056C635.165 110.722 626.603 108.942 617.411 107.097C582.682 100.051 564.889 97.3008 549.6 95.8615C545.561 95.4862 541.744 95.0926 537.832 94.6492C532.89 94.0885 527.424 93.4029 521.574 92.5587C509.876 90.8777 496.533 88.5109 482.335 85.3512C469.11 82.428 454.417 78.6773 438.898 74.5134C438.892 74.5117 438.886 74.51 438.88 74.5084C435.845 73.6962 432.774 72.8697 429.684 72.0378C420.017 69.4349 410.117 66.7696 400.096 64.2033C390.585 61.7657 380.977 59.3076 371.494 56.9627C369.404 56.4457 366.931 55.8387 364.063 55.1448C347.541 51.2165 318.508 44.133 282.451 38.8384C274.531 37.6946 266.28 36.6322 256.834 35.7096C253.957 35.43 250.966 35.1649 247.841 34.9228C239.418 34.2767 229.837 33.7446 218.5 33.7142C211.718 33.7056 204.277 34.3675 196.105 35.5377C178.13 38.1178 156.742 43.251 134.736 49.5266C123.901 52.616 112.929 55.9777 102.176 59.431C69.6863 69.9071 40.2404 80.6102 11.1375 91.9022C11.1318 91.9044 11.1261 91.9066 11.1204 91.9088C7.62943 93.2687 4.96095 94.2355 5.01461 94.1024C5.13266 93.9443 7.96876 92.7317 11.4023 91.3957C40.5515 80.0951 69.9032 69.4358 102.305 58.9953C112.896 55.5962 123.787 52.2587 134.584 49.1795C156.71 42.8678 178.395 37.6597 196.575 35.0911C204.545 33.9674 211.833 33.3293 218.5 33.3378C230.448 33.3702 240.492 33.9569 249.261 34.6563C252.555 34.9218 255.652 35.2077 258.587 35.5035C267.933 36.4517 275.675 37.4733 283.191 38.5662C318.121 43.7364 346.07 50.4859 362.671 54.4206C365.592 55.1238 368.21 55.764 370.387 56.3008C380.252 58.7327 390.247 61.2887 400.192 63.8368C409.524 66.2267 418.792 68.7124 427.896 71.1636C430.959 71.988 434 72.8073 437.019 73.6169C437.025 73.6185 437.031 73.6202 437.037 73.6218C452.551 77.7935 467.49 81.6474 480.951 84.6552C494.609 87.7197 506.616 89.9139 517.909 91.6281C523.96 92.5454 529.798 93.3232 535.583 94.0054C540.287 94.5592 544.793 95.0337 549.637 95.485C565.391 96.9639 583.728 99.8829 617.404 106.713ZM24.2245 88.4641C32.543 85.3434 39.2769 82.856 44.3804 80.9771C40.0438 82.5589 35.7147 84.1572 31.5576 85.7087C28.9867 86.6689 26.7356 87.5143 24.2245 88.4641ZM462.301 81.3026C460.904 80.9542 459.5 80.6005 458.093 80.2431C461.975 81.244 465.872 82.2253 469.76 83.1726C474.536 84.3365 479.33 85.4569 484.13 86.5184C476.493 84.8233 469.136 83.0375 462.301 81.3026ZM616.792 107.466C592.31 102.53 573.91 99.2283 557.165 97.304C554.616 97.0114 552.019 96.7424 549.537 96.5179C547.329 96.3175 545.2 96.1114 543.042 95.8888C541.106 95.6888 539.234 95.4868 537.282 95.2658C541.502 95.7714 545.58 96.2091 549.53 96.592C556.042 97.2246 562.025 98.0199 567.294 98.7949C592.419 102.658 606.518 105.869 618.976 108.329C622.576 109.062 626.05 109.772 629.567 110.486C632.496 111.063 635.527 111.657 638.602 112.257C642.9 113.095 647.548 113.991 651.978 114.825C656.42 115.661 660.941 116.492 665.386 117.28C669.865 118.074 674.31 118.834 678.74 119.554C682.907 120.231 687.069 120.874 691.096 121.458C691.327 121.492 691.558 121.525 691.788 121.558C696.048 122.172 700.199 122.725 704.015 123.193C707.902 123.669 711.135 124.023 714.01 124.312C717.598 124.673 721.284 125.004 724.931 125.286C728.582 125.569 732.221 125.807 735.851 125.995C739.489 126.184 743.092 126.322 746.707 126.407C747.876 126.435 749.098 126.457 750.257 126.473C750.791 126.48 751.326 126.486 751.858 126.491C744.787 126.404 737.446 126.093 729.875 125.558C718.937 124.784 707.285 123.528 694.497 121.71C672.662 118.645 647.578 113.723 616.792 107.466ZM857.977 113.236C854.985 113.935 850.594 114.957 844.916 116.193C843.578 116.485 842.15 116.791 840.668 117.103C840.703 117.096 840.739 117.088 840.774 117.081C844.466 116.314 847.86 115.578 851.517 114.76C858.044 113.297 864.368 111.799 870.752 110.266C877.16 108.727 883.547 107.171 889.953 105.656C896.368 104.139 902.816 102.66 909.231 101.302C915.708 99.9295 922.117 98.6838 928.616 97.5883C930.695 97.2381 932.761 96.9067 934.85 96.5904C930.201 97.2826 925.384 98.0956 920.319 99.0452C916.268 99.8047 912.062 100.651 907.645 101.593C905.955 101.953 903.913 102.395 901.531 102.925C892.084 104.985 877.37 108.65 857.977 113.236ZM983.963 79.0695C985.331 78.4068 986.739 77.7166 988.064 77.0604C991.847 75.1879 995.612 73.2716 999.213 71.4078C1001.78 70.0777 1004.27 68.7747 1006.74 67.4682C1007.79 66.9166 1008.83 66.3616 1009.87 65.8085C1011.59 64.8953 1013.29 63.9859 1014.99 63.0723C1003.06 69.4448 991.41 75.5657 978.938 81.4018C978.772 81.4794 978.605 81.5573 978.437 81.6351C980.382 80.7485 982.154 79.9246 983.963 79.0695ZM620.392 68.7411C629.577 74.1514 637.532 80.0915 647.223 87.9141C647.228 87.9183 647.233 87.9224 647.238 87.9266C648.613 89.0414 650.06 90.2288 651.512 91.4337C663.317 101.085 677.841 114.629 700.87 133.495C726.204 154.354 749.832 167.15 765.737 167.824C768.008 167.962 770.363 168.139 774.846 167.533C776.011 167.362 777.386 167.108 779.069 166.696C783.83 165.542 790.549 163.167 799.348 158.926C804.102 156.64 809.539 153.789 815.811 150.233C836.587 138.582 867.676 117.599 896.114 98.0861C913.402 86.2419 929.801 75.0449 942.375 66.7012C960.791 54.4912 978.691 42.9297 998.848 31.4587C1017.49 21.2994 1037.34 9.55498 1063.74 4.41736C1067.43 3.82278 1071.41 3.50081 1075.04 3.6737C1091.4 4.59946 1107.02 8.89934 1122.62 13.6226C1125 14.3568 1127.43 15.1272 1129.89 15.9293C1146.68 21.4194 1163.45 27.7559 1181.58 34.9541C1213.8 47.8156 1239.2 58.7741 1267.46 70.5965C1278.53 75.231 1290.01 80.0143 1302.52 85.0542C1320.93 92.2506 1346.81 103.339 1374.61 109.538C1376.63 109.949 1378.73 110.27 1380.9 110.505C1383.42 110.778 1386.09 110.935 1388.69 110.981C1388.7 110.981 1388.71 110.982 1388.73 110.982C1416.93 111.064 1443.66 102.206 1462.78 95.7569C1493.12 84.891 1503.99 79.3502 1513.23 75.2997C1516.74 73.6984 1519.84 72.259 1523.7 70.4386C1537.25 64.0535 1557.93 53.7593 1577.94 42.5527C1578.03 42.5043 1578.11 42.4564 1578.2 42.4089C1581.48 40.5703 1584.28 39.048 1584.26 39.1713C1584.36 39.2397 1581.63 40.9192 1578.32 42.7722C1567.63 48.7564 1557.01 54.3535 1547.52 59.1771C1547.09 59.4934 1544.5 60.8845 1541.42 62.42C1533.66 66.1115 1510.13 78.6413 1471.33 93.3263C1474 92.3593 1476.23 91.5299 1478.18 90.7962C1480.47 89.9337 1482.23 89.2602 1483.73 88.6787C1486.86 87.4652 1488.95 86.6408 1492.62 85.1353C1501.13 81.6419 1514.41 75.8455 1528.09 69.3092C1531.61 67.6299 1534.39 66.362 1534.42 66.4638C1534.46 66.5632 1531.71 67.9976 1528.19 69.676C1528.12 69.7079 1528.06 69.7397 1527.99 69.7715C1514.44 76.2483 1500.71 82.2376 1491.82 85.8714C1489.56 86.8003 1487.59 87.5918 1486.13 88.173C1484.96 88.64 1483.49 89.2172 1482.67 89.5327C1482.56 89.5747 1482.36 89.6545 1482.11 89.749C1482.1 89.7506 1482.1 89.7521 1482.1 89.7537C1481.96 89.8065 1481.25 90.0764 1480.49 90.3549C1480.34 90.4112 1480.01 90.5333 1479.62 90.6716C1479.52 90.7091 1479.42 90.7467 1479.32 90.7842C1477.94 91.3064 1476.52 91.8336 1474.99 92.3985C1468.98 94.5262 1459.61 98.3039 1439.31 103.995C1425.15 107.382 1402.53 114.836 1374.46 110.285C1366.05 108.561 1357.39 106 1348.36 103.024C1351 103.906 1353.51 104.716 1356.24 105.557C1362.06 107.348 1368.44 109.116 1374.44 110.348C1375.09 110.48 1375.74 110.603 1376.4 110.718C1379.02 111.174 1381.71 111.476 1384.36 111.652C1388.78 111.944 1393.07 111.907 1397.39 111.663C1400.3 111.498 1403.3 111.223 1406.17 110.881C1406.18 110.881 1406.18 110.88 1406.19 110.879C1410.29 110.389 1414.24 109.77 1418.36 109.001C1419.77 108.737 1421.15 108.467 1422.53 108.18C1428.1 107.027 1433.46 105.73 1439.57 104.066C1440.31 103.863 1441.13 103.64 1441.73 103.471C1442.39 103.29 1443.01 103.114 1443.61 102.945C1444.14 102.795 1444.63 102.657 1445.1 102.521C1445.16 102.503 1445.23 102.484 1445.29 102.466C1445.82 102.314 1446.33 102.167 1446.81 102.024C1447.3 101.881 1447.77 101.743 1448.23 101.605C1448.23 101.604 1448.24 101.603 1448.24 101.601C1448.72 101.457 1449.09 101.347 1449.6 101.192C1450.24 100.996 1450.8 100.826 1451.46 100.618C1452.11 100.417 1452.79 100.203 1453.46 99.9896C1454.14 99.7753 1454.82 99.5547 1455.52 99.3283C1456.22 99.1019 1456.93 98.8693 1457.64 98.6326C1458.36 98.396 1459.08 98.1539 1459.81 97.9082C1460.54 97.6628 1461.28 97.4105 1462.01 97.1588C1463.7 96.5787 1465.33 96.0271 1466.53 95.6365C1467.73 95.2459 1468.41 95.0497 1468.42 95.0982C1468.43 95.1464 1467.77 95.4361 1466.58 95.897C1465.39 96.358 1463.76 96.9507 1462.07 97.5353C1461.61 97.6938 1461.14 97.8556 1460.68 98.0154C1460.4 98.1105 1460.12 98.2061 1459.84 98.301C1459.09 98.5562 1458.33 98.8118 1457.56 99.0662C1456.8 99.3204 1456.03 99.5742 1455.25 99.828C1454.47 100.083 1453.68 100.337 1452.88 100.593C1452.07 100.851 1451.24 101.111 1450.4 101.372C1449.58 101.626 1448.65 101.911 1447.82 102.162C1447.21 102.346 1446.45 102.569 1445.83 102.752C1445.17 102.944 1444.54 103.128 1443.91 103.308C1443.28 103.488 1442.67 103.66 1442.09 103.823C1442.03 103.84 1441.97 103.858 1441.9 103.875C1441.39 104.018 1440.89 104.155 1440.43 104.284C1439.9 104.427 1439.41 104.561 1438.94 104.688C1438.42 104.828 1438.11 104.912 1437.73 105.015C1432.63 106.389 1426.26 107.947 1420.15 109.145C1419.39 109.296 1418.65 109.439 1417.87 109.584C1413.78 110.344 1409.81 110.967 1405.71 111.451C1402.83 111.792 1399.75 112.069 1396.82 112.228C1392.42 112.466 1388.06 112.485 1383.6 112.163C1380.94 111.971 1378.14 111.634 1375.5 111.147C1375.11 111.075 1374.72 110.999 1374.33 110.921C1367.89 109.611 1361.25 107.763 1354.9 105.802C1348.13 103.708 1341.36 101.374 1334.61 98.9243C1327.93 96.4972 1320.95 93.8255 1314.37 91.2298C1309.43 89.2832 1304.53 87.3002 1299.85 85.384C1297.37 84.366 1294.99 83.3833 1292.59 82.3867C1292.58 82.3833 1292.57 82.3799 1292.57 82.3765C1290.46 81.5032 1288.38 80.6332 1286.35 79.7858C1281.98 77.9562 1277.63 76.1225 1273.34 74.3127C1269.02 72.486 1264.76 70.684 1260.44 68.8512C1256.13 67.0241 1251.82 65.1998 1247.49 63.3654C1243.16 61.5352 1238.9 59.737 1234.43 57.854C1228.55 55.3816 1222.7 52.9306 1216.7 50.4377C1210.73 47.9575 1204.74 45.4919 1198.67 43.0232C1196.55 42.1636 1194.44 41.31 1192.32 40.4585C1192.32 40.4552 1192.31 40.4519 1192.3 40.4485C1188.34 38.8559 1184.44 37.2996 1180.48 35.7417C1174.36 33.3355 1168.21 30.9647 1162.07 28.6635C1155.86 26.3349 1149.65 24.0753 1143.35 21.8809C1137.05 19.6876 1130.55 17.5186 1123.99 15.4894C1118.12 13.6728 1112.17 11.9622 1106.33 10.4742C1104.84 10.0942 1103.23 9.6991 1101.67 9.33006C1094.46 7.63186 1087.01 6.21252 1079.91 5.52663C1078.21 5.36292 1076.57 5.24506 1074.97 5.17502C1069.64 4.93704 1063.93 5.74575 1058.57 6.98774C1051.33 8.68372 1044.61 11.055 1037.64 13.9051C1030.8 16.7189 1024.16 19.8633 1017.37 23.34C1010.82 26.6961 1004.24 30.3194 997.584 34.1618C994 36.2299 990.089 38.5435 986.443 40.7456C982.828 42.9275 979.152 45.1897 975.586 47.4172C974.153 48.3126 972.722 49.212 971.297 50.1127C969.224 51.4231 967.136 52.7535 965.122 54.0461C961.743 56.2157 958.426 58.3703 955.194 60.4906C951.999 62.5866 948.904 64.6372 945.901 66.6427C942.783 68.7262 940.27 70.4187 937.224 72.4837C929.806 77.5062 925.249 80.6169 920.158 84.0943C919.156 84.7788 918.133 85.4787 917.068 86.2082C910.986 90.3709 904.882 94.5638 898.899 98.6681C892.811 102.844 886.857 106.923 880.796 111.047C874.785 115.136 868.806 119.178 862.66 123.273C856.66 127.27 850.541 131.291 844.409 135.22C838.281 139.145 831.958 143.093 825.849 146.739C822.224 148.903 818.606 151.004 814.932 153.054C812.345 154.497 809.925 155.809 807.3 157.181C806.258 157.725 805.235 158.251 804.233 158.756C800.862 160.461 797.153 162.219 793.88 163.624C790.298 165.16 787.17 166.369 783.672 167.478C781.023 168.32 777.811 169.136 775.14 169.522C774.598 169.603 774.055 169.672 773.511 169.731C769.892 170.103 766.883 170.071 763.056 169.641C760.611 169.355 758.133 168.882 755.818 168.306C752.247 167.416 748.87 166.272 745.482 164.903C742.149 163.553 738.908 162.018 735.722 160.344C734.677 159.796 733.629 159.226 732.627 158.666C729.508 156.923 726.51 155.1 723.534 153.182C720.577 151.276 717.703 149.313 714.887 147.311C712.072 145.309 709.299 143.256 706.545 141.157C701.821 137.555 697.428 134.007 693.609 130.857C689.735 127.66 686.164 124.635 682.705 121.679C682.056 121.124 681.408 120.569 680.761 120.014C677.972 117.62 675.24 115.258 672.55 112.933C669.229 110.061 665.977 107.247 662.703 104.441C659.456 101.656 656.19 98.8799 652.9 96.1392C649.622 93.409 646.412 90.7846 642.982 88.0764C639.531 85.3542 635.998 82.6561 632.103 79.8695C628.145 77.042 623.998 74.2594 619.624 71.6845C615.286 69.1338 610.657 66.7563 605.954 64.9989C601.215 63.2309 596.334 62.0584 591.5 62.0619C591.455 62.0619 591.41 62.062 591.364 62.0621C586.298 62.0756 581.263 62.5376 576.293 63.3196C571.332 64.097 566.255 65.2426 561.552 66.5135C553.928 68.5718 546.468 71.1302 539.047 73.8779C531.666 76.6117 524.316 79.5446 516.925 82.3847C509.549 85.2161 502.111 87.9738 494.507 90.2931C486.919 92.602 479.113 94.4929 471.16 95.3318C469.395 95.5172 467.629 95.6492 465.857 95.7206C460.463 95.9402 455.012 95.5811 449.709 94.464C448.934 94.3011 448.134 94.1201 447.309 93.922C447.268 93.912 447.226 93.9019 447.184 93.8917C439.397 91.9724 432.064 89.4178 424.732 86.7738C422.018 85.7875 419.485 84.8413 416.821 83.8296C414.284 82.8659 411.584 81.8225 409.069 80.839C406.532 79.8475 403.847 78.786 401.394 77.8091C398.87 76.8042 396.302 75.7747 393.849 74.7875C391.579 73.8739 389.212 72.9181 386.777 71.9326C386.552 71.8412 386.326 71.7497 386.099 71.6581C383.386 70.5592 380.254 69.2861 377.402 68.1242C369.755 65.0077 362.368 61.9971 354.78 58.9438C347.197 55.893 339.639 52.89 331.98 49.9216C328.99 48.7629 325.983 47.6092 322.973 46.4678C318.28 44.6886 313.575 42.9375 308.83 41.2157C301.026 38.3849 293.182 35.6543 285.221 33.0654C277.324 30.4989 269.267 28.0588 261.22 25.9127C253.199 23.7757 245.006 21.8745 236.84 20.4958C229.552 19.2745 222.283 18.4399 215 18.4195C213.272 18.4169 211.477 18.4899 209.618 18.6354C200.525 19.3737 191.582 21.5306 182.837 24.1557C174.068 26.8089 165.378 30.0501 156.914 33.5369C148.447 37.0282 139.998 40.8639 131.736 44.8445C126.765 47.2396 121.828 49.7042 116.93 52.2193C114.341 53.5644 111.865 54.8711 109.49 56.1392C91.9752 65.5384 79.484 72.782 63.2592 82.5377C61.7381 83.4582 60.4114 84.2678 58.8858 85.2034C58.5928 85.3831 58.2827 85.5734 57.9675 85.767C55.9961 86.979 53.6607 88.4184 50.4724 90.3972C44.0906 94.3622 34.3827 100.424 21.8819 108.51C18.8268 110.487 16.6556 111.811 17.3062 111.258C17.758 110.873 19.4187 109.711 21.3973 108.392C17.7751 110.754 13.8412 113.349 10.1748 115.807C8.78144 116.74 7.27282 117.737 6.31746 118.346C5.27891 119.011 4.79028 119.293 4.90367 119.155C4.89919 119.144 4.8896 119.136 4.95956 119.074C4.99533 119.042 5.0528 118.995 5.15035 118.921C5.19022 118.89 5.28789 118.82 5.30291 118.806C5.32564 118.787 5.35078 118.767 5.37865 118.744C5.49022 118.655 5.64506 118.536 5.86791 118.371C5.97938 118.289 6.10793 118.196 6.25703 118.088C6.33109 118.035 6.41292 117.976 6.49506 117.918C6.54716 117.879 6.60194 117.839 6.65957 117.798C7.11209 117.469 7.77254 117.004 8.54266 116.472C9.14021 116.057 9.85346 115.57 10.6572 115.03C14.5574 112.408 18.5779 109.748 22.5266 107.167C26.4684 104.59 30.3849 102.06 34.4906 99.4402C38.3708 96.9642 42.4273 94.405 46.4857 91.8767C50.4517 89.4055 54.5691 86.8715 58.5701 84.4409C62.731 81.9135 66.6478 79.5649 70.7903 77.1156C73.2181 75.6802 75.7317 74.207 78.1943 72.7769C79.0992 72.2515 79.9862 71.738 80.8774 71.2239C81.6058 70.8037 82.3404 70.3812 83.0991 69.9461C91.0609 65.3795 99.1618 60.8752 107.258 56.5514C115.396 52.2053 123.597 48.0018 131.89 43.9907C140.145 39.9991 148.6 36.1474 157.078 32.6423C165.525 29.153 174.247 25.8919 183.036 23.233C191.807 20.6013 200.783 18.4402 209.939 17.7225C211.682 17.5912 213.37 17.5236 215 17.5224C220.251 17.5168 225.743 17.9754 230.966 18.6632C233.756 19.0231 236.431 19.4384 239.117 19.9077C246.871 21.2641 254.696 23.0763 262.174 25.0448C248.73 21.4785 237.804 19.2989 227.26 18.1644C225.812 18.0121 224.397 17.8854 223.01 17.784C220.431 17.5935 217.571 17.4765 215 17.4848C203.506 17.594 191.412 20.3956 177.127 25.0835C127.029 43.1322 100.821 60.277 83.9317 69.3132C67.2387 78.874 60.1705 83.2332 53.5933 87.1557C44.2027 92.7514 26.3881 104.032 17.6342 109.863C14.4283 111.98 11.7562 113.672 11.7504 113.551C11.672 113.479 14.2671 111.636 17.485 109.511C26.7024 103.368 46.1061 91.0901 57.1905 84.541C62.2426 81.5596 67.7903 78.1194 84.2777 68.6837C100.923 59.8073 126.872 42.7797 177.134 24.6857C191.367 20.0327 203.309 17.2336 215 17.1081C217.199 17.1024 219.544 17.1806 221.844 17.3267C223.208 17.4129 224.605 17.5246 226.038 17.6624C226.047 17.6633 226.056 17.6642 226.065 17.6651C239.107 18.9675 253.117 21.9155 271.59 27.2917C314.193 39.7166 369.065 63.254 382.25 68.3609C384.859 69.4143 387.324 70.4067 389.942 71.4574C400.087 75.3337 412.067 80.9913 440.115 90.1351C443.175 91.058 446.605 92.0194 450.069 92.7454C453.741 93.5141 457.705 93.9525 461.864 94.0059C474.248 94.0995 486.02 90.9831 495.952 87.8337C504.528 85.0801 512.3 82.0303 519.8 79.0712C521.961 78.2161 524.134 77.3508 526.307 76.489C531.546 74.4114 536.8 72.3495 541.967 70.4583C546.084 68.9524 550.432 67.4336 555.073 65.9912C565.374 62.8475 577.284 59.7192 591.5 59.6043C600.765 59.5922 610.359 63.5208 619.679 68.8861C644.908 84.2197 662.861 101.974 679.343 115.852C667.372 105.459 658.178 97.4096 650.286 90.9086C648.785 89.669 647.353 88.5006 645.98 87.3941C636.222 79.5639 628.762 74.1149 620.278 69.1095C610.133 63.1749 600.343 59.4393 591.5 59.4579C565.709 60.3314 552.933 66.4931 539.036 71.2345C534.159 73.0572 528.827 75.1648 523.089 77.4417C511.62 81.9353 498.55 87.3817 483.885 90.9404C473.656 93.3615 461.999 94.9278 450.121 92.4973C446.366 91.729 442.169 90.5499 438.362 89.3721C438.356 89.3701 438.349 89.3682 438.343 89.3662C435.092 88.3578 432.092 87.3539 428.928 86.2533C409.771 79.5212 389.962 71.3145 370.632 63.5402C368.58 62.7113 366.055 61.693 363.243 60.563C346.776 54.0646 318.113 42.0551 282.016 30.3556C274.052 27.822 265.773 25.3278 256.203 22.9103C253.214 22.1597 250.3 21.4664 247.032 20.7569C238.038 18.8597 227.524 16.8246 215 16.7107C208.402 16.7044 201.24 17.7315 193.528 19.5158C175.094 23.8006 153.78 32.436 132.319 42.7399C121.746 47.8191 111.132 53.3131 100.795 58.9287C69.6158 75.9377 41.8451 93.1057 14.7305 111.013C14.7253 111.017 14.72 111.02 14.7148 111.024C13.1626 112.053 11.5785 113.086 10.6852 113.644C9.5758 114.347 8.95559 114.709 8.98442 114.626C9.06356 114.448 11.6649 112.593 14.893 110.455C42.0579 92.529 69.7482 75.4263 100.849 58.4719C111.034 52.943 121.57 47.488 132.108 42.4245C153.691 32.0599 175.307 23.293 193.977 19.027C201.5 17.3156 208.513 16.3282 215 16.3344C228.197 16.4623 239.218 18.6854 248.549 20.7037C251.883 21.4465 255.06 22.2209 258.032 22.9858C267.55 25.4486 275.245 27.8001 282.814 30.216C317.782 41.5902 345.386 53.0956 361.912 59.6214C364.823 60.7901 367.399 61.8283 369.59 62.7127C388.543 70.3336 407.995 78.3927 427.152 85.2279C430.187 86.3019 433.412 87.4018 436.405 88.3581C436.412 88.3601 436.418 88.3622 436.425 88.3643C441.096 89.8533 445.697 91.1943 450.198 92.1258C461.349 94.4179 472.464 93.1302 482.282 90.924C496.403 87.6597 508.215 82.8515 519.292 78.5321C525.232 76.1849 530.951 73.8911 536.648 71.7276C551.439 66.5808 564.97 59.9853 591.5 59.0824C600.503 59.0698 610.316 62.8614 620.392 68.7411ZM27.2375 104.606C35.0043 99.6293 41.4118 95.6051 46.1476 92.6473C42.1009 95.1583 38.0354 97.7125 34.0942 100.217C31.6904 101.746 29.6587 103.045 27.2375 104.606ZM462.99 94.3872C461.498 94.3974 459.98 94.3598 458.474 94.2691C462.648 94.5345 466.83 94.3931 470.987 93.9517C476.09 93.4089 481.117 92.4246 486.081 91.1761C478.196 93.162 470.336 94.3757 462.99 94.3872ZM619.549 69.2447C610.135 63.8162 600.607 59.9668 591.5 59.9823C579.019 60.0727 568.321 62.5343 558.54 65.3479C553.683 66.7651 549.042 68.3224 544.478 69.9553C542.588 70.6319 540.702 71.3274 538.81 72.0398C549.851 67.9362 560.229 64.7082 568.913 62.8681C577.432 61.0344 584.911 60.281 591.5 60.2914C605.162 60.8516 613.791 66.5025 621.44 70.8445C624.662 72.8012 627.786 74.8819 630.831 77.0256C633.452 78.8501 635.948 80.6693 638.614 82.6846C642.212 85.4026 646.096 88.4819 649.749 91.4674C653.376 94.429 657.062 97.5245 660.639 100.57C664.251 103.644 667.815 106.718 671.344 109.766C674.681 112.649 677.986 115.509 681.208 118.274C681.392 118.432 681.577 118.591 681.761 118.749C685.161 121.665 688.492 124.494 691.56 127.054C694.696 129.671 697.312 131.807 699.664 133.69C702.608 136.047 705.626 138.409 708.671 140.713C711.673 142.984 714.79 145.264 717.87 147.409C721.005 149.594 724.107 151.652 727.31 153.636C728.339 154.273 729.403 154.917 730.464 155.542C730.947 155.827 731.43 156.107 731.911 156.384C725.556 152.705 719.181 148.391 712.854 143.721C703.662 136.935 694.261 129.168 684.049 120.404C666.399 105.739 647.643 86.548 619.549 69.2447ZM833.915 139.904C831.134 141.633 827.285 144.02 821.98 147.155C820.752 147.88 819.468 148.631 818.139 149.397C818.17 149.379 818.202 149.361 818.234 149.343C821.516 147.462 824.745 145.553 828.068 143.544C833.97 139.972 839.687 136.377 845.511 132.634C851.199 128.976 857.006 125.158 862.671 121.385C868.443 117.541 874.094 113.727 879.741 109.893C885.432 106.029 891.039 102.197 896.707 98.3169C898.524 97.0736 900.317 95.8453 902.123 94.6089C898.111 97.342 893.863 100.241 889.459 103.239C885.938 105.636 882.19 108.184 878.337 110.791C876.877 111.778 875.028 113.026 872.922 114.442C864.597 120.01 851.57 128.859 833.915 139.904ZM947.395 63.8834C948.724 63.0033 950.043 62.1324 951.345 61.2756C955.025 58.8553 958.735 56.4412 962.286 54.1584C964.77 52.5612 967.3 50.9483 969.763 49.3933C970.803 48.7362 971.84 48.0839 972.866 47.4418C974.582 46.3667 976.278 45.3117 978.013 44.2408C966.044 51.6097 954.477 59.1108 942.528 67.0503C942.371 67.1546 942.213 67.2596 942.055 67.3648C943.864 66.1813 945.658 65.0112 947.395 63.8834Z" fill="#EED2FF"/>
</svg>
