<svg width="1585" height="133" viewBox="0 0 1585 133" fill="none" xmlns="http://www.w3.org/2000/svg">
<path d="M605.533 69.0226C615.232 72.4792 624.006 76.435 634.87 81.7682C634.876 81.771 634.882 81.7738 634.888 81.7767C636.434 82.5372 638.047 83.3393 639.681 84.1583C653.002 90.6081 669.641 100.457 696.577 110.792C719.58 119.463 740.288 122.288 755.5 122.273C760.005 122.295 764.043 122.031 767.553 121.671C770.405 121.347 773.385 121.087 780.721 119.559C785.532 118.518 792.013 116.927 801.086 113.714C805.915 111.996 811.453 109.811 817.821 106.925C839.064 97.6931 869.732 77.9977 897.003 58.565C911.506 48.6126 925.011 38.4284 938.173 33.4733C940.217 32.7709 942.285 32.2364 944.283 31.8193C965.806 27.9978 986.608 30.938 1008.93 33.3391C1029.41 35.7656 1051.25 39.0256 1076.66 41.7271C1088.74 42.9963 1100.64 44.0253 1112.54 44.5951C1120.18 44.9521 1127.05 48.651 1133 53.0409C1135 54.5195 1136.94 56.1108 1138.81 57.7428C1151.72 69.129 1162.67 82.8916 1177.22 94.901C1187.51 103.394 1198.5 109.612 1210.09 111.973C1227.62 115.47 1244.71 113.975 1262.31 111.215C1273.78 109.366 1285.58 106.768 1298.34 103.789C1317.08 100.162 1343.51 90.1656 1371.61 93.8907C1373.58 94.2917 1375.62 94.6017 1377.72 94.8245C1380.19 95.0875 1382.75 95.2272 1385.29 95.2564C1385.3 95.2565 1385.32 95.2567 1385.33 95.2568C1412.72 95.1606 1438.48 85.5839 1456.76 78.5856C1485.77 66.817 1496.02 60.8506 1504.79 56.4822C1508.12 54.754 1511.05 53.2067 1514.7 51.2431C1527.54 44.3606 1547.04 33.2827 1565.8 21.2575C1565.88 21.2055 1565.96 21.1541 1566.04 21.1031C1569.13 19.1283 1571.74 17.4906 1571.74 17.613C1571.84 17.6764 1569.3 19.4671 1566.19 21.4575C1556.17 27.8765 1546.18 33.8934 1537.23 39.0832C1536.84 39.4144 1534.39 40.9093 1531.49 42.5579C1524.15 46.5337 1502.01 60.01 1464.96 75.8976C1467.51 74.849 1469.64 73.9498 1471.51 73.1544C1473.69 72.2201 1475.37 71.4896 1476.8 70.8595C1479.79 69.5439 1481.78 68.6525 1485.27 67.0234C1493.37 63.247 1505.99 56.9884 1518.92 49.9441C1522.24 48.1387 1524.89 46.7607 1524.92 46.8614C1524.96 46.958 1522.37 48.4996 1519.04 50.3041C1518.98 50.3385 1518.92 50.3728 1518.85 50.4071C1506.03 57.3878 1493 63.8551 1484.54 67.784C1482.38 68.7891 1480.51 69.6437 1479.12 70.2733C1478 70.7787 1476.6 71.4036 1475.82 71.7455C1475.71 71.7909 1475.52 71.8774 1475.28 71.9799C1475.28 71.9816 1475.27 71.9833 1475.27 71.985C1475.14 72.0423 1474.46 72.335 1473.74 72.6378C1473.59 72.6989 1473.27 72.8317 1472.9 72.9824C1472.81 73.0231 1472.71 73.0639 1472.62 73.1045C1471.3 73.6702 1469.95 74.2422 1468.48 74.8548C1462.73 77.1634 1453.8 81.2579 1434.28 87.4498C1420.67 91.1828 1398.76 99.1149 1371.46 94.6379C1363.36 93.0184 1354.36 93.5683 1345.29 94.7756C1347.91 94.43 1350.6 94.1372 1353.27 93.9418C1359.33 93.5087 1365.5 93.4949 1371.44 94.7006C1372.07 94.8299 1372.71 94.9499 1373.35 95.0609C1375.9 95.5029 1378.51 95.793 1381.09 95.9544C1385.36 96.2204 1389.54 96.154 1393.75 95.8643C1396.56 95.6709 1399.5 95.3581 1402.27 94.9783C1402.28 94.9774 1402.28 94.9765 1402.29 94.9756C1406.25 94.4324 1410.1 93.7451 1414.07 92.905C1415.46 92.6098 1416.76 92.3177 1418.11 92.0038C1423.47 90.7448 1428.64 89.3293 1434.53 87.5141C1435.25 87.2935 1436.03 87.0502 1436.61 86.8668C1437.24 86.6696 1437.84 86.4776 1438.42 86.2943C1438.92 86.1326 1439.4 85.9769 1439.85 85.83C1439.92 85.8102 1439.98 85.7903 1440.04 85.7705C1440.55 85.6047 1441.03 85.4445 1441.5 85.2892C1441.97 85.1342 1442.42 84.9836 1442.86 84.8337C1442.86 84.8323 1442.87 84.8309 1442.87 84.8295C1443.33 84.6728 1443.69 84.553 1444.18 84.384C1444.79 84.1717 1445.32 83.9872 1445.96 83.7611C1446.58 83.5427 1447.24 83.3103 1447.89 83.0769C1448.53 82.8442 1449.19 82.6047 1449.86 82.3591C1450.53 82.1133 1451.21 81.861 1451.89 81.6041C1452.58 81.3475 1453.27 81.0849 1453.97 80.8185C1454.67 80.5521 1455.37 80.28 1456.08 80.005C1457.7 79.3758 1459.26 78.7763 1460.41 78.3497C1461.56 77.9233 1462.21 77.7065 1462.22 77.7544C1462.23 77.8022 1461.6 78.1116 1460.46 78.6077C1459.33 79.104 1457.78 79.7444 1456.16 80.378C1455.71 80.5519 1455.26 80.7258 1454.82 80.8993C1454.55 81.0024 1454.28 81.106 1454.01 81.2088C1453.29 81.4855 1452.57 81.7626 1451.83 82.0384C1451.1 82.314 1450.37 82.5893 1449.62 82.8646C1448.87 83.1413 1448.12 83.4152 1447.34 83.6965C1446.56 83.9763 1445.77 84.2588 1444.96 84.5415C1444.18 84.8176 1443.28 85.1276 1442.48 85.4001C1441.9 85.5996 1441.18 85.8418 1440.57 86.0412C1439.95 86.2495 1439.33 86.4509 1438.72 86.648C1438.12 86.8443 1437.53 87.0315 1436.97 87.2084C1436.91 87.2273 1436.85 87.2463 1436.8 87.2651C1436.3 87.4211 1435.83 87.5701 1435.38 87.7097C1434.87 87.8658 1434.4 88.0122 1433.95 88.1501C1433.45 88.3019 1433.15 88.3935 1432.78 88.5054C1427.86 90.0046 1421.71 91.7028 1415.83 93.0131C1415.1 93.176 1414.35 93.3394 1413.6 93.4961C1409.67 94.3256 1405.79 95.0166 1401.83 95.5532C1399.05 95.9324 1396.04 96.2476 1393.2 96.4346C1388.92 96.7175 1384.67 96.7661 1380.35 96.469C1377.76 96.2912 1375.04 95.9679 1372.47 95.4942C1372.09 95.4239 1371.71 95.3504 1371.33 95.2735C1365.13 94.0317 1358.6 94.1212 1352.16 94.6623C1345.35 95.2512 1338.53 96.3915 1331.74 97.7152C1324.97 99.0385 1317.97 100.62 1311.21 102.174C1306.23 103.322 1301.16 104.499 1296.43 105.571C1293.9 106.144 1291.4 106.703 1288.96 107.237C1288.95 107.239 1288.94 107.241 1288.93 107.243C1286.78 107.714 1284.65 108.17 1282.54 108.611C1278.01 109.557 1273.54 110.436 1269.06 111.232C1264.58 112.028 1260.12 112.737 1255.59 113.333C1251.11 113.921 1246.51 114.401 1241.97 114.699C1237.38 114.998 1232.89 115.128 1228.14 115.006C1222.04 114.843 1215.98 114.265 1209.88 113.012C1209.76 112.986 1209.63 112.961 1209.51 112.934C1203.3 111.62 1197.3 109.258 1191.7 106.191C1189.74 105.121 1187.82 103.963 1185.95 102.741C1185.94 102.736 1185.94 102.731 1185.93 102.727C1182.46 100.46 1179.15 97.9653 1175.95 95.3272C1171.01 91.2537 1166.35 86.8411 1161.8 82.3131C1157.25 77.7832 1152.79 73.1087 1148.23 68.5256C1143.66 63.9521 1138.88 59.3086 1133.63 55.2472C1128.95 51.6413 1123.79 48.4676 1118.22 46.9583C1116.75 46.5592 1115.26 46.2793 1113.75 46.1338C1113.33 46.0928 1112.9 46.0625 1112.47 46.0432C1105.57 45.7302 1098.87 45.2703 1092.25 44.7203C1085.22 44.1351 1078.2 43.4389 1071.13 42.6653C1064.08 41.894 1056.96 41.0424 1049.77 40.1496C1042.56 39.2535 1035.44 38.3368 1028.18 37.4181C1020.98 36.5069 1013.76 35.6068 1006.42 34.7783C1002.32 34.3153 997.993 33.8554 993.896 33.4661C989.742 33.0714 985.667 32.7294 981.56 32.4577C979.924 32.3497 978.269 32.2523 976.633 32.1707C974.294 32.0537 971.861 31.9639 969.592 31.9179C965.617 31.8375 961.879 31.868 958.129 32.0577C954.443 32.2461 950.851 32.593 947.451 33.164C944.348 33.6915 941.622 34.3334 938.805 35.312C938.5 35.4189 938.186 35.5337 937.861 35.6574C929.887 38.9209 925.505 41.9616 920.417 45.1101C919.452 45.7273 918.448 46.3782 917.382 47.0784C911.403 51.0102 905.546 55.1013 899.751 59.1506C893.911 63.2356 888.104 67.3138 882.265 71.3254C876.465 75.3116 870.529 79.3046 864.595 83.1363C858.661 86.9684 852.634 90.704 846.522 94.2655C840.403 97.8328 834.055 101.3 827.838 104.403C824.252 106.196 820.389 108.02 816.765 109.619C814.143 110.777 811.56 111.862 808.98 112.888C807.93 113.305 806.885 113.711 805.847 114.104C802.263 115.463 798.751 116.679 795.305 117.759C791.869 118.835 788.506 119.773 785.195 120.583C781.881 121.394 778.598 122.082 775.299 122.649C771.869 123.23 769.021 123.62 765.342 123.963C762.954 124.181 760.596 124.323 758.249 124.389C757.331 124.415 756.415 124.43 755.5 124.432C752.884 124.439 750.332 124.381 747.741 124.256C744.22 124.086 740.792 123.801 737.33 123.398C736.222 123.269 735.063 123.122 733.941 122.966C730.501 122.49 727.129 121.91 723.778 121.229C720.433 120.549 717.147 119.777 713.88 118.916C710.613 118.054 707.412 117.117 704.192 116.088C698.693 114.334 693.537 112.416 689.052 110.62C684.526 108.808 680.337 106.991 676.298 105.162C675.542 104.819 674.789 104.475 674.033 104.126C670.782 102.629 667.607 101.114 664.499 99.602C660.66 97.7339 656.912 95.8641 653.17 93.9853C649.445 92.1148 645.701 90.2217 642.011 88.3782C638.276 86.5121 634.708 84.7487 630.84 82.8988C627.011 81.0696 623.117 79.2652 618.782 77.3896C614.505 75.5405 609.955 73.7027 605.303 72.0478C600.649 70.3913 595.855 68.905 591.037 67.7151C586.204 66.5196 581.297 65.6114 576.42 65.0709C575.9 65.0131 575.378 64.9593 574.857 64.9096C570.416 64.4881 566.116 64.4055 561.746 64.6719C556.919 64.9611 551.946 65.7394 547.389 66.8598C540.007 68.6586 532.915 71.4668 526.078 74.8575C519.275 78.2242 512.703 82.1645 506.144 86.1429C499.602 90.1035 493.006 94.1537 486.066 97.5881C479.12 101.027 471.737 103.836 463.977 105.06C462.25 105.334 460.552 105.527 458.803 105.644C452.699 106.061 446.532 105.42 440.667 103.933C440.626 103.923 440.585 103.913 440.544 103.902C440.41 103.868 440.277 103.834 440.143 103.799C432.822 101.869 425.834 99.2508 418.905 96.4472C416.386 95.4234 413.825 94.3432 411.367 93.2799C408.909 92.2174 406.369 91.0914 403.968 90.0084C401.513 88.9008 399.042 87.7668 396.67 86.6657C394.236 85.5351 391.88 84.4284 389.516 83.3092C387.329 82.2736 385.169 81.2445 382.827 80.1218C382.612 80.0188 382.397 79.9157 382.182 79.8124C379.579 78.5634 376.692 77.1685 373.962 75.842C366.779 72.3525 359.755 68.9146 352.638 65.4645C345.495 62.0016 338.367 58.5774 331.144 55.1901C328.325 53.8683 325.486 52.5499 322.642 51.245C318.223 49.2176 313.764 47.2102 309.279 45.244C301.914 42.0156 294.436 38.8776 286.894 35.937C279.368 33.0031 271.68 30.2283 263.988 27.8053C256.322 25.3915 248.386 23.244 240.527 21.7137C233.216 20.2958 225.869 19.3623 218.5 19.3443C217.09 19.3421 215.633 19.3708 214.131 19.4293C205.237 19.7917 196.381 21.0189 187.597 22.5539C178.771 24.11 170.028 26.0201 161.36 28.1159C152.657 30.2235 144.011 32.5309 135.401 34.9705C130.23 36.4362 125.107 37.9405 119.968 39.4932C117.257 40.3268 114.662 41.1372 112.169 41.9249C93.7255 47.7821 80.5308 52.3034 63.1234 58.4779C61.4742 59.0672 60.1426 59.5481 58.4663 60.1558C58.1495 60.2707 57.8144 60.3923 57.4737 60.5161C55.3042 61.3046 52.9244 62.1718 49.4276 63.4513C42.6261 65.943 32.0813 69.8175 18.6147 74.9119C15.2244 76.1952 12.9957 76.9594 13.7007 76.5756C14.2554 76.2835 15.953 75.5663 18.1705 74.6922C14.2618 76.1866 9.95682 77.8522 5.98216 79.4134C4.42797 80.0234 2.80274 80.6471 1.79445 81.0123C0.637247 81.4371 0.137048 81.5901 0.267105 81.485C0.265297 81.4727 0.25771 81.4629 0.340316 81.417C0.38628 81.3858 0.751289 81.2261 0.800179 81.1949C0.926674 81.1322 1.10148 81.0507 1.35252 80.9393C1.582 80.8365 2.01387 80.6535 2.20894 80.5665C2.69945 80.3521 3.50183 80.0178 4.26574 79.7048C4.92883 79.4318 5.72003 79.1132 6.6113 78.7613C10.8857 77.0742 15.1178 75.4289 19.5114 73.7406C23.7019 72.1306 28.047 70.4802 32.3885 68.8506C36.6581 67.2479 40.943 65.6573 45.3517 64.0404C49.5791 62.49 53.971 60.8981 58.3079 59.3463C62.6807 57.7816 67.0235 56.2476 71.3377 54.7445C73.9347 53.8397 76.6573 52.8994 79.2183 52.0228C80.1846 51.692 81.1316 51.3688 82.0827 51.0453C82.8601 50.781 83.6439 50.5152 84.4532 50.2416C92.869 47.3956 101.469 44.5758 109.954 41.9024C118.507 39.208 127.064 36.6203 135.684 34.1602C144.299 31.7031 152.931 29.3843 161.642 27.2611C170.325 25.1484 179.043 23.2321 187.887 21.6644C196.681 20.12 205.553 18.8858 214.472 18.5298C215.854 18.4773 217.197 18.4502 218.5 18.4492C223.921 18.4427 229.533 18.9667 234.878 19.7802C237.602 20.1875 240.144 20.6438 242.766 21.175C250.264 22.6973 257.729 24.7208 264.962 26.9758C252.065 22.9265 241.475 20.4963 231.281 19.2272C229.909 19.0594 228.513 18.9125 227.161 18.7953C224.336 18.5486 221.327 18.4046 218.5 18.4128C207.563 18.4878 196.045 20.0355 181.944 22.7453C131.349 33.4296 103.128 44.1772 85.3697 49.7893C67.6178 55.7728 60.0885 58.4944 53.0313 60.9498C43.0579 64.4152 23.7566 71.5871 14.3041 75.2871C10.7377 76.6713 7.93469 77.6865 7.92001 77.5806C7.89331 77.4799 10.6525 76.3013 14.2319 74.9123C24.2486 70.9908 45.0718 63.2568 56.9597 59.1585C62.3164 57.3144 68.3282 55.1329 85.8066 49.2465C103.316 43.7302 131.259 33.0593 181.997 22.3525C196.049 19.6619 207.412 18.12 218.5 18.0361C220.938 18.0293 223.544 18.1349 226.024 18.3246C227.362 18.4263 228.726 18.5549 230.118 18.7112C230.126 18.7122 230.135 18.7132 230.144 18.7141C242.757 20.1752 256.314 23.452 273.986 29.5789C314.707 43.7516 366.187 70.6976 378.677 76.3398C381.09 77.4984 383.493 78.6464 385.946 79.8102C395.533 84.0866 406.768 90.5632 433.805 100.113C435.835 100.771 438.295 101.512 440.584 102.103C444.958 103.239 449.759 103.988 454.886 103.999C466.945 104.049 478.089 99.6147 487.025 94.9539C494.797 90.9022 501.594 86.5201 508.301 82.4376C510.227 81.2606 512.178 80.0815 514.138 78.928C518.864 76.1452 523.688 73.4971 528.55 71.2258C532.434 69.4117 536.574 67.7039 541.098 66.2435C550.698 63.1361 562.042 61.2401 575.092 62.4672C584.334 63.315 594.311 65.5858 604.877 69.3038C631.747 79.0907 652.641 91.8085 671.639 100.55C657.773 93.9329 647.275 88.3412 638.404 83.9412C636.726 83.103 635.118 82.3076 633.574 81.5519C622.608 76.2003 614.484 72.6201 605.487 69.4046C593.936 65.2949 583.843 63.1436 575.107 62.3169C551.153 60.4817 538.377 66.3997 525.771 72.2409C521.216 74.4882 516.338 77.2336 511.189 80.3321C500.861 86.4233 489.589 94.4257 475.91 99.6543C465.634 103.624 453.098 105.198 440.645 101.868C437.894 101.166 434.947 100.275 432.092 99.3213C432.086 99.3192 432.08 99.3171 432.074 99.315C429.066 98.3116 425.978 97.181 423.042 96.0471C404.646 88.8718 385.938 79.6984 367.716 70.9215C365.75 69.9699 363.437 68.851 360.752 67.5536C345.223 60.2109 318.306 46.4381 283.933 33.0829C276.357 30.2003 268.478 27.3748 259.245 24.6352C256.423 23.8019 253.505 22.9913 250.433 22.215C241.55 20.0257 231.092 17.7433 218.5 17.6352C212.387 17.6261 205.669 18.1722 198.379 19.1454C180.288 21.5628 158.547 26.709 136.293 33.0094C125.327 36.1136 114.234 39.4964 103.353 42.9789C70.4703 53.5468 40.7001 64.3612 11.262 75.7795C11.2562 75.7818 11.2504 75.784 11.2447 75.7863C7.72938 77.1553 5.02401 78.1365 5.07623 78.004C5.19994 77.8436 8.07689 76.6151 11.5334 75.2705C41.0175 63.8439 70.6945 53.0732 103.483 42.543C114.205 39.114 125.212 35.7565 136.141 32.6622C158.513 26.3267 180.567 21.1009 198.881 18.6998C205.913 17.7776 212.524 17.2485 218.5 17.2589C231.758 17.3802 242.704 19.874 251.901 22.2014C255.081 23.0269 258.214 23.9215 261.013 24.7694C270.122 27.5408 277.553 30.2435 284.722 32.9824C318.013 45.9659 343.946 59.1632 359.523 66.5403C362.295 67.8795 364.676 69.0313 366.759 70.0393C384.618 78.6439 402.988 87.6685 421.342 94.976C424.3 96.1431 427.332 97.2808 430.242 98.2902C430.248 98.2923 430.254 98.2943 430.26 98.2963C433.803 99.5259 437.339 100.631 440.741 101.501C452.475 104.629 464.409 103.427 474.366 99.8117C487.548 95.0489 497.808 87.9403 507.716 81.9892C513.021 78.7459 518.201 75.6837 523.5 72.9596C536.834 66.4876 550.438 60.0275 575.143 61.9431C583.973 62.7787 594.077 64.9531 605.533 69.0226ZM24.5049 72.2832C32.9316 69.1231 39.6901 66.6286 44.8947 64.7142C40.4755 66.3249 36.1383 67.9249 31.9005 69.5057C29.3558 70.4554 26.9909 71.3434 24.5049 72.2832ZM455.99 104.366C454.526 104.398 453.07 104.371 451.604 104.285C455.635 104.539 459.739 104.332 463.732 103.691C468.648 102.907 473.445 101.473 478.064 99.6269C470.727 102.579 463.125 104.269 455.99 104.366ZM604.813 69.6796C594.127 65.9167 584.22 63.6852 575.056 62.8439C563.663 61.7845 553.559 63.063 544.486 65.6211C539.737 66.9592 535.262 68.6417 530.955 70.55C529.161 71.3456 527.407 72.1765 525.64 73.0597C535.903 67.9485 546.1 64.8079 554.662 63.6009C562.295 62.4832 569.057 62.5658 575.027 63.1433C588.946 64.6133 598.417 67.8278 606.881 70.8621C610.363 72.1461 613.679 73.4821 617.043 74.9189C619.813 76.0818 622.694 77.3524 625.566 78.6683C629.603 80.516 633.908 82.5867 638.009 84.6078C642.103 86.6238 646.267 88.7203 650.341 90.7697C654.458 92.8404 658.534 94.8872 662.602 96.8857C666.438 98.7704 670.271 100.612 674.007 102.34C674.221 102.439 674.435 102.538 674.65 102.637C678.599 104.456 682.472 106.159 686.064 107.653C689.713 109.17 692.788 110.363 695.521 111.369C698.948 112.631 702.479 113.841 706.005 114.942C709.538 116.045 713.073 117.044 716.645 117.936C720.201 118.824 723.768 119.6 727.358 120.255C728.526 120.469 729.738 120.676 730.89 120.86C731.421 120.945 731.953 121.027 732.485 121.107C725.43 120.03 718.189 118.426 710.822 116.292C700.177 113.216 689.113 108.974 677.229 103.561C656.825 94.6174 634.76 80.7374 604.813 69.6796ZM836.086 98.2569C833.355 99.739 829.336 101.892 824.063 104.461C822.814 105.07 821.491 105.702 820.102 106.35C820.135 106.334 820.168 106.319 820.201 106.304C823.653 104.704 826.803 103.16 830.178 101.429C836.189 98.3403 841.921 95.1462 847.643 91.7757C853.381 88.3942 859.02 84.8801 864.607 81.2653C870.175 77.6621 875.764 73.9071 881.208 70.1743C886.704 66.4068 892.154 62.5931 897.592 58.7945C899.365 57.5563 901.03 56.3942 902.827 55.1456C898.921 57.8459 894.893 60.6597 890.589 63.6493C887.192 66.0088 883.625 68.4761 879.833 71.0601C878.404 72.0336 876.66 73.2159 874.595 74.6005C866.471 79.9933 853.749 88.5853 836.086 98.2569ZM949.886 31.3163C951.429 31.1152 952.979 30.9574 954.488 30.8359C958.823 30.4887 963.075 30.4036 967.202 30.4425C970.153 30.4719 972.995 30.5661 975.822 30.7015C977.007 30.7584 978.207 30.8239 979.405 30.8964C981.344 31.0134 983.345 31.1533 985.279 31.3031C971.673 30.3291 958.102 29.5077 944.295 32.2003C944.109 32.2391 943.925 32.2789 943.74 32.3195C945.833 31.876 947.919 31.5533 949.886 31.3163ZM586.774 71.3114C595.979 67.9802 605.004 65.1125 616.5 64.9761C617.339 64.9783 618.196 64.9916 619.075 65.0165C619.082 65.0167 619.089 65.0169 619.095 65.0171C620.912 65.0693 622.716 65.1664 624.627 65.3118C639.949 66.4498 659.284 70.7892 687.956 78.5288C719.577 87.1889 744.918 93.0567 760.635 94.9783C763.566 95.3466 766.599 95.8072 774.272 96.3133C779.296 96.5864 786.164 96.95 795.928 96.0688C797.659 95.9042 799.468 95.6922 801.351 95.4155C805.071 94.8702 809.374 94.0395 814.06 92.9588C837.241 87.6896 872.299 75.2975 904.735 64.0195C924.423 57.1612 943.129 50.7997 957.437 46.2526C978.387 39.6158 998.738 33.5659 1021.36 28.9503C1034.9 26.3 1049.32 23.9195 1065.04 24.4999C1073.44 24.8631 1082.26 26.6462 1090.63 30.526C1109.37 39.1894 1121.65 55.7677 1133.05 71.7529C1134.52 73.8185 1135.97 75.8828 1137.44 77.9581C1147.55 92.1281 1157.99 107.108 1173.96 118.046C1182.57 123.912 1191.83 127.597 1201.09 129.469C1222.39 132.534 1242.34 128.034 1262.97 124.233C1274.58 121.889 1286.78 119.06 1299.68 115.811C1320.3 110.65 1349.64 102.426 1378.93 93.4192C1381.43 92.6546 1383.94 91.881 1386.42 91.1111C1386.43 91.1072 1386.44 91.1033 1386.46 91.0994C1413.24 82.8003 1439.39 74.172 1458.53 67.7068C1488.82 57.4447 1500.4 53.2675 1509.72 49.9804C1513.38 48.681 1516.7 47.4996 1520.52 46.133C1534.7 41.0733 1556.07 33.3989 1577.74 25.3345C1577.83 25.3013 1577.91 25.2684 1578 25.2358C1581.17 24.0577 1584.92 22.7347 1584.34 23.0644C1584.94 22.9478 1581.27 24.4211 1578.07 25.6122C1566.48 29.9276 1555.47 33.9495 1545.31 37.6272C1544.75 37.9256 1542.29 38.8869 1539.02 40.0634C1530.91 42.9638 1506.04 52.0611 1467.04 65.4519C1469.76 64.5453 1472.01 63.7927 1473.98 63.1369C1476.28 62.3672 1478.03 61.7831 1479.53 61.2823C1482.67 60.2317 1484.88 59.488 1488.6 58.2153C1497.06 55.3068 1510.92 50.4676 1525.07 45.4299C1528.74 44.1227 1531.58 43.193 1531.6 43.2955C1531.62 43.3998 1528.8 44.498 1525.13 45.8061C1525.06 45.8317 1524.99 45.8572 1524.91 45.8829C1510.93 50.8648 1496.57 55.8758 1487.77 58.901C1485.46 59.6927 1483.46 60.3799 1481.94 60.8967C1480.7 61.3196 1479.28 61.8018 1478.46 62.079C1478.35 62.1153 1478.14 62.1845 1477.9 62.2666C1477.89 62.268 1477.89 62.2693 1477.88 62.2707C1477.74 62.3166 1477.04 62.5512 1476.28 62.7947C1476.13 62.8439 1475.8 62.9507 1475.41 63.072C1475.31 63.1051 1475.21 63.1383 1475.11 63.1715C1473.72 63.6343 1472.29 64.108 1470.75 64.6239C1464.61 66.6593 1455.21 69.8284 1435.3 76.3349C1417.02 82.2736 1386.11 92.388 1347.14 103.691C1349.79 102.933 1352.44 102.166 1355.06 101.406C1361.66 99.4861 1368.37 97.492 1374.98 95.4941C1377.53 94.7256 1380.04 93.962 1382.6 93.1788C1386.72 91.9178 1390.84 90.6471 1394.96 89.3636C1397.74 88.4961 1400.52 87.6261 1403.31 86.7461C1403.32 86.7441 1403.32 86.7421 1403.33 86.7401C1407.2 85.5206 1411.07 84.2916 1414.96 83.0491C1416.32 82.6137 1417.65 82.1872 1419 81.7532C1424.36 80.0322 1429.55 78.3495 1435.56 76.3931C1436.3 76.1542 1437.1 75.8953 1437.69 75.7026C1438.33 75.4953 1438.95 75.2962 1439.53 75.1082C1440.05 74.9424 1440.54 74.7846 1441 74.6332C1441.07 74.6129 1441.13 74.5926 1441.19 74.5723C1441.72 74.4029 1442.22 74.2409 1442.7 74.0851C1443.18 73.9296 1443.64 73.7799 1444.09 73.632C1444.1 73.6306 1444.1 73.6292 1444.11 73.6279C1444.58 73.4733 1444.94 73.3561 1445.44 73.1918C1446.07 72.9856 1446.61 72.8081 1447.27 72.5927C1447.9 72.3844 1448.56 72.1668 1449.22 71.947C1449.88 71.7284 1450.57 71.5005 1451.27 71.267C1451.97 71.034 1452.68 70.7971 1453.4 70.5585C1454.11 70.32 1454.84 70.0783 1455.56 69.8356C1456.29 69.5927 1457.02 69.3474 1457.75 69.1012C1459.44 68.5342 1461.06 68.0097 1462.25 67.6444C1463.44 67.2792 1464.11 67.102 1464.12 67.1503C1464.12 67.1989 1463.47 67.4697 1462.29 67.9054C1461.11 68.3411 1459.5 68.9067 1457.81 69.478C1457.35 69.6335 1456.89 69.79 1456.42 69.9471C1456.15 70.0403 1455.87 70.1345 1455.59 70.2282C1454.84 70.4805 1454.08 70.7357 1453.32 70.9924C1452.56 71.2489 1451.78 71.5078 1451 71.7697C1450.21 72.0353 1449.45 72.2906 1448.65 72.5551C1447.87 72.8179 1447.06 73.0864 1446.24 73.3588C1445.44 73.6247 1444.52 73.9275 1443.7 74.1979C1443.1 74.3956 1442.36 74.6386 1441.74 74.8411C1441.09 75.0525 1440.46 75.2602 1439.84 75.4603C1439.23 75.6609 1438.63 75.8546 1438.06 76.0397C1438 76.0595 1437.94 76.0793 1437.88 76.0991C1437.38 76.2627 1436.89 76.4206 1436.43 76.57C1435.92 76.7371 1435.43 76.8955 1434.96 77.0461C1434.45 77.2122 1434.14 77.3131 1433.77 77.4348C1428.83 79.0547 1422.65 81.0741 1416.75 82.9775C1416.01 83.2153 1415.28 83.4517 1414.55 83.6854C1410.7 84.9272 1406.83 86.1627 1402.97 87.3906C1400.15 88.2835 1397.35 89.168 1394.54 90.052C1390.39 91.3527 1386.25 92.6429 1382.08 93.9273C1379.49 94.724 1376.95 95.501 1374.38 96.2847C1367.68 98.3216 1360.84 100.368 1354.1 102.341C1347.31 104.329 1340.48 106.287 1333.64 108.194C1326.73 110.123 1319.8 112.005 1312.81 113.831C1307.75 115.152 1302.62 116.447 1297.74 117.642C1295.14 118.277 1292.63 118.881 1290.17 119.459C1290.17 119.461 1290.16 119.463 1290.15 119.465C1287.99 119.973 1285.72 120.502 1283.56 120.992C1278.89 122.055 1274.53 123.012 1269.83 123.995C1265.22 124.956 1260.88 125.816 1256.13 126.694C1251.56 127.534 1247.02 128.31 1242.31 129.018C1237.82 129.691 1233.01 130.321 1228.32 130.779C1222 131.388 1215.59 131.778 1209.16 131.477C1206.51 131.356 1203.32 131.023 1200.88 130.518C1197.18 129.769 1193.64 128.789 1190.14 127.535C1188.01 126.774 1185.84 125.88 1183.79 124.926C1183.78 124.922 1183.77 124.918 1183.77 124.915C1179.89 123.108 1176.22 120.984 1172.71 118.574C1167.29 114.856 1162.33 110.473 1157.76 105.721C1153.18 100.966 1148.97 95.8302 1144.95 90.5343C1140.92 85.2369 1136.99 79.6559 1133.02 74.0833C1129.47 69.1101 1125.87 64.1217 1122.14 59.4179C1121.15 58.171 1120.17 56.9557 1119.14 55.7313C1114.32 49.9696 1109.24 44.7251 1103.6 40.2983C1097.98 35.873 1091.72 32.2585 1084.93 29.8431C1078.61 27.5797 1071.87 26.3561 1064.97 26.0704C1064.5 26.0507 1064.03 26.0343 1063.56 26.0211C1056.1 25.8263 1048.89 26.3737 1041.45 27.3033C1034.02 28.246 1026.8 29.5436 1019.36 31.1173C1015.3 31.9757 1010.89 32.9892 1006.82 33.9866C1002.61 35.0165 998.628 36.0493 994.526 37.157C992.906 37.5948 991.286 38.0399 989.67 38.4908C987.312 39.1484 984.96 39.8191 982.69 40.4785C978.832 41.5991 975.051 42.7326 971.415 43.8483C967.753 44.9721 964.24 46.0769 960.828 47.17C957.284 48.3065 954.41 49.2454 950.937 50.3971C942.498 53.1913 937.279 54.9646 931.486 56.9391C930.346 57.3285 929.18 57.7276 927.965 58.145C921.018 60.5283 914.101 62.9317 907.251 65.3187C900.367 67.7176 893.573 70.0931 886.665 72.4898C879.864 74.8497 872.926 77.2387 866.123 79.5307C859.189 81.8658 852.433 84.0928 845.457 86.286C838.593 88.4428 831.441 90.5816 824.6 92.4153C820.658 93.4734 816.367 94.5428 812.446 95.3999C809.51 96.0422 806.778 96.5805 803.92 97.0533C803.145 97.181 802.387 97.299 801.645 97.407C801.287 97.4592 800.929 97.5094 800.571 97.5577C796.669 98.0849 792.847 98.3799 789.158 98.5174C785.465 98.6541 781.903 98.636 778.4 98.5135C774.917 98.3907 771.499 98.1638 768.085 97.8546C764.565 97.5316 761.618 97.1956 757.907 96.6979C755.469 96.3684 753.11 96.0147 750.744 95.6312C747.207 95.0576 743.7 94.4237 740.2 93.7409C736.686 93.0548 733.243 92.3325 729.775 91.5671C728.665 91.322 727.491 91.0586 726.376 90.8048C722.928 90.0198 719.538 89.2138 716.151 88.3859C712.772 87.56 709.427 86.7189 706.106 85.8711C702.763 85.0176 699.493 84.1699 696.146 83.2978C690.472 81.8193 685.033 80.3771 680.289 79.1398C675.467 77.8816 670.992 76.7326 666.587 75.6474C665.765 75.4448 664.945 75.2446 664.128 75.0469C660.573 74.1861 657.097 73.3788 653.649 72.6278C649.408 71.7046 645.2 70.8646 641.025 70.1461C636.814 69.4222 632.64 68.8196 628.433 68.3923C624.47 67.9926 620.547 67.7485 616.5 67.7575C616.294 67.7581 616.087 67.76 615.878 67.7632C611.633 67.8344 607.341 68.4204 602.664 69.4802C598.106 70.5138 593.248 72.0324 588.562 73.7705C583.825 75.5244 579.09 77.5456 574.443 79.6895C569.771 81.8453 565.172 84.1314 560.658 86.4628C556.118 88.8084 551.642 91.2123 547.19 93.6412C542.76 96.0579 538.19 98.5926 533.909 100.962C526.978 104.797 520.069 108.614 513.064 112.295C506.096 115.953 499.007 119.499 491.748 122.656C484.495 125.796 477.067 128.598 469.259 130.413C462.121 132.047 454.57 132.866 447.205 131.334C446.604 131.208 445.989 131.061 445.363 130.895C444.506 130.668 443.609 130.4 442.721 130.107C441.926 129.845 441.113 129.557 440.282 129.242C434.482 127.033 428.884 124.091 423.662 121.14C423.625 121.119 423.588 121.098 423.551 121.078C416.74 117.204 410.107 112.988 403.702 108.771C401.254 107.157 399.064 105.691 396.734 104.115C394.379 102.522 392.174 101.015 389.894 99.4446C387.599 97.8634 385.348 96.3014 383.143 94.7645C380.907 93.2056 378.68 91.6456 376.515 90.1248C374.514 88.7201 372.478 87.2873 370.303 85.7534C370.105 85.6141 369.907 85.4746 369.709 85.3351C367.343 83.6664 364.595 81.7236 362.081 79.9438C355.419 75.2274 348.879 70.6022 342.243 65.9654C335.58 61.3108 328.914 56.7095 322.148 52.1507C319.503 50.368 316.83 48.5846 314.166 46.8273C309.989 44.0719 305.838 41.3829 301.564 38.6819C294.639 34.3061 287.495 29.9702 280.311 25.8994C273.039 21.7829 265.811 17.9599 258.222 14.4352C250.678 10.9447 243.068 7.86707 235.137 5.57941C228.47 3.67477 221.749 2.3712 215 2.34801C212.903 2.34362 210.64 2.45823 208.415 2.66736C199.415 3.52902 190.454 5.75042 181.806 8.39858C173.101 11.0817 164.509 14.3145 156.051 17.8221C147.646 21.3116 139.263 25.1339 131.033 29.1119C126.101 31.4966 121.186 33.9564 116.316 36.463C113.742 37.8037 111.28 39.1058 108.918 40.369C91.5097 49.7294 79.0744 56.9478 62.9509 66.65C61.4165 67.5791 60.1155 68.3737 58.5968 69.3057C58.3059 69.4842 57.998 69.6733 57.6851 69.8657C55.734 71.066 53.3901 72.5114 50.2313 74.4731C43.8754 78.4241 34.2365 84.4449 21.7919 92.4961C18.7653 94.4544 16.5893 95.7817 17.24 95.2282C17.6825 94.8499 19.3515 93.6818 21.3095 92.3763C17.6955 94.733 13.7988 97.3043 10.1464 99.7524C8.76559 100.677 7.26254 101.67 6.30862 102.278C5.2796 102.937 4.79021 103.22 4.90367 103.082C4.89916 103.071 4.8896 103.063 4.95875 103.001C4.99411 102.97 5.05095 102.923 5.14744 102.85C5.18786 102.819 5.28023 102.752 5.30131 102.734C5.32387 102.715 5.34881 102.695 5.37646 102.673C5.48716 102.583 5.64076 102.465 5.86173 102.302C5.97226 102.221 6.09972 102.128 6.24752 102.021C6.32143 101.968 6.40042 101.911 6.48494 101.851C6.5429 101.809 6.59299 101.772 6.65116 101.73C7.10228 101.402 7.74857 100.947 8.52525 100.411C9.11828 99.9986 9.82598 99.5153 10.6234 98.9791C14.4989 96.3736 18.5176 93.7145 22.4284 91.1576C26.3579 88.5887 30.2507 86.0736 34.3279 83.4709C38.1934 81.0033 42.232 78.4545 46.2575 75.9456C50.2143 73.479 54.3097 70.9573 58.2802 68.5437C62.409 66.0343 66.3078 63.6946 70.4376 61.2507C72.852 59.8221 75.3356 58.3651 77.801 56.932C78.6999 56.4095 79.581 55.8989 80.4663 55.3877C81.1899 54.9698 81.9197 54.5496 82.6734 54.1169C90.5969 49.5672 98.6433 45.087 106.697 40.7774C114.787 36.4489 122.946 32.257 131.184 28.2588C139.403 24.2714 147.798 20.4307 156.212 16.9275C164.653 13.4172 173.277 10.1641 182.001 7.47476C190.688 4.81592 199.625 2.60232 208.697 1.75186C210.868 1.55368 212.985 1.44947 215 1.44817C219.799 1.44293 224.76 2.12872 229.518 3.17997C232.175 3.75732 234.906 4.48596 237.425 5.24726C244.976 7.53419 252.249 10.4932 259.3 13.7404C246.789 7.95653 236.276 4.24776 225.859 2.39804C224.448 2.15395 223.069 1.95505 221.718 1.80097C219.47 1.54345 217.168 1.40262 215 1.40882C203.164 1.53477 190.877 4.44158 176.144 9.33915C126.369 27.4622 100.296 44.4758 83.5001 53.4868C66.9055 63.0014 59.8729 67.3398 53.3255 71.2468C43.9877 76.8138 26.2764 88.0318 17.5613 93.8379C14.3848 95.9358 11.7144 97.627 11.713 97.5028C11.6298 97.434 14.2233 95.5921 17.4116 93.4867C26.5797 87.3756 45.8948 75.15 56.9078 68.6398C61.916 65.6828 67.456 62.2469 83.8424 52.859C100.396 44.0066 126.212 27.1102 176.149 8.94126C190.823 4.0828 202.943 1.17663 215 1.03208C216.797 1.0281 218.646 1.11812 220.556 1.30029C221.968 1.43587 223.279 1.60347 224.691 1.82358C224.7 1.82496 224.709 1.82634 224.717 1.82773C237.687 3.95081 251.088 8.99389 268.098 17.6201C307.467 37.774 355.092 73.4454 366.752 81.2788C369.029 82.8803 371.158 84.3747 373.499 86.0153C382.423 92.1023 392.764 100.064 417.768 115.652C423.143 118.886 429.828 122.817 437.278 126.103C440.637 127.554 444.232 128.865 447.578 129.551C455.718 131.193 463.901 129.832 470.844 128.051C479.481 125.777 487.163 122.557 494.435 119.212C496.556 118.229 498.598 117.247 500.709 116.204C505.695 113.739 510.692 111.104 515.47 108.521C519.311 106.444 523.289 104.239 527.494 101.888C542.903 93.5149 560.762 82.1098 586.433 71.9552C596.568 68.1534 606.671 65.4356 616.5 65.4159C633.088 65.5861 647.803 68.9765 660.975 72.0012C645.597 68.3452 633.568 66.2755 623.317 65.5965C621.423 65.4708 619.529 65.392 617.765 65.3648C617.338 65.3581 616.916 65.3543 616.5 65.3532C604.437 65.5481 595.857 68.4633 586.986 71.6327C544.031 89.8072 530.227 100.938 512.703 109.679C508.131 112.119 503.127 114.73 497.584 117.391C486.562 122.536 473.615 128.554 458.659 129.873C455.126 130.13 451.31 130.025 447.638 129.266C437.148 126.851 426.786 120.785 416.21 114.451C416.204 114.448 416.198 114.444 416.192 114.441C413.492 112.795 410.614 110.985 407.867 109.218C390.801 98.2124 373.574 85.8997 356.564 73.969C354.745 72.6912 352.59 71.1791 350.084 69.4265C335.577 59.4828 310.579 41.179 277.698 22.6025C270.522 18.6289 262.774 14.5613 253.788 10.635C251.034 9.437 248.191 8.2688 245.113 7.11892C236.813 4.11099 226.979 0.812074 215 0.639798C208.078 0.634054 200.557 1.75945 192.437 3.70132C174.153 8.08847 152.919 16.7379 131.608 27.0093C121.1 32.0748 110.547 37.5493 100.267 43.143C69.2739 60.0769 41.6464 77.1609 14.6771 94.9755C14.6719 94.9789 14.6666 94.9824 14.6614 94.9859C13.1021 96.0201 11.5435 97.0364 10.6537 97.5918C9.53682 98.2997 8.93227 98.651 8.9581 98.5709C9.03486 98.3943 11.6187 96.5509 14.8368 94.4186C41.8562 76.586 69.4041 59.5667 100.319 42.6869C110.448 37.1793 120.924 31.7438 131.397 26.694C152.829 16.3621 174.363 7.5817 192.884 3.20867C200.811 1.34302 208.184 0.257806 215 0.263422C227.686 0.461261 237.997 4.08032 246.603 7.27932C249.917 8.55329 252.722 9.7402 255.595 11.0179C264.442 14.9805 271.682 18.8293 278.513 22.6255C310.342 40.6702 334.449 58.2273 349.001 68.2091C351.578 70.0094 353.83 71.5881 355.738 72.9285C372.413 84.6188 389.422 96.7809 406.392 107.815C409.075 109.554 411.933 111.371 414.628 113.035C414.633 113.039 414.639 113.042 414.644 113.045C425.603 119.689 436.661 126.327 447.716 128.896C450.833 129.538 454.033 129.709 457.111 129.582C471.357 128.731 483.227 123.474 493.898 118.702C499.623 116.059 505.11 113.265 510.413 110.464C529.035 101.228 543.596 89.5842 586.774 71.3114ZM27.1166 88.6108C34.8364 83.6635 41.2319 79.6453 45.9238 76.7136C41.9091 79.2058 37.8649 81.7474 33.9339 84.2466C31.5481 85.7644 29.5323 87.0537 27.1166 88.6108ZM438.127 126.876C436.816 126.329 435.449 125.719 434.035 125.051C437.878 126.868 441.562 128.432 445.692 129.544C446.307 129.706 446.906 129.848 447.491 129.97C451.854 130.879 456.338 130.914 460.795 130.435C456.241 130.924 451.738 130.851 447.493 129.961C444.315 129.29 441.157 128.15 438.127 126.876ZM586.629 72.283C562.444 81.8138 545.992 92.1683 530.716 100.524C526.338 102.979 522.08 105.356 517.868 107.653C516.106 108.614 514.352 109.562 512.591 110.503C522.929 105.05 532.321 99.7546 540.043 95.5102C563.062 82.7705 576.622 76.2926 589.038 71.8396C592.589 70.5775 596.093 69.4766 599.755 68.5506C602.704 67.7879 605.872 67.1186 609.125 66.6857C611.472 66.3711 614.031 66.1682 616.5 66.1628C618.701 66.1547 621.046 66.2325 623.209 66.3639C627.926 66.6495 632.619 67.2041 637.272 67.9129C641.944 68.6261 646.543 69.4909 651.091 70.4393C655.378 71.3341 659.614 72.3045 663.745 73.297C663.98 73.3535 664.212 73.4093 664.445 73.4658C668.768 74.5102 672.984 75.5801 676.845 76.5749C680.773 77.5877 684.031 78.4419 686.937 79.1987C690.547 80.1392 694.265 81.1142 697.931 82.0689C701.607 83.0262 705.267 83.9725 708.915 84.8973C712.577 85.8252 716.201 86.7252 719.846 87.5995C721.025 87.8823 722.258 88.1746 723.427 88.4479C723.965 88.574 724.503 88.6989 725.042 88.8235C717.909 87.1517 710.53 85.2752 702.919 83.2757C691.925 80.3974 680.227 77.1538 667.215 73.9044C652.397 70.3653 635.869 66.0731 616.5 65.7913C606.83 65.8079 596.792 68.4729 586.629 72.283ZM834.189 88.0077C831.08 88.924 826.646 90.2249 820.821 91.7394C819.514 92.0783 817.96 92.4709 816.443 92.8378C816.479 92.8292 816.516 92.8202 816.552 92.8116C820.464 91.872 823.79 90.9969 827.584 89.947C834.255 88.0946 840.705 86.133 847.166 84.0893C853.664 82.0314 860.108 79.9044 866.604 77.7174C873.039 75.5506 879.549 73.3142 885.948 71.1007C892.434 68.8568 898.819 66.6323 905.244 64.399C907.291 63.6873 909.368 62.966 911.42 62.2544C906.801 63.8439 902.071 65.481 896.999 67.2365C892.993 68.6227 888.755 70.0891 884.365 71.5994C882.707 72.1696 880.604 72.8913 878.227 73.7033C868.738 76.9054 853.944 82.0932 834.189 88.0077ZM963.006 44.9356C964.517 44.4592 966.002 43.9951 967.497 43.5319C971.759 42.212 975.842 40.981 979.939 39.782C982.798 38.9457 985.593 38.146 988.41 37.3598C989.591 37.0303 990.767 36.7057 991.928 36.3889C993.858 35.8622 995.829 35.3345 997.765 34.8277C984.203 38.3661 971.079 42.3001 957.488 46.6304C957.308 46.688 957.13 46.7449 956.949 46.8026C959.013 46.1601 961.037 45.5361 963.006 44.9356Z" fill="#EED2FF"/>
</svg>
