<svg width="2861" height="2861" viewBox="0 0 2861 2861" fill="none" xmlns="http://www.w3.org/2000/svg">
<path d="M1328.06 2374.97L1410.36 2379.93C1653.04 2402.35 1702.35 2269.18 1697.76 2184.78C1689.97 2041.62 1607.65 1993.62 1605.9 1898.81C1604.84 1841.06 1662.58 1792.51 1658.34 1695.66C1656.84 1661.46 1622.88 1626.37 1602.28 1639.64C1601.85 1639.92 1601.39 1640.19 1600.93 1640.44C1580.17 1651.82 1580.04 1699.27 1561.9 1731.21C1556.14 1741.34 1529.27 1776.87 1499.93 1772.09C1460.15 1765.61 1466.64 1682.66 1452.7 1661.88L1452.59 1661.72C1450.92 1659.22 1449.16 1656.6 1448.82 1653.62C1445.87 1628.29 1443.05 1602.57 1438.71 1585.12C1438.52 1584.33 1438.41 1583.53 1438.39 1582.72L1426.87 922.848C1425.65 828.808 1425.51 804.747 1466.92 760.229C1481.67 744.383 1496.51 731.451 1482.73 693.29C1468.95 655.131 1467.47 614.341 1475.35 549.876C1477.98 528.388 1485.84 517.408 1472.2 503.311C1452.63 486.511 1427.73 499.558 1413.43 531.678C1399.35 563.293 1349.76 741.634 1336.31 785.976C1334.74 791.134 1337.17 796.825 1342.06 799.111L1351.5 803.53C1355.28 805.296 1357.62 809.164 1357.43 813.329L1349.14 999.313L1336.77 1652.2C1336.73 1654.3 1336 1656.32 1335.17 1658.24C1330.81 1668.3 1330.27 1687.96 1307.56 1676.16C1228.56 1635.15 1278.34 1506.8 1211.12 1510.42C1129.59 1514.8 1156.26 1684.44 1180.49 1752.2C1213.1 1843.36 1204.57 1895.23 1161.85 1982.61C1122.14 2063.81 1085.27 2183.78 1134.32 2269.5C1167.6 2327.66 1222.95 2376.86 1328.06 2374.97Z" fill="#E9E9EF" stroke="#E9E9EF" stroke-width="2"/>
</svg>
