<svg width="167" height="110" viewBox="0 0 167 110" fill="none" xmlns="http://www.w3.org/2000/svg">
<path d="M56.0031 106.948C80.0723 99.6639 83.6474 96.933 91.0344 95.112C98.4215 93.291 102.852 94.1842 114.366 99.2311C125.147 103.956 134.735 102.586 142.305 97.8415C149.585 93.2799 143.795 86.1665 135.126 85.939C131.068 85.8322 124.768 82.4454 123.477 74.1655C122.036 64.9301 140.841 67.7982 144.415 66.8884C147.99 65.9772 147.99 61.9746 147.99 54.9194C147.99 47.8642 147.99 43.8602 144.415 42.9504C140.84 42.0405 137.266 39.3083 139.173 32.708C141.079 26.1077 156.093 23.1481 160.145 22.9206C164.196 22.6932 172.537 15.638 160.145 9.03627C147.752 2.43597 127.734 8.35391 115.58 11.7671C103.426 15.1817 98.4215 16.5464 91.0344 14.7254C83.646 12.9044 80.0723 10.1735 56.0031 2.88949C31.9339 -4.39318 17.6347 3.34439 10.4859 12.222C3.33701 21.0996 0 29.2005 0 54.9194C0 80.6382 3.33701 88.7392 10.4859 97.6154C17.6347 106.493 31.9339 114.231 56.0031 106.948Z" fill="white"/>
</svg>
