<svg width="2861" height="2861" viewBox="0 0 2861 2861" fill="none" xmlns="http://www.w3.org/2000/svg">
<path d="M1325.14 752.19C1326.99 756.256 1332.99 763.431 1342.19 759.601L1348.93 764.465L1356.66 736.47L1348.63 736.03C1345.1 732.753 1341.55 728.038 1334.55 729.971C1329.49 731.37 1321.86 742.097 1325.14 752.19Z" fill="black" stroke="black"/>
<path d="M1325.14 752.19C1326.99 756.256 1332.99 763.431 1342.19 759.601L1348.93 764.465L1356.66 736.47L1348.63 736.03C1345.1 732.753 1341.55 728.038 1334.55 729.971C1329.49 731.37 1321.86 742.097 1325.14 752.19Z" fill="#29252A" stroke="#29252A"/>
<path d="M1339.86 709.36C1341.71 713.426 1347.71 720.602 1356.91 716.771L1363.65 721.634L1371.38 693.641L1363.35 693.201C1359.82 689.923 1356.27 685.208 1349.27 687.142C1344.21 688.539 1336.58 699.266 1339.86 709.36Z" fill="#29252A" stroke="#29252A"/>
<path d="M1351.44 666.642C1353.29 670.708 1359.29 677.885 1368.49 674.053L1375.23 678.917L1382.97 650.924L1374.93 650.483C1371.4 647.205 1367.85 642.489 1360.85 644.425C1355.8 645.821 1348.16 656.55 1351.44 666.642Z" fill="#29252A" stroke="#29252A"/>
<path d="M1365.94 623.821C1367.79 627.887 1373.78 635.063 1382.98 631.232L1389.72 636.095L1397.46 608.102L1389.42 607.662C1385.9 604.384 1382.34 599.67 1375.34 601.603C1370.29 603 1362.65 613.727 1365.94 623.821Z" fill="#29252A" stroke="#29252A"/>
<path d="M1379.03 582.509C1380.88 586.576 1386.87 593.751 1396.07 589.918L1402.81 594.784L1410.55 566.79L1402.51 566.348C1398.99 563.073 1395.43 558.357 1388.43 560.29C1383.38 561.687 1375.75 572.416 1379.03 582.509Z" fill="#29252A" stroke="#29252A"/>
<path d="M1390.61 539.791C1392.46 543.857 1398.46 551.032 1407.65 547.202L1414.39 552.064L1422.13 524.073L1414.09 523.631C1410.57 520.354 1407.01 515.639 1400.01 517.574C1394.96 518.969 1387.33 529.697 1390.61 539.791Z" fill="#29252A" stroke="#29252A"/>
<path d="M1394.59 2387.79L1393.52 2378.34L1408.85 2378.52L1405.49 2386.67L1412.23 2391.53C1412.71 2404.64 1387.11 2398.56 1387.42 2390.96L1394.59 2387.79Z" fill="#222024"/>
<path d="M1228.6 1509.2L1225.14 1518.05L1211.67 1510.74L1218.44 1505.11L1214.74 1497.66C1220.44 1485.84 1240.25 1503.17 1236.43 1509.74L1228.6 1509.2Z" fill="#222024"/>
<path d="M1328.06 2374.97L1410.36 2379.93C1653.04 2402.35 1702.35 2269.18 1697.76 2184.78C1689.97 2041.62 1607.65 1993.62 1605.9 1898.81C1604.84 1841.06 1662.58 1792.51 1658.34 1695.66C1656.84 1661.46 1622.88 1626.37 1602.28 1639.64C1601.85 1639.92 1601.39 1640.19 1600.93 1640.44C1580.17 1651.82 1580.04 1699.27 1561.9 1731.21C1556.14 1741.34 1529.27 1776.87 1499.93 1772.09C1460.15 1765.61 1466.64 1682.66 1452.7 1661.88L1452.59 1661.72C1450.92 1659.22 1449.16 1656.6 1448.82 1653.62C1445.87 1628.29 1443.05 1602.57 1438.71 1585.12C1438.52 1584.33 1438.41 1583.53 1438.39 1582.72L1426.87 922.848C1425.65 828.808 1425.51 804.747 1466.92 760.229C1481.67 744.383 1496.51 731.451 1482.73 693.29C1468.95 655.131 1467.47 614.341 1475.35 549.876C1477.98 528.388 1485.84 517.408 1472.2 503.311C1452.63 486.511 1427.73 499.558 1413.43 531.678C1399.35 563.293 1349.76 741.634 1336.31 785.976C1334.74 791.134 1337.17 796.825 1342.06 799.111L1351.5 803.53C1355.28 805.296 1357.62 809.164 1357.43 813.329L1349.14 999.313L1336.77 1652.2C1336.73 1654.3 1336 1656.32 1335.17 1658.24C1330.81 1668.3 1330.27 1687.96 1307.56 1676.16C1228.56 1635.15 1278.34 1506.8 1211.12 1510.42C1129.59 1514.8 1156.26 1684.44 1180.49 1752.2C1213.1 1843.36 1204.57 1895.23 1161.85 1982.61C1122.14 2063.81 1085.27 2183.78 1134.32 2269.5C1167.6 2327.66 1222.95 2376.86 1328.06 2374.97Z" fill="#E9E9EF" stroke="#E9E9EF" stroke-width="2"/>
<path d="M1304.2 2053.06L1302.8 2122.14C1302.75 2124.45 1304.6 2126.34 1306.9 2126.35L1316.7 2126.39C1319.02 2126.4 1320.88 2128.33 1320.8 2130.66L1318.6 2194.57C1318.53 2196.85 1320.32 2198.76 1322.6 2198.83L1445.81 2202.61C1448.07 2202.68 1449.96 2200.92 1450.06 2198.67L1452.85 2132.35C1452.94 2130.07 1454.86 2128.31 1457.13 2128.4L1467.61 2128.83C1469.99 2128.93 1471.96 2126.99 1471.89 2124.6L1470.02 2055.01C1469.97 2052.8 1468.17 2051.03 1465.95 2051L1308.37 2049.02C1306.11 2048.99 1304.25 2050.79 1304.2 2053.06Z" fill="#141113" stroke="#141113"/>
<path d="M1331.15 2186.58C1324.57 2186.09 1324.18 2183.47 1328.67 2178.65L1329.58 2123.18L1335.41 2122.98L1334.5 2178.44C1339.03 2182.65 1337.78 2187.08 1331.15 2186.58Z" fill="#B2ACAD" stroke="#B2ACAD"/>
<path d="M1351.02 2187.92C1344.44 2187.43 1344.05 2184.82 1348.55 2179.99L1349.98 2122.45L1355.8 2122.24L1354.37 2179.78C1358.9 2183.99 1357.65 2188.42 1351.02 2187.92Z" fill="#B2ACAD" stroke="#B2ACAD"/>
<path d="M1371.42 2187.19C1364.83 2186.7 1364.45 2184.08 1368.94 2179.26L1368.97 2123.23L1374.8 2123.02L1374.77 2179.05C1379.3 2183.26 1378.05 2187.69 1371.42 2187.19Z" fill="#B2ACAD" stroke="#B2ACAD"/>
<path d="M1390.41 2187.97C1383.83 2187.48 1383.44 2184.86 1387.93 2180.03L1389.42 2123.95L1395.24 2123.74L1393.76 2179.82C1398.29 2184.04 1397.04 2188.46 1390.41 2187.97Z" fill="#B2ACAD" stroke="#B2ACAD"/>
<path d="M1412.31 2188.64C1405.73 2188.15 1405.34 2185.53 1409.84 2180.7L1409.76 2121.76L1415.58 2121.55L1415.66 2180.5C1420.19 2184.71 1418.94 2189.14 1412.31 2188.64Z" fill="#B2ACAD" stroke="#B2ACAD"/>
<path d="M1431.2 2186.5C1424.62 2186.01 1424.23 2183.4 1428.72 2178.57L1427.94 2120.38L1433.77 2120.17L1434.55 2178.36C1439.08 2182.57 1437.83 2187 1431.2 2186.5Z" fill="#B2ACAD" stroke="#B2ACAD"/>
<path d="M1318.95 2149.74L1318.88 2163.9L1437.17 2164.54L1437.24 2150.39L1318.95 2149.74Z" fill="#1E1A1D"/>
<path d="M1329.44 2159.66C1332.55 2156.32 1332.36 2151.1 1329.02 2148C1325.69 2144.9 1320.47 2145.09 1317.37 2148.42C1314.27 2151.75 1314.46 2156.97 1317.79 2160.07C1321.12 2163.18 1326.34 2162.99 1329.44 2159.66Z" fill="#251E26"/>
<path d="M1348.44 2160.43C1351.54 2157.1 1351.35 2151.88 1348.01 2148.78C1344.68 2145.67 1339.46 2145.86 1336.36 2149.19C1333.26 2152.53 1333.45 2157.75 1336.78 2160.85C1340.12 2163.95 1345.33 2163.76 1348.44 2160.43Z" fill="#251E26"/>
<path d="M1368.94 2162.61C1372.04 2159.28 1371.85 2154.06 1368.51 2150.96C1365.18 2147.86 1359.96 2148.04 1356.86 2151.38C1353.76 2154.71 1353.95 2159.93 1357.28 2163.03C1360.62 2166.13 1365.83 2165.95 1368.94 2162.61Z" fill="#251E26"/>
<path d="M1387.93 2163.39C1391.03 2160.06 1390.84 2154.84 1387.5 2151.74C1384.17 2148.63 1378.95 2148.82 1375.85 2152.15C1372.75 2155.49 1372.94 2160.7 1376.27 2163.81C1379.61 2166.91 1384.83 2166.72 1387.93 2163.39Z" fill="#251E26"/>
<path d="M1408.32 2162.66C1411.42 2159.33 1411.23 2154.11 1407.9 2151.01C1404.56 2147.9 1399.35 2148.09 1396.25 2151.42C1393.14 2154.76 1393.33 2159.97 1396.67 2163.08C1400 2166.18 1405.22 2165.99 1408.32 2162.66Z" fill="#251E26"/>
<path d="M1428.72 2161.93C1431.82 2158.59 1431.63 2153.38 1428.29 2150.27C1424.96 2147.17 1419.74 2147.36 1416.64 2150.69C1413.54 2154.02 1413.73 2159.24 1417.06 2162.34C1420.4 2165.45 1425.61 2165.26 1428.72 2161.93Z" fill="#251E26"/>
<path d="M1322.55 2119.46L1341.71 2119.47L1341.73 2091.39L1322.57 2091.37L1322.55 2119.46Z" fill="#1E1A1D"/>
<path d="M1327.87 2115.96L1336.06 2115.97L1336.06 2101.6L1327.88 2101.59L1327.87 2115.96Z" fill="#171517"/>
<path d="M1342.95 2118.72L1362.11 2118.74L1362.12 2090.66L1342.96 2090.64L1342.95 2118.72Z" fill="#1E1A1D"/>
<path d="M1348.26 2115.23L1356.45 2115.23L1356.46 2100.86L1348.27 2100.86L1348.26 2115.23Z" fill="#171517"/>
<path d="M1363.34 2117.99L1382.5 2118.01L1382.51 2089.92L1363.35 2089.91L1363.34 2117.99Z" fill="#1E1A1D"/>
<path d="M1368.66 2114.49L1376.85 2114.5L1376.85 2100.13L1368.67 2100.12L1368.66 2114.49Z" fill="#171517"/>
<path d="M1383.84 2120.17L1403 2120.19L1403.01 2092.11L1383.85 2092.09L1383.84 2120.17Z" fill="#1E1A1D"/>
<path d="M1389.16 2116.68L1397.35 2116.68L1397.35 2102.31L1389.17 2102.31L1389.16 2116.68Z" fill="#171517"/>
<path d="M1404.24 2119.44L1423.4 2119.46L1423.41 2091.38L1404.25 2091.36L1404.24 2119.44Z" fill="#1E1A1D"/>
<path d="M1409.55 2115.94L1417.74 2115.95L1417.75 2101.58L1409.56 2101.57L1409.55 2115.94Z" fill="#171517"/>
<path d="M1424.52 2115.8L1443.69 2115.81L1443.7 2087.73L1424.54 2087.72L1424.52 2115.8Z" fill="#1E1A1D"/>
<path d="M1429.84 2112.3L1438.03 2112.31L1438.04 2097.94L1429.85 2097.93L1429.84 2112.3Z" fill="#171517"/>
<path d="M1334.32 2072.69C1336.26 2070.6 1336.14 2067.34 1334.06 2065.4C1331.97 2063.47 1328.71 2063.58 1326.77 2065.67C1324.83 2067.75 1324.95 2071.01 1327.04 2072.95C1329.12 2074.89 1332.38 2074.77 1334.32 2072.69Z" fill="#9D9799"/>
<path d="M1354.71 2071.96C1356.65 2069.87 1356.53 2066.61 1354.45 2064.67C1352.36 2062.73 1349.1 2062.85 1347.16 2064.93C1345.23 2067.02 1345.34 2070.28 1347.43 2072.22C1349.51 2074.16 1352.77 2074.04 1354.71 2071.96Z" fill="#9D9799"/>
<path d="M1374.79 2062.48C1376.73 2060.4 1376.61 2057.14 1374.53 2055.2C1372.44 2053.26 1369.18 2053.38 1367.24 2055.46C1365.3 2057.55 1365.42 2060.81 1367.51 2062.75C1369.59 2064.68 1372.85 2064.57 1374.79 2062.48Z" fill="#9D9799"/>
<path d="M1394.1 2072C1396.04 2069.92 1395.92 2066.66 1393.83 2064.72C1391.75 2062.78 1388.49 2062.9 1386.55 2064.98C1384.61 2067.06 1384.73 2070.32 1386.81 2072.26C1388.9 2074.2 1392.16 2074.09 1394.1 2072Z" fill="#9D9799"/>
<path d="M1415.69 2063.93C1417.62 2061.85 1417.51 2058.59 1415.42 2056.65C1413.34 2054.71 1410.08 2054.83 1408.14 2056.91C1406.2 2058.99 1406.32 2062.26 1408.4 2064.2C1410.49 2066.13 1413.75 2066.02 1415.69 2063.93Z" fill="#9D9799"/>
<path d="M1436.08 2063.2C1438.02 2061.12 1437.9 2057.86 1435.82 2055.92C1433.73 2053.98 1430.47 2054.09 1428.53 2056.18C1426.59 2058.26 1426.71 2061.52 1428.8 2063.46C1430.88 2065.4 1434.14 2065.28 1436.08 2063.2Z" fill="#9D9799"/>
<path d="M1461.94 2112.6C1457.98 2114.88 1449.24 2117.19 1445.27 2108.71C1445.1 2108.34 1445.18 2107.91 1445.45 2107.61L1457.2 2094.99C1457.47 2094.7 1457.88 2094.59 1458.25 2094.71C1468.71 2098.12 1469.18 2107.19 1461.94 2112.6Z" fill="#1A181C" stroke="#1A181C"/>
<path d="M1433.39 1769.68L1338.32 1769.92C1336.05 1769.92 1334.19 1768.08 1334.19 1765.8L1333.85 1642.11L1339.86 1338.02L1344.56 1086.99L1347.26 959.985L1354.16 838.108C1354.28 835.952 1356.04 834.256 1358.2 834.22L1425.87 833.094C1428.22 833.055 1430.13 834.979 1430.06 837.326L1429.56 856.383L1437.99 1370.99L1439.85 1553.21L1442.44 1663.49L1440.37 1742.87L1437.47 1766.07C1437.21 1768.13 1435.47 1769.68 1433.39 1769.68Z" fill="#332930"/>
<path d="M1250.98 2027.79C1249.72 2042.88 1276.52 2086.22 1297.77 2091.06C1298.95 2091.33 1300 2090.38 1300.01 2089.18L1300.49 2047.54C1300.5 2046.39 1301.44 2045.47 1302.59 2045.5L1471.47 2048.69C1472.59 2048.71 1473.49 2049.62 1473.49 2050.74L1473.75 2094.62C1473.76 2095.82 1474.79 2096.77 1475.99 2096.69C1503.71 2095 1546.83 2106.1 1572.24 2140.57C1572.32 2140.67 1572.4 2140.76 1572.49 2140.85C1588.39 2155.71 1621.32 2197.44 1639.39 2179.16C1687.23 2130.77 1556.04 1953.81 1567.54 1887.09C1577.54 1829.09 1647.51 1721.05 1606.22 1659.85C1605.15 1658.26 1602.64 1658.97 1602.36 1660.86C1598.8 1684.73 1578.83 1735.71 1554.27 1762.12C1531.19 1786.92 1489.86 1807.32 1439.07 1767.47C1438.7 1767.18 1438.22 1767.01 1437.74 1767.02L1337.09 1769.21C1335.94 1769.24 1334.99 1768.32 1334.98 1767.17L1334.56 1717.65C1334.56 1717.09 1334.32 1716.55 1333.91 1716.16C1327.35 1710.09 1310.66 1695.53 1296.41 1710.84C1275.2 1729.1 1306.18 1734.23 1299.51 1816.48C1293.47 1891.02 1238.45 1939.65 1250.96 2027.28C1250.98 2027.45 1250.99 2027.62 1250.98 2027.79Z" fill="#2F2A33" stroke="#2F2A33"/>
<path d="M1443.33 1960.82L1323.52 1961.57C1321.24 1961.58 1319.41 1963.44 1319.42 1965.72L1319.89 2036.87C1319.9 2039.14 1321.76 2040.98 1324.04 2040.96L1443.85 2040.21C1446.13 2040.2 1447.96 2038.34 1447.95 2036.06L1447.48 1964.92C1447.46 1962.64 1445.6 1960.81 1443.33 1960.82Z" fill="#161616"/>
<path d="M1340.75 1965.23C1331.27 1965.34 1323.69 1973.12 1323.8 1982.6C1323.92 1992.08 1331.7 1999.67 1341.18 1999.55L1427.52 1998.5C1437 1998.38 1444.59 1990.6 1444.47 1981.12C1444.35 1971.65 1436.57 1964.06 1427.09 1964.17L1340.75 1965.23Z" fill="#272727"/>
<path d="M1349.08 1986.48C1350.63 1984.81 1350.53 1982.2 1348.87 1980.65C1347.2 1979.1 1344.59 1979.19 1343.04 1980.86C1341.49 1982.53 1341.58 1985.13 1343.25 1986.69C1344.92 1988.24 1347.53 1988.14 1349.08 1986.48Z" fill="#D9D9D9"/>
<path d="M1363.64 1985.95C1365.2 1984.29 1365.1 1981.68 1363.43 1980.13C1361.77 1978.57 1359.16 1978.67 1357.61 1980.33C1356.06 1982 1356.15 1984.61 1357.82 1986.16C1359.48 1987.71 1362.09 1987.62 1363.64 1985.95Z" fill="#D9D9D9"/>
<path d="M1378.21 1985.43C1379.76 1983.76 1379.67 1981.15 1378 1979.6C1376.33 1978.05 1373.73 1978.15 1372.17 1979.81C1370.62 1981.48 1370.72 1984.09 1372.39 1985.64C1374.05 1987.19 1376.66 1987.1 1378.21 1985.43Z" fill="#D9D9D9"/>
<path d="M1392.78 1984.91C1394.33 1983.24 1394.24 1980.63 1392.57 1979.08C1390.9 1977.53 1388.29 1977.62 1386.74 1979.29C1385.19 1980.96 1385.29 1983.56 1386.95 1985.12C1388.62 1986.67 1391.23 1986.57 1392.78 1984.91Z" fill="#D9D9D9"/>
<path d="M1407.35 1984.38C1408.9 1982.72 1408.8 1980.11 1407.14 1978.56C1405.47 1977.01 1402.86 1977.1 1401.31 1978.77C1399.76 1980.43 1399.85 1983.04 1401.52 1984.59C1403.19 1986.14 1405.8 1986.05 1407.35 1984.38Z" fill="#D9D9D9"/>
<path d="M1421.92 1983.86C1423.47 1982.19 1423.37 1979.59 1421.71 1978.03C1420.04 1976.48 1417.43 1976.58 1415.88 1978.24C1414.33 1979.91 1414.42 1982.52 1416.09 1984.07C1417.76 1985.62 1420.37 1985.53 1421.92 1983.86Z" fill="#D9D9D9"/>
<path d="M1339.21 2003.21C1329.73 2003.32 1322.14 2011.1 1322.26 2020.58C1322.38 2030.06 1330.16 2037.65 1339.64 2037.53L1425.98 2036.48C1435.46 2036.36 1443.05 2028.58 1442.93 2019.1C1442.81 2009.63 1435.03 2002.04 1425.55 2002.15L1339.21 2003.21Z" fill="#272727"/>
<path d="M1347.54 2024.46C1349.09 2022.79 1348.99 2020.18 1347.32 2018.63C1345.66 2017.08 1343.05 2017.17 1341.5 2018.84C1339.95 2020.5 1340.04 2023.11 1341.71 2024.66C1343.38 2026.22 1345.99 2026.12 1347.54 2024.46Z" fill="#D9D9D9"/>
<path d="M1362.1 2023.93C1363.65 2022.27 1363.56 2019.66 1361.89 2018.11C1360.23 2016.55 1357.62 2016.65 1356.07 2018.32C1354.51 2019.98 1354.61 2022.59 1356.28 2024.14C1357.94 2025.69 1360.55 2025.6 1362.1 2023.93Z" fill="#D9D9D9"/>
<path d="M1376.67 2023.41C1378.22 2021.74 1378.13 2019.13 1376.46 2017.58C1374.79 2016.03 1372.18 2016.12 1370.63 2017.79C1369.08 2019.46 1369.18 2022.07 1370.84 2023.62C1372.51 2025.17 1375.12 2025.08 1376.67 2023.41Z" fill="#D9D9D9"/>
<path d="M1391.24 2022.89C1392.79 2021.22 1392.7 2018.61 1391.03 2017.06C1389.36 2015.51 1386.75 2015.6 1385.2 2017.27C1383.65 2018.94 1383.74 2021.54 1385.41 2023.1C1387.08 2024.65 1389.69 2024.55 1391.24 2022.89Z" fill="#D9D9D9"/>
<path d="M1405.81 2022.36C1407.36 2020.7 1407.26 2018.09 1405.6 2016.54C1403.93 2014.99 1401.32 2015.08 1399.77 2016.75C1398.22 2018.41 1398.31 2021.02 1399.98 2022.57C1401.65 2024.12 1404.26 2024.03 1405.81 2022.36Z" fill="#D9D9D9"/>
<path d="M1420.37 2021.84C1421.93 2020.17 1421.83 2017.56 1420.16 2016.01C1418.5 2014.46 1415.89 2014.56 1414.34 2016.22C1412.79 2017.89 1412.88 2020.5 1414.55 2022.05C1416.21 2023.6 1418.82 2023.51 1420.37 2021.84Z" fill="#D9D9D9"/>
<path d="M1441.52 1790.22L1321.71 1790.97C1319.44 1790.98 1317.6 1792.84 1317.62 1795.12L1318.09 1866.27C1318.1 1868.54 1319.96 1870.38 1322.24 1870.36L1442.05 1869.61C1444.32 1869.6 1446.16 1867.74 1446.14 1865.46L1445.67 1794.32C1445.66 1792.04 1443.8 1790.21 1441.52 1790.22Z" fill="#161616"/>
<path d="M1338.95 1794.63C1329.47 1794.74 1321.88 1802.52 1322 1812C1322.12 1821.48 1329.9 1829.07 1339.38 1828.95L1425.72 1827.9C1435.2 1827.78 1442.79 1820 1442.67 1810.52C1442.55 1801.05 1434.77 1793.46 1425.29 1793.57L1338.95 1794.63Z" fill="#272727"/>
<path d="M1337.41 1832.61C1327.93 1832.72 1320.34 1840.5 1320.46 1849.98C1320.58 1859.46 1328.36 1867.05 1337.84 1866.93L1424.18 1865.88C1433.66 1865.76 1441.24 1857.98 1441.13 1848.5C1441.01 1839.03 1433.23 1831.44 1423.75 1831.55L1337.41 1832.61Z" fill="#272727"/>
<path d="M1332.77 1804.95L1332.89 1819.38L1424.97 1818.62L1424.85 1804.19L1332.77 1804.95Z" fill="#D9D9D9"/>
<path d="M1332.46 2101.93L1359.99 828.247L1366.48 766.202" stroke="#7A7A7A"/>
<path d="M1352.8 2099.74L1373.15 829.232L1381.87 721.905" stroke="#7A7A7A"/>
<path d="M1393.64 2099.73L1397.86 826.888L1408.53 633.217" stroke="#7A7A7A"/>
<path d="M1413.39 2101.21L1409.57 827.925L1422.92 587.835" stroke="#7A7A7A"/>
<path d="M1433.73 2099.02L1420.47 826.806L1435.19 544.531" stroke="#7A7A7A"/>
<path d="M1373.25 2100.46L1385.45 826.603L1396.17 680.77" stroke="#7A7A7A"/>
<path d="M1433.95 784.039L1350.3 788.462C1349.66 788.495 1349.15 787.938 1349.23 787.299L1350.1 780.584C1350.16 780.092 1350.57 779.714 1351.07 779.688L1433.6 775.301C1434.18 775.269 1434.66 775.717 1434.69 776.292L1434.93 782.973C1434.95 783.536 1434.51 784.008 1433.95 784.039Z" fill="#141013" stroke="#141013"/>
<path d="M1426.18 833.799L1358.76 834.255C1356.38 834.27 1354.48 832.28 1354.61 829.906L1355.48 813.964C1355.6 811.82 1357.34 810.125 1359.49 810.067L1429.84 808.188C1432.52 808.117 1434.55 810.576 1433.98 813.193L1430.18 830.559C1429.77 832.441 1428.11 833.787 1426.18 833.799Z" fill="#141013" stroke="#141013"/>
<path d="M1367.92 825.776C1370.64 822.859 1370.47 818.294 1367.55 815.579C1364.64 812.864 1360.07 813.028 1357.36 815.945C1354.64 818.862 1354.81 823.427 1357.73 826.142C1360.64 828.857 1365.21 828.693 1367.92 825.776Z" fill="#949494"/>
<path d="M1392.63 823.429C1395.35 820.512 1395.18 815.946 1392.27 813.231C1389.35 810.517 1384.78 810.68 1382.07 813.597C1379.35 816.514 1379.52 821.08 1382.44 823.795C1385.36 826.51 1389.92 826.346 1392.63 823.429Z" fill="#949494"/>
<path d="M1417.45 823.997C1420.17 821.08 1420 816.514 1417.08 813.8C1414.17 811.085 1409.6 811.249 1406.89 814.166C1404.17 817.083 1404.34 821.648 1407.26 824.363C1410.17 827.078 1414.74 826.914 1417.45 823.997Z" fill="#949494"/>
<path d="M1373.27 751.921C1367.54 747.485 1358.76 746.023 1354.44 755.515C1349.68 765.166 1357.28 773.645 1366.72 772.577C1374.82 771.661 1382.27 758.892 1373.27 751.921Z" fill="#29252A" stroke="#29252A"/>
<path d="M1385.8 709.365C1380.07 704.929 1371.29 703.467 1366.97 712.958C1362.21 722.61 1369.81 731.089 1379.26 730.022C1387.35 729.105 1394.81 716.335 1385.8 709.365Z" fill="#29252A" stroke="#29252A"/>
<path d="M1398.79 665.138C1393.06 660.703 1384.28 659.241 1379.95 668.733C1375.2 678.384 1382.8 686.863 1392.24 685.796C1400.33 684.879 1407.79 672.109 1398.79 665.138Z" fill="#29252A" stroke="#29252A"/>
<path d="M1411.88 623.827C1406.15 619.39 1397.37 617.93 1393.04 627.42C1388.29 637.072 1395.89 645.55 1405.33 644.482C1413.42 643.568 1420.88 630.796 1411.88 623.827Z" fill="#29252A" stroke="#29252A"/>
<path d="M1424.86 579.599C1419.13 575.164 1410.35 573.702 1406.03 583.194C1401.27 592.845 1408.87 601.324 1418.32 600.257C1426.41 599.34 1433.87 586.57 1424.86 579.599Z" fill="#29252A" stroke="#29252A"/>
<path d="M1437.95 538.288C1432.22 533.852 1423.44 532.391 1419.12 541.881C1414.36 551.534 1421.96 560.011 1431.41 558.943C1439.5 558.029 1446.95 545.258 1437.95 538.288Z" fill="#29252A" stroke="#29252A"/>
<path d="M1366.33 1124.13C1367.88 1122.46 1367.79 1119.86 1366.12 1118.3C1364.45 1116.75 1361.84 1116.85 1360.29 1118.51C1358.74 1120.18 1358.84 1122.79 1360.5 1124.34C1362.17 1125.89 1364.78 1125.8 1366.33 1124.13Z" fill="#A59FA8"/>
<path d="M1367.94 1007.38C1369.49 1005.71 1369.39 1003.1 1367.73 1001.55C1366.06 1000 1363.45 1000.1 1361.9 1001.76C1360.35 1003.43 1360.44 1006.04 1362.11 1007.59C1363.78 1009.14 1366.39 1009.05 1367.94 1007.38Z" fill="#A59FA8"/>
<path d="M1364.2 1226.32C1365.75 1224.65 1365.65 1222.04 1363.98 1220.49C1362.32 1218.94 1359.71 1219.03 1358.16 1220.7C1356.61 1222.36 1356.7 1224.97 1358.37 1226.52C1360.04 1228.08 1362.64 1227.98 1364.2 1226.32Z" fill="#A59FA8"/>
<path d="M1361.75 1319.76C1363.3 1318.09 1363.2 1315.48 1361.53 1313.93C1359.87 1312.38 1357.26 1312.47 1355.71 1314.14C1354.16 1315.81 1354.25 1318.42 1355.92 1319.97C1357.59 1321.52 1360.2 1321.43 1361.75 1319.76Z" fill="#A59FA8"/>
<path d="M1360.25 1439.42C1361.8 1437.76 1361.7 1435.15 1360.04 1433.6C1358.37 1432.04 1355.76 1432.14 1354.21 1433.8C1352.66 1435.47 1352.75 1438.08 1354.42 1439.63C1356.09 1441.18 1358.7 1441.09 1360.25 1439.42Z" fill="#A59FA8"/>
<path d="M1374.82 1438.9C1376.37 1437.23 1376.27 1434.62 1374.6 1433.07C1372.94 1431.52 1370.33 1431.62 1368.78 1433.28C1367.23 1434.95 1367.32 1437.56 1368.99 1439.11C1370.66 1440.66 1373.26 1440.57 1374.82 1438.9Z" fill="#A59FA8"/>
<path d="M1422.21 1539.31C1423.76 1537.64 1423.67 1535.03 1422 1533.48C1420.33 1531.93 1417.72 1532.02 1416.17 1533.69C1414.62 1535.36 1414.72 1537.96 1416.38 1539.52C1418.05 1541.07 1420.66 1540.97 1422.21 1539.31Z" fill="#A59FA8"/>
<path d="M1422.92 1599.09C1424.47 1597.42 1424.37 1594.81 1422.71 1593.26C1421.04 1591.71 1418.43 1591.8 1416.88 1593.47C1415.33 1595.13 1415.42 1597.74 1417.09 1599.29C1418.76 1600.85 1421.37 1600.75 1422.92 1599.09Z" fill="#A59FA8"/>
<path d="M1423.41 1653.04C1424.96 1651.37 1424.87 1648.76 1423.2 1647.21C1421.53 1645.66 1418.92 1645.76 1417.37 1647.42C1415.82 1649.09 1415.92 1651.7 1417.58 1653.25C1419.25 1654.8 1421.86 1654.71 1423.41 1653.04Z" fill="#A59FA8"/>
<path d="M1422.19 1699.76C1423.74 1698.09 1423.64 1695.49 1421.98 1693.93C1420.31 1692.38 1417.7 1692.48 1416.15 1694.14C1414.6 1695.81 1414.69 1698.42 1416.36 1699.97C1418.03 1701.52 1420.64 1701.43 1422.19 1699.76Z" fill="#A59FA8"/>
<path d="M1387.93 1760.8C1389.48 1759.13 1389.39 1756.52 1387.72 1754.97C1386.05 1753.42 1383.45 1753.51 1381.89 1755.18C1380.34 1756.84 1380.44 1759.45 1382.11 1761.01C1383.77 1762.56 1386.38 1762.46 1387.93 1760.8Z" fill="#A59FA8"/>
<path d="M1405.41 1760.17C1406.96 1758.5 1406.87 1755.89 1405.2 1754.34C1403.53 1752.79 1400.93 1752.88 1399.37 1754.55C1397.82 1756.22 1397.92 1758.83 1399.59 1760.38C1401.25 1761.93 1403.86 1761.84 1405.41 1760.17Z" fill="#A59FA8"/>
<path d="M1425.81 1759.44C1427.36 1757.77 1427.26 1755.16 1425.6 1753.61C1423.93 1752.06 1421.32 1752.15 1419.77 1753.82C1418.22 1755.49 1418.31 1758.09 1419.98 1759.65C1421.65 1761.2 1424.26 1761.1 1425.81 1759.44Z" fill="#A59FA8"/>
<path d="M1350.53 908.395L1350.84 912.507L1430.13 906.567L1429.82 902.456L1350.53 908.395Z" fill="#898386"/>
<path d="M1346.87 974.231L1347.18 978.342L1430.8 972.078L1430.49 967.967L1346.87 974.231Z" fill="#898386"/>
<path d="M1345.99 1034.02L1346.3 1038.13L1431.46 1031.75L1431.15 1027.64L1345.99 1034.02Z" fill="#898386"/>
<path d="M1344.75 1092.38L1345.05 1096.49L1433.24 1089.99L1432.94 1085.88L1344.75 1092.38Z" fill="#898386"/>
<path d="M1344.1 1144.64L1344.23 1148.76L1433.67 1145.95L1433.53 1141.83L1344.1 1144.64Z" fill="#898386"/>
<path d="M1343.44 1195.72L1343.58 1199.84L1434.1 1196.79L1433.96 1192.67L1343.44 1195.72Z" fill="#898386"/>
<path d="M1341.99 1245.57L1342.15 1249.69L1435.79 1246.03L1435.63 1241.91L1341.99 1245.57Z" fill="#898386"/>
<path d="M1340.46 1292.58L1340.77 1296.69L1435.73 1289.58L1435.42 1285.47L1340.46 1292.58Z" fill="#898386"/>
<path d="M1340.62 1334.91L1340.8 1339.03L1437.14 1334.78L1436.96 1330.66L1340.62 1334.91Z" fill="#898386"/>
<path d="M1340.01 1376.53L1340.14 1380.65L1438.04 1377.52L1437.9 1373.4L1340.01 1376.53Z" fill="#898386"/>
<path d="M1338.38 1416.66L1338.56 1420.78L1437.99 1416.43L1437.81 1412.31L1338.38 1416.66Z" fill="#898386"/>
<path d="M1338.04 1452.55L1338.18 1456.67L1438.61 1453.46L1438.48 1449.34L1338.04 1452.55Z" fill="#898386"/>
<path d="M1337.01 1486.82L1337.19 1490.94L1439.69 1486.53L1439.51 1482.41L1337.01 1486.82Z" fill="#898386"/>
<path d="M1336.92 1520.72L1337.08 1524.84L1439.36 1520.91L1439.21 1516.79L1336.92 1520.72Z" fill="#898386"/>
<path d="M1335.96 1551.95L1336.1 1556.07L1439.71 1552.76L1439.58 1548.64L1335.96 1551.95Z" fill="#898386"/>
<path d="M1335.48 1581.14L1335.62 1585.27L1440.07 1581.93L1439.94 1577.81L1335.48 1581.14Z" fill="#898386"/>
<path d="M1335.25 1608.87L1335.38 1612.99L1440.67 1609.63L1440.53 1605.51L1335.25 1608.87Z" fill="#898386"/>
<path d="M1346.95 1659.55L1347.09 1663.67L1426.56 1661.13L1426.43 1657.01L1346.95 1659.55Z" fill="#898386"/>
<path d="M1334.6 1659.94L1334.73 1664.06L1441.82 1660.64L1441.68 1656.52L1334.6 1659.94Z" fill="#898386"/>
<path d="M1350.43 1634.62L1350.56 1638.75L1430.03 1636.21L1429.9 1632.09L1350.43 1634.62Z" fill="#898386"/>
<path d="M1334.26 1635.14L1334.39 1639.26L1441.34 1635.85L1441.21 1631.73L1334.26 1635.14Z" fill="#898386"/>
<path d="M1347.8 1682.86L1347.93 1686.98L1427.4 1684.44L1427.27 1680.32L1347.8 1682.86Z" fill="#898386"/>
<path d="M1334.62 1683.28L1334.75 1687.4L1441.97 1683.98L1441.84 1679.86L1334.62 1683.28Z" fill="#898386"/>
<path d="M1348.64 1706.16L1348.77 1710.29L1428.25 1707.75L1428.11 1703.63L1348.64 1706.16Z" fill="#898386"/>
<path d="M1334.77 1706.61L1334.9 1710.73L1440.88 1707.35L1440.74 1703.23L1334.77 1706.61Z" fill="#898386"/>
<path d="M1346.47 1726.66L1346.6 1730.78L1426.07 1728.25L1425.94 1724.13L1346.47 1726.66Z" fill="#898386"/>
<path d="M1335.92 1727L1336.05 1731.12L1440.36 1727.79L1440.23 1723.67L1335.92 1727Z" fill="#898386"/>
<path d="M1336.27 1745.94L1336.4 1750.06L1440.43 1746.75L1440.3 1742.62L1336.27 1745.94Z" fill="#898386"/>
<path d="M1681.41 2252.05C1673.51 2275.67 1646.61 2318.21 1635.38 2330.28C1630.62 2339.93 1653.2 2326.87 1671.39 2297.62C1694.84 2260.32 1684.76 2243.9 1681.41 2252.05Z" fill="#221F24"/>
<path d="M1568.33 2251C1571.82 2247.25 1571.6 2241.38 1567.85 2237.89C1564.1 2234.4 1558.23 2234.61 1554.74 2238.36C1551.25 2242.11 1551.46 2247.98 1555.22 2251.47C1558.97 2254.96 1564.84 2254.75 1568.33 2251Z" fill="#A7A5A5"/>
<path d="M1565.31 2248.19C1567.25 2246.11 1567.13 2242.85 1565.04 2240.91C1562.96 2238.97 1559.7 2239.08 1557.76 2241.17C1555.82 2243.25 1555.94 2246.51 1558.02 2248.45C1560.11 2250.39 1563.37 2250.27 1565.31 2248.19Z" fill="#B9B9B9"/>
<path d="M1565.31 2248.19C1567.25 2246.11 1567.13 2242.85 1565.04 2240.91C1562.96 2238.97 1559.7 2239.08 1557.76 2241.17C1555.82 2243.25 1555.94 2246.51 1558.02 2248.45C1560.11 2250.39 1563.37 2250.27 1565.31 2248.19Z" fill="#B9B9B9"/>
<path d="M1568.92 2186.8C1572.41 2183.05 1572.19 2177.18 1568.44 2173.69C1564.69 2170.2 1558.82 2170.41 1555.33 2174.16C1551.84 2177.91 1552.06 2183.78 1555.81 2187.27C1559.56 2190.76 1565.43 2190.55 1568.92 2186.8Z" fill="#A7A5A5"/>
<path d="M1565.9 2183.99C1567.84 2181.9 1567.72 2178.64 1565.63 2176.7C1563.55 2174.77 1560.29 2174.88 1558.35 2176.97C1556.41 2179.05 1556.53 2182.31 1558.61 2184.25C1560.7 2186.19 1563.96 2186.07 1565.9 2183.99Z" fill="#B9B9B9"/>
<path d="M1565.9 2183.99C1567.84 2181.9 1567.72 2178.64 1565.63 2176.7C1563.55 2174.77 1560.29 2174.88 1558.35 2176.97C1556.41 2179.05 1556.53 2182.31 1558.61 2184.25C1560.7 2186.19 1563.96 2186.07 1565.9 2183.99Z" fill="#B9B9B9"/>
<path d="M1508.92 1981.92L1439.72 2100.08C1439.65 2100.21 1439.6 2100.35 1439.59 2100.49C1439.15 2105.44 1441.97 2106.9 1447.16 2107.29L1459.38 2108.21C1459.91 2108.25 1460.39 2107.87 1460.47 2107.35L1461.34 2102.02C1461.44 2101.43 1461.02 2100.89 1460.43 2100.83L1452.86 2100.02C1452.12 2099.94 1451.7 2099.12 1452.09 2098.47L1520.59 1983.02C1520.66 1982.91 1520.7 1982.79 1520.72 1982.66L1544.44 1833.22C1545.69 1827.34 1533.33 1825.49 1532.68 1830.72C1527.24 1874.85 1515.57 1960.88 1509.02 1981.72C1508.99 1981.79 1508.96 1981.85 1508.92 1981.92Z" fill="#221F25" stroke="#221F25"/>
<path d="M1604.68 2127.17C1610.5 2120.92 1610.15 2111.13 1603.89 2105.31C1597.64 2099.5 1587.86 2099.85 1582.04 2106.1C1576.23 2112.35 1576.58 2122.13 1582.83 2127.95C1589.09 2133.77 1598.87 2133.42 1604.68 2127.17Z" fill="#1A191C"/>
<path d="M1527.7 2055.54C1533.51 2049.29 1533.16 2039.5 1526.91 2033.69C1520.65 2027.87 1510.87 2028.22 1505.06 2034.47C1499.24 2040.72 1499.59 2050.5 1505.85 2056.32C1512.1 2062.14 1521.88 2061.79 1527.7 2055.54Z" fill="#1A191C"/>
<path d="M1554.19 1981.65C1560.01 1975.4 1559.66 1965.62 1553.4 1959.8C1547.15 1953.98 1537.37 1954.33 1531.55 1960.58C1525.74 1966.84 1526.09 1976.62 1532.34 1982.44C1538.6 1988.25 1548.38 1987.9 1554.19 1981.65Z" fill="#1A191C"/>
<path d="M1544.46 1967.85C1547.76 1970.09 1552.79 1984.92 1550.55 1988.21C1548.3 1991.5 1543.82 1992.35 1540.52 1990.11C1537.23 1987.86 1537.07 1971.37 1539.31 1968.08C1541.56 1964.79 1541.17 1965.6 1544.46 1967.85Z" fill="#121112"/>
<path d="M1608.76 1695.98C1611.08 1693.48 1610.94 1689.57 1608.44 1687.24C1605.94 1684.91 1602.03 1685.05 1599.7 1687.55C1597.37 1690.06 1597.52 1693.97 1600.02 1696.3C1602.52 1698.62 1606.43 1698.48 1608.76 1695.98Z" fill="#221F25"/>
<path d="M1460.7 1836.95C1462.25 1835.28 1462.16 1832.68 1460.49 1831.12C1458.83 1829.57 1456.22 1829.67 1454.67 1831.33C1453.12 1833 1453.21 1835.61 1454.88 1837.16C1456.54 1838.71 1459.15 1838.62 1460.7 1836.95Z" fill="#221F25"/>
<path d="M1316.22 1834.84C1317.77 1833.18 1317.68 1830.57 1316.01 1829.02C1314.34 1827.47 1311.73 1827.56 1310.18 1829.23C1308.63 1830.89 1308.73 1833.5 1310.4 1835.05C1312.06 1836.61 1314.67 1836.51 1316.22 1834.84Z" fill="#221F25"/>
<path d="M1314.9 1999.72C1316.45 1998.06 1316.36 1995.45 1314.69 1993.9C1313.02 1992.34 1310.41 1992.44 1308.86 1994.1C1307.31 1995.77 1307.41 1998.38 1309.07 1999.93C1310.74 2001.48 1313.35 2001.39 1314.9 1999.72Z" fill="#221F25"/>
<path d="M1459.38 2001.83C1460.93 2000.16 1460.84 1997.55 1459.17 1996C1457.5 1994.45 1454.9 1994.54 1453.34 1996.21C1451.79 1997.88 1451.89 2000.49 1453.56 2002.04C1455.22 2003.59 1457.83 2003.5 1459.38 2001.83Z" fill="#221F25"/>
<path d="M1479.94 1804.17C1482.26 1801.67 1482.12 1797.76 1479.62 1795.43C1477.12 1793.1 1473.21 1793.24 1470.88 1795.74C1468.55 1798.24 1468.7 1802.16 1471.2 1804.48C1473.7 1806.81 1477.61 1806.67 1479.94 1804.17Z" fill="#221F25"/>
<path d="M1266.25 1985.42C1268.57 1982.92 1268.43 1979.01 1265.93 1976.68C1263.43 1974.35 1259.52 1974.49 1257.19 1977C1254.86 1979.5 1255.01 1983.41 1257.51 1985.74C1260.01 1988.06 1263.92 1987.92 1266.25 1985.42Z" fill="#221F25"/>
<path d="M1291.53 2079.33C1293.85 2076.83 1293.71 2072.92 1291.21 2070.59C1288.71 2068.26 1284.8 2068.4 1282.47 2070.9C1280.15 2073.4 1280.29 2077.32 1282.79 2079.64C1285.29 2081.97 1289.2 2081.83 1291.53 2079.33Z" fill="#221F25"/>
<path d="M1491.79 2091.1C1494.12 2088.6 1493.97 2084.69 1491.47 2082.36C1488.97 2080.04 1485.06 2080.18 1482.73 2082.68C1480.41 2085.18 1480.55 2089.09 1483.05 2091.42C1485.55 2093.75 1489.46 2093.6 1491.79 2091.1Z" fill="#221F25"/>
<path d="M1631.89 2173.6C1634.22 2171.1 1634.08 2167.18 1631.58 2164.86C1629.08 2162.53 1625.16 2162.67 1622.84 2165.17C1620.51 2167.67 1620.65 2171.58 1623.15 2173.91C1625.65 2176.24 1629.57 2176.1 1631.89 2173.6Z" fill="#221F25"/>
<path d="M1611.59 2056.17C1613.92 2053.67 1613.78 2049.76 1611.28 2047.43C1608.78 2045.11 1604.86 2045.25 1602.54 2047.75C1600.21 2050.25 1600.35 2054.16 1602.85 2056.49C1605.35 2058.81 1609.27 2058.67 1611.59 2056.17Z" fill="#221F25"/>
<path d="M1561.84 1931.05C1564.17 1928.55 1564.03 1924.64 1561.53 1922.31C1559.03 1919.99 1555.11 1920.13 1552.79 1922.63C1550.46 1925.13 1550.6 1929.04 1553.1 1931.37C1555.6 1933.7 1559.52 1933.55 1561.84 1931.05Z" fill="#221F25"/>
<path d="M1299.13 1886.51C1301.46 1884.01 1301.31 1880.1 1298.81 1877.77C1296.31 1875.44 1292.4 1875.58 1290.07 1878.08C1287.75 1880.58 1287.89 1884.5 1290.39 1886.82C1292.89 1889.15 1296.8 1889.01 1299.13 1886.51Z" fill="#221F25"/>
<path d="M1309.19 1721.32C1311.52 1718.82 1311.38 1714.91 1308.88 1712.58C1306.37 1710.25 1302.46 1710.39 1300.13 1712.89C1297.81 1715.39 1297.95 1719.31 1300.45 1721.63C1302.95 1723.96 1306.87 1723.82 1309.19 1721.32Z" fill="#221F25"/>
<path d="M1587.63 1797.39C1589.96 1794.89 1589.82 1790.98 1587.32 1788.65C1584.82 1786.32 1580.9 1786.46 1578.58 1788.96C1576.25 1791.46 1576.39 1795.38 1578.89 1797.7C1581.39 1800.03 1585.31 1799.89 1587.63 1797.39Z" fill="#221F25"/>
<path d="M1422.3 1563.41C1422.29 1568.08 1421.51 1572.07 1419.96 1575.4C1418.35 1578.66 1416.03 1581.59 1413.01 1584.2L1400.77 1571.87C1402.31 1570.66 1403.47 1569.32 1404.24 1567.85C1405.01 1566.32 1405.4 1564.56 1405.41 1562.58C1405.42 1560.98 1405.1 1559.54 1404.47 1558.25C1403.77 1556.91 1402.75 1555.85 1401.41 1555.08C1400 1554.24 1398.21 1553.82 1396.03 1553.81L1352.84 1553.65L1352.9 1534.36L1395.34 1534.51C1400.97 1534.53 1405.8 1535.7 1409.82 1538.02C1413.84 1540.34 1416.94 1543.64 1419.1 1547.94C1421.26 1552.23 1422.33 1557.39 1422.3 1563.41ZM1422.76 1490.61C1422.74 1495.98 1421.82 1500.94 1420.02 1505.48C1418.21 1509.95 1415.7 1513.88 1412.49 1517.26C1409.27 1520.57 1405.49 1523.15 1401.13 1524.99C1396.77 1526.83 1392.06 1527.75 1387.01 1527.73C1381.89 1527.71 1377.19 1526.8 1372.91 1524.99C1368.62 1523.12 1364.89 1520.51 1361.7 1517.17C1358.51 1513.83 1356.06 1509.92 1354.35 1505.43C1352.58 1500.88 1351.7 1495.92 1351.72 1490.55C1351.74 1485.17 1352.65 1480.24 1354.46 1475.77C1356.2 1471.23 1358.68 1467.31 1361.89 1463.99C1365.1 1460.67 1368.89 1458.13 1373.25 1456.35C1377.54 1454.51 1382.25 1453.6 1387.37 1453.62C1392.42 1453.63 1397.12 1454.58 1401.47 1456.45C1405.75 1458.26 1409.52 1460.83 1412.77 1464.17C1415.96 1467.51 1418.44 1471.42 1420.22 1475.91C1421.93 1480.4 1422.78 1485.29 1422.76 1490.61ZM1405.86 1490.74C1405.87 1487.15 1405.12 1484.05 1403.59 1481.42C1402.06 1478.79 1399.89 1476.76 1397.08 1475.35C1394.27 1473.93 1390.98 1473.21 1387.2 1473.2C1384.39 1473.19 1381.86 1473.6 1379.61 1474.42C1377.31 1475.18 1375.35 1476.33 1373.75 1477.86C1372.08 1479.39 1370.82 1481.24 1369.98 1483.41C1369.08 1485.52 1368.62 1487.92 1368.61 1490.61C1368.6 1494.19 1369.36 1497.3 1370.88 1499.93C1372.35 1502.55 1374.48 1504.58 1377.29 1506C1380.04 1507.41 1383.3 1508.13 1387.08 1508.14C1389.96 1508.15 1392.55 1507.78 1394.86 1507.02C1397.16 1506.2 1399.15 1505.02 1400.82 1503.49C1402.43 1501.96 1403.68 1500.14 1404.59 1498.03C1405.43 1495.86 1405.85 1493.43 1405.86 1490.74ZM1421.57 1445.83L1353.22 1445.59L1353.29 1426.39L1421.64 1426.63L1421.57 1445.83ZM1421.68 1415.27L1353.33 1415.03L1353.38 1401.59L1367.8 1395.88L1421.75 1396.07L1421.68 1415.27ZM1421.85 1368.23L1371.88 1407.7L1353.38 1401.59L1403.34 1362.12L1421.85 1368.23ZM1421.85 1368.23L1406.66 1372.98L1353.48 1372.79L1353.55 1353.59L1421.9 1353.83L1421.85 1368.23ZM1423.26 1296.57C1423.23 1302.59 1422 1307.83 1419.55 1312.3C1417.04 1316.77 1413.6 1320.25 1409.24 1322.73C1404.88 1325.21 1399.89 1326.44 1394.25 1326.42L1353.65 1326.27L1353.71 1307.07L1396.05 1307.23C1398.23 1307.23 1400.08 1306.76 1401.62 1305.8C1403.16 1304.85 1404.35 1303.57 1405.19 1301.98C1405.96 1300.32 1406.35 1298.49 1406.36 1296.51C1406.37 1294.46 1405.99 1292.67 1405.23 1291.13C1404.4 1289.53 1403.25 1288.27 1401.78 1287.37C1400.25 1286.47 1398.4 1286.02 1396.22 1286.01L1353.79 1285.86L1353.86 1266.56L1394.56 1266.71C1400.19 1266.73 1405.18 1267.99 1409.52 1270.5C1413.8 1272.95 1417.18 1276.42 1419.66 1280.91C1422.08 1285.33 1423.28 1290.55 1423.26 1296.57ZM1423.47 1235.41C1423.45 1241.24 1422.6 1246.32 1420.92 1250.67C1419.18 1254.95 1416.45 1258.91 1412.72 1262.54L1400.76 1250.5C1403.14 1248.01 1404.97 1245.4 1406.26 1242.65C1407.49 1239.9 1408.11 1236.96 1408.12 1233.82C1408.13 1231.2 1407.75 1229.21 1406.99 1227.87C1406.16 1226.52 1405.04 1225.84 1403.64 1225.84C1402.23 1225.83 1401.07 1226.41 1400.17 1227.55C1399.21 1228.7 1398.37 1230.24 1397.66 1232.15C1396.89 1234.01 1396.11 1236.08 1395.34 1238.38C1394.56 1240.62 1393.62 1242.86 1392.53 1245.09C1391.43 1247.33 1390.11 1249.41 1388.57 1251.32C1386.96 1253.17 1385.01 1254.67 1382.7 1255.81C1380.32 1256.96 1377.44 1257.52 1374.05 1257.51C1369.63 1257.49 1365.83 1256.42 1362.64 1254.3C1359.45 1252.18 1357.02 1249.19 1355.37 1245.35C1353.66 1241.5 1352.81 1236.99 1352.83 1231.8C1352.85 1226.68 1353.7 1221.95 1355.38 1217.6C1356.99 1213.19 1359.31 1209.55 1362.33 1206.68L1374.28 1218.82C1372.23 1220.93 1370.72 1223.03 1369.75 1225.14C1368.72 1227.25 1368.2 1229.55 1368.19 1232.05C1368.18 1234.03 1368.5 1235.63 1369.13 1236.85C1369.77 1238.01 1370.73 1238.59 1372.01 1238.59C1373.35 1238.59 1374.47 1238.02 1375.37 1236.87C1376.21 1235.72 1376.98 1234.22 1377.69 1232.37C1378.4 1230.45 1379.15 1228.38 1379.92 1226.14C1380.7 1223.84 1381.64 1221.57 1382.73 1219.33C1383.76 1217.1 1385.11 1215.05 1386.78 1213.2C1388.39 1211.29 1390.41 1209.76 1392.85 1208.62C1395.29 1207.47 1398.23 1206.91 1401.69 1206.92C1408.66 1206.94 1414.06 1209.46 1417.88 1214.47C1421.64 1219.41 1423.51 1226.39 1423.47 1235.41ZM1422.51 1181.74L1354.16 1181.5L1354.21 1168.06L1368.63 1162.35L1422.58 1162.54L1422.51 1181.74ZM1422.68 1134.7L1372.72 1174.17L1354.21 1168.06L1404.17 1128.59L1422.68 1134.7ZM1422.68 1134.7L1407.5 1139.45L1354.31 1139.26L1354.38 1120.06L1422.73 1120.3L1422.68 1134.7ZM1424.24 1075.2C1424.22 1080.58 1423.3 1085.54 1421.5 1090.07C1419.69 1094.55 1417.18 1098.47 1413.97 1101.85C1410.75 1105.17 1406.97 1107.75 1402.61 1109.59C1398.25 1111.43 1393.54 1112.34 1388.49 1112.32C1383.37 1112.31 1378.67 1111.39 1374.39 1109.59C1370.1 1107.71 1366.37 1105.11 1363.18 1101.77C1359.99 1098.43 1357.54 1094.52 1355.83 1090.03C1354.06 1085.48 1353.18 1080.52 1353.2 1075.14C1353.22 1069.77 1354.13 1064.84 1355.94 1060.37C1357.68 1055.83 1360.16 1051.9 1363.37 1048.59C1366.58 1045.27 1370.37 1042.72 1374.73 1040.95C1379.02 1039.11 1383.73 1038.19 1388.85 1038.21C1393.9 1038.23 1398.61 1039.18 1402.95 1041.05C1407.23 1042.85 1411 1045.43 1414.25 1048.77C1417.44 1052.11 1419.92 1056.02 1421.7 1060.51C1423.41 1064.99 1424.26 1069.89 1424.24 1075.2ZM1407.34 1075.33C1407.35 1071.75 1406.6 1068.64 1405.07 1066.01C1403.54 1063.39 1401.37 1061.36 1398.56 1059.94C1395.75 1058.53 1392.46 1057.81 1388.68 1057.8C1385.87 1057.79 1383.34 1058.19 1381.09 1059.02C1378.79 1059.78 1376.83 1060.92 1375.23 1062.45C1373.56 1063.98 1372.3 1065.83 1371.46 1068.01C1370.56 1070.12 1370.1 1072.51 1370.09 1075.2C1370.08 1078.79 1370.84 1081.89 1372.36 1084.52C1373.83 1087.15 1375.96 1089.17 1378.77 1090.59C1381.52 1092.01 1384.78 1092.73 1388.56 1092.74C1391.44 1092.75 1394.03 1092.38 1396.34 1091.62C1398.65 1090.79 1400.63 1089.61 1402.3 1088.08C1403.91 1086.55 1405.16 1084.73 1406.07 1082.63C1406.91 1080.45 1407.33 1078.02 1407.34 1075.33ZM1423.1 1015.98L1354.68 1037.24L1354.74 1018.13L1407.41 1003.15L1407.37 1011.98L1354.82 996.821L1354.88 980.981L1407.54 966.192L1407.51 974.928L1354.95 959.573L1355.02 940.661L1423.3 962.409L1423.24 978.344L1370.67 993.133L1370.7 984.877L1423.16 1000.04L1423.1 1015.98Z" fill="white"/>
</svg>
