<svg width="140" height="174" viewBox="0 0 140 174" fill="none" xmlns="http://www.w3.org/2000/svg">
<path d="M137.709 21.9882L64.2249 20.2805L14.9965 3.77702L78.8676 6.66015L137.709 21.9882Z" fill="#9C9D9F"/>
<path d="M64.2249 20.2805L137.709 21.9882L136.071 23.616L76.091 21.9893L64.2249 20.2805Z" fill="#9FA0A2"/>
<path d="M121.311 160.164L61.9455 167.801L59.9778 119.213L76.091 21.9893L136.071 23.616L130.515 112.774L121.311 160.164Z" fill="#2E2F34"/>
<path d="M59.9778 119.213L64.2249 20.2805L76.091 21.9893L59.9778 119.213Z" fill="#27282D"/>
<path d="M61.9455 167.801L51.4317 165.922L59.9778 119.213L61.9455 167.801Z" fill="#1B1C20"/>
<path d="M51.4317 165.922L64.2249 20.2805L59.9778 119.213L51.4317 165.922Z" fill="#252427"/>
<path d="M64.2249 20.2805L51.4317 165.922L4.83856 127.692L14.9965 3.77702L64.2249 20.2805Z" fill="#292A2E"/>
<path d="M130.515 112.774L123.46 157.842L121.311 160.164L130.515 112.774Z" fill="#2E2D33"/>
<path d="M137.709 21.9882L130.515 112.774L136.071 23.616L137.709 21.9882Z" fill="#585C65"/>
<path d="M80.2052 56.6743C79.9218 70.7529 89.6888 80.5792 101.753 78.5948C118.435 80.1621 122.637 68.0848 124.089 52.6312C125.135 41.4953 119.057 30.3323 105.075 29.0186C93.9393 27.9723 81.6987 40.7791 80.2052 56.6743Z" fill="#B6C0C9"/>
<path d="M94.0412 55.3394C93.9113 61.6296 98.2422 66.017 103.596 65.1269C108.951 65.63 112.964 59.373 113.514 53.5203C113.982 48.5447 111.288 43.559 105.084 42.9761C100.144 42.5119 94.7085 48.2373 94.0412 55.3394Z" fill="#98A0A7"/>
<path d="M63.5565 118.51C63.0132 148.451 85.5947 151.018 96.0492 150.367C113.673 149.27 127.154 132.206 129.104 111.454C130.765 93.7717 122.846 78.498 102.977 76.6311C83.1083 74.7643 63.9062 99.2405 63.5565 118.51Z" fill="#B6C0C9"/>
<path d="M67.8263 117.085C67.3463 143.222 87.0044 146.244 96.1047 145.674C111.445 144.711 122.771 127.718 124.677 114.396C126.873 99.0482 119.447 82.9298 102.153 81.3048C84.8582 79.6799 68.1353 100.264 67.8263 117.085Z" fill="#232730"/>
<path d="M70.5225 116.761C70.0899 140.523 87.9985 143.274 96.2885 142.757C110.263 141.885 120.577 126.438 122.312 114.327C124.309 100.375 117.542 85.7202 101.787 84.2399C86.0315 82.7595 70.801 101.469 70.5225 116.761Z" fill="#1C1B21"/>
<path d="M95.5556 55.267C95.4086 63.1078 101.275 64.0117 103.991 63.8391C108.569 63.5483 111.952 58.4489 112.523 54.452C113.18 49.8477 110.966 45.0134 105.805 44.5285C100.644 44.0436 95.6503 50.2209 95.5556 55.267Z" fill="#1C1B21"/>
<path d="M99.3347 98.3767C97.3336 98.1888 95.3154 98.6744 93.4004 99.672L92.9392 98.7861C89.1486 100.761 85.9016 104.522 84.0817 108.613L84.0808 108.613L84.994 109.019C84.1387 110.942 83.627 112.914 83.5358 114.768L83.5227 115.137C83.4828 117.253 83.7188 119.021 84.1441 120.497L83.1853 120.774C84.5234 125.417 87.6793 127.629 90.7944 128.608L91.0927 127.657C92.7902 128.191 94.4857 128.332 95.82 128.299L96.3686 128.275L96.6898 128.25C98.2893 128.094 99.8024 127.544 101.2 126.699L101.717 127.555C104.836 125.67 107.324 122.478 108.873 119.116L107.967 118.698C108.757 116.984 109.284 115.237 109.514 113.627L109.596 112.964C109.758 111.417 109.713 109.867 109.461 108.386L110.445 108.218C109.803 104.43 107.891 101.035 104.688 99.0749L104.166 99.9282C102.824 99.1072 101.219 98.5538 99.3347 98.3767Z" fill="#111111" stroke="#010101" stroke-width="2" stroke-dasharray="15 15"/>
<rect width="1.47826" height="14.1913" transform="matrix(-0.995615 -0.0935451 -0.0935451 0.995615 106.668 41.0459)" fill="#111111"/>
<rect width="1.47826" height="14.1913" transform="matrix(-0.77505 0.6319 0.6319 0.77505 105.252 53.979)" fill="#111111"/>
<rect width="1.47826" height="14.1913" transform="matrix(-0.615069 -0.788474 -0.788474 0.615069 105.057 55.041)" fill="#111111"/>
<circle cx="1.92174" cy="1.92174" r="1.92174" transform="matrix(-0.995615 -0.0935451 -0.0935451 0.995615 108.012 39.3906)" fill="#111111"/>
<circle cx="1.92174" cy="1.92174" r="1.92174" transform="matrix(-0.995615 -0.0935451 -0.0935451 0.995615 95.552 61.3823)" fill="#111111"/>
<circle cx="1.92174" cy="1.92174" r="1.92174" transform="matrix(-0.995615 -0.0935451 -0.0935451 0.995615 115.541 63.5576)" fill="#111111"/>
<circle cx="1.62608" cy="1.62608" r="1.62608" transform="matrix(-0.995615 -0.0935451 -0.0935451 0.995615 106.487 30.3389)" fill="#9DA2A6"/>
<circle cx="1.62608" cy="1.62608" r="1.62608" transform="matrix(-0.995615 -0.0935451 -0.0935451 0.995615 119.596 67.7988)" fill="#9DA2A6"/>
<circle cx="1.62608" cy="1.62608" r="1.62608" transform="matrix(-0.995615 -0.0935451 -0.0935451 0.995615 87.1621 65.3452)" fill="#9DA2A6"/>
<circle cx="1.62608" cy="1.62608" r="1.62608" transform="matrix(-0.995615 -0.0935451 -0.0935451 0.995615 121.313 84.293)" fill="#9DA2A6"/>
<circle cx="1.62608" cy="1.62608" r="1.62608" transform="matrix(-0.995615 -0.0935451 -0.0935451 0.995615 87.002 82.8506)" fill="#9DA2A6"/>
<circle cx="1.62608" cy="1.62608" r="1.62608" transform="matrix(-0.995615 -0.0935451 -0.0935451 0.995615 67.3376 115.153)" fill="#9DA2A6"/>
<circle cx="1.62608" cy="1.62608" r="1.62608" transform="matrix(-0.995615 -0.0935451 -0.0935451 0.995615 128.85 114.696)" fill="#9DA2A6"/>
<circle cx="1.62608" cy="1.62608" r="1.62608" transform="matrix(-0.995615 -0.0935451 -0.0935451 0.995615 116.28 137.866)" fill="#9DA2A6"/>
<circle cx="1.62608" cy="1.62608" r="1.62608" transform="matrix(-0.995615 -0.0935451 -0.0935451 0.995615 81.6543 142.927)" fill="#9DA2A6"/>
</svg>
