<svg width="3307" height="3307" viewBox="0 0 3307 3307" fill="none" xmlns="http://www.w3.org/2000/svg">
<g clip-path="url(#clip0_857_856)">
<path d="M1566.88 0.693966C1218.13 19.2581 884.696 147.225 612.723 367.11C551.083 417.035 467.814 496.338 417.709 553.112C180.701 821.301 39.2173 1148.07 6.23446 1502.77C-0.794674 1577.92 -2.05631 1701.02 3.35071 1770.41C14.5252 1914.06 40.8394 2044.91 85.3573 2178.64C165.922 2420.16 302.179 2640.59 483.675 2822.08C885.597 3223.82 1463.07 3391.08 2018.37 3266.18C2360.09 3189.4 2672.44 3002.5 2902.06 2737.55C3045.89 2571.92 3155.65 2379.43 3222.88 2175.04C3269.92 2032.47 3296.23 1895.5 3305.24 1745.72C3307.59 1705.89 3307.59 1599.01 3305.24 1559C3275.86 1068.58 3036.69 622.863 2644.5 328.36C2400.11 144.881 2106.68 32.5954 1799.39 5.01959C1730.18 -1.10838 1634.83 -2.91072 1566.88 0.693966ZM1733.6 121.271C2018.19 137.312 2285.12 227.249 2518.52 385.855C2633.33 463.716 2742.01 562.484 2832.85 670.985C2965.5 829.592 3066.07 1016.31 3125.19 1214.21C3160.88 1333.71 3181.42 1453.02 3188.27 1580.27C3190.79 1628.75 3189.35 1728.96 3185.57 1775.82C3171.69 1938.57 3136.9 2085.82 3077.61 2232.72C2962.8 2516.22 2764.72 2760.44 2511.31 2930.4C2417.23 2993.48 2325.31 3041.97 2221.13 3083.42C1867.51 3224 1476.59 3228.69 1120.08 3096.58C807.015 2980.69 540.269 2766.21 360.755 2485.94C331.017 2439.8 292.627 2371.86 275.865 2336.35C272.981 2329.86 265.952 2315.08 260.365 2303.37C247.027 2275.43 229.004 2232.53 215.126 2195.77C127.352 1963.27 97.6132 1707.69 129.695 1460.41C159.253 1231.33 239.638 1011.81 364.36 820.039C373.191 806.341 381.122 795.527 382.023 795.707C384.186 796.428 447.989 857.167 449.07 859.51C449.611 860.592 442.041 874.47 432.488 890.15C329.214 1058.13 261.807 1244.13 234.051 1436.44C222.335 1518.45 218.731 1576.48 220.173 1664.98C221.254 1730.22 223.777 1768.61 230.446 1821.78C281.993 2225.69 500.797 2586.33 835.132 2818.84C1033.03 2956.36 1269.14 3043.41 1509.21 3067.02C1607.26 3076.75 1728.19 3075.31 1825.52 3063.6C2049.73 3036.2 2267.63 2954.37 2455.44 2826.95C2571.69 2748.01 2680.73 2647.43 2768.87 2537.31C2846.91 2440.16 2916.12 2325.54 2961.9 2218.3C3032.37 2053.02 3070.4 1891.53 3080.13 1717.25C3084.28 1642.81 3080.31 1536.83 3070.76 1462.21C3025.52 1109.13 2851.95 786.516 2583.4 556.537C2525.01 506.431 2466.07 462.454 2422.09 435.78C2407.68 427.128 2392.9 417.576 2389.29 414.692C2385.51 411.809 2374.15 399.012 2363.88 386.576C2306.56 316.465 2241.32 273.569 2167.96 257.348C2149.4 253.382 2109.57 251.941 2089.92 254.464C2058.56 258.609 2018.91 271.586 2004.85 282.4C2001.43 284.923 1997.28 287.086 1995.3 287.086C1992.06 287.086 1983.58 278.435 1967.9 258.609C1950.06 236.44 1901.4 202.917 1861.57 185.434C1764.42 142.719 1650.69 153.533 1558.77 214.091C1530.48 232.655 1508.31 252.481 1471.9 291.051C1469.38 293.755 1466.31 296.098 1465.41 296.098C1464.33 296.098 1458.92 289.249 1453.52 280.778C1439.46 259.871 1427.92 250.859 1401.25 240.225C1374.21 229.591 1340.87 225.266 1303.2 227.789C1212.9 233.737 1117.74 264.377 1018.61 319.528C918.58 375.401 835.132 441.187 723.387 552.571C689.683 586.275 659.584 615.653 656.339 618.177C651.113 622.142 650.211 622.322 646.967 620.159C641.02 616.014 581.903 557.438 581.903 555.816C581.903 554.013 616.147 521.751 641.38 499.583C841.981 323.494 1088.9 201.835 1352.4 149.207C1430.81 133.527 1498.57 125.236 1584.01 120.73C1609.6 119.288 1705.3 119.649 1733.6 121.271ZM1800.11 239.504C1822.27 243.65 1839.76 249.778 1866.07 262.935C1894.55 276.993 1915.64 291.953 1941.41 316.104C1960.88 334.308 1969.35 346.564 1972.23 360.081C1973.85 368.372 1986.29 616.014 1986.65 647.915C1986.83 674.951 1986.65 676.212 1982.68 680.538C1978.36 685.044 1968.08 689.009 1960.33 689.009C1957.81 689.009 1945.01 685.224 1931.68 680.538C1909.87 672.968 1905.9 672.247 1890.4 672.067C1869.68 671.887 1858.68 674.77 1848.95 683.061C1839.94 690.811 1835.61 699.102 1832.73 713.881C1827.68 739.114 1834.17 762.004 1852.55 785.074C1860.66 795.167 1882.11 815.533 1913.83 843.289C1930.78 858.069 1966.28 896.639 1975.29 910.156C1987.01 927.459 2010.08 973.779 2019.27 998.111C2025.94 1015.95 2035.13 1053.98 2041.26 1088.23C2043.6 1102.29 2044.32 1116.88 2044.5 1154.01C2044.5 1195.11 2043.96 1205.2 2040.36 1227.01C2027.74 1306.31 2009 1349.39 1969.53 1391.02L1957.45 1403.64L1948.8 1400.39C1937.08 1396.25 1934.38 1396.43 1929.15 1401.84C1925.55 1405.26 1924.65 1407.96 1924.65 1415.53C1924.65 1425.27 1921.22 1431.57 1916 1431.57C1914.55 1431.57 1908.43 1427.43 1902.3 1422.2C1881.39 1404.72 1859.94 1398.95 1847.69 1407.78C1838.14 1414.63 1837.05 1420.76 1840.3 1449.6C1840.84 1453.92 1840.66 1454.1 1829.12 1453.92C1821.01 1453.74 1814.89 1452.48 1808.94 1449.78C1798.48 1444.73 1795.78 1439.5 1786.95 1408.14C1783.52 1395.71 1774.15 1362.54 1766.04 1334.25C1730.54 1210.07 1724.41 1185.73 1727.65 1178.71C1729.63 1174.56 1730.54 1174.38 1757.39 1173.12C1790.01 1171.86 1799.02 1170.23 1814.16 1163.21C1828.58 1156.36 1840.48 1144.28 1845.16 1131.3C1852.01 1113.1 1849.31 1078.86 1839.22 1055.97C1829.84 1034.88 1803.35 1013.43 1756.49 989.459C1705.66 963.145 1677.37 942.959 1647.09 911.418C1595.9 857.708 1552.82 776.963 1532.82 697.119C1502.72 577.444 1512.27 457.047 1559.31 363.686C1594.46 293.575 1660.42 245.993 1735.04 236.801C1752.16 234.638 1780.1 235.9 1800.11 239.504ZM1356.01 316.284C1363.76 320.43 1385.21 362.424 1393.5 389.82C1407.2 434.158 1419.45 483.902 1422.52 507.873C1423.24 512.74 1426.12 528.6 1429 543.019C1437.47 586.275 1446.13 635.84 1453.52 682.701C1457.84 710.457 1459.82 739.294 1457.84 743.079C1456.76 745.062 1441.98 757.137 1424.86 769.934C1389.35 796.789 1385.75 801.295 1385.75 818.237C1385.75 824.905 1387.01 831.033 1388.99 834.999C1390.79 838.423 1409.9 874.47 1431.53 915.203C1467.57 982.791 1486.14 1017.94 1558.41 1154.01C1585.99 1206.1 1598.24 1225.93 1605.63 1230.25C1612.12 1234.22 1624.02 1234.22 1631.41 1230.43C1634.65 1228.81 1649.43 1219.8 1664.39 1210.61C1679.35 1201.23 1692.87 1193.66 1694.49 1193.66C1696.11 1193.66 1698.63 1195.47 1700.26 1197.63C1703.86 1203.04 1753.79 1353.71 1766.94 1399.13C1773.97 1423.1 1776.86 1435.9 1776.13 1439.68C1775.23 1444.19 1771.63 1447.25 1752.88 1459.51C1721.16 1480.24 1667.09 1511.6 1653.58 1516.82C1640.96 1522.05 1388.45 1591.98 1382.86 1591.98C1378 1591.98 1352.58 1569.63 1339.61 1553.95C1316.36 1525.48 1303.56 1504.03 1295.63 1480.24C1288.06 1458.07 1292.93 1432.29 1305.72 1426.53C1308.25 1425.27 1322.49 1423.46 1337.08 1422.56C1387.73 1419.14 1405.75 1412.65 1428.64 1390.12C1448.83 1369.93 1458.2 1348.85 1458.2 1322.35C1458.2 1308.29 1457.3 1303.43 1451.71 1287.57C1448.29 1277.29 1441.44 1261.61 1436.57 1252.6C1426.84 1234.04 1398.72 1190.42 1380.34 1165.73C1373.85 1156.72 1356.01 1131.66 1340.69 1109.86C1266.43 1003.88 1250.03 985.855 1219.93 978.105C1205.15 974.32 1192.9 975.401 1180.28 981.709C1168.39 987.477 1112.15 1029.47 1089.8 1048.94C1084.94 1053.26 1079.89 1056.69 1078.63 1056.69C1077.37 1056.69 1011.04 989.099 931.377 906.552C732.398 700.364 715.276 682.34 715.276 680.358C715.276 679.456 719.782 671.887 725.369 663.596C761.957 608.805 823.597 550.048 923.987 473.809C1022.58 399.372 1156.31 336.47 1258.68 317.005C1281.03 312.679 1281.93 312.679 1317.26 313.04C1344.29 313.22 1351.68 313.761 1356.01 316.284ZM2166.16 341.877C2206.89 351.43 2254.84 371.256 2283.31 390.361C2309.09 407.483 2352.88 447.315 2359.55 459.751C2365.32 470.565 2369.83 490.931 2369.83 505.891C2369.83 515.623 2363.16 576.903 2349.82 691.712C2345.86 725.957 2340.63 728.841 2307.29 715.323C2261.69 696.759 2246.55 694.055 2234.47 702.166C2221.31 710.997 2213.2 730.282 2211.76 755.695C2210.5 776.062 2213.38 788.318 2222.4 801.835C2232.31 816.434 2238.62 819.498 2278.81 828.69C2307.47 835.359 2313.23 838.423 2317.92 849.057C2322.24 858.609 2322.06 864.377 2315.94 955.035C2312.15 1009.29 2310.89 1015.05 2298.99 1025.51C2289.08 1034.16 2283.31 1034.52 2261.51 1027.85C2241.14 1021.54 2227.8 1021.18 2219.15 1026.95C2212.48 1031.27 2211.22 1036.5 2209.06 1070.02C2206.71 1108.41 2207.62 1119.05 2213.92 1129.86C2221.49 1142.84 2230.15 1145.9 2256.82 1145.54C2280.43 1145 2286.92 1146.62 2294.67 1155.09C2302.96 1164.11 2304.22 1175.28 2300.62 1210.61C2298.99 1227.55 2296.83 1242.15 2295.93 1243.05C2295.03 1243.77 2289.8 1243.05 2284.04 1241.07C2273.94 1237.64 2273.4 1237.1 2270.88 1228.99C2268.35 1220.88 2268.35 1220.52 2272.14 1217.82C2285.48 1208.44 2261.87 1179.61 2240.06 1178.71C2231.59 1178.34 2227.44 1181.59 2227.44 1188.62C2227.44 1195.83 2231.59 1203.04 2239.7 1210.07C2246.19 1215.65 2254.48 1228.63 2254.48 1233.32C2254.48 1234.4 2249.61 1235.12 2242.76 1235.12H2231.05L2227.44 1227.91C2225.46 1224.12 2223.84 1217.82 2223.84 1214.03C2223.84 1204.3 2216.99 1195.11 2205.45 1189.34C2195.18 1184.29 2188.69 1183.57 2181.48 1186.82C2169.05 1192.4 2177.34 1217.1 2194.1 1224.48C2201.85 1227.91 2207.62 1233.68 2207.62 1238C2207.62 1239.62 2186.35 1245.21 2175.35 1246.47C2173.91 1246.65 2170.85 1243.41 2168.5 1239.44C2164.9 1233.14 2164.54 1231.15 2166.34 1226.83C2170.67 1215.11 2162.92 1201.6 2149.04 1196.37C2139.13 1192.58 2130.48 1193.84 2124.53 1200.15C2116.24 1208.98 2121.1 1225.93 2133.9 1232.42C2139.67 1235.48 2149.4 1252.6 2146.88 1255.12C2144.53 1257.47 2124.71 1263.96 2119.84 1263.96C2116.78 1263.96 2114.25 1261.79 2110.47 1255.85C2105.78 1248.46 2105.6 1247.01 2107.23 1239.98C2110.47 1225.39 2102 1214.75 2087.04 1214.75C2074.06 1214.75 2063.43 1225.93 2063.43 1239.26C2063.43 1244.85 2064.69 1247.55 2069.56 1252.42C2073.34 1256.21 2077.49 1258.55 2080.37 1258.55C2083.61 1258.55 2085.78 1259.99 2087.76 1263.96C2091.54 1271.35 2091.18 1272.43 2084.34 1273.69C2076.95 1275.13 2067.75 1283.24 2066.13 1289.73C2065.41 1292.43 2067.57 1308.29 2071.36 1327.4C2081.09 1376.96 2081.09 1376.96 2075.32 1379.49C2072.44 1380.93 2069.92 1381.11 2069.02 1380.03C2068.11 1379.13 2066.13 1350.83 2064.51 1317.13C2062.89 1283.42 2061.27 1251.7 2060.72 1246.83C2060.36 1241.79 2059.1 1217.1 2058.02 1191.86C2056.94 1166.63 2054.78 1124.82 2053.34 1099.04C2051.89 1073.27 2049.91 1031.45 2049.01 1006.22C2045.4 909.255 2030.99 610.967 2021.97 450.379C2021.07 432.535 2020.17 404.96 2020.17 388.919C2020.17 355.936 2021.07 353.412 2034.41 346.744C2052.97 337.191 2075.5 333.947 2113.89 335.029C2135.7 335.569 2144.35 336.651 2166.16 341.877ZM2426.24 507.333C2431.47 509.315 2440.12 514.362 2445.53 518.507C2460.12 529.321 2514.37 583.031 2528.43 600.694C2583.58 670.084 2630.99 765.789 2645.59 837.161C2657.12 893.755 2654.6 960.982 2639.28 1014.51C2627.2 1055.97 2597.46 1102.65 2566.64 1128.06C2543.93 1146.62 2529.51 1150.05 2486.62 1146.98C2455.62 1144.64 2453.82 1145 2448.41 1154.37C2446.43 1157.44 2442.82 1175.46 2439.04 1200.15C2430.21 1257.83 2424.26 1292.07 2421.01 1303.61C2415.07 1324.51 2401.73 1347.22 2397.22 1344.34C2396.14 1343.62 2392.72 1338.39 2389.65 1332.81C2375.59 1306.49 2349.46 1277.65 2323.87 1260.35C2308.37 1249.9 2308.91 1251.52 2312.87 1224.3C2314.31 1214.93 2315.94 1201.41 2316.66 1194.57C2317.2 1187.54 2318.46 1175.1 2319.54 1166.63C2322.97 1135.09 2350.54 892.133 2366.22 752.992C2375.23 673.689 2384.61 590.961 2386.95 569.153C2389.47 547.345 2392.72 526.077 2394.34 521.932C2397.4 513.461 2407.68 503.368 2413.26 503.368C2415.25 503.368 2421.19 505.17 2426.24 507.333ZM580.461 614.392C596.502 628.991 618.851 649.538 629.665 660.171C665.712 695.497 781.963 814.091 850.452 885.464C875.685 911.778 922.005 959.54 953.185 991.802C984.366 1024.06 1018.79 1059.75 1029.78 1071.11C1040.6 1082.46 1060.6 1103.19 1074.12 1117.07C1102.06 1145.72 1121.52 1170.41 1131.08 1189.7C1136.84 1201.41 1137.56 1204.48 1138.29 1220.34C1138.83 1229.89 1138.29 1242.69 1137.2 1248.64C1136.12 1254.58 1133.24 1274.77 1130.72 1293.69C1119.18 1380.21 1109.45 1439.5 1106.2 1443.65C1096.83 1454.82 1071.06 1453.02 1058.08 1440.41C1048.71 1431.21 1048.17 1425.45 1053.94 1396.61C1056.82 1382.55 1060.6 1362.18 1062.23 1351.37C1063.85 1340.38 1067.09 1323.79 1069.44 1314.42C1076.11 1287.21 1078.81 1263.42 1077.91 1241.61C1077.55 1235.48 1074.66 1231.51 1070.34 1231.51C1065.11 1231.51 1063.67 1235.12 1061.69 1254.4C1060.42 1264.5 1056.28 1285.58 1052.13 1301.26C1048.17 1316.95 1041.32 1343.98 1036.81 1361.28C1032.49 1378.59 1022.76 1411.39 1015.37 1434.28C1007.98 1456.99 999.866 1485.1 997.343 1496.46C986.889 1542.78 970.308 1584.41 957.871 1595.05C952.464 1599.91 949.761 1600.99 942.912 1600.99C938.226 1600.99 931.197 1599.37 927.051 1597.39C916.958 1592.52 903.981 1579.37 898.935 1569.27C895.51 1561.88 895.15 1559.36 896.231 1545.48C898.394 1517.55 905.423 1486 918.58 1445.09C921.464 1436.08 925.609 1421.12 927.772 1411.75C930.115 1402.38 934.982 1384.53 938.767 1372.1C954.267 1321.81 964.36 1269.54 964.72 1239.62C964.901 1225.03 964.18 1220.34 961.296 1214.39C958.232 1208.44 956.79 1207.18 952.284 1207.18H946.877L947.418 1223.4C947.959 1238.72 947.238 1243.05 933.54 1296.58C925.609 1327.94 915.877 1364.35 911.912 1377.68C892.086 1443.83 850.091 1528.72 823.597 1556.48C814.225 1566.39 804.492 1571.8 786.649 1577.38C772.05 1581.89 763.939 1582.07 755.829 1578.28C744.654 1573.06 735.102 1557.02 735.102 1543.68C735.102 1530.34 744.114 1497.36 756.369 1465.82C762.317 1450.5 768.625 1433.38 770.248 1427.97C772.05 1422.56 778.719 1405.44 785.207 1390.12C805.393 1341.28 823.597 1282.52 830.085 1244.13C836.574 1206.64 837.114 1169.33 831.347 1158.52C829.004 1154.19 825.579 1150.59 822.696 1149.51C814.585 1146.62 812.603 1151.31 813.864 1169.87C815.667 1199.07 802.69 1255.49 786.469 1288.29C774.032 1313.52 764.66 1325.24 743.032 1342.72C696.532 1380.57 657.421 1398.95 622.455 1399.67C610.199 1399.85 606.415 1399.13 597.223 1394.99C584.066 1388.86 578.839 1384.17 574.513 1374.8C567.844 1360.38 570.908 1341.28 583.345 1320.19C587.31 1313.52 598.304 1294.96 607.856 1278.74C617.409 1262.69 628.764 1241.25 633.089 1230.97C639.938 1215.11 641.2 1209.89 643.002 1191.68C645.886 1161.94 645.706 983.151 642.642 978.105C636.874 968.192 620.653 951.971 527.832 862.935C472.861 810.126 424.198 763.265 419.872 758.759L411.942 750.469L424.378 733.707C441.68 710.457 471.419 673.509 490.704 651.16C515.036 623.404 547.658 588.078 549.461 588.078C550.362 588.078 564.24 599.973 580.461 614.392ZM2653.7 701.625C2720.2 772.638 2780.94 853.202 2832.31 938.633C2872.32 1005.32 2921.34 1112.56 2950.18 1196.55C2968.38 1249.72 2995.78 1350.47 2992.9 1353.35C2992.36 1354.07 2986.77 1350.47 2980.46 1345.6C2934.86 1309.56 2890.7 1290.63 2846.01 1287.93C2786.71 1284.32 2727.41 1311.54 2671.72 1367.59C2631.17 1408.32 2595.12 1463.84 2565.74 1530.34C2561.96 1539.35 2558.35 1545.12 2557.09 1544.76C2555.83 1544.4 2553.85 1540.98 2552.58 1537.37C2546.82 1520.61 2530.78 1505.11 2513.29 1499.16C2499.23 1494.3 2469.5 1493.57 2450.03 1497.36C2420.11 1503.31 2376.5 1521.15 2353.61 1536.65C2311.79 1565.31 2290.34 1613.61 2296.29 1664.98C2300.8 1704.09 2318.64 1743.02 2346.76 1775.1C2358.83 1788.98 2366.04 1794.57 2382.98 1803.04C2390.73 1807 2396.86 1811.15 2396.5 1812.05C2396.14 1813.13 2387.31 1817.46 2377.04 1821.42C2340.27 1836.02 2314.13 1856.57 2297.55 1883.96C2286.74 1901.99 2283.31 1911.18 2282.05 1925.6C2280.97 1938.39 2283.49 1947.95 2290.7 1958.04C2295.39 1964.71 2295.03 1968.13 2288.9 1971.38C2278.27 1976.78 2255.92 1996.43 2246.37 2008.68C2233.39 2025.27 2226.54 2039.86 2222.76 2059.51C2220.05 2073.57 2219.87 2077.71 2221.85 2093.21C2222.94 2103.13 2223.48 2111.96 2222.94 2112.86C2222.4 2113.76 2216.45 2117.37 2209.78 2120.97C2177.88 2137.73 2153.73 2168.01 2145.43 2201.9C2140.93 2219.92 2142.37 2244.97 2148.86 2260.83C2151.38 2267.32 2153.55 2273.63 2153.55 2274.71C2153.55 2277.23 2154.45 2277.05 2130.12 2276.87C2100.92 2276.51 2084.16 2281.38 2060 2297.24C2046.13 2306.25 2028.46 2327.52 2019.09 2346.26C2008.1 2368.79 2007.56 2399.07 2017.83 2431.51C2021.43 2443.05 2021.97 2447.01 2020.35 2448.1C2019.09 2448.82 2011.7 2449.9 2003.77 2450.44C1971.87 2452.96 1921.04 2473.51 1890.4 2496.4C1870.94 2510.82 1847.33 2534.25 1828.58 2557.86C1799.75 2594.27 1791.82 2610.67 1790.01 2638.06C1788.57 2659.51 1790.55 2667.98 1804.79 2701.14C1816.15 2728 1818.85 2736.11 1840.12 2807.66C1860.48 2876.33 1888.42 2991.5 1885.36 2994.39C1883.37 2996.37 1826.24 3004.48 1786.77 3008.44C1622.4 3024.84 1447.57 3010.61 1288.78 2967.71C1270.4 2962.84 1257.06 2958.34 1256.52 2956.9C1254.18 2950.95 1284.28 2877.95 1303.2 2843.71C1344.47 2769.27 1410.8 2692.13 1470.46 2649.6C1502.18 2627.07 1552.28 2607.78 1617.35 2593.18C1664.75 2582.55 1672.5 2580.57 1691.24 2574.26C1734.86 2559.3 1775.59 2539.29 1809.3 2516.04C1824.44 2505.59 1844.62 2484.86 1855.08 2468.82C1873.46 2440.89 1902.12 2391.14 1909.69 2373.66C1925.55 2337.79 1933.84 2298.68 1934.2 2257.05C1934.56 2229.83 1933.84 2225.33 1925.01 2198.83C1920.32 2184.95 1920.32 2184.59 1923.75 2182.79C1929.33 2179.91 1956.55 2151.07 1964.12 2139.89C1967.9 2134.49 1977.28 2117.73 1984.67 2102.95C1995.84 2080.96 2002.69 2063.48 2020.89 2010.13C2033.15 1973.9 2054.06 1913.16 2067.03 1874.95C2080.19 1836.74 2092.45 1800.87 2094.25 1795.11L2097.49 1784.47L2089.38 1722.11C2085.06 1687.69 2079.83 1647.49 2077.85 1632.72C2074.6 1608.56 2074.6 1605.5 2077.13 1602.62C2078.57 1600.99 2100.74 1585.67 2126.15 1568.73L2172.65 1537.91L2180.58 1540.62C2184.91 1542.06 2195 1546.92 2202.93 1551.25C2230.51 1566.21 2250.15 1569.99 2269.98 1564.05C2280.61 1560.98 2291.97 1550.71 2297.37 1539.35C2299.54 1535.21 2302.42 1523.85 2304.04 1514.48C2311.43 1470.5 2311.25 1471.23 2318.82 1471.23C2321.16 1471.23 2327.29 1473.39 2332.52 1475.91C2354.15 1486.91 2377.76 1491.59 2390.37 1487.45C2399.39 1484.56 2408.76 1476.09 2411.1 1468.88C2414.89 1457.35 2417.05 1430.49 2415.79 1411.21L2414.52 1391.56L2421.91 1381.11C2436.87 1359.84 2446.43 1327.76 2456.34 1264.86C2459.58 1245.03 2462.83 1227.01 2463.73 1225.03C2464.81 1221.6 2467.15 1220.88 2478.33 1219.8C2518.52 1215.83 2554.75 1197.63 2587.91 1165.01C2623.06 1130.22 2642.52 1096.88 2660.72 1040.83C2676.95 990.18 2682.53 952.692 2682.35 896.278C2682.35 852.842 2680.55 839.865 2669.02 792.463C2660.72 758.94 2652.97 735.509 2639.1 702.887C2633.69 690.27 2629.36 679.456 2629.36 678.916C2629.36 676.392 2635.85 682.52 2653.7 701.625ZM1520.74 873.028C1568.32 983.512 1636.09 1062.27 1700.44 1081.56C1715.76 1086.25 1722.79 1091.11 1720.08 1095.44C1719.18 1097.06 1710.17 1101.93 1700.26 1106.25C1690.34 1110.58 1674.3 1118.15 1664.39 1123.37C1654.66 1128.42 1644.92 1132.39 1642.76 1132.02C1636.99 1131.12 1605.99 1075.61 1539.85 947.645C1519.84 908.895 1501.28 873.749 1498.75 869.243C1496.05 864.737 1493.89 860.231 1493.89 858.97C1493.89 855.906 1504.88 843.83 1507.05 844.551C1507.95 844.731 1514.25 857.708 1520.74 873.028ZM534.681 940.255C555.589 959.901 573.432 978.105 574.333 980.808C577.757 989.82 580.1 1021.72 581.002 1072.01C581.542 1099.76 582.804 1136.35 583.885 1153.29C586.228 1190.42 584.786 1198.17 571.089 1223.76C556.129 1251.52 547.478 1263.96 542.612 1263.96C537.024 1263.96 350.842 1215.47 348.68 1213.49C345.976 1210.79 369.947 1144.82 393.017 1091.83C422.395 1024.79 489.262 901.505 495.21 903.848C496.111 904.209 513.774 920.43 534.681 940.255ZM1245.89 1109.86C1274.36 1117.43 1302.48 1132.39 1328.79 1154.19C1352.58 1173.84 1386.83 1213.85 1398.36 1235.48C1412.96 1262.87 1419.09 1292.25 1414.59 1314.78C1411.7 1329.92 1407.2 1338.21 1395.12 1350.47C1381.24 1364.71 1378 1365.43 1328.61 1365.43L1288.42 1365.25L1280.49 1370.29C1254 1387.24 1245.16 1407.96 1244.44 1455L1244.26 1475.73L1251.83 1491.05C1260.3 1508.35 1278.69 1537.91 1291.3 1554.67C1295.99 1560.8 1309.15 1575.4 1320.68 1587.12C1333.48 1600.09 1340.69 1608.92 1339.61 1609.83C1338.71 1610.73 1329.87 1613.97 1319.96 1617.04C1298.69 1623.52 1293.29 1628.03 1285 1646.41C1277.07 1663.9 1272.2 1682.64 1270.94 1701.56C1270.4 1710.76 1268.96 1719.41 1267.87 1720.67C1266.79 1722.11 1222.46 1738.69 1169.47 1757.62C1078.63 1790.06 1073.04 1791.86 1070.16 1788.8C1068.72 1787.18 1063.49 1777.26 1058.62 1766.81C1053.94 1756.36 1037.53 1721.75 1022.4 1689.67C1007.08 1657.77 994.639 1631.09 994.639 1630.73C994.639 1630.37 998.604 1624.79 1003.47 1618.48C1012.48 1606.4 1015.91 1598.11 1024.38 1565.85C1030.15 1544.4 1052.13 1476.27 1053.94 1474.29C1054.66 1473.57 1059.88 1475.73 1065.65 1479.16C1079.53 1487.45 1090.7 1489.97 1111.07 1488.89C1136.12 1487.45 1151.98 1478.8 1160.82 1461.49C1165.5 1452.12 1193.44 1237.82 1192.54 1218C1191.82 1204.48 1190.55 1201.96 1161.9 1156.54C1157.03 1149.15 1153.25 1141.04 1153.25 1138.51C1153.25 1124.64 1170.37 1111.48 1194.16 1107.15C1205.87 1104.99 1232.73 1106.43 1245.89 1109.86ZM2280.79 1263.24C2288.72 1264.86 2299.54 1268.46 2304.94 1271.35C2333.42 1286.49 2366.58 1324.51 2379.92 1357.32C2393.44 1390.84 2392.9 1424 2378.66 1434.1C2366.22 1442.75 2356.13 1441.67 2328.01 1428.69C2307.83 1419.32 2300.98 1419.14 2293.23 1428.33C2288.18 1434.28 2286.38 1440.23 2282.41 1464.02C2278.09 1489.43 2273.4 1502.59 2266.01 1508.89C2250.51 1522.59 2226.18 1520.25 2202.93 1502.59C2190.85 1493.39 2171.03 1469.96 2173.01 1466.72C2174.27 1464.38 2310.35 1333.89 2317.2 1328.48C2324.77 1322.35 2320.08 1307.75 2306.92 1295.86C2293.23 1283.6 2280.79 1288.29 2285.3 1304.15C2286.2 1307.57 2290.34 1314.24 2294.49 1318.93C2299.9 1325.06 2301.52 1328.12 2300.26 1329.92C2298.81 1331.9 2203.11 1423.1 2175.53 1448.7C2167.78 1455.91 2165.26 1457.17 2162.92 1455.55C2161.3 1454.64 2159.85 1452.48 2159.85 1450.86C2159.85 1449.42 2186.71 1424.36 2219.33 1395.53C2252.13 1366.51 2279.53 1341.28 2280.43 1339.47C2284.76 1330.64 2274.48 1312.44 2260.97 1305.41C2254.12 1301.63 2252.31 1301.44 2248.35 1303.25C2244.56 1305.05 2243.66 1306.49 2243.66 1312.26C2243.66 1319.83 2250.69 1332.08 2257.72 1337.13C2259.88 1338.57 2261.69 1340.92 2261.69 1342.36C2261.69 1343.62 2238.8 1364.89 2210.86 1389.58C2145.8 1446.71 2152.46 1441.67 2148.14 1437.88C2146.16 1436.08 2144.53 1433.2 2144.53 1431.57C2144.53 1428.33 2224.02 1363.81 2232.67 1360.2C2239.88 1357.14 2241.32 1351.01 2236.81 1341.1C2227.8 1320.73 2202.93 1309.92 2200.77 1325.42C2199.69 1332.26 2203.47 1342 2210.32 1349.93L2216.63 1357.32L2207.26 1365.25C2181.3 1387.06 2137.32 1420.76 2134.98 1420.76C2133.36 1420.76 2130.84 1418.96 2129.39 1416.79C2126.87 1413.19 2126.87 1412.47 2129.39 1409.77C2133 1405.8 2168.69 1383.99 2177.52 1380.21C2188.87 1375.52 2189.95 1368.13 2181.3 1352.99C2175.35 1342.54 2167.24 1336.05 2159.85 1336.05C2148.14 1336.05 2148.68 1352.63 2160.94 1368.31C2162.92 1370.65 2164.36 1373.18 2164.36 1373.9C2164.36 1375.16 2122.55 1400.93 2120.38 1400.93C2120.02 1400.93 2116.78 1397.51 2113.17 1393.18C2107.05 1385.79 2106.68 1384.17 2100.2 1346.5C2094.79 1314.78 2093.89 1306.85 2095.69 1304.69C2096.95 1303.25 2102.9 1300.36 2109.03 1298.38C2130.66 1291.53 2221.31 1265.4 2231.95 1263.05C2246.91 1259.81 2264.03 1259.81 2280.79 1263.24ZM428.523 1299.1C477.367 1310.28 518.1 1320.37 518.821 1321.63C519.542 1322.89 519.542 1326.5 518.64 1329.56C515.757 1339.65 514.675 1363.63 516.838 1374.8C520.984 1397.33 537.745 1415.35 568.385 1430.67C589.473 1441.31 608.217 1445.99 635.072 1447.25C654.177 1448.16 679.59 1446.35 693.287 1442.93C698.695 1441.67 698.514 1444.73 691.846 1459.15C677.247 1491.41 671.119 1518.09 672.561 1543.32C673.281 1559 674.183 1562.78 680.13 1574.86C692.747 1601.17 715.456 1617.4 749.521 1624.42C768.986 1628.39 781.062 1628.93 794.94 1626.05C809.719 1623.16 831.707 1613.79 844.324 1605.14C850.632 1600.99 856.58 1597.39 857.481 1597.39C858.382 1597.39 862.888 1602.26 867.574 1608.02C881.813 1626.77 895.51 1635.78 919.121 1642.45C933.72 1646.41 955.348 1647.13 966.523 1644.07C971.93 1642.63 974.092 1642.63 975.895 1644.61C977.156 1645.87 986.348 1665.16 996.081 1687.51C1005.81 1709.86 1021.31 1744.1 1030.51 1763.93C1039.7 1783.57 1046.55 1800.33 1045.65 1801.05C1044.92 1801.96 1031.59 1807 1016.27 1812.41C1000.95 1818 945.435 1837.82 892.807 1856.57C840.359 1875.49 742.491 1910.46 675.625 1934.43C608.758 1958.4 526.751 1987.78 493.588 1999.67C460.425 2011.57 413.023 2028.51 388.331 2037.34C363.819 2046.17 342.912 2052.84 342.011 2052.48C338.046 2049.96 316.237 1968.13 305.423 1914.6C286.859 1823.22 278.568 1739.59 278.568 1643.35C278.388 1581.71 280.371 1545.48 286.499 1490.15C293.708 1424.91 310.47 1335.33 324.348 1288.65L327.953 1276.39L333.72 1277.65C336.964 1278.19 379.5 1287.93 428.523 1299.1ZM2863.31 1339.47C2901.16 1344.7 2930.54 1361.46 2969.29 1400.03C2993.98 1424.73 3007.68 1443.47 3012.54 1459.87C3015.79 1470.87 3021.55 1526.38 3024.26 1574.86C3027.14 1625.87 3025.52 1721.03 3021.55 1728.6C3018.13 1735.09 2997.22 1752.21 2985.15 1758.34C2965.14 1768.43 2934.68 1772.22 2902.6 1768.43C2877.19 1765.55 2845.28 1752.75 2826.72 1737.97C2815.19 1728.96 2797.34 1710.94 2793.2 1704.27C2787.97 1695.98 2786.53 1678.31 2790.49 1672.19C2793.56 1667.68 2805.45 1660.47 2810.14 1660.47C2811.58 1660.47 2819.51 1657.05 2827.8 1652.9C2870.34 1631.63 2887.1 1589.46 2865.83 1557.38C2860.42 1549.09 2856.46 1546.38 2843.48 1542.6C2824.02 1537.01 2811.4 1539.71 2800.41 1551.79C2796.98 1555.58 2786.17 1570.71 2776.44 1585.67C2752.28 1622.08 2733.9 1644.43 2696.23 1682.64C2640.18 1739.59 2601.79 1765.91 2555.65 1779.43C2531.32 1786.46 2530.96 1786.46 2515.46 1788.44C2473.1 1793.48 2421.55 1775.82 2388.93 1745.18C2357.21 1715.26 2342.43 1683.36 2342.61 1645.15C2342.97 1602.98 2359.73 1577.56 2401.19 1557.2C2423.9 1546.02 2436.33 1542.06 2454.54 1540.44C2478.87 1538.09 2511.13 1547.46 2514.73 1557.92C2516.18 1561.88 2515.28 1564.23 2508.79 1573.24C2494.01 1593.97 2492.39 1613.43 2504.82 1626.59C2510.23 1632.54 2512.93 1633.98 2519.96 1634.7C2535.82 1636.5 2557.99 1621.36 2574.75 1597.03C2584.85 1582.43 2640.9 1489.43 2650.81 1471.23C2666.67 1441.49 2687.58 1415.35 2718.58 1386.15C2741.29 1364.89 2757.69 1355.33 2790.67 1344.16C2814.28 1336.23 2831.23 1335.15 2863.31 1339.47ZM2103.98 1408.14C2103.98 1409.41 2080.01 1422.2 2050.09 1436.8C1998.36 1462.03 1996.2 1462.93 1993.86 1459.51C1992.42 1457.53 1991.51 1454.82 1991.7 1453.56C1992.24 1451.04 2099.11 1404.18 2102.18 1405.08C2103.26 1405.44 2103.98 1406.88 2103.98 1408.14ZM2111.73 1423.64C2120.02 1429.41 2117.32 1431.57 2067.75 1458.61C2041.44 1473.03 2018.55 1485.1 2016.93 1485.46C2013.68 1486.18 2003.59 1475.19 2005.03 1472.67C2005.93 1471.23 2104.34 1421.12 2106.68 1420.94C2107.23 1420.76 2109.57 1422.02 2111.73 1423.64ZM1953.85 1430.31C1955.47 1431.57 1959.07 1436.62 1961.96 1441.49C1973.85 1461.67 2014.95 1523.67 2024.68 1536.11C2028.1 1540.62 2033.87 1548.91 2037.47 1554.67L2043.96 1565.13L2056.4 1663.72C2063.25 1717.97 2068.84 1765.01 2068.84 1768.25C2068.84 1771.32 2058.02 1803.4 2044.68 1839.44C1962.32 2061.49 1965.02 2055 1941.41 2086.55C1929.51 2102.41 1908.61 2121.87 1898.15 2126.92C1892.39 2129.62 1892.03 2129.62 1887.16 2125.84C1862.47 2105.65 1844.62 2098.44 1817.41 2097.18C1800.11 2096.28 1793.62 2097 1766.94 2102.05C1713.23 2112.32 1700.44 2109.98 1680.97 2085.46C1672.86 2075.19 1665.11 2061.67 1665.11 2057.53C1665.11 2052.66 1699.54 2018.96 1718.46 2005.62C1727.29 1999.31 1744.59 1988.32 1757.03 1981.11C1858.14 1923.07 1882.83 1903.79 1922.12 1852.42C1930.96 1841.07 1939.61 1821.24 1942.85 1805.02C1944.65 1796.37 1944.83 1791.32 1943.21 1782.49C1938.89 1759.78 1935.1 1740.32 1931.5 1723.55C1923.03 1684.44 1923.03 1673.81 1931.32 1664.08C1938.35 1655.61 1942.67 1657.23 1947.72 1670.38C1958.53 1697.78 1963.4 1708.41 1970.25 1718.69C1979.26 1732.38 1978.54 1731.48 1979.62 1730.4C1980.16 1729.86 1978.54 1725.18 1976.2 1719.77C1973.67 1714.36 1966.82 1693.45 1960.69 1673.09C1954.57 1652.72 1948.44 1633.98 1947 1631.27C1942.49 1622.62 1924.65 1604.78 1911.85 1596.31C1905 1591.8 1891.48 1584.05 1881.93 1579.01C1872.2 1573.96 1862.83 1568.19 1861.03 1566.03C1855.62 1559.9 1845.34 1537.55 1845.34 1532.14C1845.34 1525.3 1850.75 1522.77 1862.11 1524.21C1876.16 1526.2 1892.21 1535.57 1931.86 1565.31C1973.49 1596.49 1976.2 1599.55 1982.32 1624.42C1992.06 1662.99 2005.21 1695.08 2011.88 1696.34C2014.58 1696.7 2014.95 1696.16 2013.86 1693.63C2009.54 1683.36 1999.26 1652.72 1992.78 1630.73C1988.81 1616.85 1984.31 1603.34 1983.04 1600.45C1981.6 1597.75 1974.57 1588.92 1967.54 1580.63C1953.67 1564.41 1942.67 1548.91 1929.15 1525.48C1921.58 1512.5 1918.16 1508.53 1905 1498.44C1875.62 1475.91 1861.57 1457.71 1861.57 1442.39C1861.57 1434.28 1864.27 1431.57 1872.2 1431.57C1883.37 1431.57 1895.63 1440.59 1919.78 1466.18C1941.05 1488.89 1990.43 1547.28 1999.45 1560.62C2005.21 1569.09 2013.14 1593.6 2023.78 1635.6C2033.33 1672.55 2034.05 1668.04 2025.58 1624.42C2022.88 1610.01 2019.45 1592.16 2018.37 1584.77C2017.11 1577.38 2015.13 1568.73 2013.86 1565.85C2012.6 1562.78 2001.25 1546.2 1988.81 1528.9C1976.38 1511.6 1962.14 1489.61 1957.09 1480.06C1946.28 1459.15 1939.79 1436.98 1942.67 1431.57C1944.83 1427.43 1949.34 1427.07 1953.85 1430.31ZM2130.84 1442.93C2132.64 1444.19 2133.9 1446.89 2133.36 1448.7C2133 1451.04 2115.16 1463.48 2083.25 1484.2C2028.64 1519.35 2031.89 1518.27 2024.5 1504.57C2022.33 1500.24 2021.79 1497.72 2023.06 1496.46C2026.48 1493.03 2122 1440.77 2124.89 1440.59C2126.33 1440.59 2129.03 1441.67 2130.84 1442.93ZM2145.62 1464.2C2147.96 1466.9 2148.32 1468.52 2147.06 1470.68C2146.16 1472.31 2123.63 1488.17 2096.95 1506.19L2048.65 1538.81L2044.32 1533.41C2041.98 1530.34 2040.36 1527.28 2040.54 1526.2C2041.08 1524.57 2138.95 1460.41 2141.11 1460.41C2141.65 1460.41 2143.63 1462.03 2145.62 1464.2ZM2160.39 1484.02C2160.94 1489.25 2153.55 1495.02 2097.85 1531.78C2070.1 1549.99 2062.35 1554.31 2060 1552.87C2058.38 1551.79 2057.12 1549.99 2057.12 1548.73C2057.12 1546.2 2155.35 1478.43 2158.05 1479.16C2159.13 1479.34 2160.03 1481.68 2160.39 1484.02ZM1879.77 1498.44C1883.55 1501.5 1886.8 1504.57 1886.8 1505.47C1886.8 1506.19 1884.46 1507.81 1881.39 1509.07C1877.43 1510.7 1874.72 1510.7 1870.4 1509.25C1862.11 1506.37 1844.26 1506.73 1838.14 1509.98C1835.25 1511.42 1831.65 1514.84 1830.39 1517.37C1828.4 1521.15 1823.9 1523.49 1807.32 1529.26C1778.12 1539.53 1776.86 1539.53 1771.81 1531.42C1769.29 1527.82 1768.2 1524.21 1769.11 1523.31C1770.91 1521.51 1864.27 1493.39 1869.5 1493.03C1871.3 1493.03 1875.98 1495.38 1879.77 1498.44ZM1914.55 1529.26C1915.46 1530.88 1915.82 1532.87 1915.1 1533.59C1913.65 1535.03 1904.82 1529.44 1904.82 1526.92C1904.82 1524.03 1912.39 1525.84 1914.55 1529.26ZM1759.73 1533.77C1762.26 1537.55 1764.24 1541.52 1764.24 1542.6C1764.24 1544.22 1669.8 1579.37 1665.29 1579.37C1662.41 1579.37 1649.97 1559.54 1651.77 1557.74C1653.4 1556.12 1748.56 1527.46 1752.88 1527.28C1754.15 1527.1 1757.21 1530.16 1759.73 1533.77ZM1834.17 1550.71C1834.53 1552.69 1830.03 1555.76 1818.31 1560.98C1809.3 1565.13 1800.83 1568.55 1799.39 1568.55C1796.14 1568.55 1792.18 1561.52 1794.34 1559.54C1796.86 1557.02 1826.24 1547.1 1830.03 1547.46C1832.01 1547.64 1833.81 1549.09 1834.17 1550.71ZM1643.12 1571.8C1646.19 1576.48 1648.89 1581.53 1648.89 1583.15C1648.89 1584.95 1636.09 1590.36 1605.09 1601.53C1581.12 1610.19 1560.57 1617.22 1559.49 1617.22C1556.25 1617.22 1539.85 1592.16 1541.83 1590.18C1544.35 1587.66 1625.1 1563.69 1631.77 1563.33C1636.27 1563.15 1638.08 1564.59 1643.12 1571.8ZM1783.34 1569.63C1785.15 1572.34 1785.69 1574.86 1784.79 1575.76C1782.44 1578.1 1695.93 1617.22 1693.05 1617.22C1689.62 1617.22 1680.61 1605.32 1681.87 1602.44C1682.41 1601.17 1701.34 1593.24 1723.87 1584.95C1746.58 1576.66 1767.66 1568.73 1770.55 1567.47C1778.48 1564.23 1780.1 1564.41 1783.34 1569.63ZM1854.54 1576.84C1855.98 1578.46 1860.12 1581.89 1863.91 1584.23C1867.69 1586.58 1870.22 1589.28 1869.68 1590.36C1867.87 1593.24 1829.12 1611.99 1827.32 1610.91C1824.44 1609.1 1814.71 1594.15 1814.71 1591.62C1814.71 1588.74 1842.64 1574.14 1848.23 1574.14C1850.39 1573.96 1853.28 1575.22 1854.54 1576.84ZM1534.62 1609.1C1540.57 1618.84 1541.83 1622.26 1540.21 1623.7C1537.87 1625.87 1442.16 1660.47 1438.56 1660.47C1435.67 1660.47 1415.85 1627.85 1417.65 1626.23C1420.35 1623.52 1516.42 1595.77 1521.64 1596.13C1526.15 1596.49 1528.13 1598.47 1534.62 1609.1ZM1808.22 1607.3C1811.82 1612.71 1814.71 1617.76 1814.71 1618.48C1814.71 1621 1728.73 1667.68 1726.21 1666.78C1722.79 1665.34 1707.83 1643.17 1708.73 1640.65C1709.45 1638.3 1794.16 1597.75 1798.66 1597.57C1800.29 1597.39 1804.43 1601.72 1808.22 1607.3ZM1902.84 1604.42C1906.62 1606.76 1904.46 1608.74 1886.26 1620.1C1877.25 1625.87 1865.89 1633.08 1861.39 1636.5C1851.29 1643.71 1848.59 1643.89 1845.34 1637.76C1841.92 1631.45 1843.36 1630.37 1878.69 1610.91C1893.29 1602.98 1898.33 1601.53 1902.84 1604.42ZM1672.14 1613.43C1675.2 1617.22 1677.73 1621.54 1677.73 1622.98C1677.73 1625.69 1595.72 1664.08 1589.95 1664.08C1586.53 1664.08 1574.99 1646.95 1574.99 1642.09C1574.99 1640.65 1591.76 1633.44 1619.69 1623.16C1644.2 1613.97 1664.75 1606.58 1665.47 1606.58C1666.01 1606.4 1669.08 1609.65 1672.14 1613.43ZM1928.97 1627.49C1930.6 1631.63 1926.81 1635.06 1905.72 1648.04C1874.36 1667.5 1868.96 1670.02 1866.07 1667.68C1859.58 1662.27 1865.17 1657.05 1896.35 1638.66C1902.12 1635.24 1909.87 1630.73 1913.47 1628.57C1921.4 1623.7 1927.35 1623.34 1928.97 1627.49ZM1410.44 1647.86C1415.67 1656.33 1419.81 1664.26 1419.45 1665.7C1419.09 1667.68 1325.91 1702.83 1310.77 1706.61C1305.54 1707.87 1305 1704.63 1306.8 1684.26C1309.33 1655.42 1306.44 1657.95 1353.49 1643.89C1375.65 1637.22 1395.48 1631.99 1397.28 1632.17C1399.45 1632.35 1404.31 1638.12 1410.44 1647.86ZM1833.81 1645.15C1835.43 1647.49 1836.33 1650.38 1835.97 1651.64C1835.25 1653.8 1761.72 1701.2 1756.31 1703.01C1752.16 1704.27 1744.41 1696.7 1744.41 1691.29C1744.41 1689.13 1756.67 1681.2 1786.41 1664.44C1809.3 1651.46 1828.76 1640.65 1829.48 1640.65C1830.21 1640.65 1832.19 1642.63 1833.81 1645.15ZM1706.74 1663.54C1713.05 1673.09 1713.95 1675.43 1711.79 1676.87C1705.12 1681.2 1627.8 1723.55 1626.72 1723.55C1624.2 1723.55 1605.45 1692.91 1605.99 1689.85C1606.35 1687.87 1621.85 1679.76 1649.79 1666.6C1698.99 1643.35 1693.77 1643.71 1706.74 1663.54ZM1567.78 1659.03C1573.73 1668.04 1574.63 1670.56 1572.83 1672.37C1569.05 1675.97 1475.32 1718.33 1472.98 1717.43C1470.28 1716.34 1454.24 1690.03 1454.24 1686.79C1454.24 1685.16 1467.57 1679.4 1489.92 1671.11C1509.39 1663.9 1531.2 1655.79 1538.05 1653.08C1557.33 1645.51 1558.95 1645.87 1567.78 1659.03ZM1852.55 1673.09C1853.82 1675.61 1853.82 1677.05 1852.19 1678.49C1844.44 1685.34 1773.43 1727.16 1769.65 1727.16C1762.26 1727.16 1773.43 1717.97 1808.22 1695.26C1830.03 1681.02 1848.41 1669.48 1849.13 1669.48C1850.03 1669.48 1851.47 1671.11 1852.55 1673.09ZM1908.79 1699.4C1909.33 1709.13 1911.31 1724.45 1912.93 1733.47C1923.39 1789.52 1921.22 1810.61 1902.84 1837.28C1879.95 1869.9 1832.91 1905.77 1772.35 1936.59C1723.33 1961.46 1688.72 1984.71 1661.33 2011.39C1649.25 2023.1 1650.33 2024.91 1645.1 1986.7C1639.7 1947.04 1637.72 1923.79 1638.44 1912.62C1639.34 1900.36 1638.44 1901.44 1681.15 1857.83C1709.45 1828.81 1715.94 1823.22 1797.4 1760.5C1886.8 1691.47 1902.66 1679.94 1905.72 1680.84C1906.8 1681.2 1908.07 1689.49 1908.79 1699.4ZM1449.01 1709.5C1457.66 1722.65 1458.2 1724.09 1455.5 1726.26C1448.47 1731.3 1320.5 1788.8 1319.24 1787.36C1318.52 1786.46 1315.64 1775.64 1312.93 1763.39C1308.97 1745.18 1308.61 1740.5 1310.41 1738.69C1312.21 1737.07 1411.16 1699.58 1432.61 1692.55C1436.39 1691.29 1438.38 1693.09 1449.01 1709.5ZM1602.03 1712.2C1607.44 1720.85 1612.12 1728.78 1612.48 1729.86C1613.02 1732.02 1519.3 1784.83 1515.16 1784.83C1513.89 1784.83 1507.23 1775.82 1500.56 1764.65C1490.46 1748.25 1488.66 1744.28 1490.64 1742.3C1494.25 1738.69 1584.55 1696.7 1588.51 1696.7C1591.03 1696.7 1595 1701.2 1602.03 1712.2ZM1736.3 1704.81C1740.45 1710.22 1740.81 1711.66 1738.83 1713.64C1733.6 1718.69 1653.94 1766.81 1652.31 1765.91C1651.41 1765.37 1648.53 1761.04 1645.83 1756.54L1640.96 1748.25L1645.28 1745.36C1657.54 1737.07 1725.85 1698.68 1728.37 1698.5C1729.99 1698.32 1733.6 1701.2 1736.3 1704.81ZM1757.03 1735.27C1757.03 1737.97 1679.71 1799.25 1676.29 1799.25C1674.12 1799.25 1668.72 1792.22 1668.72 1789.34C1668.72 1787.36 1705.3 1761.58 1734.5 1743.02C1750.9 1732.57 1757.03 1730.4 1757.03 1735.27ZM1487.04 1771.32C1493.71 1782.13 1499.3 1792.04 1499.3 1793.12C1499.3 1796.01 1371.51 1866.3 1367.18 1865.58C1360.88 1864.68 1331.5 1818.54 1335.1 1814.93C1337.99 1812.05 1469.56 1750.77 1472.26 1751.13C1473.7 1751.31 1480.37 1760.5 1487.04 1771.32ZM1271.66 1754.55C1272.74 1755.82 1274.18 1760.14 1274.72 1764.11C1275.44 1768.07 1278.15 1778.52 1280.67 1787.18C1283.73 1797.09 1284.82 1803.58 1283.73 1804.66C1282.83 1805.56 1244.8 1823.4 1199.21 1844.31C1142.79 1870.26 1115.58 1881.98 1113.77 1880.9C1110.89 1879.1 1086.56 1827.37 1086.56 1822.86C1086.56 1820.52 1106.02 1812.59 1177.22 1786.28C1226.96 1767.71 1268.23 1752.57 1268.78 1752.57C1269.5 1752.39 1270.76 1753.47 1271.66 1754.55ZM1636.09 1765.37C1638.62 1769.87 1640.42 1774.2 1639.88 1774.56C1634.83 1779.43 1547.06 1836.74 1545.8 1836.02C1542.37 1833.86 1531.56 1815.29 1532.1 1812.41C1532.82 1809.16 1625.1 1755.64 1628.88 1756.36C1630.15 1756.72 1633.57 1760.68 1636.09 1765.37ZM1659.7 1802.86C1661.87 1805.92 1663.31 1808.98 1662.95 1809.89C1662.59 1810.79 1642.58 1827.01 1618.43 1845.93C1578.24 1877.29 1574.09 1880.18 1571.39 1877.65C1566.16 1872.97 1561.3 1862.69 1563.46 1860.53C1566.34 1857.65 1653.22 1797.63 1654.66 1797.45C1655.38 1797.45 1657.54 1799.97 1659.7 1802.86ZM2805.09 1801.23C2869.62 1806.46 2912.15 1815.29 2942.25 1829.89C2966.4 1841.61 2999.75 1868.82 3003.17 1879.82C3006.23 1889.55 2982.98 1989.04 2961.72 2056.63C2943.51 2114.66 2930.54 2142.6 2918.82 2148.91C2913.95 2151.43 2902.06 2147.64 2628.46 2056.45C2471.48 2004 2340.99 1959.66 2338.47 1957.68C2335.94 1955.7 2331.26 1948.85 2328.01 1942.18C2320.26 1926.32 2319.9 1911 2327.11 1896.4C2336.12 1878.01 2370.91 1858.01 2419.39 1843.05C2435.43 1838.18 2535.64 1817.1 2568.08 1811.87C2585.39 1808.98 2655.32 1801.05 2685.24 1798.53C2698.39 1797.45 2781.66 1799.25 2805.09 1801.23ZM1524.53 1832.05C1528.49 1838.36 1531.74 1844.31 1531.74 1845.39C1531.74 1846.47 1507.95 1863.42 1478.75 1883.06C1435.49 1912.08 1425.04 1918.57 1421.43 1917.67C1415.85 1916.22 1392.06 1896.22 1392.06 1892.97C1392.06 1890.27 1392.06 1890.27 1463.25 1849.36C1490.46 1833.68 1513.89 1820.88 1515.16 1820.88C1516.42 1820.88 1520.56 1825.93 1524.53 1832.05ZM1076.47 1861.79C1088 1886.49 1089.98 1892.07 1088 1894.06C1084.76 1897.3 861.266 1999.31 857.661 1999.31C853.516 1999.31 816.928 1923.97 819.271 1920.19C821.074 1917.31 1057.36 1829.89 1060.42 1830.97C1061.51 1831.51 1068.72 1845.21 1076.47 1861.79ZM1306.8 1845.03C1310.41 1851.34 1317.98 1862.33 1323.57 1869.54C1328.97 1876.93 1333.48 1883.78 1333.48 1884.86C1333.48 1886.67 1172.89 1976.96 1163.7 1980.39C1161.72 1981.11 1159.73 1980.21 1157.93 1977.32C1153.25 1970.11 1127.83 1914.24 1128.37 1912.62C1129.09 1910.28 1292.21 1833.68 1296.53 1833.68C1299.05 1833.5 1302.12 1836.92 1306.8 1845.03ZM1554.27 1879.82C1556.79 1883.6 1558.77 1887.93 1558.77 1889.55C1558.77 1892.97 1493.53 1944.7 1487.04 1946.32C1481.63 1947.76 1456.94 1939.65 1456.94 1936.59C1456.94 1933.53 1542.19 1873.51 1546.52 1873.33C1548.32 1873.15 1551.74 1876.21 1554.27 1879.82ZM1606.17 1944.7C1607.26 1985.97 1610.32 2009.77 1618.25 2040.23C1636.09 2107.27 1671.42 2148.01 1721.7 2158.82C1741.71 2163.33 1763.52 2161.7 1798.48 2153.41C1830.03 2145.84 1841.92 2145.66 1857.24 2152.33C1867.87 2157.2 1880.67 2170.17 1887.34 2183.33C1890.04 2188.74 1894.37 2201.17 1896.89 2211.09C1901.22 2227.85 1901.4 2231.09 1900.5 2257.05C1899.05 2299.76 1891.12 2324.63 1865.53 2366.99C1838.5 2411.69 1799.02 2451.16 1752.52 2479.64C1695.21 2514.96 1660.97 2524.33 1565.08 2531C1531.74 2533.35 1516.24 2536.23 1485.78 2546.32C1366.1 2585.43 1267.33 2707.99 1201.01 2899.58C1191.64 2926.44 1189.11 2932.2 1186.05 2932.56C1183.89 2932.93 1166.58 2926.98 1147.48 2919.41C980.941 2853.08 836.754 2761.52 706.805 2638.78C667.154 2601.47 606.234 2536.23 607.496 2532.63C607.856 2531.72 662.467 2492.79 728.794 2446.11C795.3 2399.43 873.882 2344.1 903.441 2323.19C942.912 2295.44 958.052 2285.7 959.854 2286.97C961.296 2287.87 971.209 2306.43 981.662 2328.42C992.296 2350.23 1011.04 2389.16 1023.3 2414.57C1035.73 2440.16 1047.45 2462.15 1049.43 2463.6C1058.44 2469.9 1072.14 2462.87 1072.14 2451.88C1072.14 2449 1067.27 2436.92 1061.51 2425.21C1055.56 2413.49 1048.35 2397.45 1045.1 2389.52C1042.04 2381.59 1036.81 2370.59 1033.57 2365.19C1030.15 2359.78 1018.07 2335.45 1006.35 2311.48C985.627 2268.58 985.267 2267.5 988.511 2264.26C995.901 2257.05 1192.18 2120.07 1194.52 2120.61C1195.78 2120.79 1203.53 2135.21 1211.82 2152.51C1219.93 2169.81 1229.12 2189.28 1232.19 2195.77C1235.25 2202.26 1243.36 2220.1 1250.39 2235.42C1257.24 2250.74 1264.63 2265.16 1266.61 2267.32C1270.76 2272.19 1279.59 2272.91 1283.73 2268.58C1290.94 2261.37 1292.21 2264.62 1233.45 2139.53C1224.8 2120.97 1218.13 2104.75 1218.67 2103.31C1219.39 2101.14 1347 2010.49 1410.26 1966.87L1426.84 1955.51L1440.9 1961.28C1457.66 1968.13 1477.13 1973.18 1496.05 1975.7C1511.37 1977.86 1514.25 1977.32 1520.92 1971.2C1531.2 1961.82 1601.31 1907.39 1603.11 1907.39C1604.55 1907.39 1605.45 1919.11 1606.17 1944.7ZM1376.74 1923.79C1385.75 1930.82 1392.96 1937.67 1392.96 1938.75C1392.96 1941.1 1205.33 2067.8 1201.91 2067.8C1199.93 2067.8 1176.68 2020.76 1176.68 2016.61C1176.68 2015.35 1200.47 2000.57 1229.48 1983.99C1258.32 1967.23 1298.69 1943.98 1319.06 1932.26C1339.25 1920.55 1356.91 1911 1358.17 1911C1359.43 1911 1367.9 1916.76 1376.74 1923.79ZM1121.34 1958.58C1130 1977.32 1136.84 1993.54 1136.48 1994.63C1135.4 1997.15 919.842 2116.82 915.697 2117.19C913.354 2117.37 907.406 2106.91 893.167 2077.71C882.533 2055.91 873.522 2036.62 873.342 2034.64C872.981 2031.57 890.103 2022.92 986.529 1977.5C1049.07 1947.95 1101.34 1923.97 1102.78 1924.15C1104.22 1924.33 1111.97 1938.75 1121.34 1958.58ZM808.277 1969.39C818.55 1990.66 827.021 2009.04 827.021 2010.67C827.021 2014.45 825.219 2015.53 793.678 2029.95C761.236 2044.73 561.356 2136.11 466.192 2179.73C431.768 2195.41 402.93 2208.38 402.029 2208.38C399.866 2208.38 387.069 2179.55 371.93 2140.8C356.79 2101.68 354.087 2093.93 355.168 2091.05C355.709 2089.61 362.918 2086.18 371.209 2083.3C379.5 2080.24 475.925 2044.91 585.507 2004.36C695.09 1963.99 785.748 1931 787.009 1930.82C788.451 1930.82 797.643 1947.76 808.277 1969.39ZM2338.83 2010.31C2394.88 2020.4 2493.47 2054.1 2581.6 2093.03C2625.4 2112.32 2706.5 2153.23 2742.91 2174.14C2807.8 2211.63 2844.56 2237.76 2856.82 2255.6C2871.42 2276.51 2871.24 2274.71 2860.97 2294.54C2847.81 2319.77 2812.48 2378.34 2792.12 2408.44C2778.78 2428.27 2773.55 2434.58 2770.85 2434.4C2766.7 2434.04 2667.57 2393.3 2626.66 2375.1C2611.88 2368.43 2591.15 2359.96 2580.7 2356.18C2570.25 2352.39 2550.24 2344.82 2536.18 2339.23C2494.55 2322.83 2494.37 2325.54 2535.28 2352.75C2551.86 2363.93 2571.15 2377.08 2578 2382.31C2604.13 2401.59 2652.97 2434.94 2696.59 2463.42C2721.1 2479.28 2730.3 2486.85 2730.3 2491.17C2730.3 2497.12 2655.86 2583.09 2650.63 2583.27C2646.67 2583.27 2628.82 2568.49 2604.13 2544.52C2593.68 2534.61 2580.34 2522.71 2574.39 2518.39C2561.78 2509.19 2542.85 2494.05 2521.22 2476.03C2512.75 2469 2498.69 2457.65 2489.86 2450.8C2481.21 2443.77 2464.99 2430.97 2453.82 2422.14C2438.14 2409.71 2371.63 2359.06 2344.77 2339.23C2342.25 2337.25 2335.22 2331.48 2329.27 2326.44C2312.33 2312.2 2299.9 2303.19 2255.38 2273.81C2205.81 2241.19 2202.57 2238.66 2198.06 2228.39C2189.41 2208.74 2205.63 2175.94 2229.96 2164.41C2238.26 2160.44 2243.48 2160.8 2263.49 2166.21C2272.86 2168.73 2288.36 2172.88 2297.73 2175.22C2307.11 2177.74 2329.09 2184.59 2346.4 2190.72C2363.7 2196.67 2389.29 2205.14 2403.35 2209.47C2417.23 2213.61 2436.33 2219.92 2445.71 2223.34C2455.08 2226.77 2472.74 2233.26 2485.18 2237.76C2497.61 2242.27 2519.06 2250.02 2532.94 2254.88C2546.82 2259.75 2568.26 2267.5 2580.7 2272.01C2646.67 2296.34 2667.39 2302.11 2687.58 2302.11C2697.67 2302.11 2701.46 2298.68 2701.46 2289.85C2701.28 2274.71 2691.91 2263.54 2661.81 2243.17C2640.54 2228.93 2596.02 2203.16 2576.19 2193.96C2497.25 2157.2 2471.66 2147.28 2332.16 2100.96C2286.56 2085.82 2275.56 2081.14 2273.58 2075.73C2273.04 2074.11 2272.5 2067.98 2272.5 2062.21C2272.5 2047.61 2278.63 2035 2291.42 2022.92C2299.54 2015.35 2313.23 2006.7 2317.56 2006.52C2318.1 2006.52 2327.65 2008.14 2338.83 2010.31ZM1167.12 2055.91C1173.43 2069.6 1178.48 2082.04 1178.12 2083.3C1177.76 2084.56 1157.39 2099.34 1132.52 2116.1C1107.83 2132.69 1060.6 2164.41 1027.62 2186.58C991.034 2211.27 967.063 2226.23 965.621 2225.51C964.54 2224.6 956.249 2208.92 947.418 2190.54L931.197 2157.02L935.522 2153.77C937.685 2151.79 957.15 2140.44 978.418 2128.18C999.686 2115.92 1046.73 2088.89 1082.95 2067.98C1119.18 2047.07 1150.18 2030.13 1152.16 2030.49C1154.69 2030.67 1158.65 2037.7 1167.12 2055.91ZM865.952 2088.89C877.307 2112.32 886.318 2132.5 885.778 2133.59C885.417 2134.67 845.045 2157.92 796.201 2184.95C747.178 2212.17 657.06 2262.09 595.601 2296.16C534.321 2330.22 483.134 2357.98 481.692 2357.98C476.826 2357.98 419.692 2255.6 419.692 2246.77C419.692 2243.53 422.576 2242.09 647.688 2136.65C680.491 2121.33 736.724 2094.66 772.951 2077.53C809.178 2060.41 840.178 2046.35 841.981 2046.35C844.504 2046.17 849.911 2055.73 865.952 2088.89ZM923.807 2208.38C939.668 2241.55 940.389 2243.53 937.325 2246.41C934.441 2249.3 852.254 2304.81 654.357 2437.46C610.38 2467.02 573.432 2490.81 572.35 2490.27C571.089 2489.91 564.6 2481.8 557.571 2472.25C550.722 2462.87 541.17 2450.08 536.664 2443.95C517.379 2417.64 507.646 2402.86 508.547 2400.51C509.088 2399.25 523.867 2389.88 541.71 2379.61C567.484 2364.83 791.515 2235.78 881.993 2183.69C892.987 2177.38 903.08 2172.52 904.342 2172.88C905.784 2173.06 914.615 2189.1 923.807 2208.38ZM2146.34 2329.32C2185.27 2336.89 2213.92 2347.7 2291.06 2383.93C2342.07 2407.9 2421.91 2448.64 2438.32 2459.09C2480.31 2485.76 2508.43 2504.51 2520.32 2513.7C2526.27 2518.39 2548.62 2535.15 2569.89 2551.19C2614.22 2584.35 2630.45 2597.51 2632.07 2601.29C2634.41 2606.7 2535.46 2698.62 2527.35 2698.62C2524.65 2698.62 2517.08 2691.77 2504.1 2677.89C2493.29 2666.18 2482.83 2656.63 2480.31 2656.09C2477.61 2655.36 2473.46 2656.09 2470.04 2657.89C2459.94 2663.11 2383.34 2726.74 2382.8 2730.34C2382.44 2733.23 2403.17 2766.75 2413.98 2780.45C2415.43 2782.43 2416.51 2784.23 2416.15 2784.41C2415.97 2784.59 2410.92 2787.66 2404.97 2791.08C2399.02 2794.51 2378.84 2806.58 2359.91 2817.94C2341.17 2829.47 2320.8 2841.19 2314.86 2844.43C2305.12 2849.48 2303.86 2849.66 2301.88 2847.13C2299.36 2843.71 2292.15 2813.43 2288 2789.64C2282.95 2759.9 2263.67 2708.17 2246.55 2678.43C2235.91 2660.05 2210.32 2620.22 2197.16 2601.47C2162.2 2552.27 2142.55 2523.61 2136.6 2512.98C2133 2506.49 2124.53 2493.51 2118.04 2484.14C2111.55 2474.77 2101.1 2459.63 2094.97 2450.8C2088.84 2441.79 2079.65 2428.45 2074.42 2421.06C2063.07 2404.84 2057.3 2387.9 2058.92 2375.82C2061.09 2359.78 2079.11 2335.63 2092.63 2330.04C2109.03 2323.55 2116.6 2323.37 2146.34 2329.32ZM2028.64 2495.86C2052.25 2501.44 2077.67 2516.22 2094.43 2534.25C2122.73 2564.53 2133.18 2601.29 2123.81 2638.06L2120.2 2652.12L2124.53 2655.54C2126.87 2657.35 2131.2 2658.97 2134.08 2658.97C2143.09 2658.97 2160.57 2664.2 2174.09 2671.04C2214.83 2691.59 2247.81 2730.88 2262.05 2776.12C2265.65 2787.84 2266.19 2793.24 2266.19 2817.58C2266.19 2845.15 2264.21 2859.39 2258.8 2870.02C2253.94 2879.58 2158.59 2920.67 2082.35 2945.9C2027.38 2964.11 1960.15 2981.77 1957.09 2978.7C1955.29 2976.9 1950.96 2955.82 1948.98 2938.33C1945.56 2909.49 1926.09 2836.86 1909.15 2789.1C1894.01 2746.74 1883.37 2721.87 1859.58 2674.83C1847.87 2651.4 1837.78 2629.05 1837.05 2625.09C1835.61 2616.07 1842.1 2603.28 1858.14 2583.27C1912.57 2515.32 1975.11 2483.24 2028.64 2495.86Z" fill="black"/>
<path d="M2515.64 858.429C2510.95 861.132 2509.15 867.621 2499.42 920.61C2486.8 988.738 2486.98 988.378 2494.01 995.587C2499.42 1000.81 2500.32 1001.17 2510.23 1000.45C2522.49 999.552 2529.88 994.866 2538.17 982.971C2551.51 963.686 2557.27 929.621 2551.14 905.29C2547 889.069 2536.91 868.882 2529.34 862.214C2522.49 856.266 2520.32 855.725 2515.64 858.429Z" fill="black"/>
<path d="M2656.94 1876.75C2625.58 1880.18 2591.15 1890.99 2559.97 1907.03C2535.28 1919.83 2524.83 1929.2 2524.83 1938.57C2524.83 1943.44 2525.91 1945.78 2528.97 1947.77C2531.14 1949.21 2579.98 1963.09 2637.29 1978.4L2741.65 2006.34L2749.4 2003.1C2762.38 1997.33 2772.83 1976.42 2774.81 1952.27C2777.7 1917.85 2754.27 1889.91 2714.07 1879.64C2700.74 1876.39 2673.16 1874.95 2656.94 1876.75Z" fill="black"/>
<path d="M1239.76 2423.04C1199.39 2455.3 1197.76 2457.29 1194.34 2478.01C1185.51 2531.18 1233.99 2588.68 1287.52 2588.68C1300.14 2588.68 1316.18 2584.71 1320.86 2580.57C1322.67 2578.95 1329.88 2569.03 1337.26 2558.4C1344.47 2547.76 1354.39 2533.89 1359.07 2527.58C1369.17 2514.06 1373.49 2501.44 1373.49 2484.32C1373.67 2460.17 1363.4 2436.92 1344.29 2418.36C1327.35 2402.14 1312.75 2395.29 1292.03 2394.39L1276.71 2393.66L1239.76 2423.04ZM1308.79 2431.15C1320.5 2435.12 1334.02 2447.73 1340.51 2461.07C1356.37 2492.43 1336 2515.86 1305.54 2501.44C1275.08 2487.03 1262.29 2442.51 1285.18 2431.33C1292.75 2427.55 1298.15 2427.55 1308.79 2431.15ZM1245.16 2478.19C1254.18 2506.49 1278.69 2530.1 1305.72 2536.59C1310.59 2537.67 1315.28 2539.29 1316.18 2540.19C1317.08 2540.92 1315.28 2544.7 1312.03 2548.85C1293.83 2571.74 1248.95 2552.81 1228.76 2513.88C1220.65 2498.2 1219.03 2492.25 1222.09 2487.93C1224.98 2483.78 1239.58 2471.53 1241.56 2471.53C1242.46 2471.53 1244.08 2474.59 1245.16 2478.19Z" fill="black"/>
<path d="M1142.25 2569.75C1131.98 2572.46 1136.66 2569.75 1090.52 2599.31C1036.81 2633.56 1032.67 2636.98 1027.08 2652.66C1023.3 2663.48 1022.76 2668.52 1022.58 2688.71C1022.58 2714.48 1024.74 2724.21 1034.83 2745.3C1046.91 2770.35 1077.19 2793.97 1104.04 2799.73C1118.64 2802.62 1141.53 2800.99 1150.9 2796.13C1155.77 2793.78 1170.55 2779.19 1194.16 2753.59C1246.79 2696.28 1242.82 2701.32 1246.07 2686.37C1253.28 2652.12 1245.53 2622.2 1224.26 2600.39C1210.92 2586.88 1188.03 2573.36 1172.89 2569.93C1158.65 2566.51 1153.61 2566.51 1142.25 2569.75ZM1184.79 2609.41C1208.76 2621.12 1223.54 2654.1 1215.61 2678.25C1206.42 2706.01 1172.35 2710.16 1149.28 2686.55C1123.87 2660.41 1123.51 2624 1148.74 2608.14C1155.77 2603.64 1174.33 2604.36 1184.79 2609.41ZM1097.55 2653.02C1097.91 2689.43 1125.49 2725.3 1160.09 2734.67C1165.14 2735.93 1167.66 2737.55 1167.3 2739.17C1166.94 2740.62 1160.64 2748.73 1153.25 2757.38L1139.91 2772.88L1128.37 2771.98C1091.97 2769.09 1054.12 2726.2 1054.12 2687.81C1054.12 2680.24 1054.84 2678.8 1063.67 2670.5C1078.45 2656.27 1092.51 2644.55 1095.03 2644.55C1096.65 2644.55 1097.37 2647.43 1097.55 2653.02Z" fill="black"/>
<path d="M2224.56 2470.62C2222.94 2474.77 2224.92 2480.36 2231.59 2491.35C2239.16 2503.61 2273.22 2559.3 2289.44 2585.97C2296.11 2596.79 2303.68 2608.5 2306.39 2611.93C2312.33 2619.32 2312.87 2619.14 2335.58 2601.47C2355.23 2586.34 2368.03 2572.82 2368.03 2567.59C2368.03 2562.18 2353.07 2549.93 2319.54 2527.76C2305.12 2518.21 2285.48 2504.51 2276.11 2497.48C2238.62 2469.36 2227.26 2463.42 2224.56 2470.62Z" fill="black"/>
<path d="M1982.86 2595.89C1978.72 2596.79 1972.95 2598.77 1970.07 2600.21C1963.94 2603.46 1955.29 2613.01 1955.29 2616.61C1955.29 2620.04 1969.71 2659.51 1978.36 2679.7C1985.03 2695.74 1985.21 2695.92 1991.88 2696.46C2000.35 2697.18 2007.56 2693.03 2019.99 2679.7C2033.87 2665.1 2039.1 2652.66 2039.1 2634.28C2039.1 2620.94 2038.56 2618.96 2033.69 2611.93C2023.96 2598.05 2003.23 2591.56 1982.86 2595.89Z" fill="black"/>
<path d="M2071.54 2744.4C2055.32 2749.45 2041.8 2759 2030.81 2773.06C2026.84 2777.92 2023.78 2783.51 2023.78 2785.49C2023.78 2790.18 2053.88 2862.63 2057.84 2866.96C2062.17 2872.01 2080.73 2869.84 2095.87 2862.27C2129.76 2845.69 2148.68 2806.04 2138.23 2774.14C2134.08 2761.7 2121.47 2749.09 2109.39 2744.94C2099.12 2741.34 2081.81 2741.16 2071.54 2744.4Z" fill="black"/>
</g>
<defs>
<clipPath id="clip0_857_856">
<rect width="3306.67" height="3306.67" fill="white"/>
</clipPath>
</defs>
</svg>
