<svg width="146" height="175" viewBox="0 0 146 175" fill="none" xmlns="http://www.w3.org/2000/svg">
<path d="M3.70341 28.1868L74.7871 22.0132L121.463 2.99769L59.7642 9.71882L3.70341 28.1868Z" fill="#9C9D9F"/>
<path d="M74.7871 22.0132L3.70341 28.1868L5.39009 29.6631L63.3968 24.3984L74.7871 22.0132Z" fill="#9FA0A2"/>
<path d="M28.0866 161.038L86.0678 164.785L84.9859 117.594L63.3968 24.3984L5.39009 29.6631L16.2557 115.695L28.0866 161.038Z" fill="#2E2F34"/>
<path d="M84.9859 117.594L74.7871 22.0132L63.3968 24.3984L84.9859 117.594Z" fill="#27282D"/>
<path d="M86.0678 164.785L96.1377 162.319L84.9859 117.594L86.0678 164.785Z" fill="#1B1C20"/>
<path d="M96.1377 162.319L74.7871 22.0132L84.9859 117.594L96.1377 162.319Z" fill="#252427"/>
<path d="M74.7871 22.0132L96.1377 162.319L138.924 122.417L121.463 2.99769L74.7871 22.0132Z" fill="#292A2E"/>
<path d="M16.2557 115.695L25.8625 158.921L28.0866 161.038L16.2557 115.695Z" fill="#2E2D33"/>
<path d="M3.70341 28.1868L16.2557 115.695L5.39009 29.6631L3.70341 28.1868Z" fill="#585C65"/>
<path d="M61.5445 58.2524C62.6849 71.8739 53.8272 81.994 42.0174 80.8135C25.9534 83.3577 21.14 71.9161 18.783 57.0345C17.0845 46.3108 22.2862 35.1227 35.7505 32.9902C46.4743 31.2917 59.1201 42.9456 61.5445 58.2524Z" fill="#B6C0C9"/>
<path d="M48.0584 57.8107C48.571 63.8964 44.6452 68.4131 39.4039 67.88C34.2474 68.6968 29.9745 62.882 29.0818 57.246C28.3229 52.4545 30.6258 47.4589 36.5998 46.5128C41.3577 45.7592 46.9751 50.9715 48.0584 57.8107Z" fill="#98A0A7"/>
<path d="M81.4759 117.133C83.8436 146.106 62.1254 149.981 51.9573 149.994C34.8169 150.014 20.7072 134.313 17.5421 114.329C14.8451 97.3011 21.5774 82.0174 40.711 78.987C59.8445 75.9565 79.9521 98.4873 81.4759 117.133Z" fill="#B6C0C9"/>
<path d="M77.2519 116.015C79.3243 141.306 60.4662 145.443 51.6151 145.45C36.6946 145.461 24.6778 129.695 22.0119 116.906C18.9407 102.173 25.1431 86.1014 41.7974 83.4636C58.4517 80.8258 75.9181 99.7382 77.2519 116.015Z" fill="#232730"/>
<path d="M74.62 115.868C76.5005 138.86 59.3204 142.627 51.2575 142.636C37.6658 142.651 26.7238 128.321 24.2989 116.694C21.5056 103.301 27.1605 88.6877 42.3324 86.2847C57.5044 83.8817 73.4098 101.071 74.62 115.868Z" fill="#1C1B21"/>
<path d="M46.5872 57.8339C47.2119 65.4208 41.5843 66.6572 38.9426 66.6571C34.4893 66.6568 30.8989 61.9248 30.1 58.0878C29.1798 53.6678 31.0272 48.8484 35.9973 48.0612C40.9674 47.274 46.1852 52.9512 46.5872 57.8339Z" fill="#1C1B21"/>
<path d="M45.5808 99.8579C47.5014 99.5537 49.4811 99.8987 51.3938 100.746L51.7978 99.8323C55.5912 101.512 58.9673 104.956 60.9818 108.807L60.0981 109.27C61.0437 111.078 61.6593 112.953 61.8612 114.739L61.8968 115.096C62.0654 117.14 61.945 118.865 61.6244 120.318L62.5989 120.533C61.5881 125.113 58.6674 127.45 55.7099 128.59L55.3522 127.661C53.744 128.281 52.1127 128.521 50.8207 128.571L50.2893 128.581L49.9771 128.577C48.423 128.524 46.9279 128.086 45.5252 127.356L45.0624 128.242C41.9256 126.608 39.32 123.669 37.6123 120.507L38.4904 120.033C37.6206 118.423 37.0024 116.765 36.6814 115.222C36.3292 113.53 36.2383 111.805 36.412 110.15L35.4176 110.046C35.8071 106.336 37.4522 102.931 40.434 100.835L41.0084 101.653C42.2539 100.778 43.7704 100.145 45.5808 99.8579Z" fill="#111111" stroke="#010101" stroke-width="2" stroke-dasharray="15 15"/>
<rect x="34.9468" y="44.7407" width="1.43497" height="13.7757" transform="rotate(-9 34.9468 44.7407)" fill="#111111"/>
<rect x="37.1143" y="57.1821" width="1.43497" height="13.7757" transform="rotate(35.558 37.1143 57.1821)" fill="#111111"/>
<rect x="37.3689" y="58.1992" width="1.43497" height="13.7757" transform="rotate(-55.6755 37.3689 58.1992)" fill="#111111"/>
<circle cx="35.6778" cy="44.7699" r="1.86546" transform="rotate(-9 35.6778 44.7699)" fill="#111111"/>
<circle cx="49.1006" cy="65.3085" r="1.86546" transform="rotate(-9 49.1006 65.3085)" fill="#111111"/>
<circle cx="29.8702" cy="68.6449" r="1.86546" transform="rotate(-9 29.8702 68.6449)" fill="#111111"/>
<circle cx="36.2701" cy="35.6685" r="1.57846" transform="rotate(-9 36.2701 35.6685)" fill="#9DA2A6"/>
<circle cx="25.8736" cy="72.7647" r="1.57846" transform="rotate(-9 25.8736 72.7647)" fill="#9DA2A6"/>
<circle cx="57.1441" cy="68.3932" r="1.57846" transform="rotate(-9 57.1441 68.3932)" fill="#9DA2A6"/>
<circle cx="25.2249" cy="88.8487" r="1.57846" transform="rotate(-9 25.2249 88.8487)" fill="#9DA2A6"/>
<circle cx="58.3755" cy="85.3419" r="1.57846" transform="rotate(-9 58.3755 85.3419)" fill="#9DA2A6"/>
<circle cx="79.4126" cy="115.426" r="1.57846" transform="rotate(-9 79.4126 115.426)" fill="#9DA2A6"/>
<circle cx="19.7935" cy="118.767" r="1.57846" transform="rotate(-9 19.7935 118.767)" fill="#9DA2A6"/>
<circle cx="33.3958" cy="140.439" r="1.57846" transform="rotate(-9 33.3958 140.439)" fill="#9DA2A6"/>
<circle cx="67.2508" cy="143.212" r="1.57846" transform="rotate(-9 67.2508 143.212)" fill="#9DA2A6"/>
</svg>
