<svg width="49" height="126" viewBox="0 0 49 126" fill="none" xmlns="http://www.w3.org/2000/svg">
<g filter="url(#filter0_dddddddd_875_826)">
<path d="M12.0882 64.529C12.9769 62.6989 14.0135 61.0871 15.4489 59.2283C15.4497 59.2272 15.4505 59.2262 15.4512 59.2252C15.6603 58.9554 15.8716 58.6893 16.0974 58.4108C16.4962 57.9191 16.9239 57.4102 17.4002 56.8628C19.0946 54.9194 21.3451 52.6359 24.5451 49.7457C26.9214 47.6061 29.1079 45.8052 31.0286 44.3226L30.8458 44.5015C32.1394 42.9371 33.1468 41.4036 33.8566 40.2592C34.1321 39.8042 34.4218 39.3384 35.0315 38.0957C35.3314 37.4732 35.6983 36.6756 36.0973 35.5916C36.2197 35.2574 36.345 34.8935 36.4677 34.5C36.7425 33.6136 37.0155 32.5677 37.1791 31.3328C37.2528 30.7701 37.3016 30.1616 37.3037 29.5201C37.3237 25.4794 35.4222 19.8384 32.703 15.3157C31.3915 13.1268 29.4757 10.7019 28.1368 10.4749C27.9683 10.3965 27.4039 10.8395 27.0554 11.403C25.2081 14.5442 24.4692 18.5648 23.7939 22.644C23.4706 24.8158 23.1993 27.1155 23.1683 29.5201C23.1544 31.3072 23.3585 33.166 23.8022 35.1236C24.5463 38.4268 25.7625 41.6732 26.2223 45.1727C26.2519 45.3902 26.2807 45.6142 26.3071 45.8331C26.3636 46.3021 26.4132 46.7726 26.4573 47.2429C26.7538 50.4899 26.8492 53.8006 26.8686 57.3816C26.8696 57.7443 26.8697 58.1137 26.8665 58.4632L26.8659 58.4401C27.1149 64.235 27.3667 69.1129 27.6136 74.3848C27.7162 76.5898 27.8169 78.8611 27.9131 81.338C28.0646 85.2512 28.2487 90.8748 28.3449 96.5321C28.353 97.0155 28.3604 97.4904 28.367 97.9672C28.3671 97.9697 28.3671 97.9722 28.3671 97.9747C28.4272 103.159 28.4665 108.257 28.1139 111.981C28.0769 112.335 28.0189 112.77 27.9619 113.066C27.9219 113.278 27.8793 113.458 27.8322 113.611C27.8125 113.675 27.7758 113.788 27.7264 113.892C27.6779 113.994 27.6243 114.083 27.5429 114.161C23.9511 116.987 21.5793 116.789 19.9643 116.462C19.2485 116.27 18.6077 115.946 18.0048 115.379C17.4687 114.873 17.0084 114.169 16.6886 113.345C15.5204 110.873 16.5671 107.162 19.0387 105.028C19.0506 105.017 19.0618 105.006 19.0743 104.995C19.6016 104.501 20.1071 104.189 20.1261 104.226C20.1451 104.257 19.681 104.62 19.1643 105.108C17.5099 106.638 16.3476 108.747 16.3617 110.773C16.3996 110.88 16.4241 111.413 16.5504 112.041C16.6111 112.345 16.7112 112.748 16.9127 113.256C17.2988 114.25 18.2597 115.914 20.3821 116.284C22.4306 116.631 25.108 115.87 27.3224 113.929C27.3896 113.875 27.4801 113.663 27.514 113.541C27.4737 113.672 27.3786 113.875 27.3144 113.921C27.0766 114.138 26.8471 114.31 26.6292 114.462C26.2616 114.716 25.9663 114.883 25.7059 115.023C25.1643 115.306 24.7927 115.477 24.1151 115.723C22.6737 116.276 19.4522 116.893 17.7532 114.483C17.3424 113.921 17.1789 113.383 17.2197 113.369C17.2681 113.354 17.5026 113.853 17.9005 114.39C17.9084 114.401 17.9163 114.411 17.9243 114.422C19.5506 116.696 22.737 116.089 24.2196 115.478C24.6272 115.322 24.9654 115.163 25.2188 115.036C25.4199 114.935 25.6654 114.799 25.802 114.721C25.8199 114.71 25.8542 114.691 25.8946 114.668C25.8953 114.667 25.896 114.667 25.8966 114.666C25.9179 114.654 26.0377 114.585 26.1604 114.513C26.1853 114.499 26.2387 114.468 26.3037 114.431C26.3197 114.42 26.3355 114.41 26.3513 114.399C26.5673 114.257 26.7901 114.096 27.0076 113.913C27.0626 113.867 27.1173 113.819 27.171 113.77C27.6104 112.992 27.7564 110.935 27.8715 107.402C27.9759 103.83 27.9231 97.8592 27.6878 90.3819C27.6982 90.8861 27.7085 91.3981 27.7184 91.9027C27.7432 93.1636 27.7671 94.4625 27.7868 95.7292C27.7946 96.2257 27.8016 96.711 27.8081 97.2001C27.8184 97.9722 27.828 98.8015 27.8347 99.5832C27.8391 100.106 27.8431 100.661 27.8455 101.2C27.8456 101.201 27.8456 101.202 27.8456 101.203C27.8489 101.946 27.85 102.689 27.8478 103.452C27.8469 103.716 27.8456 103.973 27.844 104.224C27.837 105.28 27.8259 106.248 27.7917 107.441C27.787 107.58 27.7812 107.73 27.7765 107.84C27.7714 107.962 27.7666 108.063 27.761 108.188C27.7561 108.292 27.7513 108.39 27.7466 108.484C27.746 108.496 27.7453 108.509 27.7447 108.521C27.7394 108.625 27.7343 108.723 27.7294 108.816C27.7244 108.91 27.7195 108.998 27.7149 109.085C27.7149 109.085 27.7148 109.086 27.7148 109.087C27.7099 109.177 27.7062 109.245 27.7012 109.339C27.6948 109.458 27.6899 109.549 27.6829 109.68C27.6759 109.812 27.6685 109.947 27.6609 110.08C27.6534 110.213 27.6455 110.346 27.6373 110.477C27.629 110.608 27.6204 110.738 27.6115 110.866C27.6035 110.98 27.5908 111.152 27.5793 111.293C27.5675 111.438 27.5551 111.58 27.542 111.716C27.5145 112.008 27.4638 112.353 27.413 112.57C27.3626 112.788 27.3186 112.883 27.2929 112.879C27.267 112.871 27.2611 112.765 27.2728 112.542C27.2786 112.43 27.2885 112.291 27.3011 112.129C27.3129 111.971 27.3219 111.846 27.3357 111.685C27.343 111.6 27.35 111.512 27.3569 111.421C27.361 111.368 27.3651 111.313 27.369 111.257C27.3795 111.109 27.3904 110.941 27.3976 110.815C27.4057 110.679 27.4134 110.537 27.421 110.39C27.4285 110.242 27.4359 110.089 27.4431 109.928C27.4502 109.769 27.4575 109.596 27.4632 109.453C27.4692 109.305 27.4759 109.133 27.4819 108.976C27.4863 108.861 27.4919 108.717 27.4965 108.595C27.5013 108.468 27.506 108.341 27.5105 108.217C27.5151 108.088 27.519 107.983 27.5227 107.877C27.5231 107.866 27.5235 107.855 27.5239 107.844C27.5272 107.751 27.5302 107.66 27.533 107.573C27.536 107.477 27.5387 107.384 27.541 107.296C27.5436 107.199 27.5449 107.139 27.5463 107.065C27.5628 106.065 27.5642 104.895 27.5568 103.77C27.5559 103.628 27.5549 103.487 27.5538 103.346C27.5477 102.583 27.5383 101.854 27.5265 101.106C27.5178 100.56 27.5078 100.009 27.497 99.4772C27.481 98.687 27.4621 97.8595 27.4423 97.0756C27.4299 96.5808 27.417 96.0898 27.4031 95.5862C27.3679 94.3084 27.3279 92.9879 27.2865 91.6962C27.2446 90.3871 27.201 89.0913 27.1562 87.7771C27.1118 86.4754 27.0651 85.118 27.0221 83.8107C26.9908 82.8548 26.9629 81.8574 26.9386 80.9507C26.9257 80.4658 26.9126 79.9786 26.8999 79.5046C26.8999 79.503 26.8999 79.5014 26.8999 79.4997C26.8887 79.0833 26.8777 78.6744 26.8665 78.2707C26.8422 77.4012 26.8158 76.5279 26.788 75.6855C26.7594 74.8231 26.7283 73.9649 26.6952 73.1215C26.6604 72.243 26.6253 71.4127 26.5856 70.5389C26.5454 69.6559 26.5066 68.8534 26.4601 67.9352C26.4017 66.7894 26.3389 65.6231 26.272 64.4131C26.2087 63.2764 26.1372 62.0193 26.0692 60.8614C26.0424 60.4005 26.0212 60.0459 25.9941 59.5873C25.994 59.5856 25.9939 59.5838 25.9938 59.5821C25.9816 59.3745 25.9726 59.2288 25.9611 59.0386C25.9469 58.7973 25.9389 58.6719 25.9279 58.4921L25.9271 58.4632C25.9237 58.0728 25.9161 57.6647 25.907 57.2618C25.8795 56.0674 25.8349 54.8626 25.7742 53.6609C25.7132 52.4581 25.6354 51.2474 25.5347 50.0362C25.4337 48.8241 25.3079 47.5818 25.1421 46.3452C25.0981 46.0182 25.0508 45.6902 25.0003 45.3675C24.8799 44.5977 24.7261 43.833 24.5503 43.0839C24.4846 42.8036 24.4152 42.5228 24.3429 42.2419C24.0006 40.9115 23.6048 39.6302 23.2279 38.3467C22.8512 37.0647 22.4908 35.764 22.2193 34.4229C21.9472 33.0863 21.7663 31.706 21.7071 30.3083C21.6958 30.0415 21.6887 29.7864 21.6855 29.5201C21.6733 28.3926 21.7248 27.2662 21.805 26.1319C21.9043 24.7492 22.0505 23.3656 22.2395 21.9675C22.3443 21.1924 22.4725 20.367 22.6097 19.5904C22.7483 18.805 22.9015 18.0298 23.0722 17.2626C23.1409 16.9538 23.2135 16.6426 23.2882 16.3371C23.3966 15.8935 23.512 15.4516 23.6348 15.0148C23.8388 14.2892 24.0666 13.5671 24.3189 12.8826C24.5705 12.2016 24.854 11.5287 25.1979 10.8937C25.5676 10.2401 25.8908 9.68466 26.6013 9.10126C27.0539 8.74114 27.6977 8.49218 28.3144 8.55093C29.8464 8.7854 30.4291 9.46488 31.1452 10.0584C31.3194 10.2184 31.5021 10.3975 31.6777 10.5799C32.6838 11.6344 33.502 12.7803 34.2445 13.9512C34.9871 15.1301 35.6367 16.3314 36.2304 17.5796C36.8175 18.816 37.3419 20.0897 37.7926 21.3892C38.2418 22.6865 38.6198 24.0113 38.897 25.3701C39.1714 26.7195 39.3501 28.1343 39.3409 29.5201C39.3408 29.5316 39.3407 29.5432 39.3406 29.5547C39.3343 30.3644 39.2553 31.2165 39.1309 31.9942C39.0418 32.5554 38.9284 33.1018 38.7979 33.6307C38.7446 33.8468 38.6885 34.0596 38.6298 34.2703C38.4352 34.9685 38.2134 35.6366 37.9786 36.2707C37.9696 36.2948 37.9608 36.3186 37.9517 36.3429C37.7058 37.0011 37.4462 37.6236 37.1756 38.2271C36.9039 38.8326 36.6252 39.4102 36.3301 39.9876C36.025 40.5828 35.7624 41.07 35.4117 41.6882C35.1858 42.0856 34.9512 42.4814 34.7176 42.8611C34.3624 43.4379 33.9992 43.9965 33.6135 44.556C33.2847 45.031 32.9653 45.4782 32.5948 45.949L32.4369 46.1034C32.3756 46.1541 32.2868 46.2272 32.2104 46.2906C32.0444 46.4283 31.8853 46.5618 31.7246 46.6972C31.2284 47.1154 30.7504 47.5257 30.2683 47.9455C29.7896 48.3625 29.3115 48.7852 28.8496 49.2003C28.3836 49.619 27.9196 50.042 27.461 50.4674C26.6735 51.1974 25.9216 51.8952 25.2694 52.5104C24.6092 53.1328 23.9974 53.7196 23.4099 54.2972C23.3 54.4052 23.1903 54.5136 23.0809 54.6223C22.6097 55.0902 22.1523 55.5546 21.7087 56.0178C21.163 56.5879 20.6371 57.1569 20.1256 57.7367C19.8838 58.0109 19.6394 58.2942 19.406 58.5726C19.1445 58.8843 18.8938 59.1897 18.6457 59.4994C18.1647 60.1003 17.72 60.6818 17.263 61.32C16.8117 61.9514 16.3752 62.6045 15.9332 63.335C15.4956 64.0586 15.0717 64.8333 14.6888 65.6364C14.3062 66.4375 13.9622 67.272 13.6638 68.1189C13.3642 68.9674 13.1057 69.8392 12.8798 70.7148C12.652 71.5972 12.4554 72.4852 12.2735 73.3833C12.2248 73.6241 12.1784 73.8595 12.131 74.105C12.0069 74.746 11.9098 75.3928 11.8437 76.0098C11.6972 77.3707 11.6833 78.733 11.8156 80.0832C11.9464 81.4259 12.2235 82.7574 12.6372 84.0494C13.0494 85.3394 13.5978 86.5934 14.2539 87.7967C14.5168 88.2793 14.7971 88.7542 15.0927 89.2212C15.3974 89.7107 15.9236 90.1646 16.5524 90.5325C16.7886 90.6711 17.0294 90.7943 17.286 90.911C18.1841 91.3181 19.1925 91.6041 20.2198 91.8014C20.2269 91.8028 20.234 91.8042 20.2412 91.8056C21.5627 92.056 22.9159 92.165 24.2764 92.1668C24.7767 92.1669 25.258 92.1526 25.7469 92.1239C26.2355 92.0952 26.7153 92.0528 27.196 91.9959C27.6786 91.9387 28.1549 91.8674 28.621 91.7826C29.0921 91.6967 29.5455 91.599 30.0018 91.4838C30.4153 91.3791 30.8265 91.2615 31.2648 91.1171C31.305 91.1039 31.3451 91.0905 31.385 91.077C31.8603 90.917 32.3941 90.7109 32.8728 90.4929C33.7335 90.1021 34.5266 89.6337 35.1941 89.0679C35.4981 88.8099 35.7747 88.522 36.0271 88.2034C36.8219 87.2012 37.3368 85.9334 37.6448 84.577C37.7653 84.0476 37.8553 83.5012 37.9194 82.9483C38.0191 82.0876 38.0572 81.2069 38.0485 80.3195C38.0333 78.8585 37.8943 77.3764 37.6611 75.9129C37.5631 75.3021 37.4425 74.6584 37.3099 74.0973L37.4246 74.3706C37.0207 73.7092 36.4891 72.9792 35.9636 72.3313C35.0407 71.1952 33.9974 70.1356 32.86 69.2662C31.594 68.299 30.1856 67.5546 28.6881 67.2537C28.5032 67.2165 28.3185 67.1862 28.1309 67.1627C26.7355 66.9895 25.3156 67.0001 23.9536 67.2453C22.3999 67.5249 20.901 68.1236 19.7513 69.1191C18.5941 70.1063 17.8625 71.5107 17.6895 73.0471C17.6581 73.3094 17.6412 73.57 17.6373 73.8403C17.6277 74.5518 17.6375 75.2643 17.6677 75.9756C17.6978 76.5008 17.7379 77.0043 17.7866 77.4861C18.2322 80.8805 18.6448 84.1232 21.1601 85.5396C21.4053 85.6341 21.6151 85.678 21.8785 85.6945C21.9302 85.6974 21.9825 85.6988 22.0372 85.6986C22.104 85.6982 22.1742 85.6955 22.249 85.6895C22.546 85.6644 22.8839 85.5919 23.2967 85.3765C24.3344 84.8743 25.6404 83.242 26.6538 80.785C26.913 80.1671 27.0869 79.7675 27.0774 79.9194C27.0684 80.0287 26.9698 80.3707 26.8134 80.7823C27.1185 80.0288 27.3806 79.264 27.6088 78.4856C27.7 78.1743 27.7852 77.8838 27.85 77.6782C27.9099 77.489 27.9489 77.3842 27.9634 77.3966C27.9634 77.3966 27.9634 77.3966 27.9634 77.3966C27.9647 77.3968 27.966 77.397 27.9672 77.3974C27.9825 77.4124 27.9673 77.5622 27.9207 77.8008C27.8742 78.0394 27.7975 78.3545 27.7077 78.6635C27.4665 79.4935 27.185 80.3145 26.859 81.1076C26.5302 81.9049 26.158 82.6758 25.7087 83.4006C25.2595 84.1208 24.7346 84.7996 24.0819 85.3151C23.5551 85.7317 22.9342 86.0216 22.2792 86.0683C22.1262 86.0797 21.985 86.0807 21.8354 86.0706C21.0274 86.0235 20.3051 85.59 19.7671 84.9672C19.4406 84.5949 19.1681 84.1603 18.94 83.7113C18.8546 83.5432 18.7775 83.3775 18.7041 83.2079C18.643 83.0667 18.5877 82.9305 18.5312 82.783C17.948 81.2413 17.6472 79.5701 17.4603 77.9146C17.3114 76.5623 17.2465 75.2004 17.2482 73.8403C17.2488 73.5272 17.2665 73.2208 17.3027 72.9166C17.4816 71.2947 18.2729 69.7754 19.5104 68.7193C20.7406 67.6525 22.3151 67.0211 23.9343 66.7176C25.3298 66.4567 26.7742 66.431 28.1944 66.5877C28.4197 66.6127 28.6404 66.6465 28.8625 66.6898C30.1012 66.9308 31.2722 67.449 32.3448 68.1226C32.7699 68.3835 33.1778 68.6674 33.5665 68.9654C34.6999 69.8356 35.7223 70.8476 36.6421 71.9337C35.0285 69.9931 33.4492 68.6674 31.7802 67.7443C31.556 67.6216 31.329 67.5068 31.1001 67.4006C30.183 66.976 29.2231 66.6806 28.1964 66.5701C26.5831 66.4064 24.8171 66.4116 22.851 66.9566C19.0334 67.9254 17.0698 71.1815 17.2045 73.8403C17.2023 77.8461 17.7083 80.6877 18.4023 82.6321C19.4014 85.5222 21.083 86.3078 22.2883 86.183C22.4749 86.1722 22.65 86.1457 22.8243 86.1041C24.9374 85.7675 26.8165 82.0048 27.3837 80.222C27.6191 79.5601 27.8078 79.0261 27.847 79.0372C27.8831 79.0542 27.7554 79.6168 27.5205 80.2832C26.9248 82.0418 25.0968 86.2619 22.3027 86.3637C22.2132 86.369 22.1271 86.3707 22.0446 86.3693C21.0615 86.3525 19.3586 85.9162 18.1877 82.593C17.507 80.6475 17.0009 77.8347 16.9929 73.8403C16.8374 71.1225 18.8858 67.71 22.809 66.7239C24.8092 66.1699 26.5828 66.1617 28.2236 66.3236C29.1959 66.4259 30.1159 66.6902 31.0053 67.0784C31.2399 67.1809 31.4727 67.2925 31.7036 67.4126C31.705 67.4133 31.7064 67.4141 31.7079 67.4149C33.8239 68.5398 35.8737 70.3016 37.9255 73.1722C38.073 73.3839 38.2148 73.5936 38.3509 73.8132L38.3567 73.8272C39.6857 79.2528 39.7823 86.9677 36.0238 90.0306C34.6385 91.2159 33.3156 91.7428 32.6471 92.0319C32.1684 92.2293 31.7019 92.3984 31.2039 92.5578C29.2882 93.0889 26.8798 93.9445 21.3938 93.5156C20.1988 93.3869 18.8015 93.1553 17.3375 92.6256C15.92 92.1314 14.5248 91.3878 13.6756 90.1356C13.259 89.5149 12.8823 88.8978 12.5491 88.297C11.7319 86.823 11.1025 85.3868 10.6318 83.9421C10.4963 83.5257 10.3724 83.1031 10.262 82.6761C9.99532 81.6475 9.80843 80.5942 9.7095 79.5581C9.63034 78.7317 9.59266 77.8626 9.61195 76.9434C9.63365 75.9179 9.72584 74.835 9.91305 73.6835C10.3384 71.149 10.8847 68.1333 12.463 64.825C13.9597 61.7133 15.8912 59.2457 17.7013 57.1194C18.8311 55.8029 19.959 54.6304 21.0406 53.5538C19.7122 54.8667 18.6093 56.0364 17.6809 57.1021C17.1489 57.713 16.6703 58.2847 16.2354 58.8256C16.0085 59.1079 15.7958 59.3788 15.5932 59.6429C14.1649 61.5145 13.2396 62.9968 12.4209 64.6726C10.6118 68.4841 10.1561 71.4182 9.72021 73.6468C9.26507 76.2516 9.2735 78.1663 9.50307 80.1515C9.62382 81.1401 9.83282 82.2212 10.1596 83.3534C10.7931 85.5729 11.9089 87.9696 13.4599 90.2747C13.4958 90.3285 13.5329 90.3817 13.5712 90.4342C15.4804 92.8337 18.6592 93.4574 21.7329 93.7353C21.7342 93.7354 21.7354 93.7355 21.7366 93.7356C22.3462 93.7807 22.9664 93.8025 23.5875 93.8019C27.3635 93.7677 31.4202 93.0873 34.7763 91.0561C35.1273 90.8356 35.5431 90.5498 35.9801 90.1749C36.012 90.1474 36.044 90.1195 36.076 90.0912C38.8876 87.9167 40.0237 81.734 38.7005 75.0072C38.6248 74.6042 38.5464 74.213 38.448 73.8036L38.4316 73.7646C37.8203 72.7764 37.0823 71.79 36.1926 70.7875C35.8218 70.372 35.4208 69.9539 34.9822 69.5395C33.4587 68.1456 31.4088 66.4591 28.2547 66.042C27.5099 65.9574 26.7216 65.9175 25.8934 65.947C22.5779 65.9481 17.3698 67.8377 16.7924 72.6795C16.7393 73.0633 16.7146 73.448 16.7151 73.8403C16.7194 75.6318 16.835 77.448 17.1136 79.2215C17.3787 80.8572 17.7564 82.4588 18.4886 83.9184C19.1638 85.3432 20.5925 86.7492 22.3169 86.5426C25.7201 85.9257 26.8237 82.422 27.8062 79.7703C27.8066 79.7691 27.8069 79.7679 27.8073 79.7668C28.0276 79.0918 28.2012 78.5594 28.2324 78.5987C28.265 78.6283 28.1427 79.2178 27.9195 79.9C26.9284 82.5386 25.873 86.0529 22.3306 86.715C20.5049 86.9393 18.9948 85.4333 18.3114 83.9793C17.562 82.4834 17.1797 80.8581 16.9101 79.2036C16.6321 77.4428 16.512 75.6332 16.5035 73.8403C16.5021 73.4426 16.5261 73.0511 16.5787 72.6601C17.1588 67.6278 22.603 65.6774 25.9901 65.7009C26.7923 65.6762 27.5565 65.7149 28.2819 65.7956C31.6578 66.2417 33.7887 68.0674 35.3597 69.5336C35.8237 69.9826 36.2372 70.4259 36.614 70.8592C37.4424 71.8184 38.0976 72.7047 38.6673 73.6228L38.7143 73.7349C38.8254 74.1945 38.9145 74.642 38.9969 75.0866C40.2762 81.7312 39.2414 87.8379 36.4085 90.2027C36.3644 90.2437 36.3201 90.2839 36.2759 90.3231C35.8742 90.679 35.4877 90.9593 35.1419 91.1872C31.8094 93.3017 27.7817 94.0288 23.9658 94.1257C23.3422 94.136 22.7228 94.1246 22.1052 94.0899C22.104 94.0899 22.1027 94.0899 22.1014 94.0898C18.9796 93.8592 15.7163 93.3202 13.5132 90.9101C13.3912 90.7647 13.278 90.6143 13.1743 90.459C11.7382 88.3217 10.7187 86.2374 10.0415 84.1703C9.65622 82.9931 9.38284 81.8232 9.21263 80.65C8.9122 78.4761 8.8836 76.3798 9.37114 73.5805C9.8131 71.299 10.2867 68.3306 12.0882 64.529ZM26.3082 81.9239C25.5817 83.4122 24.7691 84.4874 24.04 85.0781C24.6591 84.5748 25.174 83.9064 25.6166 83.1923C25.8683 82.7852 26.0973 82.3593 26.3082 81.9239ZM17.26 92.2414C17.5131 92.3338 17.7796 92.4208 18.0438 92.4982C17.3135 92.2706 16.6014 91.9848 15.9398 91.6088C15.1918 91.1823 14.4969 90.6303 14.0274 89.9086C13.9886 89.8489 13.9501 89.789 13.9118 89.7291C13.9499 89.7893 13.9882 89.8493 14.0267 89.909C14.8107 91.099 16.0759 91.7754 17.26 92.2414ZM12.7946 64.9708C11.2173 68.2768 10.696 71.2088 10.268 73.7509C10.1256 74.6305 10.0373 75.4806 9.99522 76.3091C9.94762 77.2505 9.95944 78.1634 10.0247 79.0639C10.0518 79.4366 10.0897 79.8081 10.1387 80.1816C9.91877 77.9998 10.083 75.9769 10.357 74.3578C10.3894 74.1652 10.4238 73.9751 10.46 73.7874C11.2998 69.3512 12.2776 66.8276 13.3512 64.746C13.6764 64.1179 14.0136 63.5279 14.3772 62.9387C14.6625 62.4426 14.9766 61.9331 15.3058 61.4328C15.768 60.729 16.2976 59.988 16.8217 59.3C17.2688 58.7124 17.7368 58.1278 18.213 57.5557C18.295 57.4572 18.3777 57.3587 18.461 57.2604C19.0267 56.5931 19.6066 55.948 20.1947 55.3187C20.7474 54.7273 21.3107 54.1473 21.8616 53.5943C21.8932 53.5626 21.9248 53.5309 21.9564 53.4993C22.5391 52.916 23.1158 52.3552 23.6469 51.8449C24.1868 51.3261 24.6415 50.8952 25.0408 50.5125C25.5428 50.0319 26.054 49.5515 26.5735 49.0724C27.0912 48.5949 27.6085 48.1262 28.1269 47.6641C28.6501 47.1979 29.1715 46.7409 29.6956 46.289C29.8719 46.1373 30.0385 45.9941 30.2162 45.8429C30.2949 45.7759 30.3661 45.7151 30.45 45.6442C29.3964 46.5067 28.3185 47.4148 27.2188 48.3684C25.6298 49.7483 23.9528 51.2458 22.1649 52.971C20.8212 54.2725 19.4078 55.6998 17.981 57.3579C16.1987 59.4509 14.2895 61.8755 12.7946 64.9708ZM37.6094 27.7096C37.6589 28.1489 37.7183 28.7689 37.7216 29.5201C37.7222 29.7252 37.7184 29.9416 37.7087 30.1691C37.6979 30.4212 37.6801 30.6874 37.6534 30.966C37.6541 30.9595 37.6548 30.9527 37.6555 30.9462C37.71 30.4573 37.7396 29.9936 37.7457 29.5201C37.7481 29.3286 37.7464 29.1325 37.7405 28.9293C37.7024 27.6925 37.5267 26.4916 37.2693 25.2884C37.0092 24.081 36.6652 22.8904 36.2595 21.7193C35.8527 20.5464 35.3819 19.3906 34.8597 18.2703C34.3319 17.1396 33.7563 16.0495 33.1137 14.9921C32.9103 14.6577 32.6975 14.3229 32.4772 13.9938C32.9569 14.7314 33.4225 15.5229 33.878 16.3795C34.2431 17.0668 34.5972 17.7871 34.9456 18.565C35.0779 18.8606 35.2351 19.2238 35.4081 19.6478C36.0713 21.3303 37.1454 24.0306 37.6094 27.7096ZM26.2214 12.0263C26.0983 12.2751 25.9842 12.5284 25.8764 12.7843C25.5713 13.5103 25.3188 14.247 25.0933 14.9817C24.9371 15.4919 24.7933 16.0074 24.6611 16.5184C24.6059 16.7317 24.552 16.9474 24.4997 17.1634C24.4138 17.5176 24.3307 17.8807 24.254 18.2327C24.8347 15.7751 25.4644 13.2633 26.7569 11.1917C26.7742 11.1657 26.7916 11.1401 26.8091 11.1148C26.5926 11.3998 26.3967 11.7142 26.2214 12.0263Z" fill="#E4B5FF"/>
</g>
<path d="M12.1171 64.543C13.0018 62.7138 14.0346 61.1016 15.4664 59.2415C15.4672 59.2405 15.4679 59.2395 15.4687 59.2385C15.6773 58.9685 15.8881 58.7022 16.1134 58.4234C16.5113 57.9314 16.9381 57.4221 17.4135 56.8741C19.1047 54.9293 21.3523 52.6435 24.5499 49.751C26.9245 47.6097 29.1099 45.8076 31.0299 44.3243L30.8474 44.5028C32.1405 42.9377 33.1474 41.404 33.857 40.2594C34.1324 39.8044 34.422 39.3385 35.0316 38.0958C35.3314 37.4732 35.6983 36.6756 36.0973 35.5916C36.2197 35.2574 36.345 34.8935 36.4677 34.5C36.7425 33.6137 37.0157 32.5677 37.1795 31.3329C37.2532 30.7702 37.3021 30.1616 37.3043 29.5201C37.3251 25.4791 35.4259 19.8375 32.7092 15.3119C31.3976 13.1214 29.4891 10.6949 28.1381 10.4616C27.9588 10.3826 27.3926 10.8304 27.0424 11.3943C25.1883 14.5398 24.4463 18.5593 23.7659 22.6399C23.4399 24.8124 23.1657 27.1123 23.1316 29.5201C23.1153 31.31 23.3172 33.1727 23.7587 35.1336C24.4993 38.443 25.7127 41.6881 26.1715 45.1809C26.201 45.398 26.2297 45.6217 26.2561 45.8404C26.3127 46.3089 26.3623 46.779 26.4064 47.2489C26.7033 50.4931 26.8009 53.8027 26.8202 57.3824C26.8212 57.7449 26.8213 58.1143 26.8181 58.4632L26.8175 58.4428C27.0659 64.2374 27.3096 69.1157 27.5439 74.3879C27.6414 76.593 27.7364 78.8644 27.8271 81.3413C27.9698 85.2546 28.1441 90.8782 28.2303 96.5344C28.2376 97.0178 28.2441 97.4926 28.2498 97.9693C28.2499 97.9718 28.2499 97.9742 28.2499 97.9767C28.3008 103.159 28.3299 108.261 27.9685 111.966C27.9307 112.318 27.8721 112.748 27.8152 113.038C27.7755 113.247 27.7333 113.422 27.688 113.567C27.6691 113.628 27.6338 113.734 27.5892 113.828C27.5458 113.919 27.499 113.993 27.438 114.051C23.9017 116.816 21.5561 116.604 20.013 116.279C19.3258 116.09 18.718 115.776 18.1449 115.231C17.6354 114.745 17.1954 114.067 16.8879 113.266C15.7688 110.859 16.7776 107.298 19.2048 105.203C19.2165 105.192 19.2274 105.182 19.2397 105.171C19.7567 104.689 20.2322 104.362 20.2239 104.37C20.2273 104.365 19.7474 104.7 19.2349 105.183C17.5932 106.699 16.4465 108.78 16.4576 110.774C16.465 110.878 16.4663 111.408 16.5918 112.032C16.652 112.335 16.7505 112.736 16.9494 113.242C17.3311 114.232 18.2744 115.887 20.3857 116.264C22.4247 116.619 25.1055 115.873 27.3305 113.938C27.4009 113.881 27.492 113.668 27.5268 113.545C27.4874 113.677 27.3938 113.882 27.3265 113.933C27.09 114.154 26.8618 114.329 26.6449 114.484C26.2792 114.743 25.9851 114.915 25.7256 115.058C25.1859 115.349 24.8148 115.526 24.1349 115.777C22.6914 116.338 19.4307 116.973 17.6958 114.525C17.2789 113.956 17.0874 113.423 17.0966 113.423C17.1137 113.42 17.3294 113.945 17.746 114.504C17.7542 114.515 17.7625 114.526 17.7708 114.537C19.4939 116.915 22.787 116.258 24.2793 115.633C24.6928 115.473 25.0352 115.31 25.2916 115.179C25.4951 115.075 25.7434 114.936 25.881 114.854C25.8992 114.843 25.9336 114.823 25.9743 114.798C25.975 114.798 25.9756 114.798 25.9763 114.797C25.9977 114.785 26.1182 114.712 26.2403 114.636C26.265 114.62 26.3181 114.587 26.3822 114.546C26.3983 114.535 26.4143 114.524 26.4302 114.513C26.6474 114.365 26.8716 114.199 27.0913 114.009C27.1469 113.961 27.2022 113.911 27.2566 113.86C27.7585 112.943 27.8368 110.956 27.9449 107.403C28.0311 103.829 27.9684 97.8583 27.7277 90.3807C27.7399 90.8849 27.7521 91.3968 27.7639 91.9014C27.7931 93.1622 27.8215 94.4612 27.8457 95.7279C27.8553 96.2244 27.8641 96.7097 27.8724 97.1989C27.8854 97.971 27.8979 98.8004 27.9076 99.5822C27.914 100.105 27.92 100.66 27.9245 101.199C27.9245 101.2 27.9245 101.201 27.9246 101.202C27.9308 101.945 27.9348 102.688 27.9356 103.452C27.9358 103.716 27.9357 103.973 27.9352 104.224C27.9326 105.28 27.9257 106.249 27.8991 107.443C27.8955 107.583 27.8912 107.733 27.8877 107.843C27.8839 107.964 27.8804 108.066 27.8761 108.191C27.8724 108.296 27.8688 108.394 27.8652 108.487C27.8647 108.5 27.8642 108.512 27.8637 108.525C27.8597 108.629 27.8557 108.727 27.8519 108.821C27.848 108.914 27.8442 109.003 27.8404 109.089C27.8404 109.09 27.8404 109.091 27.8404 109.092C27.8365 109.182 27.8335 109.25 27.8293 109.344C27.824 109.464 27.8199 109.555 27.8138 109.686C27.8077 109.818 27.8012 109.953 27.7943 110.087C27.7875 110.22 27.7803 110.353 27.7727 110.485C27.7652 110.616 27.7572 110.747 27.7488 110.875C27.7414 110.99 27.7293 111.163 27.7183 111.304C27.7071 111.45 27.6952 111.592 27.6826 111.729C27.6563 112.023 27.6115 112.371 27.5703 112.593C27.5295 112.815 27.4978 112.915 27.4851 112.913C27.4722 112.908 27.4789 112.801 27.4997 112.574C27.5101 112.461 27.5235 112.32 27.5383 112.156C27.5525 111.997 27.5625 111.87 27.5761 111.708C27.5832 111.622 27.5901 111.533 27.5969 111.442C27.6009 111.388 27.6048 111.332 27.6087 111.276C27.619 111.127 27.6296 110.958 27.6365 110.831C27.6442 110.694 27.6516 110.552 27.6587 110.404C27.6658 110.256 27.6726 110.101 27.6792 109.94C27.6858 109.78 27.6924 109.606 27.6973 109.463C27.7024 109.315 27.7081 109.142 27.713 108.984C27.7166 108.869 27.721 108.725 27.7245 108.602C27.7282 108.475 27.7318 108.348 27.7352 108.223C27.7386 108.094 27.7413 107.989 27.7439 107.883C27.7442 107.871 27.7445 107.86 27.7447 107.849C27.747 107.756 27.7491 107.665 27.751 107.578C27.7531 107.481 27.7549 107.389 27.7565 107.3C27.7582 107.203 27.7591 107.143 27.7601 107.069C27.7719 106.067 27.7697 104.896 27.759 103.769C27.7577 103.628 27.7562 103.486 27.7547 103.345C27.7464 102.582 27.7349 101.852 27.721 101.104C27.7108 100.557 27.6992 100.007 27.6869 99.4745C27.6687 98.684 27.6475 97.8562 27.6254 97.0721C27.6115 96.5771 27.5971 96.0859 27.5818 95.5822C27.5427 94.3041 27.4987 92.9833 27.453 91.6914C27.4069 90.3822 27.3588 89.0863 27.3092 87.772C27.26 86.4703 27.2079 85.1129 27.159 83.8056C27.1233 82.8498 27.0897 81.8525 27.0601 80.9459C27.0443 80.4611 27.0284 79.974 27.013 79.5C27.0129 79.4984 27.0129 79.4968 27.0128 79.4952C26.9993 79.0788 26.9859 78.6699 26.9724 78.2663C26.9434 77.3969 26.9126 76.5238 26.8811 75.6815C26.8488 74.8191 26.8145 73.9611 26.7786 73.1177C26.7411 72.2393 26.7037 71.4091 26.662 70.5354C26.6199 69.6524 26.5796 68.8499 26.5316 67.9318C26.4715 66.786 26.4072 65.6198 26.3389 64.4097C26.2742 63.2731 26.2015 62.016 26.1322 60.8581C26.105 60.3972 26.0833 60.0426 26.0558 59.584C26.0557 59.5823 26.0556 59.5805 26.0555 59.5788C26.043 59.3712 26.0338 59.2255 26.0222 59.0353C26.0078 58.794 25.9996 58.6686 25.9883 58.4887L25.9876 58.4632C25.9838 58.072 25.9758 57.664 25.9662 57.2608C25.9374 56.0659 25.8915 54.8606 25.8293 53.6584C25.7669 52.4551 25.6875 51.2439 25.5851 50.0321C25.4824 48.8195 25.3548 47.5766 25.1868 46.3391C25.1423 46.0119 25.0943 45.6836 25.0432 45.3607C24.9213 44.5898 24.7661 43.8244 24.5888 43.0747C24.5226 42.7943 24.4527 42.5133 24.3799 42.2322C24.0351 40.9012 23.6374 39.6203 23.2593 38.3376C22.8812 37.0563 22.5199 35.7569 22.2478 34.4173C21.9749 33.0822 21.7934 31.7036 21.7335 30.3075C21.722 30.041 21.7148 29.7861 21.7115 29.5201C21.6987 28.3938 21.7495 27.2679 21.829 26.134C21.9276 24.7518 22.073 23.3685 22.2612 21.9707C22.3655 21.1959 22.4931 20.3707 22.6297 19.5942C22.7678 18.8089 22.9204 18.034 23.0905 17.2669C23.159 16.9581 23.2313 16.647 23.3057 16.3416C23.4137 15.8981 23.5288 15.4563 23.6513 15.0196C23.8547 14.2942 24.0818 13.5724 24.3335 12.8882C24.5844 12.2075 24.8674 11.5351 25.2105 10.9008C25.5792 10.248 25.9018 9.69345 26.6094 9.11207C27.06 8.75319 27.7 8.50556 28.3132 8.5637C29.8385 8.79622 30.4222 9.47394 31.1376 10.0665C31.3117 10.2262 31.4943 10.405 31.67 10.5872C32.676 11.6402 33.4947 12.7852 34.2377 13.9553C34.9809 15.1335 35.6311 16.3343 36.2255 17.5819C36.8132 18.8178 37.3382 20.0912 37.7894 21.3903C38.2392 22.6873 38.6177 24.0118 38.8953 25.3704C39.1701 26.7196 39.3491 28.1344 39.3402 29.5201C39.3402 29.5316 39.3401 29.5432 39.34 29.5547C39.3338 30.3644 39.2549 31.2164 39.1306 31.9942C39.0416 32.5554 38.9282 33.1018 38.7978 33.6306C38.7445 33.8468 38.6885 34.0596 38.6298 34.2703C38.4352 34.9685 38.2134 35.6366 37.9786 36.2707C37.9696 36.2948 37.9608 36.3186 37.9517 36.3429C37.7058 37.0011 37.4462 37.6236 37.1756 38.2271C36.9038 38.8326 36.6251 39.4101 36.3299 39.9875C36.0247 40.5826 35.7621 41.0698 35.4113 41.688C35.1853 42.0853 34.9506 42.4811 34.7169 42.8607C34.3617 43.4374 33.9983 43.9959 33.6125 44.5553C33.2835 45.0302 32.964 45.4772 32.5934 45.9479L32.4358 46.102C32.3744 46.1526 32.2856 46.2257 32.2092 46.2891C32.0432 46.4267 31.8839 46.5602 31.7233 46.6955C31.2268 47.1135 30.7487 47.5236 30.2663 47.9432C29.7874 48.3599 29.3091 48.7823 28.8469 49.1972C28.3806 49.6156 27.9164 50.0383 27.4574 50.4634C26.6695 51.1928 25.9169 51.8901 25.2642 52.5048C24.6034 53.1267 23.9911 53.713 23.403 54.2901C23.293 54.398 23.1832 54.5063 23.0737 54.6149C22.602 55.0825 22.144 55.5465 21.7 56.0093C21.1536 56.579 20.627 57.1475 20.1146 57.7269C19.8724 58.0008 19.6276 58.284 19.3937 58.5622C19.1318 58.8736 18.8806 59.1787 18.632 59.4882C18.15 60.0887 17.7043 60.6698 17.2461 61.3076C16.7935 61.9386 16.3556 62.5913 15.9118 63.3216C15.4725 64.045 15.0467 64.8197 14.6616 65.623C14.2768 66.4242 13.9306 67.2592 13.6299 68.1066C13.3281 68.9557 13.0674 69.8281 12.8393 70.7042C12.6093 71.5871 12.4106 72.4756 12.2267 73.3739C12.1774 73.6148 12.1304 73.8502 12.0825 74.0957C11.9567 74.7378 11.858 75.3859 11.7903 76.0044C11.6404 77.3684 11.6232 78.7348 11.7528 80.0898C11.8809 81.4374 12.1557 82.7744 12.5677 84.0722C12.9784 85.368 13.5256 86.6281 14.1809 87.8373C14.4436 88.3222 14.7236 88.7995 15.019 89.2688C15.3327 89.7759 15.8692 90.2395 16.5054 90.6143C16.7445 90.7555 16.9878 90.8809 17.2469 90.9995C18.1533 91.4135 19.1679 91.7039 20.2008 91.9054C20.208 91.9068 20.2152 91.9082 20.2224 91.9096C21.551 92.1652 22.9103 92.2785 24.2773 92.2842C24.78 92.2858 25.2637 92.2729 25.755 92.2456C26.2461 92.2182 26.7284 92.177 27.2118 92.1214C27.697 92.0655 28.1762 91.9954 28.6453 91.9116C29.1194 91.8269 29.5759 91.7302 30.0357 91.6159C30.4525 91.5121 30.867 91.3953 31.3095 91.2516C31.3501 91.2383 31.3905 91.225 31.4308 91.2116C31.9108 91.0522 32.4503 90.8464 32.9352 90.6276C33.8068 90.2354 34.6133 89.7637 35.2978 89.1882C35.6111 88.9245 35.8963 88.6299 36.1564 88.3044C36.9755 87.2798 37.504 85.9896 37.8221 84.6163C37.9465 84.0801 38.04 83.5276 38.1072 82.969C38.2117 82.0995 38.254 81.2109 38.2491 80.3163C38.2402 78.8433 38.1067 77.351 37.8781 75.8764C37.7818 75.2597 37.6641 74.6157 37.5307 74.0403L37.62 74.253C37.2071 73.5705 36.6769 72.8377 36.1472 72.1791C35.2185 71.027 34.1667 69.9502 33.012 69.0617C31.7271 68.0736 30.2871 67.3036 28.7377 66.9874C28.5465 66.9484 28.3552 66.9165 28.1609 66.8916C26.7418 66.7113 25.2948 66.7175 23.8989 66.9649C22.3071 67.2475 20.7573 67.8574 19.5521 68.8958C18.339 69.9242 17.5615 71.4116 17.3798 73.0145C17.3465 73.2882 17.3284 73.5595 17.3239 73.8403C17.3127 74.5576 17.3211 75.2759 17.3502 75.9934C17.3756 76.5234 17.4112 77.032 17.4558 77.5192C17.9127 80.9625 18.1195 84.2217 21.0063 85.935C21.2951 86.0499 21.5448 86.1058 21.8534 86.1296C21.914 86.1339 21.9751 86.1364 22.0388 86.137C22.1166 86.1378 22.1979 86.1357 22.2841 86.13C22.6339 86.1058 23.0376 86.0224 23.5122 85.7796C24.7099 85.2015 26.068 83.4683 27.0896 80.9564C27.3509 80.323 27.4949 79.9055 27.4491 80.0477C27.4147 80.1501 27.2949 80.4901 27.1284 80.9051C27.4374 80.1393 27.7017 79.3645 27.9316 78.5755C28.0236 78.2599 28.1027 77.9634 28.1557 77.7512C28.2047 77.556 28.2289 77.4445 28.2274 77.4516C28.2274 77.4516 28.2274 77.4516 28.2274 77.4516C28.2274 77.4516 28.2274 77.4515 28.2273 77.4518C28.2242 77.4661 28.1915 77.6142 28.1316 77.8523C28.0719 78.0904 27.9874 78.406 27.8964 78.7173C27.6521 79.5531 27.3673 80.3798 27.0368 81.1798C26.7035 81.984 26.3258 82.7627 25.8675 83.4984C25.4092 84.2293 24.8727 84.9224 24.1938 85.4563C23.6464 85.8875 22.9891 86.1946 22.293 86.2423C22.132 86.2539 21.9827 86.2546 21.8241 86.2435C20.9659 86.1922 20.1966 85.7238 19.6427 85.077C19.3052 84.69 19.0275 84.2433 18.7962 83.7849C18.7097 83.6131 18.6317 83.4443 18.5576 83.2718C18.4959 83.1282 18.4402 82.9898 18.3833 82.84C17.797 81.2758 17.5005 79.5947 17.3172 77.9308C17.1715 76.5718 17.1103 75.2051 17.1157 73.8403C17.1172 73.5223 17.136 73.2108 17.1737 72.9014C17.3596 71.2518 18.1731 69.701 19.434 68.6315C20.6876 67.5505 22.2817 66.9179 23.9151 66.6158C25.323 66.3562 26.7767 66.3342 28.2047 66.4951C28.4325 66.5209 28.6555 66.5557 28.88 66.5999C30.1316 66.8467 31.311 67.3725 32.3887 68.0528C32.8151 68.3175 33.2238 68.605 33.6129 68.9062C34.7474 69.7859 35.7672 70.8065 36.6837 71.8996C35.0704 69.9511 33.4914 68.6154 31.8159 67.6802C31.5907 67.5559 31.3627 67.4394 31.1327 67.3316C30.2108 66.9004 29.2435 66.5982 28.206 66.483C26.5847 66.313 24.8077 66.3126 22.8231 66.8599C18.9699 67.8272 16.9541 71.1456 17.0923 73.8403C17.0861 77.8572 17.5906 80.7097 18.292 82.6727C19.2918 85.5882 21.0558 86.4297 22.2957 86.2763C22.488 86.2627 22.668 86.2326 22.8464 86.187C25.0059 85.7966 26.8454 82.0192 27.4188 80.2345C27.6549 79.5713 27.8142 79.0278 27.8168 79.0282C27.8162 79.0345 27.6603 79.5865 27.4277 80.2503C26.8352 82.0072 25.0477 86.1971 22.3 86.3299C22.2114 86.3365 22.1262 86.3395 22.0444 86.3394C21.0726 86.3406 19.3609 85.9189 18.1824 82.5948C17.4976 80.6498 16.9887 77.836 16.9791 73.8403C16.8214 71.1183 18.8757 67.6955 22.8045 66.7082C24.8076 66.1531 26.5834 66.1476 28.2248 66.313C29.1981 66.4175 30.1181 66.6844 31.0069 67.0749C31.2413 67.1781 31.4739 67.2902 31.7044 67.411C31.7059 67.4117 31.7073 67.4125 31.7087 67.4132C33.8223 68.5436 35.8668 70.3086 37.9163 73.1786C38.0635 73.3903 38.2052 73.6 38.3409 73.8192L38.3454 73.8301C39.672 79.2542 39.7613 86.9654 36.0113 90.0161C34.6286 91.1982 33.307 91.7241 32.6393 92.0121C32.1609 92.2088 31.6949 92.3772 31.1973 92.5359C29.2832 93.0643 26.8769 93.917 21.3966 93.4903C20.2029 93.3622 18.8072 93.1315 17.3455 92.6036C15.9309 92.1094 14.541 91.3664 13.6974 90.1215C13.2814 89.5012 12.9051 88.8848 12.5722 88.2846C11.7559 86.8121 11.1281 85.3772 10.6588 83.9342C10.5237 83.5183 10.4003 83.0962 10.2901 82.6697C10.0244 81.6425 9.83806 80.5906 9.73922 79.556C9.66013 78.7308 9.62252 77.8629 9.64173 76.9449C9.66333 75.9208 9.75521 74.8392 9.94178 73.6889C10.3661 71.1549 10.9095 68.1416 12.4828 64.8345C13.9747 61.7238 15.903 59.255 17.7107 57.1275C18.8391 55.8104 19.9659 54.6371 21.0466 53.5598C19.7193 54.8735 18.6177 56.0441 17.6907 57.1104C17.1594 57.7217 16.6815 58.2938 16.2474 58.8351C16.0209 59.1174 15.8086 59.3885 15.6064 59.6528C14.181 61.5254 13.2585 63.0079 12.4425 64.6831C10.6399 68.4931 10.1886 71.4252 9.75566 73.6536C9.30439 76.2552 9.31477 78.1662 9.54492 80.1474C9.66595 81.134 9.87481 82.2128 10.2011 83.3427C10.8335 85.5577 11.9468 87.9501 13.4963 90.2512C13.5319 90.3045 13.5686 90.3572 13.6066 90.4092C15.4983 92.7873 18.6689 93.4155 21.7369 93.6932C21.7381 93.6933 21.7393 93.6934 21.7406 93.6935C22.3491 93.7389 22.9681 93.7609 23.5883 93.7607C27.3581 93.729 31.4111 93.0527 34.7597 91.0289C35.1099 90.8092 35.5247 90.5247 35.9605 90.1515C35.9924 90.1242 36.0243 90.0964 36.0562 90.0682C38.857 87.9092 40.0058 81.7336 38.6712 75.0129C38.5949 74.6105 38.5155 74.2194 38.4165 73.8118L38.4037 73.7814C37.7919 72.798 37.051 71.8145 36.1597 70.8175C35.7881 70.4042 35.3865 69.9885 34.9476 69.5769C33.4234 68.1918 31.373 66.5221 28.2462 66.1188C27.5046 66.0368 26.72 65.9995 25.8965 66.0309C22.5933 66.0419 17.4569 67.9313 16.904 72.6951C16.8526 73.0735 16.8291 73.453 16.8305 73.8403C16.8389 75.6266 16.9589 77.4373 17.2411 79.2015C17.509 80.8282 17.8912 82.4194 18.6167 83.8533C19.2924 85.2589 20.6639 86.5855 22.3042 86.3829C25.5357 85.8042 26.6669 82.3496 27.6186 79.7088C27.619 79.7076 27.6193 79.7064 27.6197 79.7052C27.8355 79.0342 27.9754 78.4971 27.9696 78.5262C27.9653 78.5456 27.8187 79.1203 27.6027 79.7949C26.6603 82.4143 25.5525 85.8414 22.3083 86.434C20.6314 86.6491 19.2246 85.2836 18.5414 83.8632C17.8051 82.4126 17.4163 80.8061 17.1427 79.1675C16.8595 77.4231 16.7326 75.6236 16.7173 73.8403C16.7144 73.4518 16.7363 73.0699 16.7862 72.6888C17.3232 67.8033 22.6319 65.8562 25.9951 65.8644C26.7887 65.8368 27.5457 65.872 28.265 65.949C31.5834 66.3718 33.7109 68.1675 35.2788 69.6185C35.7422 70.0626 36.1557 70.5016 36.5327 70.9311C37.3612 71.8811 38.0196 72.7637 38.5871 73.671L38.6237 73.7583C38.7354 74.2128 38.8262 74.6603 38.9096 75.1029C40.206 81.7307 39.1628 87.8129 36.3594 90.1483C36.3157 90.189 36.2719 90.2288 36.228 90.2676C35.8297 90.6206 35.446 90.899 35.1024 91.1256C31.7912 93.2288 27.7712 93.9563 23.9661 94.0532C23.3442 94.0636 22.7265 94.0524 22.1108 94.0181C22.1095 94.018 22.1083 94.018 22.107 94.0179C18.9945 93.7906 15.7423 93.248 13.5648 90.868C13.4442 90.7246 13.3324 90.5762 13.2299 90.4231C11.7949 88.292 10.7772 86.2138 10.1004 84.1529C9.71544 82.9793 9.44187 81.8129 9.27083 80.6431C8.96887 78.4754 8.93696 76.3845 9.41874 73.5895C9.85642 71.3083 10.3239 68.3427 12.1171 64.543ZM26.6152 82.0675C25.8829 83.589 25.0427 84.7076 24.2571 85.3386C24.9201 84.7983 25.4521 84.1019 25.9077 83.3669C26.1665 82.9478 26.4004 82.5118 26.6152 82.0675ZM17.2591 92.2437C17.5121 92.3365 17.7785 92.4241 18.0427 92.5018C17.3122 92.274 16.6 91.9878 15.9383 91.6115C15.1901 91.1845 14.4951 90.6321 14.0255 89.9098C13.9867 89.8501 13.9482 89.7902 13.9099 89.7303C13.948 89.7905 13.9863 89.8505 14.0248 89.9102C14.8093 91.1008 16.0749 91.7775 17.2591 92.2437ZM12.8071 64.9768C11.233 68.282 10.7129 71.2124 10.2844 73.7541C10.1419 74.633 10.0533 75.4825 10.0109 76.3103C9.96292 77.2511 9.97421 78.1633 10.039 79.0632C10.0658 79.4357 10.1035 79.8069 10.1522 80.1802C9.93102 78 10.094 75.978 10.367 74.3594C10.3993 74.167 10.4336 73.9769 10.4696 73.7893C11.307 69.3532 12.283 66.83 13.3554 64.7481C13.6803 64.12 14.0172 63.5299 14.3805 62.9407C14.6659 62.4447 14.98 61.9353 15.3092 61.4351C15.7714 60.7315 16.3009 59.9905 16.825 59.3025C17.2719 58.715 17.7399 58.1303 18.216 57.5582C18.2979 57.4597 18.3806 57.3612 18.4639 57.2629C19.0295 56.5956 19.6093 55.9504 20.1972 55.3211C20.7498 54.7296 21.3129 54.1495 21.8637 53.5964C21.8952 53.5647 21.9268 53.5331 21.9585 53.5014C22.541 52.918 23.1176 52.3572 23.6487 51.8467C24.1885 51.3278 24.6431 50.8968 25.0423 50.5142C25.5442 50.0335 26.0554 49.553 26.5749 49.0739C27.0924 48.5963 27.6097 48.1275 28.128 47.6654C28.6511 47.1992 29.1725 46.742 29.6965 46.2901C29.8728 46.1383 30.0393 45.9951 30.217 45.8439C30.2957 45.7768 30.3669 45.716 30.4508 45.6451C29.3973 46.5078 28.3197 47.4162 27.2202 48.3701C25.6317 49.7504 23.9552 51.2484 22.1682 52.9743C20.8251 54.2764 19.4125 55.7043 17.9869 57.3629C16.206 59.4567 14.2989 61.8822 12.8071 64.9768ZM37.61 27.7096C37.6594 28.1489 37.7188 28.7689 37.7219 29.5201C37.7226 29.7252 37.7187 29.9416 37.709 30.1691C37.6982 30.4213 37.6803 30.6874 37.6536 30.966C37.6544 30.9595 37.655 30.9527 37.6558 30.9462C37.7103 30.4573 37.7399 29.9936 37.746 29.5201C37.7484 29.3286 37.7468 29.1325 37.7409 28.9293C37.7029 27.6925 37.5274 26.4915 37.2702 25.2882C37.0103 24.0807 36.6665 22.8901 36.261 21.7188C35.8544 20.5457 35.3839 19.3897 34.8619 18.2693C34.3343 17.1384 33.759 16.048 33.1167 14.9903C32.9134 14.6557 32.7006 14.3209 32.4805 13.9917C32.9601 14.7295 33.4255 15.5212 33.8808 16.378C34.2458 17.0654 34.5997 17.7859 34.948 18.5639C35.0802 18.8596 35.2373 19.2229 35.4102 19.6469C36.0731 21.3297 37.1466 24.0304 37.61 27.7096ZM26.2128 12.022C26.0894 12.2709 25.975 12.5243 25.8669 12.7803C25.5611 13.5065 25.3079 14.2433 25.0818 14.9782C24.9252 15.4885 24.781 16.004 24.6484 16.5151C24.593 16.7284 24.5389 16.9442 24.4864 17.1602C24.4003 17.5144 24.3168 17.8776 24.2398 18.2296C24.8223 15.7715 25.4533 13.2598 26.7487 11.1862C26.7661 11.1603 26.7835 11.1346 26.8011 11.1093C26.5842 11.3948 26.3881 11.7095 26.2128 12.022Z" fill="#E4B5FF"/>
<defs>
<filter id="filter0_dddddddd_875_826" x="0.494385" y="0.0424805" width="47.5443" height="125.101" filterUnits="userSpaceOnUse" color-interpolation-filters="sRGB">
<feFlood flood-opacity="0" result="BackgroundImageFix"/>
<feColorMatrix in="SourceAlpha" type="matrix" values="0 0 0 0 0 0 0 0 0 0 0 0 0 0 0 0 0 0 127 0" result="hardAlpha"/>
<feOffset/>
<feGaussianBlur stdDeviation="4.25"/>
<feComposite in2="hardAlpha" operator="out"/>
<feColorMatrix type="matrix" values="0 0 0 0 1 0 0 0 0 1 0 0 0 0 1 0 0 0 0.12 0"/>
<feBlend mode="normal" in2="BackgroundImageFix" result="effect1_dropShadow_875_826"/>
<feColorMatrix in="SourceAlpha" type="matrix" values="0 0 0 0 0 0 0 0 0 0 0 0 0 0 0 0 0 0 127 0" result="hardAlpha"/>
<feOffset/>
<feGaussianBlur stdDeviation="4.25"/>
<feComposite in2="hardAlpha" operator="out"/>
<feColorMatrix type="matrix" values="0 0 0 0 1 0 0 0 0 1 0 0 0 0 1 0 0 0 0.12 0"/>
<feBlend mode="normal" in2="effect1_dropShadow_875_826" result="effect2_dropShadow_875_826"/>
<feColorMatrix in="SourceAlpha" type="matrix" values="0 0 0 0 0 0 0 0 0 0 0 0 0 0 0 0 0 0 127 0" result="hardAlpha"/>
<feOffset/>
<feGaussianBlur stdDeviation="4.25"/>
<feComposite in2="hardAlpha" operator="out"/>
<feColorMatrix type="matrix" values="0 0 0 0 1 0 0 0 0 1 0 0 0 0 1 0 0 0 0.12 0"/>
<feBlend mode="normal" in2="effect2_dropShadow_875_826" result="effect3_dropShadow_875_826"/>
<feColorMatrix in="SourceAlpha" type="matrix" values="0 0 0 0 0 0 0 0 0 0 0 0 0 0 0 0 0 0 127 0" result="hardAlpha"/>
<feOffset/>
<feGaussianBlur stdDeviation="4.25"/>
<feComposite in2="hardAlpha" operator="out"/>
<feColorMatrix type="matrix" values="0 0 0 0 1 0 0 0 0 1 0 0 0 0 1 0 0 0 0.12 0"/>
<feBlend mode="normal" in2="effect3_dropShadow_875_826" result="effect4_dropShadow_875_826"/>
<feColorMatrix in="SourceAlpha" type="matrix" values="0 0 0 0 0 0 0 0 0 0 0 0 0 0 0 0 0 0 127 0" result="hardAlpha"/>
<feOffset/>
<feGaussianBlur stdDeviation="4.25"/>
<feComposite in2="hardAlpha" operator="out"/>
<feColorMatrix type="matrix" values="0 0 0 0 1 0 0 0 0 1 0 0 0 0 1 0 0 0 0.12 0"/>
<feBlend mode="normal" in2="effect4_dropShadow_875_826" result="effect5_dropShadow_875_826"/>
<feColorMatrix in="SourceAlpha" type="matrix" values="0 0 0 0 0 0 0 0 0 0 0 0 0 0 0 0 0 0 127 0" result="hardAlpha"/>
<feOffset/>
<feGaussianBlur stdDeviation="4.25"/>
<feComposite in2="hardAlpha" operator="out"/>
<feColorMatrix type="matrix" values="0 0 0 0 1 0 0 0 0 1 0 0 0 0 1 0 0 0 0.12 0"/>
<feBlend mode="normal" in2="effect5_dropShadow_875_826" result="effect6_dropShadow_875_826"/>
<feColorMatrix in="SourceAlpha" type="matrix" values="0 0 0 0 0 0 0 0 0 0 0 0 0 0 0 0 0 0 127 0" result="hardAlpha"/>
<feOffset/>
<feGaussianBlur stdDeviation="4.25"/>
<feComposite in2="hardAlpha" operator="out"/>
<feColorMatrix type="matrix" values="0 0 0 0 1 0 0 0 0 1 0 0 0 0 1 0 0 0 0.12 0"/>
<feBlend mode="normal" in2="effect6_dropShadow_875_826" result="effect7_dropShadow_875_826"/>
<feColorMatrix in="SourceAlpha" type="matrix" values="0 0 0 0 0 0 0 0 0 0 0 0 0 0 0 0 0 0 127 0" result="hardAlpha"/>
<feOffset/>
<feGaussianBlur stdDeviation="4.25"/>
<feComposite in2="hardAlpha" operator="out"/>
<feColorMatrix type="matrix" values="0 0 0 0 1 0 0 0 0 1 0 0 0 0 1 0 0 0 0.12 0"/>
<feBlend mode="normal" in2="effect7_dropShadow_875_826" result="effect8_dropShadow_875_826"/>
<feBlend mode="normal" in="SourceGraphic" in2="effect8_dropShadow_875_826" result="shape"/>
</filter>
</defs>
</svg>
