<svg width="433" height="14" viewBox="0 0 433 14" fill="none" xmlns="http://www.w3.org/2000/svg">
<g filter="url(#filter0_d_468_520)">
<path d="M166.079 4.70136C168.64 4.69958 171.04 4.74212 174.072 4.79597C174.074 4.79597 174.076 4.79597 174.077 4.79597C174.51 4.80366 174.957 4.81172 175.418 4.81977C179.133 4.88462 183.959 4.96073 191.237 5.0044C199.279 5.05265 205.664 5.22737 209.562 5.39503C210.289 5.42629 211.042 5.44348 212.94 5.45911C214.185 5.46937 215.868 5.47862 218.297 5.49207C219.589 5.49922 221.093 5.50745 222.853 5.5177C228.68 5.55163 237.812 5.54106 246.227 5.53112C251.334 5.52508 256.178 5.51931 259.857 5.52409C265.237 5.53108 270.429 5.56244 276.073 5.59672C281.242 5.62811 286.791 5.66199 293.211 5.68124C298.137 5.69603 302.923 5.82296 307.786 5.96475C308.405 5.9828 309.027 6.00104 309.649 6.01938C313.941 6.1459 318.328 6.27542 323.072 6.34958C331.529 6.48177 338.277 6.42714 345.749 6.36666C348.672 6.343 351.705 6.31841 354.995 6.30379C360.198 6.28066 367.677 6.28533 375.187 6.29187C375.827 6.29243 376.468 6.29283 377.107 6.2934C377.11 6.2934 377.113 6.2934 377.116 6.2934C383.991 6.29955 390.738 6.30559 395.688 6.29217C403.555 6.27085 406.514 6.22047 408.983 6.17833C409.91 6.16249 410.77 6.14769 411.794 6.13621C415.482 6.09487 421.05 6.10254 426.694 6.11026C426.715 6.11026 426.737 6.11026 426.758 6.11026C427.695 6.11154 428.451 6.25272 428.447 6.42552C428.442 6.59833 427.679 6.73748 426.742 6.7362C423.753 6.73211 420.835 6.72815 418.223 6.73101C418.088 6.87949 417.385 6.99188 416.542 6.99073C414.431 6.98787 407.968 7.09973 397.852 7.28249C398.545 7.30955 399.125 7.33589 399.634 7.36092C400.231 7.39031 400.688 7.41557 401.081 7.43722C401.901 7.48233 402.446 7.5121 403.414 7.53396C405.656 7.55881 409.179 7.56398 412.887 7.56905C413.824 7.57038 414.58 7.71128 414.576 7.884C414.571 8.05677 413.808 8.1959 412.871 8.19468C412.853 8.19468 412.835 8.19468 412.816 8.19468C409.144 8.18966 405.507 8.18456 403.165 8.15806C402.569 8.15132 402.056 8.14334 401.671 8.13609C401.363 8.13029 400.978 8.12242 400.765 8.11229C400.736 8.11094 400.682 8.10821 400.617 8.10405C400.616 8.10394 400.615 8.10384 400.614 8.10374C400.578 8.10144 400.394 8.08977 400.197 8.06437C400.158 8.05924 400.071 8.04779 399.971 8.02928C399.945 8.02785 399.92 8.02643 399.894 8.025C399.533 8.00523 399.166 7.98509 398.768 7.96549C397.214 7.88901 394.753 7.79261 389.627 7.69053C384.913 7.59664 376.944 7.55455 367 7.55382C367.672 7.56676 368.345 7.57931 369.018 7.59135C370.711 7.62163 372.412 7.64925 374.113 7.67558C374.765 7.68564 375.408 7.69549 376.063 7.70518C377.118 7.72086 378.175 7.73624 379.233 7.75126C379.947 7.76143 380.663 7.77142 381.378 7.78148C381.38 7.78148 381.381 7.78148 381.383 7.78148C382.375 7.79543 383.371 7.80947 384.373 7.8239C384.724 7.82927 385.071 7.83443 385.415 7.83946C386.786 7.8595 388.132 7.87895 389.682 7.91667C389.87 7.92292 390.075 7.931 390.228 7.93773C390.392 7.94482 390.55 7.95204 390.7 7.95939C390.832 7.96588 390.957 7.97248 391.078 7.97862C391.094 7.97943 391.11 7.98025 391.126 7.98106C391.261 7.98793 391.39 7.99429 391.514 8.00029C391.638 8.00629 391.757 8.01206 391.874 8.01707C391.875 8.01707 391.876 8.01707 391.877 8.01707C392 8.02221 392.093 8.02608 392.223 8.0305C392.386 8.03605 392.527 8.04031 392.697 8.04454C392.861 8.04865 393.032 8.05232 393.205 8.05553C393.379 8.05873 393.555 8.06153 393.734 8.06407C393.913 8.06662 394.095 8.06898 394.278 8.07109C394.461 8.07319 394.647 8.07503 394.834 8.07689C395.021 8.07874 395.21 8.0806 395.399 8.08238C395.836 8.08651 396.255 8.12118 396.563 8.18004C396.87 8.23891 397.041 8.31676 397.039 8.39733C397.037 8.47792 396.862 8.55536 396.551 8.6134C396.241 8.67141 395.82 8.70507 395.383 8.70801C395.264 8.7088 395.145 8.70969 395.024 8.71045C394.953 8.71091 394.881 8.71124 394.81 8.71167C394.617 8.71284 394.422 8.71414 394.226 8.71503C394.031 8.71591 393.833 8.71649 393.634 8.71686C393.433 8.71722 393.23 8.71735 393.024 8.71686C392.819 8.71638 392.609 8.71534 392.396 8.7135C392.188 8.71177 391.951 8.70875 391.739 8.70496C391.583 8.7023 391.392 8.69776 391.233 8.69367C391.067 8.68939 390.903 8.68461 390.745 8.67963C390.587 8.67464 390.434 8.66935 390.288 8.66437C390.272 8.66386 390.257 8.66335 390.241 8.66284C390.112 8.65844 389.987 8.65414 389.869 8.65033C389.738 8.64607 389.613 8.64244 389.495 8.63935C389.364 8.63586 389.285 8.63449 389.188 8.63294C387.902 8.62288 386.313 8.62495 384.798 8.62684C384.608 8.62707 384.418 8.62724 384.231 8.62745C383.236 8.62892 382.243 8.63077 381.251 8.63264C380.529 8.63399 379.807 8.6354 379.084 8.6366C378.02 8.6384 376.953 8.63982 375.887 8.64088C375.225 8.64149 374.575 8.64189 373.914 8.6421C372.19 8.6427 370.46 8.64186 368.727 8.63814C366.997 8.6344 365.256 8.62788 363.514 8.61678C361.778 8.6057 359.975 8.58915 358.234 8.56398C356.954 8.54517 355.642 8.51238 354.428 8.47853C353.776 8.4603 353.137 8.4418 352.507 8.42329C352.505 8.42319 352.503 8.42309 352.501 8.42299C351.948 8.40675 351.403 8.39066 350.861 8.37538C349.7 8.34247 348.559 8.31314 347.418 8.28841C346.279 8.26366 345.145 8.24348 344.003 8.22798C342.869 8.21264 341.716 8.20154 340.575 8.19472C339.428 8.18784 338.301 8.18505 337.118 8.18526C335.561 8.18587 334.016 8.19146 332.429 8.19808C330.854 8.20484 329.267 8.21331 327.675 8.22189C327.118 8.2249 326.561 8.22768 326.003 8.23074C326.001 8.23074 325.999 8.23074 325.996 8.23074C324.964 8.23639 323.929 8.24207 322.893 8.24752C321.294 8.25593 319.69 8.26393 318.08 8.27042C316.471 8.27687 314.852 8.28194 313.224 8.28385C311.596 8.28559 309.924 8.28453 308.245 8.27439C306.747 8.26562 305.237 8.25394 303.76 8.24235C303.37 8.23929 302.98 8.23624 302.591 8.23319C300.741 8.21892 298.95 8.20753 297.179 8.20542C295.409 8.20306 293.64 8.20952 291.855 8.22313C290.076 8.23667 288.274 8.25696 286.458 8.28142C284.634 8.30599 282.833 8.33432 280.996 8.36535C279.173 8.39625 277.341 8.42944 275.487 8.46454C274.456 8.48398 273.36 8.50183 272.324 8.51703C271.278 8.53237 270.238 8.54594 269.212 8.55854C268.796 8.56366 268.381 8.56853 267.97 8.57349C267.37 8.58071 266.775 8.58777 266.19 8.59516C265.202 8.60764 264.237 8.62098 263.301 8.63667C262.365 8.65234 261.456 8.67056 260.579 8.69282C259.671 8.71595 258.922 8.73947 258.026 8.77309C255.845 8.83791 254.494 8.85782 252.992 8.88021C252.697 8.88462 252.394 8.88931 252.08 8.89425C250.279 8.91935 248.48 8.93808 246.705 8.95224C244.912 8.96641 243.148 8.97597 241.361 8.98154C239.591 8.98707 237.808 8.98839 236.033 8.98612C234.26 8.98385 232.49 8.97786 230.716 8.96811C228.943 8.95839 227.133 8.94459 225.396 8.92783C224.392 8.91818 223.325 8.90532 222.335 8.89213C221.62 8.88263 220.915 8.87264 220.225 8.86283C219.943 8.85882 219.662 8.85483 219.385 8.85093C218.427 8.83748 217.497 8.82502 216.598 8.81553C215.699 8.80602 214.829 8.79934 213.977 8.79691C213.125 8.79446 212.29 8.79628 211.456 8.80241C210.59 8.80898 209.872 8.81776 208.953 8.83384C208.355 8.84446 207.769 8.85517 207.184 8.86589C206.309 8.88194 205.44 8.89832 204.565 8.91533C203.691 8.93232 202.828 8.94969 201.961 8.96782C201.682 8.97365 201.388 8.97981 201.108 8.98583C200.244 9.00442 199.39 9.02356 198.536 9.04382C197.684 9.06403 196.84 9.08516 196 9.1076C195.156 9.13013 194.326 9.1536 193.48 9.17902C192.041 9.22235 190.664 9.24246 189.459 9.25592C188.238 9.26924 187.098 9.27663 185.988 9.2837C185.781 9.28502 185.573 9.28634 185.365 9.28767C184.47 9.2932 183.589 9.29843 182.722 9.30476C181.653 9.31252 180.603 9.32178 179.551 9.33284C178.507 9.34375 177.453 9.35656 176.415 9.3716C175.367 9.38682 174.365 9.40327 173.286 9.42348C172.218 9.4433 171.133 9.46918 169.945 9.49733C168.767 9.52528 167.531 9.55402 166.279 9.57913C165.029 9.60432 163.758 9.6261 162.497 9.64322C161.233 9.66043 159.965 9.67346 158.715 9.68259C157.458 9.69179 156.209 9.69718 154.965 9.69968C153.725 9.70219 152.444 9.70176 151.245 9.69877C149.303 9.69393 147.37 9.6871 145.434 9.67954C143.508 9.67195 141.576 9.66348 139.649 9.65452C137.724 9.64556 135.798 9.6362 133.875 9.62645C131.951 9.61669 130.027 9.60666 128.106 9.59654C127.681 9.5943 127.256 9.59207 126.831 9.58983C125.335 9.58194 123.839 9.57403 122.35 9.56633C122.339 9.56623 122.329 9.56613 122.319 9.56603C120.402 9.55623 118.519 9.5467 116.618 9.53856C115.92 9.53565 115.249 9.53291 114.568 9.53063C113.885 9.52835 113.216 9.5265 112.54 9.52514C111.864 9.52378 111.191 9.52302 110.529 9.523C109.859 9.52303 109.207 9.52373 108.548 9.52575C107.945 9.52751 107.345 9.53069 106.69 9.53399C106.631 9.5343 106.571 9.5346 106.511 9.53491C105.794 9.53854 104.979 9.54084 104.222 9.53918C102.215 9.53425 100.26 9.53193 98.2686 9.53216C96.2766 9.53239 94.2889 9.53509 92.2847 9.53888C91.5021 9.54034 90.7158 9.54214 89.9293 9.54376C88.7057 9.54629 87.4776 9.54882 86.2459 9.55079C84.2191 9.55406 82.1882 9.55554 80.144 9.55354C78.1077 9.55153 76.0583 9.5459 74.018 9.53614C71.9793 9.52643 69.923 9.51267 67.8935 9.49525C65.6323 9.47576 63.3842 9.45424 61.1261 9.43178C58.8715 9.40929 56.6158 9.38574 54.3699 9.36159C52.1159 9.33741 49.8676 9.31257 47.6187 9.28713C45.3683 9.26167 43.1195 9.23561 40.869 9.209C39.5221 9.19307 38.1757 9.17684 36.8286 9.16048C36.1158 9.17517 35.4325 9.18956 34.7752 9.20321C29.9183 9.30407 26.4065 9.37682 21.7735 9.42692C21.3298 9.4345 20.9687 9.44531 20.5295 9.45835C20.4457 9.46084 20.3568 9.46333 20.2662 9.46598C19.6922 9.48277 19.033 9.50034 18.1159 9.51145C16.2865 9.53362 13.4825 9.5288 9.85897 9.38267C8.94364 9.34575 8.36119 9.17912 8.55848 9.01035C8.69716 8.89196 9.18331 8.804 9.77658 8.77474C8.6805 8.75466 7.58737 8.73366 6.49706 8.71279C6.06187 8.70443 5.6533 8.6656 5.36296 8.60384C5.0728 8.54207 4.92433 8.46272 4.94939 8.38228C4.97446 8.30181 5.17198 8.22634 5.49867 8.1714C5.82525 8.11651 6.25374 8.08678 6.69093 8.08808C7.85072 8.09166 9.00658 8.09529 10.1627 8.09784C11.3198 8.10043 12.4714 8.10194 13.6264 8.10272C14.7811 8.10351 15.9354 8.10341 17.0933 8.10272C18.2467 8.102 19.4024 8.10084 20.5602 8.09906C21.7254 8.09732 22.8685 8.09488 24.0304 8.09234C24.7265 8.09079 25.4309 8.08925 26.1225 8.08746C26.3802 8.08684 26.6317 8.086 26.8834 8.08532C27.0891 8.08477 27.2958 8.08432 27.5086 8.0838C29.7472 8.07766 32.0072 8.0708 34.2469 8.06334C36.4973 8.05593 38.7454 8.04809 40.9934 8.03984C43.2426 8.0316 45.4899 8.02281 47.7382 8.0139C49.9854 8.00497 52.2313 7.99575 54.4814 7.98612C56.7232 7.97646 58.9742 7.96658 61.2198 7.95591C62.9567 7.94765 64.679 7.93879 66.404 7.92935C67.0831 7.91321 67.7552 7.89795 68.4185 7.88327C70.3494 7.84052 72.2829 7.78442 74.1876 7.72884C70.7975 7.75648 68.0742 7.79964 65.4815 7.84085C65.1339 7.84637 64.7886 7.85192 64.4444 7.85733C60.9302 7.91254 57.5354 7.95927 52.9693 7.94889C39.9828 7.91938 32.4527 7.89784 27.7606 7.85765C23.0694 7.81747 21.0537 7.75789 19.1725 7.63945C16.5143 7.47208 11.3838 7.37688 8.80565 7.37334C7.86912 7.37205 7.11318 7.23085 7.11742 7.05808C7.12195 6.88527 7.8851 6.74612 8.8218 6.7474C11.5441 6.75113 17.0958 6.8479 20.2597 7.04709C21.6689 7.13582 23.2894 7.19306 27.9092 7.23264C32.5295 7.27221 39.9901 7.29339 53.0016 7.32296C57.4034 7.33296 60.6704 7.28846 64.1471 7.23384C64.488 7.22848 64.8314 7.22287 65.1778 7.21736C65.18 7.21736 65.1821 7.21736 65.1843 7.21736C68.3779 7.16658 71.8553 7.11123 76.5446 7.08673C87.3529 7.03026 101.892 6.9208 105.343 6.85905C106.02 6.84693 106.675 6.83332 107.366 6.81907C110.016 6.76437 113.217 6.69839 120.429 6.65457C122.006 6.64498 123.854 6.63942 125.87 6.63686C128.895 6.55264 131.833 6.47452 134.387 6.42811C136.591 6.38807 138.624 6.31441 140.594 6.23371C141.161 6.21047 141.732 6.18618 142.301 6.16199C143.676 6.10365 145.051 6.04534 146.39 6.00024C147.458 5.96429 148.577 5.92109 149.759 5.87542C154.064 5.70903 159.224 5.50966 165.948 5.50705C173.075 5.50428 179.178 5.54026 184.441 5.5754C180.576 5.53475 177.592 5.48605 175.106 5.44265C174.637 5.43447 174.188 5.42651 173.756 5.41885C170.701 5.3647 168.48 5.32534 166.1 5.32699C154.731 5.33491 150.467 5.38796 145.655 5.54124C144.388 5.5816 142.991 5.63536 141.486 5.69323C138.477 5.80888 135.035 5.9411 131.337 6.01673C127.892 6.08716 124.04 6.19113 119.959 6.30116C119.957 6.30116 119.955 6.30116 119.954 6.30116C119.156 6.32267 118.349 6.3444 117.535 6.36617C112.573 6.49893 107.353 6.63242 102.272 6.71653C101.728 6.72553 101.077 6.73793 100.33 6.75224C96.0161 6.83482 88.4426 6.97979 79.1941 6.88683C77.1628 6.86641 75.0519 6.82315 72.6431 6.77362C71.9095 6.75853 71.1477 6.74267 70.3523 6.72692C66.9188 6.65892 62.747 6.58668 57.1923 6.54321C52.608 6.50733 47.021 6.49013 41.2196 6.47211C38.3619 6.46323 35.4522 6.45401 32.5846 6.44251C23.9225 6.40779 15.9833 6.35271 8.05928 6.29756C8.05766 6.29756 8.05604 6.29756 8.05443 6.29756C7.1183 6.29105 6.38501 6.14554 6.4179 5.97285C6.45114 5.80024 7.23666 5.66547 8.17236 5.67193C16.1011 5.72712 24.016 5.78228 32.6492 5.81688C35.4732 5.8282 38.3601 5.83733 41.2066 5.84618C47.0363 5.8643 52.701 5.88168 57.328 5.91789C62.9772 5.9621 67.2253 6.03572 70.7061 6.10465C71.5445 6.12126 72.3327 6.13749 73.081 6.15287C75.4631 6.20183 77.4434 6.24275 79.3702 6.26212C88.3251 6.35213 95.6123 6.21292 99.9423 6.13027C100.71 6.11561 101.385 6.10286 101.96 6.09334C106.942 6.01089 112.081 5.87959 117.039 5.74695C117.844 5.72543 118.644 5.70397 119.438 5.68256C119.44 5.68245 119.442 5.68235 119.443 5.68225C123.524 5.57223 127.446 5.4665 130.954 5.39476C134.515 5.32194 137.621 5.202 140.526 5.08988C142.085 5.02971 143.586 4.97201 145.069 4.92477C150.173 4.76215 154.673 4.7093 166.079 4.70136ZM11.4713 8.80495C13.7242 8.88338 15.5599 8.89991 16.9269 8.89468C15.7659 8.87686 14.6077 8.85817 13.4487 8.83883C12.789 8.82783 12.1301 8.81654 11.4713 8.80495ZM126.146 7.26219C125.781 7.27237 125.413 7.28266 125.044 7.29301C126.063 7.28811 127.082 7.28355 128.099 7.27897C129.348 7.27335 130.597 7.26805 131.846 7.26279C129.861 7.26074 127.937 7.26015 126.146 7.26219ZM165.964 6.13298C159.623 6.13545 154.885 6.31799 150.612 6.48273C149.381 6.53018 148.188 6.57606 147.007 6.6158C146.518 6.63227 146.029 6.65049 145.536 6.66981C148.407 6.67962 151.047 6.68993 153.208 6.6985C159.656 6.72408 163.326 6.77739 166.55 6.82423C167.483 6.83778 168.38 6.85073 169.295 6.86237C170.052 6.84137 170.838 6.82054 171.633 6.80225C172.745 6.7764 173.947 6.75161 175.092 6.73053C176.24 6.70932 177.407 6.69035 178.554 6.67437C179.71 6.65826 180.855 6.64481 181.995 6.63317C183.068 6.62217 184.137 6.61288 185.171 6.60387C185.23 6.60336 185.289 6.60286 185.349 6.60235C186.442 6.59276 187.506 6.58359 188.483 6.57091C189.478 6.55789 190.305 6.54254 191.039 6.51933C191.955 6.49044 192.895 6.4627 193.825 6.43693C194.756 6.41111 195.683 6.38708 196.607 6.3646C197.533 6.34208 198.45 6.32104 199.37 6.30112C199.667 6.29468 199.978 6.28806 200.273 6.2819C200.409 6.27905 200.545 6.27614 200.68 6.27335C198.881 6.2712 197.014 6.26783 195.084 6.26267C192.296 6.25522 189.319 6.23477 186.035 6.21232C180.434 6.17403 173.939 6.12989 165.964 6.13298ZM227.944 6.21749C227.162 6.21912 226.017 6.224 224.54 6.23031C224.191 6.2318 223.822 6.23357 223.436 6.23519C223.445 6.23534 223.455 6.23534 223.464 6.2355C224.42 6.25144 225.304 6.26534 226.257 6.27822C227.956 6.30106 229.607 6.32064 231.275 6.33742C232.949 6.35423 234.618 6.368 236.289 6.37893C237.963 6.38986 239.642 6.39771 241.306 6.40242C242.986 6.40711 244.642 6.40893 246.314 6.40669C246.846 6.40598 247.381 6.40486 247.915 6.40333C246.722 6.38758 245.484 6.37459 244.176 6.36092C243.132 6.34999 242.043 6.33856 240.897 6.32491C240.458 6.31968 239.928 6.31167 239.309 6.30232C236.856 6.26526 233.006 6.20695 227.944 6.21749ZM261.253 6.2309C261.64 6.22675 262.026 6.223 262.408 6.21991C263.493 6.21112 264.551 6.20609 265.589 6.20221C266.317 6.19951 267.037 6.19757 267.747 6.19549C268.046 6.19462 268.346 6.19366 268.642 6.19275C269.138 6.19123 269.631 6.18941 270.12 6.18756C266.689 6.16871 263.336 6.15426 259.841 6.14972C259.794 6.14966 259.748 6.14978 259.702 6.14972C260.231 6.17735 260.747 6.20442 261.253 6.2309Z" fill="white"/>
</g>
<defs>
<filter id="filter0_d_468_520" x="0.946777" y="0.701172" width="431.5" height="13" filterUnits="userSpaceOnUse" color-interpolation-filters="sRGB">
<feFlood flood-opacity="0" result="BackgroundImageFix"/>
<feColorMatrix in="SourceAlpha" type="matrix" values="0 0 0 0 0 0 0 0 0 0 0 0 0 0 0 0 0 0 127 0" result="hardAlpha"/>
<feOffset/>
<feGaussianBlur stdDeviation="2"/>
<feComposite in2="hardAlpha" operator="out"/>
<feColorMatrix type="matrix" values="0 0 0 0 1 0 0 0 0 1 0 0 0 0 1 0 0 0 0.96 0"/>
<feBlend mode="normal" in2="BackgroundImageFix" result="effect1_dropShadow_468_520"/>
<feBlend mode="normal" in="SourceGraphic" in2="effect1_dropShadow_468_520" result="shape"/>
</filter>
</defs>
</svg>
