<svg width="741" height="752" viewBox="0 0 741 752" fill="none" xmlns="http://www.w3.org/2000/svg">
<ellipse cx="87.5" cy="690" rx="87.5" ry="61.5" fill="#D9D9D9"/>
<path d="M174.5 267V692.5L147.5 651.5V267H174.5Z" fill="#D9D9D9"/>
<ellipse cx="370.5" cy="690" rx="87.5" ry="61.5" fill="#D9D9D9"/>
<path d="M457.5 267V692.5L430.5 651.5V267H457.5Z" fill="#D9D9D9"/>
<ellipse cx="653.5" cy="690" rx="87.5" ry="61.5" fill="#D9D9D9"/>
<path d="M740.5 267V692.5L713.5 651.5V267H740.5Z" fill="#D9D9D9"/>
<path d="M457.5 267H147.5V288H457.5V267Z" fill="#D9D9D9"/>
<path d="M741 267H431V288H741V267Z" fill="#D9D9D9"/>
<path d="M449.24 173.4C457.24 176.6 463 179.8 466.52 183C470.12 186.12 471.92 189.76 471.92 193.92C471.92 202.48 467.44 210.08 458.48 216.72C449.6 223.36 435.36 229.68 415.76 235.68L413.24 226.92C423.16 223.4 430.64 220.32 435.68 217.68C440.8 215.12 444.4 212.44 446.48 209.64C448.56 206.84 449.6 203.48 449.6 199.56C449.6 196.12 448.36 193.08 445.88 190.44C443.4 187.8 439.28 185.12 433.52 182.4V176.4C437.6 172.88 440.44 169.84 442.04 167.28C443.72 164.72 444.56 161.92 444.56 158.88C444.56 155.44 443.6 152.64 441.68 150.48C439.76 148.32 437.28 147.24 434.24 147.24C430.4 147.24 424.32 149.68 416 154.56L412.4 147.72L429.2 134.28C431.52 133.64 433.68 133.32 435.68 133.32C441.36 133.32 446.56 134.16 451.28 135.84C456.08 137.52 459.88 139.8 462.68 142.68C465.48 145.56 466.88 148.68 466.88 152.04C466.56 155.56 464.96 159 462.08 162.36C459.28 165.72 455 169.44 449.24 173.52V173.4Z" fill="#D9D9D9"/>
<path d="M380 116.009C363.5 146.509 355 241.009 355 241.009C355 241.009 380.5 139.009 389.5 125.009C398.5 111.009 424.5 104.009 441.5 104.009C458.5 104.009 483.5 111.009 493 125.009C502.5 139.009 533 235.009 533 235.009C533 235.009 516.5 140.509 505.5 116.009C494.5 91.5093 467 66.5094 441.5 66.0094C416 65.5094 396.5 85.5094 380 116.009Z" fill="#D9D9D9"/>
</svg>
