<svg width="261" height="485" viewBox="0 0 261 485" fill="none" xmlns="http://www.w3.org/2000/svg">
<ellipse cx="87.5" cy="423" rx="87.5" ry="61.5" fill="#D9D9D9"/>
<path d="M147.5 0H174.5C176.744 16.0568 180.79 22.9156 196 29C210.413 36.5521 223 41 232.5 52C239.5 61.5 248.5 75 248.5 98.5C249.833 119.186 228 149 227.5 154C227.935 156.842 229.335 158.829 230.5 159.5C231.665 160.171 235.649 161.198 239.5 160C244.228 158.14 247 154 248.5 152.5C250 151 253.5 140 258 142C262.5 144 260.5 155.5 259.5 158C258.5 160.5 253.96 169.982 246 175.5C236.579 177.28 231.317 176.8 222 172C214.947 168.31 212.136 165.102 208.5 158C207.005 149.114 208.684 144.057 213 135C214.816 129.441 221.269 119.739 224 110C227.14 98.8031 223.853 85.557 222 80.5C217.834 63.0859 195.564 51.3461 174.5 43V425.5L147.5 384.5V0Z" fill="#D9D9D9"/>
</svg>
